/* XPM */
static char *_f18eac3e14e4399cc11a294c08c31edaUmy5XcmyN6ZC0Sw[] = {
/* columns rows colors chars-per-pixel */
"32 32 5 1 ",
"  c #AB7377",
". c #3B063A",
"X c #714058",
"o c #8F5765",
"O c None",
/* pixels */
"OOOOOOOOOOOOOOOOOOOOOO..XXXooXoo",
"OOOOOOOOOOOOOOOOOOOOOO..XXoooooo",
"OOOOOOOOOOOOOOOOOOOOOO...ooooooo",
"OOOOOOOOOOOOOOOOOOOOOOO..ooooooo",
"OOOOOOOOOOOOOOOOOOOOOOO..ooooooo",
"OOOOOOOOOOOOOOOOOOOOOOO..Xoooooo",
"OOOOOOOOOOOOOOOOOOOOOOO...oooooX",
"OOOOOOOOOOOOOOOOOOOOOOOO..XoooXX",
"OOOOOOOOOOOOOOOOOOOOOOOO......XX",
"OOOOOOOOOOOOOOOOOOOOOOOOO.......",
"OOOOOOOOOOOOOOOOOOOOOOOOOOOOO...",
"OOOOOOOOOOOOOOOOOOOOOOOOOOOOOOOO",
"OOOOOOOOOOOOOOOOOOOOOOOOOOOOOOOO",
"OOOOOOOOOOOOOOOOOOOOOOOOOOOOOOOO",
"OOOOOOOOOOOOOOOOOOOOOOOOOOOOOOOO",
"OOOOOOOOOOOOOOOOOOOOOOOOOOOOOOOO",
"OOOOOOOOOOOOOOOOOOOOOOOOOOOOOOOO",
"OOOOOOOOOOOOOOOOOOOOOOOOOOOOOOOO",
"OOOOOOOOOOOOOOOOOOOOOOOOOOOOOOOO",
"OOOOOOOOOOOOOOOOOOOOOOOOOOOOOOOO",
"OOOOOOOOOOOOOOOOOOOOOOOOOOOOOOOO",
"OOOOOOOOOOOOOOOOOOOOOOOOOOOOOOOO",
"OOOOOOOOOOOOOOOOOOOOOOOOOOOOOOOO",
"OOOOOOOOOOOOOOOOOOOOOOOOOOOOOOOO",
"OOOOOOOOOOOOOOOOOOOOOOOOOOOOOOOO",
"OOOOOOOOOOOOOOOOOOOOOOOOOOOOOOOO",
"OOOOOOOOOOOOOOOOOOOOOOOOOOOOOOOO",
"OOOOOOOOOOOOOOOOOOOOOOOOOOOOOOOO",
"OOOOOOOOOOOOOOOOOOOOOOOOOOOOOOOO",
"OOOOOOOOOOOOOOOOOOOOOOOOOOOOOOOO",
"OOOOOOOOOOOOOOOOOOOOOOOOOOOOOOOO",
"OOOOOOOOOOOOOOOOOOOOOOOOOOOOOOOO"
};
