/* XPM */
static char *_fef7529a3464dd2f5e98736c3480b45bOqnkK7s2Cj9kQuQ[] = {
/* columns rows colors chars-per-pixel */
"32 32 63 1 ",
"  c black",
". c #430B3C",
"X c #4B0341",
"o c #572448",
"O c #5D264A",
"+ c #5E294E",
"@ c #6A3252",
"# c #6E3553",
"$ c #723E57",
"% c #773B59",
"& c #464646",
"* c #714058",
"= c #754158",
"- c #78435A",
"; c #7C445B",
": c #7D475C",
"> c #7D485B",
", c #7E485C",
"< c #990030",
"1 c #89017E",
"2 c #95007B",
"3 c #99017B",
"4 c #9A017C",
"5 c #AF0E74",
"6 c #A7057E",
"7 c #A9057F",
"8 c #A1296E",
"9 c #B12376",
"0 c #834B5E",
"q c #854B5F",
"w c #834C5F",
"e c #844D5F",
"r c #864E60",
"t c #894F61",
"y c #8D4C68",
"u c #974F68",
"i c #984E69",
"p c #865062",
"a c #895162",
"s c #8C5363",
"d c #8F5166",
"f c #8F5765",
"g c #905665",
"h c #925866",
"j c #955B68",
"k c #995F6A",
"l c #9B626D",
"z c #9C636D",
"x c #9E656E",
"c c #9F6670",
"v c #A36A71",
"b c #A56C73",
"n c #A66E74",
"m c #B5617B",
"M c #AB7277",
"N c #AC7377",
"B c #AD7478",
"V c #AE0780",
"C c #C20D84",
"Z c #C70E85",
"A c #CE1087",
"S c #D31188",
"D c #D71389",
/* pixels */
"*******ffffffffffffffffff**ff*ff",
"f*ffff*ffffffffffffffffff*ffffff",
"ffffffffffffffffff*ffffff*ffffff",
"fffffff*fffffffff*ffffff**ffffff",
"*fffffff**ffff****fffffff**fffff",
"ffffffff*ffffff**ffffffff*ffffff",
"fffffffffffffff    afffffffffff*",
"fffffffffffffa BBBBl efffffffff*",
"fffffffffffff B@ zxgg ;fffffffff",
"fffffffffffffa f; gfg0 yffffffff",
"*ffffff*f   fffff1X$e$M q ffffff",
"***fff*+ MB fd2222&%$0fg  ffffff",
"*fff** Bnf& 23DDDD <a0:gg  fffff",
"*fff*f BBj&22DDDDDD<g0:ggg fffff",
"****ff BB0 2DD77DDDDgp$gggtOfff*",
"ff*ff  Mh9 2D2AV4D urffggsg ***f",
"ffff&BBv$9 2SZ3D2 DnaBBBMgg **ff",
"ff*f&ggrg8522ZZ2C BBvx$aggfgo*ff",
"ff*f 0gggg D2226D xwr$gagfvg&*ff",
"f*** kg-rmD DDDDD $$r0gfgagg&f*f",
"**f  gBv0vBi DD<<<ggr$e=gg.  ff*",
"*f BBBgN0gfg <<ffff B $$g&BB ff*",
"ff gbBv0,gag  fffff b#*>f gg ff*",
"fffggg0$-  &ffffffff   *fffffff*",
"fff  g=$ cB&ffffffffffff*fffff**",
"fffff**f  h ffffff*fffff********",
"ffff****fffffff****ffffff**fff**",
"*fffff****fffffff**ffffffffffff*",
"ffffff**fffffffffff*ffffffffffff",
"ffffffffffffffffffff*fffffffffff",
"fffff*ffffffffffffff**ffffffffff",
"*fff***fffffffffffff*ffff*fffff*"
};
