/* XPM */
static char *result[] = {
/* columns rows colors chars-per-pixel */
"32 32 5 1 ",
"  c #3B063A",
". c #2C645E",
"X c #714058",
"o c #8F5765",
"O c #429058",
/* pixels */
"XXXXXXXooooooooooooooooooXXooXoo",
"oXooooXooooooooooooooooooXoooooo",
"ooooooooooooooooooXooooooXoooooo",
"oooooooXoooooooooXooooooXXoooooo",
"XoooooooXXooooXXXXoooooooXXooooo",
"ooooooooXooooooXXooooooooXoooooo",
"ooooooooooooooo    ooooooooooooX",
"oooooooooooooo     ooooooooooooX",
"ooooooooooooo   O  ooooooooooooo",
"oooooooooooo   OO  ooooooooooooo",
"XooooooXoooo  OOO  ooooooooooooo",
"XXXoooXXoooo  OO   ooooooooooooo",
"XoooXXXXXooo  .   oooooooooooooo",
"XoooXoooXooo     XoooooooXoooooo",
"XXXXoooooXoo    XXXXXXooooXooooX",
"ooXoooooooXoooXooooooXXoooXXXXXo",
"ooooooooooXXXoooooooooXooXXXXXoo",
"ooXoooooooXXooooooooooooooooXXoo",
"ooXoooooooXoooo     oooooooooXoo",
"oXXXoooooXoooo      ooooooooooXo",
"XXoooooooooooo  OO  oooooooooooX",
"Xooooooooooooo  OO  ooXooooooooX",
"oooooooooooooo      ooXooooooooX",
"oooooooooooooo     ooXXXoooooooX",
"ooooooXoooooooooooooooooXoooooXX",
"oooooXXoooooooooooXoooooXXXXXXXX",
"ooooXXXXoooooooXXXXooooooXXoooXX",
"XoooooXXXXoooooooXXooooooooooooX",
"ooooooXXoooooooooooXoooooooooooo",
"ooooooooooooooooooooXooooooooooo",
"oooooXooooooooooooooXXoooooooooo",
"XoooXXXoooooooooooooXooooXoooooX"
};
