/* XPM */
static char *result[] = {
/* columns rows colors chars-per-pixel */
"32 32 3 1 ",
"  c #714058",
". c #8F5765",
"X c #AB7377",
/* pixels */
"       ..................  .. ..",
". .... .................. ......",
".................. ...... ......",
"....... ......... ......  ......",
" .......  ....    .......  .....",
"........ ......  ........ ......",
"................ .............. ",
"...............XX.............. ",
"..............XX................",
".............XXXXXX.............",
" ...... ....XXXXXXXX............",
"   ...  .....XXXXXX.............",
" ...     .....XXXX..............",
" ... ... ...X...  ....... ......",
"    ..... ......      .... .... ",
".. ....... ... ......  ...     .",
"..........   ..X...... ..     ..",
".. .......  ..XXX...........  ..",
".. ....... ...XX............. ..",
".   ..... ..X................. .",
"  ..........XX................. ",
" ..................... ........ ",
"...................... ........ ",
".....................   ....... ",
"...... ................. .....  ",
".....  ........... .....        ",
"....    .......    ......  ...  ",
" .....    .......  ............ ",
"......  ........... ............",
".................... ...........",
"..... ..............  ..........",
" ...   ............. .... ..... "
};
