/* XPM */
static char *a49560382eff4a03b96710b0175fe2bbNa3tMclaQSY4okM4[] = {
/* columns rows colors chars-per-pixel */
"32 32 5 1 ",
"  c #AB7377",
". c #3B063A",
"X c #714058",
"o c #8F5765",
"O c None",
/* pixels */
"XXooooXoooooooooooXooooooXXooXoo",
"ooooooXXoooooooooooooooooXoooooo",
"oooooooXooooooooooXXoooooXoooooo",
"oooooooooooooooooXXooXooXooooooo",
"XoooooooXXXooXXXXXXooooXoooooooo",
"ooooooooXoooooXoXooXXooXoooooooo",
"ooooooooXooooooooooXXXXXoooooooX",
"oooooooo.XooXXoXoooX..XXXooooooX",
"ooooooXX.....XXXoo......XXXXoooo",
"oooooXoX................XXoooooo",
"XoooXooX..OO.......OOO..Xooooooo",
"XXXoXoXX..OOOOOOOOOOOO..Xooooooo",
"XoooXXX...OOOOOOOOOOOO...ooooooo",
"XoooXoo...OOOOOOOOOOOO...ooooooo",
"ooXXoooo..OOOOOOOOOOO...XXoooooX",
"oooooooo..OOOOOOOOOOO..ooXXXXXoo",
"oooooooo..OOOOOOOOOOO..oooXXXXoo",
"oooooooo..OOOOOOOOOOO..XooXXXXoo",
"ooXooooo..OOOOOOOOOOO...XooooXoo",
"oXooooo...OOOOOOOOOOO...ooooooXo",
"XooXXX...OOOOOOOOOOOO..ooooooooX",
"ooooXo..OOOOOOOOOOOOO..ooooooooX",
"oooooo..OOOOOOOOOOOOO..ooooooooX",
"oooooX..OO.....OOOOO....oooooooX",
"oooooo..O.......O.....XXXoooooXX",
"oooooX.....XXX........XXXXXXXXXX",
"ooooXXX...XXXXX...XoooXXoXXoooXX",
"XoooooXXXXXooooooXXooooXoooooooX",
"ooooooXXoooooooooooXoooXoooooooo",
"ooooooooooooooooooooXXXooooooooo",
"oooooXooooooooooooooXXoooooooooo",
"XoooXXXoooooooooooooXooooXoooooX"
};
