/* XPM */
static char *d81edefe2a0147e78ed88ccc695eca264IS7FH1Z53KcXd0o[] = {
/* columns rows colors chars-per-pixel */
"32 32 4 1 ",
"  c #714058",
". c #3B063A",
"X c #8F5765",
"o c None",
/* pixels */
"oooooooooooooooooooooo..   XX XX",
"oooooooooooooooooooooo... XXXXXX",
"ooooooooooooooooooooo.... XXXXXX",
"ooooooooooooooooooooo.. XXXXXXXX",
"ooooooooooooooooooooo..XXXXXXXXX",
"ooooooooooooooooooooo..XXXXX XXX",
"ooooooooooooooooooooo..XXXXX    ",
"ooooooooooooooooooooo.. XXX     ",
"ooooooooooooooooooooo..     XXXX",
"ooooooooooooooooooooo..   XXXXXX",
"ooooooooooooooooooooo... XXXXXXX",
"oooooooooooooooooooooo.. XXXXXXX",
"oooooooooooooooooooooo...XXXXXXX",
"oooooooooooooooooooooo...XXXXXXX",
"ooooooooooooooooooooo...  XXXXX ",
"ooooooooooooooooooooo..XX     XX",
"ooooooooooooooooooooo..XXX    XX",
"ooooooooooooooooooooo.. XX    XX",
"ooooooooooooooooooooo... XXXX XX",
"ooooooooooooooooooooo...XXXXXX X",
"ooooooooooooooooooooo..XXXXXXXX ",
"ooooooooooooooooooooo..XXXXXXXX ",
"ooooooooooooooooooooo..XXXXXXXX ",
"ooooooooooooooooooooo...XXXXXXX ",
"oooooooooooooooooooooo.. XXXXX  ",
"oooooooooooooooooooooo..XX      ",
"oooooooooooooooooooooo..XX XXX  ",
"oooooooooooooooooooooo..  XXXXX ",
"oooooooooooooooooooooo...XXXXXXX",
"ooooooooooooooooooooooo..XXXXXXX",
"oooooooooooooooooooooo...XXXXXXX",
"oooooooooooooooooooooo..  XXXXX "
};
