/* XPM */
static char *_472e090f333467cb3c2b3ce6d2e636eQtSojoeEqCP8U75m[] = {
/* columns rows colors chars-per-pixel */
"32 32 4 1 ",
"  c #714058",
". c #3B063A",
"X c #8F5765",
"o c None",
/* pixels */
"  XX   ..ooooooooooooooooooooooo",
"XXXX  ...ooooooooooooooooooooooo",
"XXXXX ..oooooooooooooooooooooooo",
"XXXXXX...ooooooooooooooooooooooo",
" XXXXXX..ooooooooooooooooooooooo",
"XXXXXXX..ooooooooooooooooooooooo",
"XXXXXXX..ooooooooooooooooooooooo",
"XXXXXX ...oooooooooooooooooooooo",
"XXXXXX  ..oooooooooooooooooooooo",
"XXXXX X ..oooooooooooooooooooooo",
" XXX XX ..oooooooooooooooooooooo",
"   X X  ..oooooooooooooooooooooo",
" XXX   ...oooooooooooooooooooooo",
" XXX XX...oooooooooooooooooooooo",
"XX  XXXX..oooooooooooooooooooooo",
"XXXXXXXX..oooooooooooooooooooooo",
"XXXXXXXX..oooooooooooooooooooooo",
"XXXXXXXX..oooooooooooooooooooooo",
"XX XXXXX..oooooooooooooooooooooo",
"X XXXXX...oooooooooooooooooooooo",
" XX    ..ooooooooooooooooooooooo",
"XXXX XX...oooooooooooooooooooooo",
"XXXXXXXX..oooooooooooooooooooooo",
"XXXXX XX..oooooooooooooooooooooo",
"XXXXX  ...oooooooooooooooooooooo",
"XXXX   ..ooooooooooooooooooooooo",
"XXXXXX ..ooooooooooooooooooooooo",
" XXXXXX..ooooooooooooooooooooooo",
"XXXXXXX..ooooooooooooooooooooooo",
"XXXXXXX..ooooooooooooooooooooooo",
"XXXXXX...ooooooooooooooooooooooo",
" XXX   ..ooooooooooooooooooooooo"
};
