/* XPM */
static char *_c1ae1f92e1647018f2560675708e334z6H2LjskqmBfqBKG[] = {
/* columns rows colors chars-per-pixel */
"32 32 4 1 ",
"  c #714058",
". c #3B063A",
"X c #8F5765",
"o c None",
/* pixels */
"  XXXX XXXXXXXXXXX XXXXXX  XX XX",
"XXXXXX XXXXXXXXXXXXXXXXXX XXXXXX",
"XXXXXXXXXXXXXXXXXX  XXXXX XXXXXX",
"XXXXXXX XXXXXXXXX  XX XX  XXXXXX",
" XXXXXXX   XX      XXXX    XXXXX",
" XXXXXXX XXXXX X XX  XX XX XXXX ",
" XXXXXXX XXXXXXXXXX     XX XXX  ",
"  XXXXX.. XX  X XXX ..  ...XXX  ",
" ..XX........   XX............  ",
".........................o......",
"......oooooo.......oooooooooo...",
"oooooooooooooooooooooooooooooooo",
"oooooooooooooooooooooooooooooooo",
"oooooooooooooooooooooooooooooooo",
"oooooooooooooooooooooooooooooooo",
"oooooooooooooooooooooooooooooooo",
"oooooooooooooooooooooooooooooooo",
"oooooooooooooooooooooooooooooooo",
"oooooooooooooooooooooooooooooooo",
"oooooooooooooooooooooooooooooooo",
"oooooooooooooooooooooooooooooooo",
"oooooooooooooooooooooooooooooooo",
"oooooooooooooooooooooooooooooooo",
"oooooooooooooooooooooooooooooooo",
"oooooooooooooooooooooooooooooooo",
"oooooooooooooooooooooooooooooooo",
"oooooooooooooooooooooooooooooooo",
"oooooooooooooooooooooooooooooooo",
"oooooooooooooooooooooooooooooooo",
"oooooooooooooooooooooooooooooooo",
"oooooooooooooooooooooooooooooooo",
"oooooooooooooooooooooooooooooooo"
};
