/* XPM */
static char *result[] = {
/* columns rows colors chars-per-pixel */
"32 32 6 1 ",
"  c #3B063A",
". c #2C645E",
"X c #714058",
"o c #8F5765",
"O c #AB7377",
"+ c #429058",
/* pixels */
"XXXXXXXooooooooooooooooooXXooXoo",
"oXooooXo    ooooooooooo    ooooo",
"ooooooo      oooooXooo      oooo",
"oooooo   OO   oooXoooo  OO   ooo",
"Xoooo   OOOO   XXXoooo  OOX  ooo",
"oooo   OOOOOO   Xooooo  ooX  ooo",
"ooo   OOOOOOOO  Xooooo  oo   ooX",
"oo   OOOOOOOOO  oooooo      oooX",
"o   OOOOOOOOOO   oooooo    ooooo",
"o  OOOOOOOOOOOo  ooooooooooooooo",
"X  OOOOOOOOOooo  o      oooooooo",
"X  XOOOOOoooo           oooooooo",
"X  XXXooooooo      OOO  oooooooo",
"X  XXXooooooo  OOOOOOO   Xoooooo",
"XXXXXXoooXooo  OOOOOOOO  oXooooX",
"ooXoooooooXoo  XOOOOOOO  oXXXXXo",
"ooooooooooXXX  XOOOo      XXXXoo",
"ooXoooooooXXo  Xooo        oXXoo",
"ooXoooo     oooooo   OOOO  ooXoo",
"oXXXoo      ooooo   OOOOO   ooXo",
"XXooo   ++  oooo   OOOOOo    ooX",
"X      ++.  ooo   OOOOOoOOO   oX",
"o     .++   oo   OOOOOOOOOOo  oX",
"o  +  +++  ooo  XOOOOOOOOOOo  oX",
"o  ++ +++    o  XOOOOOOOOOOX  XX",
"o  ++ +++    o  XXOOOOOOOoXX  XX",
"o  .+++++ +  o  XXoooooooXX   XX",
"Xo  +++++++  o   OOOoooooX   ooX",
"oo  +++++++  oo  oOOOooo    oooo",
"oo  + ++++  ooo            ooooo",
"ooooo ++.+  oooo         ooooooo",
"XoooXXXoooooooooooooXooooXoooooX"
};
