/* XPM */
static char *result[] = {
/* columns rows colors chars-per-pixel */
"32 32 6 1 ",
"  c #3B063A",
". c #2C645E",
"X c #714058",
"o c #8F5765",
"O c #AB7377",
"+ c #429058",
/* pixels */
"XXXXXXXooooooooooooooooooXXooXoo",
"oXooooXoo       ooooo     oooooo",
"oooooooo          X        ooooo",
"ooooooo   OOOOO       ooo   oooo",
"Xooooo   OOOOOOOO   oooooo  oooo",
"oooooo  OOOOOOOOOOOooooooo  oooo",
"oooooo  OOOOOOOOOOOOOooooo  oooX",
"ooooo   OOOOOOOOOOOOOOOooX  oooX",
"oooo    XOOOOOOoOOOOOOOOOX  oooo",
"ooo   OOOOOOOOOooOOOOOOOOO   ooo",
"Xo   OOOOOOOOOooOOOOOOOOOOO  ooo",
"XX  OOOOOOOOOOOoOOOOOOOOOOO  ooo",
"Xo  OOOOOOOOOOOOOOOOOOOOOOO  ooo",
"Xo  OOOOOOOOOOOOOOOOOOOOOOO  ooo",
"XX  XOOOOOOOOOoOOOOOOOOOOOX   oX",
"oo  XXoooOOOOOoOOOOOOOOXoOOO  Xo",
"oo  XXooooooooooOOOOOOOXOOOO  oo",
"oo  XXoooooooooooooOOOOXOOOO  oo",
"oo  XXoooooooooooooooooXOOOX  oo",
"oXXXoXoooooooooooooooooXoooX  Xo",
"XXoo     oo       ooooo     oooX",
"Xo                 oooo      ooX",
"o    ooo    OOOOO   ooX  ++   oX",
"o  ooooOOOOOOOOOOO   XX   ++    ",
"o  oooOOOOOOOOOOOOO  o    ++    ",
"o  XXXOOOOOOOOOOOOO  o  + ++++  ",
"o  XXXOOOOOOOOOOOOO     +.+++   ",
"Xooo  XOOOOOOOOOooo    oo.++   X",
"oooo  XXOOOOooooooOOO  ooooooooo",
"oooo  XXoooooooooOOOX  ooooooooo",
"oooooXoXoooooooo oooX  ooooooooo",
"XoooXXXoooooooo  oooXooooXoooooX"
};
