/* XPM */
static char *result[] = {
/* columns rows colors chars-per-pixel */
"64 64 86 1 ",
"  c #360137",
". c #370338",
"X c #380339",
"o c #3E093C",
"O c #42073A",
"+ c #4C073B",
"@ c #420D3E",
"# c #4F0C3D",
"$ c #53073A",
"% c #560A3B",
"& c #5C0B3B",
"* c #610C3A",
"= c #710C3C",
"- c #461240",
"; c #4A1442",
": c #4E1944",
"> c #511B46",
", c #541F48",
"< c #661C46",
"1 c #562049",
"2 c #59254A",
"3 c #5F284C",
"4 c #602A4D",
"5 c #61304F",
"6 c #643251",
"7 c #693553",
"8 c #6F3E57",
"9 c #7D3754",
"0 c #703F57",
"q c #713F58",
"w c #74435A",
"e c #7A445B",
"r c #7D495D",
"t c #7F4D60",
"y c #8E0F3D",
"u c #9A073A",
"i c #9B0B3C",
"p c #93143B",
"a c #A50F3C",
"s c #A90E3B",
"d c #A5153C",
"f c #AB103D",
"g c #B5143D",
"h c #BA153C",
"j c #B2193C",
"k c #C4193C",
"l c #CB1B3C",
"z c #D51E3C",
"x c #DA1F3C",
"c c #891140",
"v c #811A45",
"b c #9C1341",
"n c #9D1F47",
"m c #9B1F48",
"M c #BC1C40",
"N c #9E244A",
"B c #A82247",
"V c #A72348",
"C c #A33A57",
"Z c #814C5F",
"A c #94485F",
"S c #A3475F",
"D c #A6485F",
"F c #844E60",
"G c #9A4E61",
"H c #875162",
"J c #8E5665",
"K c #8F5866",
"L c #905765",
"P c #915866",
"I c #945C69",
"U c #985F6A",
"Y c #A65B69",
"T c #A85B69",
"R c #97616C",
"E c #9B646E",
"W c #9E6870",
"Q c #A7616D",
"! c #A9626E",
"~ c #A46C73",
"^ c #AB6F75",
"/ c #A77176",
"( c #AB7377",
") c #AD7578",
"_ c #AF787A",
"` c #B0787A",
/* pixels */
"qww8ww8ww8ww8wHJPJPJPJPJLJPJPJPJPJPJPPJLJPJJPJPJLHewwwHPPFwwFLLL",
"ewwwwewwwwewwwHKJLJLJLJJJPJLJLJLPJJLJJPJJPPJPJJJLHewwrHLLJrrJLLL",
"HHwwZHJHHHJrwwHPPJJPPJLPJPPJPJLJJLJJJJJPJJJJJJPPPHewFJJLLJFJJJLL",
"KJeeJJJPKPJJrrJPJJPJJKLJLJJPJLJLPJPJHJJJPJPPPJJLLFeeFPJLLLPLJLJL",
"KJJHJJLJJLPJJJJJJJPLLJLJJPJPJJLJLPPHrrHLJPJJJPJPPHeeHPLLJPJLLJPJ",
"JKLLLJPJPLJJJJHHJJLJJPJPPJPJJPJJLPHFrrHLJPPJPJPJHZwwHPLLLJPJJLJL",
"JJJJJLJLJLJLPHrrJJLLPJPJJPJLLLLJPHrrFJLLJJPJJJPHZwwwJJLLJPJPPJPJ",
"HJJJPJPJPJLLLHrrZJHHJKJJLJJJJHJHHFweHPPLPPJPJPPHrwwwZJJJJJJPJLJP",
"wZHJPJPJJPPJLJHHeeetHKJPLLKHtewtrewrHPPIPPLLJPJJJrwwerHLPJJPJLJP",
"eZHJJPJJLJJLJPPHewweJPKJLPPF85665557wrweeZHLPJPPPHewwrHLJPLJPJLJ",
"HHJPJPJPJJPJLLPHewFHJJKKLKKr1-;;:@#:::::#5ZLPJJPJHewrJJLLJPPPPLL",
"PPJJPJPJPJJPLLPHrrHLKJJKLJF7;.XXXXXXXXXXX#ePPPJPPHrrHPPJJPJJJJHH",
"JJJPPJPPPJPJJLJJHHLLLJLLKZ4-oX.X..X..XXXX:ePPPPJJJJHJJPPJJJPLHre",
"JPJJJPJJJPJJPJJKLLIJJLLJF7;XXO+%&&***#@XX:ePPJJJJPJJJJJJPLPJLHww",
"JPPJPJJPPJJPJJPJJKLJLLLZ4;OXX+=ynjjjjp&XX:eKPJJPJPJPJPJPLJLJPHww",
"JJJPJJPJPJPJPPJPLJLLJJZ7;XXX.+yMzzzxxj*XX,rKPPPJJJPJLPJJJPLPPHrw",
"PJPJJJLPJPJJPJJLJLJLPZ4#o.X..:dzzzzzxj&X.,rPPPJPPJPJLLLJLJPJPJHH",
"JPLLPJPJJPPJPPLLLLLAZ7@X.o;:$=gxzzzzld&X.#7FHPPPPPPPLJJLJLJLJLPP",
"LJJJLJJJJJPPPJPLPLPZ5@oX.;79vikzzzzlhy$XXo@5FRPPPPPPJJLLLJLJJPLJ",
"HJJLLJPLPJPHZeeeZeZ7#XX@:6HGVblxzzlhdy<:oXX#7wreweeZJLLLJPJPJJLL",
"wrJPLJJPJPPZ5::>:::;oX.:tU~YNslxzlgaiNAe:XXo@,,:>>:5rLLLJPJPPJLJ",
"wwZJHJJJJPPe@XXXX.XXoo:7R)!SnahlkMVNNCQE8@oX.X..XXX>eLPLJJLJJPJP",
"wwwweZHLRPPe,XXXXXX X:eR/QCnbibsaVDYTQ//Rr,XoX  XXX#ePPLPJJLJJLJ",
"8wwwweJLHHHw:XXo:111:6R__YViibmNNCQ)_)()_R5@#1##@XX>wPPLJPPJPPJP",
"wwZHHJLHZww7@oX:eIIHFF~)_YNubmSYYQ~))(())Ee7weZ7@XX>rPPJLJJPJPJP",
"8wHPPPPHewe7:XX2I`_/UIU~/!CNNCY__))(())/~RrwJPLe,XX:wPPPJPLJLJJJ",
"wwHPPLPJwwFw#X.1I`_~UHFH~^!TYQ/)))()(_)~EJrwHPUZ,XX:wIPPPJPLLPPL",
"wwFHHHHFrZJe:..1K__~UFwtIWW~/))/)/(/~~~WRHwwHPPe:XX#wJPPLJJPLJHH",
"wwwwwrewFJLe#o.1K))~IHwwtttJW_))(((/EIIIPHeeHPPe:XX@6rJPPPPPPHre",
"wwewwwwrHPLe#X.1K`)~UHe8888eRW/)((~QIJJLPHewHPPe:XX:5wrHHHHHHFre",
"HHHZwwZJPPPe1XX1I))~UHeq8qqwtJW_)/EIPJJLPHrwHPPr,XX@5wwwerwwerrH",
"PPPJrrHPPPPe:X.,F~~~IHeqqqqq8wIW~EIJJJLLPJwwJPPw:XX:5wwwwwwwwrJP",
"JLJJJHJJLPLe:XX:wHPPItww7w7wwwrHPIPKJPJLKHweHKPe: X;5w0ww88wZHJK",
"JJJJHJJJJLPe,XX@wHPRRHwwwwwwwwwwHKLJLJJLKHeeJPPe> X;7eeww8wwJKPK",
"LJLJrrJJLPPr:..,rW~~/Rtw8w6ww6wwHPJPJPPLKJewHKPe>XX>qJHZww8rHLLJ",
"LLLHewHLLPPw:..1K))(_WHrw8wwwwwwHPLJLJJJHtwwrJJw:  :eIPJrw8wJLPJ",
"JLPJweHJLPPe,..1P__((/~IwwwwwwwwHPJJJJLHewwwwee7;XX:ePPLJZwwHJJJ",
"PJJZwwZJJJPe#X.1K_(((__Wttw87w7wHJLJIRRPHttrtrF8:  :ePLLJJrrZJJP",
"JJrwwwwrJPPe:XX1P)_///_/WIwwwwwrHLJRQ~~~WEWEEWWF, X:eLPLJJJZrrJJ",
"HrwwweerHPIe: X1P(_(_//__WtwrewwHPPR/))(())))_`I1  ,eILLJLLHrrZH",
"ewwwZHHHJPPe#X 1P_)((((((~PJRPrwHI~~((((()())))P1  >ePPJLJLJJFrw",
"wwwrHPPPJPPe>XX1K_)((((((~RR~~HFPE/(((((((((())P1  >ePPLJLLLJHww",
"wwrJJLPLPPPe:X 1K_(((((((~RR~(WW~//(((((((((()`P,X >eIPJLJLLJHrw",
"wrHKLJLLPPPe:XX1P_)(((()(~PP~)))(((((((((((()))P,X :eLLLJLLJLHw8",
"HHJPLJLJJPPe#  1L)((((())EFF~))(((((()(((((())(L,XX>eIPLPJLJLHww",
"PLLJJPJPJPPe,  1J//~~~~~~RrrR~~~~~~~~~~~~~~~~^^H,X :ePPLJPJLLJw8",
"PLJLJJPJPPRe,.X1ZRRIIRRRRJweJIRIUIUIUIUIUIUIIURZ>XX>ePPLLJJJPHrw",
"JLPJPPJLJJPw:.X#ePJJJJJJPHrwHJJJLJJJLJJJLJJJJPPe>  >ePPJLPJJJrw8",
"PJPJLJPJPPIe#XX#wPPKPJPJJHeeHPPPJJPJPJJJJJLLPPPe:XX>ePPPPLRHrwww",
"JLJLJPJKLJHw,XX,rPPPPPPPPHewHPPPPPPJPPPPPPPPPPIw> X#wHHHHHHFwwww",
"PJPJLJLPPJr7@X.,rPPIPPPPPHreHPPPPPPPPPRPPPPPPPRw:XX;7reweeewww8w",
"JLJPJPJLHFw72oo@7eeweeeeew76wwreeeeeeewweeeeeeew;X@16wwreeew88w8",
"PLJJLJPHrwwww2oo:>:>:::##:#:@,::#>::>:::#::::::@o@25wwZHHHHFwwww",
"HHJLJPPHrwwew52@@oo:#::#:::#:::##:@@@##,#::::#:#:20eerJLPPPHwww8",
"erHLLJPJHHHtww755557weeewweeewwwwww557weewwweewwerZJHJJLPPPJHFww",
"wrJLJPJJPPPtwwwwrwrtJPPPRPPPKPRPKJtwwrZJPPPRPPPPPPPLLLJJPPJPPHww",
"HHJJJPPJPPPHwwwwZJHJJJPPPPPPPPPPKPJFJFrrJLPPPPPPPPPJJLLLJJJPJJHH",
"PLJPPJJLPJPJrewrJLPJPJPJJPJJJJJPPPPPJHrrZJJLLLJLHLJPPLLLJPPJPJPP",
"LLJJJLPJJJPPHHHHJLLJJJPPJJJPPJPJHPPJPJHFrZHJLLLJPPLJJPLLPJPPPJPJ",
"LLPJPJJLPJHHPPPPJJPPPJJJJPPJPJJLPKPJPPPHwwZJJJJLPPJPJJLJJPJJJJPJ",
"LPLLLJPLLJrwHPPPJJPLJPJJPJPJJJPJPJPJJPPHwwwrJLLLPJPJLLJPJJLLPJLL",
"HHJJJLJJHrwwHHJPPJJJJJPPJPPJPJJPJLJLPJPHrwwrFLLLJJJFJPLJPPJJJJJH",
"erHJLLLJrwwwwZHPJPJPPJJJJJJPJLJLPJPJLJPHwwrJJPLJPHrrHPJLJPLLPHew",
"weHPLLLHwwwwwwFPJPJJPJPJPPJJPJPJPJJPJLPHwrFPLLLPPHwwFLPJPJLPPFew"
};
