/* XPM */
static char *c0e18d04595a4628d40816071da69248SFm5h1ctgAnFhgrH[] = {
/* columns rows colors chars-per-pixel */
"64 64 209 2 ",
"   c #010201",
".  c #060903",
"X  c #090B05",
"o  c #050609",
"O  c #09060A",
"+  c #060A0A",
"@  c #0B0C0B",
"#  c #100E0F",
"$  c #0A1104",
"%  c #0E110B",
"&  c #12140D",
"*  c #181B0D",
"=  c #161A0E",
"-  c #0D0D11",
";  c #0F1111",
":  c #131413",
">  c #171914",
",  c #191C14",
"<  c #1B1C1B",
"1  c #17171A",
"2  c #1C2214",
"3  c #1E211A",
"4  c #22251C",
"5  c #25291D",
"6  c #292B1E",
"7  c #212517",
"8  c #1E1F21",
"9  c #242524",
"0  c #262921",
"q  c #292B25",
"w  c #27282B",
"e  c #2D2D2C",
"r  c #292629",
"t  c #2C3224",
"y  c #2E312A",
"u  c #32352C",
"i  c #363B2D",
"p  c #353D2B",
"a  c #343433",
"s  c #373B32",
"d  c #393C33",
"f  c #3B3C3B",
"g  c #363638",
"h  c #37422E",
"j  c #3C402B",
"k  c #3C4334",
"l  c #3E4A34",
"z  c #3E4239",
"x  c #4A4F2F",
"c  c #414535",
"v  c #444A35",
"b  c #42453B",
"n  c #444A3B",
"m  c #494D3F",
"M  c #47513C",
"N  c #434343",
"B  c #464941",
"V  c #4A4D43",
"C  c #4C4D4B",
"Z  c #474849",
"A  c #4C5243",
"S  c #4E524A",
"D  c #535647",
"F  c #525A45",
"G  c #52554B",
"H  c #545B4B",
"J  c #585E4E",
"K  c #4E4E50",
"L  c #545453",
"P  c #5A5D53",
"I  c #555659",
"U  c #5B5C5A",
"Y  c #585856",
"T  c #56624D",
"R  c #5B634E",
"E  c #5D6353",
"W  c #5F6A56",
"Q  c #5D6059",
"!  c #616556",
"~  c #626B55",
"^  c #62635C",
"/  c #656B5A",
"(  c #686D5D",
")  c #6D7656",
"_  c #67715C",
"`  c #6A735D",
"'  c #647251",
"]  c #70765A",
"[  c #575761",
"{  c #636362",
"}  c #676D61",
"|  c #696C62",
" . c #6A6B6A",
".. c #6D7462",
"X. c #6E7A64",
"o. c #6E7369",
"O. c #6E7968",
"+. c #727665",
"@. c #727B65",
"#. c #72756C",
"$. c #757B6B",
"%. c #797D6E",
"&. c #787D67",
"*. c #747474",
"=. c #767A71",
"-. c #7B7D72",
";. c #7C7C7C",
":. c #72805F",
">. c #748064",
",. c #77816C",
"<. c #7B836D",
"1. c #7C8373",
"2. c #818575",
"3. c #838B75",
"4. c #83867A",
"5. c #858C7B",
"6. c #888E7F",
"7. c #86927C",
"8. c #8C937F",
"9. c #849177",
"0. c #838283",
"q. c #8B8B8C",
"w. c #868885",
"e. c #8C9286",
"r. c #919587",
"t. c #939B83",
"y. c #92948C",
"u. c #959D8B",
"i. c #8E8E92",
"p. c #929293",
"a. c #9B9B9C",
"s. c #9A9C97",
"d. c #95A185",
"f. c #9BA48B",
"g. c #9FA98B",
"h. c #98A287",
"j. c #9DA693",
"k. c #9EA893",
"l. c #A2AC8E",
"z. c #A3AC93",
"x. c #A5AC9A",
"c. c #A8AE9F",
"v. c #A5B194",
"b. c #AAB396",
"n. c #A7B09D",
"m. c #A9B19C",
"M. c #B1BA9F",
"N. c #A2A2A2",
"B. c #ACACAC",
"V. c #A7A7AA",
"C. c #ADB5A2",
"Z. c #AEB5A8",
"A. c #B0B9A1",
"S. c #B4B9AA",
"D. c #B3B7A6",
"F. c #AFAEB0",
"G. c #B4B4B5",
"H. c #BCBCBC",
"J. c #B7C1A5",
"K. c #BAC2AA",
"L. c #BFBDC2",
"P. c #C3C3C3",
"I. c #C5C5C9",
"U. c #CBCBCB",
"Y. c #C8C8C6",
"T. c #CED0CD",
"R. c #D0D0CE",
"E. c #CFCFD1",
"W. c #D4D4D3",
"Q. c #DCDCDC",
"!. c #D7D8D8",
"~. c #DFE0DB",
"^. c #E1E3DE",
"/. c #DEDEE0",
"(. c #E4E4E4",
"). c #EAEBE5",
"_. c #E6E6E9",
"`. c #ECECEC",
"'. c #EAE6E7",
"]. c #F2EEED",
"[. c #F5F4EF",
"{. c #EEEEF1",
"}. c #F1EEF2",
"|. c #F1F1F1",
" X c gray94",
".X c gray95",
"XX c #F3F3F3",
"oX c #F4F4F4",
"OX c gray96",
"+X c #F6F6F6",
"@X c gray97",
"#X c #F6F4F7",
"$X c #F5F5F5",
"%X c #F9F4F7",
"&X c #FAFAF6",
"*X c #F6F5F9",
"=X c #F8F8F8",
"-X c #F9F9F9",
";X c #FBFBFB",
":X c gray98",
">X c #F8F8FA",
",X c #FCFCFC",
"<X c #FEFEFE",
"1X c #FFFEFF",
"2X c white",
"3X c #FEFEFF",
"4X c #FEFDFF",
"5X c #FCFCFC",
"6X c #F8F6F6",
/* pixels */
"+X+X+X+X+X+X+X+X+X+X+X+X+X+X+X+X+X+X+X+X+X+X+X+X+X+X+X+X+X+X+X+X:X X`.+X X2X`.`.:X2X(.:X:X:X+X2X+X+X+X+X+X+X+X+X+X+X+X+X+X+X+X+X",
"+X+X+X+X+X+X+X+X+X+X+X+X+X+X+X+X+X+X+X+X+X+X+X+X+X+X+X+X+X+X+X+X`.2X+X+X+X X+X2X`.2X2X+X`.+X:X X+X+X+X+X+X+X+X+X+X+X+X+X+X+X+X+X",
"+X+X+X+X+X+X+X+X+X+X+X+X+X+X+X+X+X+X+X+X+X+X+X+X+X+X+X+X+X+X+X+X:X+X`.+X:X X2X(.2X`. X:X2X2X+X X+X+X+X+X+X+X+X+X+X+X+X+X+X+X+X+X",
"+X+X+X+X+X+X+X+X+X+X+X+X+X+X+X+X+X+X+X+X+X+X+X+X+X+X+X+X+X+X+X+X X+X:X+X:X+X2X+X+X X2X X`.:X2X+X+X+X+X+X+X+X+X+X+X+X+X+X+X+X+X+X",
"+X+X+X+X+X+X+X+X+X+X+X+X+X+X+X+X+X+X+X+X+X+X+X+X+X+X+X+X+X+X+X+X+X:X:X`.+X2X`.2X2X`.`.+X+X+X X+X+X+X+X+X+X+X+X+X+X+X+X+X+X+X+X+X",
"+X+X+X+X+X+X+X+X+X+X+X+X+X+X+X+X+X+X+X+X+X+X+X+X+X+X+X+X+X+X+X+X:X(.2X:XH.U.W.P.W.+X`.2X+X+X X+X+X+X+X+X+X+X+X+X+X+X+X+X+X+X+X+X",
"+X+X+X+X+X+X+X+X+X+X+X+X+X+X+X+X+X+X+X+X+X+X+X+X+X+X+X+X+X+X+X+X2X:XP.a.O   @   N +X2X2XW.+X2X+X+X+X+X+X+X+X+X+X+X+X+X+X+X+X+X+X",
"+X+X+X+X+X+X+X+X+X+X+X+X+X+X+X+X+X+X+X+X+X+X+X+X+X+X+X+X+X+X+X+X X2X1   o o   o < N.N.2X2X:X`.+X+X+X+X+X+X+X+X+X+X+X+X+X+X+X+X+X",
"`.2X X`.2X:X`.2X`.2X:X+X+X+X:X X`.2X(.2X X`.2X`.oXoX}.2XoX+X`.*XH.K 1   X b V u @   Z 2X`.oX2X].:X X:X+X+X:X X:X+X+X+X+X+X+X+X+X",
"2X:X2X X(.2X+X X2X`. X2X2X+X`.:X+X(.`.`.`.2X`.2X:X:XoX_.{.2X2X2XV..   0 ^ c.S.r..   N 2X*X#X;XoX X2X`.:X:X`.2X X+X+X+X+X+X+X+X+X",
"`. X+X2X2X+X`.:X2Xp.e u a g p.`.:X2X`.2X2X+X+X(.2X:X2X:X2X(.B. .z   & o.x.D.x.f.Q 9 o N _.5X(.2X:X`.2X X X2X`.:X+X+X+X+X+X+X+X+X",
"2X X2X X`.+X2XC e @   o o   @ : N 2X+X`.2X`.2X2X_.!.I.a.{ < o   X J 6.u.x.8.<.A.x.    g 2X2XoX%X+X:X X:X:X X:X+X+X+X+X+X+X+X+X+X",
"+X+X2X X X2XP.r     1 < 1 @     r Y G.Q.!.s.L U > O   X . o       X.m.z.f.$.R @.e.7 %   B.4X2X'.+X:X X:X:X X:X+X+X+X+X+X+X+X+X+X",
"`.2X`. X2XP.  O O f (.(.(.W.a e   o ;.N   @       .       3 y B <.k.m.f.,.` <.@.t.S   o q.2X}.2X:X`.2X X X2X`.:X+X+X+X+X+X+X+X+X",
"2X X X2X:XB.:   C 2X+X+X2X`.2Xp.o 1 1   1     @ 2 t i D 1.x.D.C.m.k.z.x.1./ $.E ,.c     1 P.`.}. X2X`.:X:X`.2X X+X+X+X+X+X+X+X+X",
" X+X`.2XW.@   1 a.`.2X`.2X2X`.2Xy.:   @ @ f s.0.n.z.C.n.x.3.3.3.,.1.O.1.1...1.1._ ( t     9 *.2X:X X:X+X+X:X X:X+X+X+X+X+X+X+X+X",
" X:X+X2XW.o   { 2X(. X+X2X X:X2X*.. .   _ C.d.z.9.@.,.X.W ..O.O.@./ <.+.i 9 u a , n B : .   g G.H.:X2X2X X:X X:X+X+X+X+X+X+X+X+X",
"2X+X+X2X!.    f `. X2X X:X}. X:XC X   , e.8.9._ ` ` @...@.,...$.~ W E %.,       . = q { 3 X : @ 8 G.U.`. X2X:X`.+X+X+X+X+X+X+X+X",
" X`.+X+XW.o 1 C 2X2X`.(.2X+X X+X1     3 1./ $.~ @.@.` T E D s n k n m z . X   1 X       q #.:     @ N :X`.+X(.2X+X+X+X+X+X+X+X+X",
"2X+X2X+X!.r   < P.:X+X2X2X`.+XU.    X 4 } +.W W A n m b n n k b l s d X . 1 V.L.*.  < < X f b f .     1 B.2X+X2X+X+X+X+X+X+X+X+X",
"+X`.:X2X2Xq.  o p.:X X2X:X+XU.:   1     q P b k A t y 5 . .     .   .       `.oX{.I.g   & . s  .y 0 .   ^ W.2X/.+X+X+X+X+X+X+X+X",
"+X+X X`.+XN.o   U H.H.P.s.0. .    L : o @ e b u s & @         .     .   @ o *.2X X2XE.*.  . 9 e %.s @ >   e 2X2X+X+X+X+X+X+X+X+X",
"+X2X2X+X2XW.a.;.      O O     g r 0.Y #     @           1 1     % 4 ,     X   H.2X'.:XW.I N     6 / -.  > 1 !.(.+X+X+X+X+X+X+X+X",
" X+X X+X2X`.2XG.O   o         H.%X%XF.    O       3 q Z p. .O o , S S -.a . X 4 ^ ~.2X`.2Xi.  o * u P C 4 o   *.+X+X+X+X+X+X+X+X",
"2X+X X+X:X+X`.(.s.;. .U *.P.s.`.;X`.p.  -     . 7 ..t.z.J.$.%   @ u n ` A 7 . : X & W.2X=XH.f @   , n +.P     [ Q.`.:X:X(.2X:X X",
"+X+X+X+X:X:X+X X X2X X2X2X2X2X:X6XQ.O       O   G $.t.b.g.f.%.%     b k ( %.a   X   #.Y.(.:XQ.  . & c J H 5 @ - < +X`.+X2X:X(.:X",
"+X+X:X:X+X+X+X+X:X`.:X2X+X`.:X`.;XU.    O     @ 5 m ,.b.g.b.k.$ -   i c +.8./ d @ X   ^ 2X X(.F.I @   t / 1.&   9 (.2X2X X X2X X",
":X:X+X+X+X+X+X+X2X(.:X`. X2X2X2X2XU.:   w g     t m ~ t.l.g.z.<.:   . n n E +.+.L &   G oX:X(.2Xq.. . 7 c +.u &   e W.+X(.:X2X`.",
"+X X X X+X:X:X:X`.2X:X+X+X:X=X(.2X(.e @ > a :   t l ` f.M.f.t.A.w o   u n ..2.$.{ f u @ . a.`.5Xa.- . . 2 m r.5     P.2X2X:X`.+X",
"2X+X X+X:X:X:X+X+X:X+X+X=X:X`.2XQ.f     < 3 : o l i W ,.1.5.t.m.;.: X . 3 ,   . . >       G.2XoX2XG.  X q n 1.6     0.2X`.+X`.2X",
":X:X:X:X+X+X+X+X2X(.+X X:X2X X X(.  @ . -.d     p m ..4.#.} } S G   o   @     & .     :   g w._.`.!.q :   , s E   o  .2X+X2X2X`.",
"`. X+X+X+X+X:X2X(.2X2X X2X`.+XY @ . @ 5 4.u   @ t J m B y . @     :       - - o . > .   &   : /.;X^.;XU   . b G      .+X2X`. X2X",
"+X+X+X+X+X+X+X+X2X+X2X X`.2X+XN . . ! 1.%.0 X   , < X .   o   .   2 $     1 n x k A i k =   O a !.:X2XU   o 1 f     *.2X`.:X+X X",
"+X+X+X+X+X+X+X+X+X X:X+X`.+XH.:   , ( %.4.q       .       & q G / 1.A   o 9 n j k n n n i .   @ `.+X:X(.q.O   r O   *.:X+X2X2X2X",
"+X+X+X+X+X+X+X+X:X X:X:X X:Xw.    G 4.V S q o       . s ! 2.<.3.7.t...    1 d v H E ~ E $.u .   w.`.:X2Xa.    O   r B.2X2X:X X(.",
"+X+X+X+X+X+X+X+X:X+X+X:X X2X*.    C Q X . .     , u k E @.t.t.l.f.f.f.n .   r V T ` $...6.^ 3 . @ !. X2X!.B.;.  @ ;.:X:X(.`.2X2X",
"+X+X+X+X+X+X+X+X+X+X X X X2X{ o   . %   .     o u S D ~ @.f.l.b.v.g.J.5..   < m k ~ ..` $.%.0   : W. X X+X+XN.o   ;.2X+X:X:X2X`.",
"+X+X+X+X+X+X+X+X X:X+X+X X2X{   @     X 0 3     p A J @.8.A.z.f.k.d.v.t.X   > i h E $.&...5.u     G.2X+X X2X`.W.!.`.2X`. X X`. X",
"+X+X+X+X+X+X+X+X+X2X:X+X:X2X .    > 2 7 b s     h T / @._ @.,.f.C.z.l.z.z     6 M D ,.@.` 1.z .   N.2X X+X:X:X2X2X X+X`.2X2X+X2X",
"+X+X+X+X+X+X+X+X X2X X X:X2X;.    i S ! 1.b   > p l M _ ..O.$.u.j.h.h.K.1.    i l t ~ F F P u     V.2X`.2X X X+X X+X2X:X+X+X X:X",
"+X+X+X+X+X+X+X+X:X X2X+X`.2X;.    5 +.` 5.V : - 5 n S ( -.6.+.%.-.! U { 9 o     X   O o -         B.2X X X+X2X+X+X+X+X+X+X+X+X+X",
"+X+X+X+X+X+X+X+X`.2X`.2X:X2XG.o   d 4...+.P > o 7 V b ! ^ D s 7 , .   .       -             o o   a.2X`. X2X(.:X+X+X+X+X+X+X+X+X",
"+X+X+X+X+X+X+X+X2X`.2X`.`.2XB.    t $.+.%.-.>   X s 4 s 4               : @     & 5 7 7 4 q &     P. X:X2X`.+X+X+X+X+X+X+X+X+X+X",
"+X+X+X+X+X+X+X+X+X2X X X2X:X`.1   & | 2.r.%.& o   %         . % . = 5 q ^ Y + o 7 m m V n S ,     P.2X X+X:X`.2X+X+X+X+X+X+X+X+X",
"+X+X+X+X+X+X+X+X+X2X+X X2X+X:Xg   @ #.=.=.d . @ @       X y 5 u d b m j +.|     = m v k c m ,     U.2X X X2X`.2X+X+X+X+X+X+X+X+X",
"+X+X+X+X+X+X+X+X2X`.2X`. X+X(.U   % S y y X         q s y S i A b n A v ..e.: + $ l n v M c &   O (.`.:X+X X2X`.+X+X+X+X+X+X+X+X",
"+X+X+X+X+X+X+X+X`.2X`.:X2X`.2XN.O % >     . &       s G n J D / o./ &._ @.j.&   . b ~ / @.n %   Y Q.2X+X`.2X`.:X+X+X+X+X+X+X+X+X",
"+X+X+X+X+X+X+X+X:X`.:X X X+X:XP.@ 1 O .   : z d X   % b G $.<.&.#.~ >.@._ n.2     k ` @.3.n % . p.2X`.2X X X2X+X+X+X+X+X+X+X+X+X",
"+X+X+X+X+X+X+X+X:X X2X+X X:X`.+XU &   0 s n D l   . & B u ( ] ) >.' :.) ` c.s     s 1.1.^ 3 : < B.(.2X:X`.+X2X X+X+X+X+X+X+X+X+X",
"+X+X+X+X+X+X+X+X`.2X`.:X2X`.2X XH.  % 5 P k ( %.d     0 G H &.<.@.&.` 3.@.s.b @   y E E B     i. X`.2X X`.2X`.+X+X+X+X+X+X+X+X+X",
"+X+X+X+X+X+X+X+X:X`.2X X X2X`.2XV.r   X i ..$.@.| .   @ V k ( +. .o.G D i u X   @       :     a.2X2X(.:X2X`.2X X+X+X+X+X+X+X+X+X",
"+X+X+X+X+X+X+X+X+X2X X:X:X X:X X2X`.: X = %.@.@.^ 7   . < d V H 8 1 :         O .   @ : ; ; { (.:X`.:X:X+X+X`.2X+X+X+X+X+X+X+X+X",
"+X+X+X+X+X+X+X+X+X2X X:X:X X:X X2XQ.1   = k W ,.1.G : %   %               :       < N e @   p.2X X X2X:X+X:X`.:X+X+X+X+X+X+X+X+X",
"+X+X+X+X+X+X+X+X:X`.2X X X2X`.2X`.2X`.^     z o.u &     o .   . . & > b B ^ O O & #.{ : : Z T.+X`.2X`.+X2X X2X`.+X+X+X+X+X+X+X+X",
"+X+X+X+X+X+X+X+X`.2X`.:X2X`.2X X=X=X=X=.. % % . .       @   X , J .._ 6.=.V     , } z     i.;X;X:X(.:X`. X2X`.:X+X+X+X+X+X+X+X+X",
"+X+X+X+X+X+X+X+X:X X2X+X X:X`.+X[.`.;XW.w.    +   < w 1     % y T X.<.@.$.  @ < $.i   %   Z.&X).+X2X+X2X:X`.:X X+X+X+X+X+X+X+X+X",
"+X+X+X+X+X+X+X+X+X+X+X+X+X+X+X+X`.2X`.2XU.a 1     N f Z C     r 0 B U ! V   % < <   @   s.2X X:X+X+X+X+X+X+X+X+X+X+X+X+X+X+X+X+X",
"+X+X+X+X+X+X+X+X+X+X+X+X+X+X+X+X:X XoX(.2X2Xw.@ O   O   o @ :     @ X . & % & . @ o L U H.2X:X`.+X+X+X+X+X+X+X+X+X+X+X+X+X+X+X+X",
"+X+X+X+X+X+X+X+X+X+X+X+X+X+X+X+X X+X2X2X:X XQ.W.a.  o o O     o           X X 9 g  .2X2X:X`.+X+X+X+X+X+X+X+X+X+X+X+X+X+X+X+X+X+X",
"+X+X+X+X+X+X+X+X+X+X+X+X+X+X+X+X+X:X`.+X:X`.2X2X`.B.V.N f N a w N B U *.;.y.p.R.2XQ.:X`. X2X2X X+X+X+X+X+X+X+X+X+X+X+X+X+X+X+X+X",
"+X+X+X+X+X+X+X+X+X+X+X+X+X+X+X+X`.+X2X+X`.:X X+X2X2X2X:X2X X(.2XoX2X2X:XoX2X=X2X+X X:X+X:X X X`.+X+X+X+X+X+X+X+X+X+X+X+X+X+X+X+X",
"+X+X+X+X+X+X+X+X+X+X+X+X+X+X+X+X2X+X(.+X:X X+X:X`.+X+X:X X:X:X`.+X:X+X X+X2X`.`. X2X X`.2X+X:X2X+X+X+X+X+X+X+X+X+X+X+X+X+X+X+X+X",
"+X+X+X+X+X+X+X+X+X+X+X+X+X+X+X+X(.2X+X2X:X`.2X`.2X+X+X`. X:X2X`. X X`.+X2X`. X2X X2X X+X:X`.:X:X+X+X+X+X+X+X+X+X+X+X+X+X+X+X+X+X",
"+X+X+X+X+X+X+X+X+X+X+X+X+X+X+X+X2XQ.2X`. X2X(.2X X`.2X`.2X`.`.2X{.2X+X`.2X X2X{.`.2X`.2X+X X2X`.+X+X+X+X+X+X+X+X+X+X+X+X+X+X+X+X"
};
