/* XPM */
static char *f0016138ee12453fc33b88eb0ec522341lvCT8eAOfgNbc9i[] = {
/* columns rows colors chars-per-pixel */
"32 32 6 1 ",
"  c #3B063A",
". c #714058",
"X c #9B0E3E",
"o c #D41E3C",
"O c #8F5765",
"+ c #AB7377",
/* pixels */
".......OOOOOOOOOOOOOOOOOO..OO.OO",
"O.OOOO.OOOOOOOOOOOOOOOOOO.OOOOOO",
"OOOOOOOOOOOOOOOOOO.OOOOOO.OOOOOO",
"OOOOOOO.OOOOOOOOO.OOOOOO..OOOOOO",
".OOOOOOO..OOOO....OOOOOOO..OOOOO",
"OOOOOOOO.OOOOO       OOOO.OOOOOO",
"OOOOOOOOOOOOO        OOOOOOOOOO.",
"OOOOOOOOOOOO   Xooo  OOOOOOOOOO.",
"OOOOOOOOOOO    oooo  OOOOOOOOOOO",
"OOOOOOOOOO   OXoooX   OOOOOOOOOO",
".OOOOO      ++XooXX+      OOOOOO",
"...OOO     ++XXXX++++     OOOOOO",
".OOO..  ++O++XX++++++.OO  OOOOOO",
".OOO.O  ++O.++++++++O.OO  OOOOOO",
"....OO  ++O...++++OOO.OO  .OOOO.",
"OO.OOO  ++O....++OOOO.OO  .....O",
"OOOOOO  .OO.....OOOOO.OO  ....OO",
"OO.OOO  +++.....OOOOO.OO  OO..OO",
"OO.OOO  ++++....OOOO....  OOO.OO",
"O...OO  +++++...OO++++++  OOOO.O",
"..OOOO  +++++O+.O+++++++  OOOOO.",
".OOOOO  +++++O++++++++++  OOOOO.",
"OOOOOO  +++++.++++++++++  OOOOO.",
"OOOOOO  OOOOO.OOOOOOOOOO  OOOOO.",
"OOOOOO  OOOOO.OOOOOOOOOO  OOOO..",
"OOOOO.  OOOOO.OOOOOOOOOO  ......",
"OOOO...                  ..OOO..",
".OOOOO....OOOOOOO..OOOOOOOOOOOO.",
"OOOOOO..OOOOOOOOOOO.OOOOOOOOOOOO",
"OOOOOOOOOOOOOOOOOOOO.OOOOOOOOOOO",
"OOOOO.OOOOOOOOOOOOOO..OOOOOOOOOO",
".OOO...OOOOOOOOOOOOO.OOOO.OOOOO."
};
