/* XPM */
static char *_d612c4a258e452be82783d417bd80beUIBbLavYFveRKAGV[] = {
/* columns rows colors chars-per-pixel */
"32 32 5 1 ",
"  c #AB7377",
". c #3B063A",
"X c #714058",
"o c #8F5765",
"O c None",
/* pixels */
"OOOOOOOOOOOOOOOOOOOOOOOOOOOOOOOO",
"OOOOOOOOOOOOOOOOOOOOOOOOOOOOOOOO",
"OOOOOOOOOOOOOOOOOOOOOOOOOOOOOOOO",
"OOOOOOOOOOOOOOOOOOOOOOOOOOOOOOOO",
"OOOOOOOOOOOOOOOOOOOOOOOOOOOOOOOO",
"OOOOOOOOOOOOOOOOOOOOOOOOOOOOOOOO",
"OOOOOOOOOOOOOOOOOOOOOOOOOOOOOOOO",
"OOOOOOOOOOOOOOOOOOOOOOOOOOOOOOOO",
"OOOOOOOOOOOOOOOOOOOOOOOOOOOOOOOO",
"OOOOOOOOOOOOOOOOOOOOOOOOOOOOOOOO",
"OOOOOOOOOOOOOOOOOOOOOOOOOOOOOOOO",
"OOOOOOOOOOOOOOOOOOOOOOOOOOOOOOOO",
"OOOOOOOOOOOOOOOOOOOOOOOOOOOOOOOO",
"OOOOOOOOOOOOOOOOOOOOOOOOOOOOOOOO",
"OOOOOOOOOOOOOOOOOOOOOOOOOOOOOOOO",
"OOOOOOOOOOOOOOOOOOOOOOOOOOOOOOOO",
"OOOOOOOOOOOOOOOOOOOOOOOOOOOOOOOO",
"OOOOOOOOOOOOOOOOOOOOOOOOOOOOOOOO",
"OOOOOOOOOOOOOOOOOOOOOOOOOOOOOOOO",
"OOOOOOOOOOOOOOOOOOOOOOOOOOOOOOOO",
"OOOOOOOOOOOOOOOOOOOOOOOOOOOOOOOO",
"OOOOOOOOOOOOOOOOOOOOOOOOOOOOOOOO",
"OOOOOOOOOOOOOOOOOOOOOOOOOOOOOOOO",
"OOOOOOOOOOOOOOOOOOOOOOOOOOOO....",
"OOOOOOOOOOOOOOOOOOOOOOOOO.......",
"OOOOOOOOOOOOOOOOOOOOOOOO.....XXX",
"OOOOOOOOOOOOOOOOOOOOOOO...XoooXX",
"OOOOOOOOOOOOOOOOOOOOOOO..ooooooX",
"OOOOOOOOOOOOOOOOOOOOOOO..ooooooo",
"OOOOOOOOOOOOOOOOOOOOOOO..ooooooo",
"OOOOOOOOOOOOOOOOOOOOOO...ooooooo",
"OOOOOOOOOOOOOOOOOOOOOO..XXoooooX"
};
