/* XPM */
static char *_0f7aca143044abceafd48c68c31ec5fkJlQmCID5kzPjTtJ[] = {
/* columns rows colors chars-per-pixel */
"32 32 5 1 ",
"  c #AB7377",
". c #3B063A",
"X c #714058",
"o c #8F5765",
"O c None",
/* pixels */
"XXXXXXX...OOOOOOOOOOOOOOOOOOOOOO",
"oXooooXX..OOOOOOOOOOOOOOOOOOOOOO",
"ooooooXX..OOOOOOOOOOOOOOOOOOOOOO",
"oooooooX..OOOOOOOOOOOOOOOOOOOOOO",
"Xoooooo...OOOOOOOOOOOOOOOOOOOOOO",
"ooooooX..OOOOOOOOOOOOOOOOOOOOOOO",
"XoooXX...OOOOOOOOOOOOOOOOOOOOOOO",
"X...XX..OOOOOOOOOOOOOOOOOOOOOOOO",
"X.......OOOOOOOOOOOOOOOOOOOOOOOO",
".......OOOOOOOOOOOOOOOOOOOOOOOOO",
"..OOOOOOOOOOOOOOOOOOOOOOOOOOOOOO",
"OOOOOOOOOOOOOOOOOOOOOOOOOOOOOOOO",
"OOOOOOOOOOOOOOOOOOOOOOOOOOOOOOOO",
"OOOOOOOOOOOOOOOOOOOOOOOOOOOOOOOO",
"OOOOOOOOOOOOOOOOOOOOOOOOOOOOOOOO",
"OOOOOOOOOOOOOOOOOOOOOOOOOOOOOOOO",
"OOOOOOOOOOOOOOOOOOOOOOOOOOOOOOOO",
"OOOOOOOOOOOOOOOOOOOOOOOOOOOOOOOO",
"OOOOOOOOOOOOOOOOOOOOOOOOOOOOOOOO",
"OOOOOOOOOOOOOOOOOOOOOOOOOOOOOOOO",
"OOOOOOOOOOOOOOOOOOOOOOOOOOOOOOOO",
"OOOOOOOOOOOOOOOOOOOOOOOOOOOOOOOO",
"OOOOOOOOOOOOOOOOOOOOOOOOOOOOOOOO",
"OOOOOOOOOOOOOOOOOOOOOOOOOOOOOOOO",
"OOOOOOOOOOOOOOOOOOOOOOOOOOOOOOOO",
"OOOOOOOOOOOOOOOOOOOOOOOOOOOOOOOO",
"OOOOOOOOOOOOOOOOOOOOOOOOOOOOOOOO",
"OOOOOOOOOOOOOOOOOOOOOOOOOOOOOOOO",
"OOOOOOOOOOOOOOOOOOOOOOOOOOOOOOOO",
"OOOOOOOOOOOOOOOOOOOOOOOOOOOOOOOO",
"OOOOOOOOOOOOOOOOOOOOOOOOOOOOOOOO",
"OOOOOOOOOOOOOOOOOOOOOOOOOOOOOOOO"
};
