/* XPM */
static char *_577235a81234c8690ea451390b28e44ji5YC8CGNct9lhJ6[] = {
/* columns rows colors chars-per-pixel */
"32 32 5 1 ",
"  c #AB7377",
". c #3B063A",
"X c #714058",
"o c #8F5765",
"O c None",
/* pixels */
"OOOOOOOOOOOOOOOOOOOOOOOOOOOOOOOO",
"OOOOOOOOOOOOOOOOOOOOOOOOOOOOOOOO",
"OOOOOOOOOOOOOOOOOOOOOOOOOOOOOOOO",
"OOOOOOOOOOOOOOOOOOOOOOOOOOOOOOOO",
"OOOOOOOOOOOOOOOOOOOOOOOOOOOOOOOO",
"OOOOOOOOOOOOOOOOOOOOOOOOOOOOOOOO",
"OOOOOOOOOOOOOOOOOOOOOOOOOOOOOOOO",
"OOOOOOOOOOOOOOOOOOOOOOOOOOOOOOOO",
"OOOOOOOOOOOOOOOOOOOOOOOOOOOOOOOO",
"OOOOOOOOOOOOOOOOOOOOOOOOOOOOOOOO",
"OOOOOOOOOOOOOOOOOOOOOOOOOOOOOOOO",
"OOOOOOOOOOOOOOOOOOOOOOOOOOOOOOOO",
"OOOOOOOOOOOOOOOOOOOOOOOOOOOOOOOO",
"OOOOOOOOOOOOOOOOOOOOOOOOOOOOOOOO",
"OOOOOOOOOOOOOOOOOOOOOOOOOOOOOOOO",
"OOOOOOOOOOOOOOOOOOOOOOOOOOOOOOOO",
"OOOOOOOOOOOOOOOOOOOOOOOOOOOOOOOO",
"OOOOOOOOOOOOOOOOOOOOOOOOOOOOOOOO",
"OOOOOOOOOOOOOOOOOOOOOOOOOOOOOOOO",
"OOOOOOOOOOOOOOOOOOOOOOOOOOOOOOOO",
"OOOOOOOOOOOOOOOOOOOOOOOOOOOOOOOO",
"OOOOOOOOOOOOOOOOOOOOOOOOOOOOOOOO",
"OOOOOOOOOOOOOOOOOOOOOOOOOOOOOOOO",
"..OOOOOOOOOOOOOOOOOOOOOOOOOOOOOO",
"......OOOOOOOOOOOOOOOOOOOOOOOOOO",
"X......OOOOOOOOOOOOOOOOOOOOOOOOO",
"XXooo...OOOOOOOOOOOOOOOOOOOOOOOO",
"Xooooo..OOOOOOOOOOOOOOOOOOOOOOOO",
"oooooo..OOOOOOOOOOOOOOOOOOOOOOOO",
"oooooX...OOOOOOOOOOOOOOOOOOOOOOO",
"oooooXX..OOOOOOOOOOOOOOOOOOOOOOO",
"XoooXXX..OOOOOOOOOOOOOOOOOOOOOOO"
};
