/* XPM */
static char *result[] = {
/* columns rows colors chars-per-pixel */
"64 64 53 1 ",
"  c #3B063A",
". c #6F3E57",
"X c #6F3F57",
"o c #703F57",
"O c #703F58",
"+ c #704058",
"@ c #714058",
"# c #724058",
"$ c #724158",
"% c #724159",
"& c #734159",
"* c #75435A",
"= c #76435A",
"- c #76445A",
"; c #77445A",
": c #77445B",
"> c #77455B",
", c #78455B",
"< c #78465B",
"1 c #7B475C",
"2 c #7B485C",
"3 c #7C485D",
"4 c #7D495D",
"5 c #7D4A5D",
"6 c #7E4A5D",
"7 c #7E4A5E",
"8 c #5B537D",
"9 c #BD4035",
"0 c #ED7B39",
"q c #814C5F",
"w c #814D5F",
"e c #824D5F",
"r c #834E60",
"t c #844E60",
"y c #875162",
"u c #885162",
"i c #885262",
"p c #895262",
"a c #895362",
"s c #895363",
"d c #8A5363",
"f c #8D5564",
"g c #8D5664",
"h c #8E5664",
"j c #8E5665",
"k c #8F5765",
"l c #905765",
"z c #905865",
"x c #905866",
"c c #915866",
"v c #928FB8",
"b c #C7D4E1",
"n c #FAFFFF",
/* pixels */
"OO@@OOOOOOOOO<uzkkkkkkkkkkkkkkkkkkkkkkkkkkkkkkkkzu<oX,uxxy::yzkk",
"<-%%-<<,,<<-$,uzkkkkkkkkkkkkkkkkkkkkkkkkkkkkkkkkzu,$*7dzzp44plkk",
"ie-*eiuyyuiw*>yzkkkkkkkkkkkkkkkkkkkkllkkkkkkkkkkzy,-wdhkkgppgkkk",
"xd64dxzzzzxd44dzkkkkkkkkkkkkkkkkkklgppfkkkkkkkklzu,,ixlkkkllkkkk",
"zhdsgllkkllgsdhzkkkkkkkkkkkkkkkkklzd44plkkkkkkklxi,,uzlkkkkkkkkk",
"klzlkkkkkkkkzhapgllkkkkkkkkkkkkllhdr24plkkkkkkkgdq=,uzlkkkkkkkkk",
"zllkkkkkkkkkzs44dxzlkkkkkkkklzzzxd62rdgkkkkkkkls4*#<ixlkkkkkkkkk",
"ypgkkkkkkkkklp42tiyagkkkkkkgayuiie*>uxlkkkkkkkls4*$-edgkkkkkkkkk",
":4plkkkkkkkkkgdt3>>4slkkkkls4>,<<-@>uzlkkkkkkkkgde-$*4slkkkkkkkk",
":4plkkkkkkkkklxi>@*4slkkkkls4*@oO$-7dlkkkkkkkkklxi,@*4slkkkkkkkk",
"ypgkkkkkkkkkklzy>*qdgkkkkkkgdw*XX-edhkkkkkkkkkklzu>*qdgkkkkkkklz",
"zlkkkkkkkkkkkkla44dzlkkkkkklzd7*@,ixlkkkkkkkkkkkla44dzlkkkkkkgsu",
"kkkkkkkkkkkkkkkgssglkkkkkkkkljdw*>uzlkkkkkkkkkkkkgssglkkkkkkls6,",
"kkkkkkkkkkkkkkkkllkkkkkkkkkkklzd44alkkkkkkkkkkkkkkllkkkkkkkkzy>.",
"kkkkkkkkkkkkkkkkkkkkkkkkkkkkkklgssgkkkkkkkkkkkkkkkkkkkkkkkkkzy>.",
"kkkkkkkkkkkkk       kkkkk            kkkkkkkkkkkkkkkkkkkkkkkls6,",
"kkkkkkkkkkk           k                kkk       kkkkkkkkkkkkgsu",
"kkkkkkkkkkk           k                kkk       kkkkkkkkkkkkklz",
"zlkkkkkkkk    vvvvv       bbbbbbbbbb               kkkkkkkkkkkkk",
"udhllkkkkk   vvvv888     bbbbbbbbbbbb      vvvvv    kkkkkkkkkkkk",
",7dxzlkkkk   vvvv888     bbbbbbbbbbbb      vvvvv    kkkkkkkkkkkk",
"o-euyagkkl   vvvv88888 vvbbbbnnnnbbbbvv 88888vvvv   kkkkkkkkkkkk",
"O%->>4szzz   vvvv888888vvbbbnnnnnnbbbvv888888vvvv   kkkkkkkkkkkk",
"@&->>4dhdi   vvvv888888vvbbbnnnnnnbbbvv888888vvvv   kkkkkkkkkkkk",
"O-euydhd7,   vvvvvv8888vvbbbnnnnnnbbbvv888888vvvv   kkkkkkkkkkkk",
"O<iccxxu>@   vvvvvv8888vvbbbnnnnnnbbbvv888888vvvv   glkkkkkkkkkk",
"O<iccccu>*   vvvvvv888v99bbbbnnnnbbbb99v888vvvvvv   dzlkkkkkkklz",
"O-eiiiur26   vvvvvv vvv999bbbbbbbbbb999vvv vvvvvv   rdhllkkllgsy",
"O$-,<,>2td   vvvvvv vvv999bbbbbbbbbb999vvv vvvvvv   26dxzzzzxd4:",
"<<,=#@*6dz   vbbbbb vvbbb900000000009bbbvv vvvvvv   >*eiiuuiur2>",
"uiiq**qdhl   bbbbbbvbbbbbb0000000000bbbbbb bbbbbv   ,$-<<<<,>3tu",
"zzxd77dzlk   bbbbbbvbbbbbb0000000000bbbbbb bbbbbv   -OoOOOO$*7dx",
"kllhddhkkk   bbbbbbvvvbbbbbbbbbbbbbbbbbbbbvbbbbbb   $OoO+OO-edjz",
"kkkgddgkkk   bbbbbbvvvvbbbbbbbbbbbbbbbbbvvvbbbbbb   ,<<-%OO<ixlk",
"kkls66slkk   bbbbbbvvvvbbbbbbbbbbbbbbbbbvvvbbbbbb   uiie-Xo<izlk",
"klzy>>yzlk   bbbbbbvvvvbbbbbbbbbbbbbbbbvvvvbbbbbb   zzxd7*@,izlk",
"klxu>>uxlk   bbbbbb vvv88bbbbbbbbbbbb88vvvvbbbbbb   klljdw*>uxlk",
"zjde=*qdgk   bbbbbb vvv88bbbbbbbbbbbb88vvvvbbbbbb   kkklzd62rdhz",
"xd7-$#*4sl   bbbbbb   888vvvvvvvvvvvv888   bbbbbb   kkkklhdr14dx",
"ie-@-,>4sl   bbbbbb   888vvvvvvvvvvvv888   bbbbbb   kkkkklzd42ti",
"<-@*eiuagk   bbbb      88vvvvvvvvvvvv88    bbbbbb   kkkkkklhdr3,",
"o@-7dxzlkk               vvvvvvvvvvvv        bbbb   kkkkkkklxu,X",
"X*edjllkkk               vvvvvvvvvvvv        bbbb   kkkkkkklzu,o",
",7dzlkkkkkk        kkk                  kl          kkkkkkkkzy,O",
"udhlkkkkkkkkkkkkkkkkkkk                kklx        kkkkkkkkkzy,O",
"zlkkkkkkkkkkkkkkkkkkkkk                kkgd        kkkkkkkklzu<O",
"kkkkkkkkkkkkllkkkkkkkkkkkkkkkkkkkkkkkkkkls4*##*6dzlkkkkkkkklxi<O",
"kkkkkkkkkklgssgkkkkkkkkkkkkkkkkkkkkkkkkkls4>,,>2tdhllkkkklljde-O",
"kkkkkkkkklzd44alkkkkkkkkkkkkkkkkkkkkllkkkgayuiur26dxzzzzzzxd7-%@",
"kkkkkkkkljdw*>uzlkkkkkkkkkkkkkkkkllgssgkkklzzxxu>*eiiuyyyuie-O@@",
"kkkkkkklzd7*@,ixlkkkkkkkkkkkkklzzzxd44alkkkkkzxu>@-<<,,,,,,-%@@@",
"kkkkkkkgdw*Xo-edjllkkkkkkkkkkgayyuie*>yzkkkkkkld7-#oo$-,,,,-%@@@",
"zlkkkkls4*@o+%-7dxzlkkkkkkkkls4>>,<-$,uzkkkkkkkhde=..=eiuuie-O@@",
"ypgkkkls4>,;&Oo-euyagkkkkkkkls4>>-$Xo,izlkkkkkklzd7>>7dxzzxd7-$O",
":4plkkkgauie;OO%->>4slkkkkkkkgayue=.X,ixlkkkkkkklhdyydhlllljde-o",
":4plkkkklxxi,oO%->>4slkkkkkkkklzxd7>,3rdhlkkkkkkkklzzlkkkkklzd7,",
"ypgkkkkkkzxi,XX-euyagkkkkkkkkkkllhduir24dzlkkkkkkkkkkkkkkkkklhdu",
"zlkkkkkkkkzd7>>7dxzlkkkkkkkkkkkkkklzxd41rdhlkkkkkkkkkkkkkkkkkklz",
"kkkkkkkkkkzhdyydhllkkkkkkkkkkkkkkkkllhdr26dzlkkkkkkkkkkkkkkkkkkk",
"kkkkkkkklgsdjxzlkkkkkkkkkkkkkkkkkkkkklxu>*qdgkkkkkkkkkkkkkkkkkkk",
"zlkkkkklzd45dczkkkkkkkkkkkkkkkkkkkkkklzi,@*4slkkkkllkkkkkkkkkklz",
"yagkkkkhdw**wdhkkkkkkkkkkkkkkkkkkkkkkkzu,#*6dlkkkgppgkkkkkkkkgay",
">5alkkld7-$$-7dlkkkkkkkkkkkkkkkkkkkkkkzy,-wdhkkklp44plkkkkkkla5>",
"X>yzkkzu,oOOo,uzkkkkkkkkkkkkkkkkkkkkkkzy,,ixzkkkzy::yzkkkkkkzy>X"
};
