/* XPM */
static char *result[] = {
/* columns rows colors chars-per-pixel */
"64 64 225 2 ",
"   c #010101",
".  c #0D070B",
"X  c #130C0E",
"o  c #150003",
"O  c #11130F",
"+  c #160C11",
"@  c #1B0E14",
"#  c #1E0119",
"$  c #1D1214",
"%  c #1B1515",
"&  c #23000D",
"*  c #29051A",
"=  c #30031F",
"-  c #390F1B",
";  c #201416",
":  c #251A1A",
">  c #2A1B1D",
",  c #27151A",
"<  c #330E2B",
"1  c #2B1522",
"2  c #2C1B22",
"3  c #331D26",
"4  c #3B1429",
"5  c #3E0033",
"6  c #2E0B29",
"7  c #2D2224",
"8  c #362226",
"9  c #382427",
"0  c #3B242A",
"q  c #3B282B",
"w  c #3B393B",
"e  c #520016",
"r  c #49042E",
"t  c #490121",
"y  c #47182F",
"u  c #4B0433",
"i  c #460732",
"p  c #560737",
"a  c #5A073A",
"s  c #471633",
"d  c #6E0E2D",
"f  c #7D0227",
"g  c #7F0234",
"h  c #781231",
"j  c #422A2E",
"k  c #452D30",
"l  c #4C2C36",
"z  c #4E2D39",
"x  c #4E203E",
"c  c #532C3D",
"v  c #413639",
"b  c #463C3E",
"n  c #483D3F",
"m  c #493133",
"M  c #54333B",
"N  c #59363E",
"B  c #59393E",
"V  c #5D0E4E",
"C  c #55154C",
"Z  c #6D005B",
"A  c #680958",
"S  c #6D095A",
"D  c #4C2844",
"F  c #532D40",
"G  c #5B2E44",
"H  c #562B46",
"J  c #493D40",
"K  c #4E354B",
"L  c #5C3345",
"P  c #5C3A42",
"I  c #5E3448",
"U  c #533746",
"Y  c #592953",
"T  c #632D4D",
"R  c #67284A",
"E  c #69334D",
"W  c #653A4A",
"Q  c #693D4C",
"!  c #623849",
"~  c #733749",
"^  c #652F50",
"/  c #7B2053",
"(  c #6E3D56",
")  c #673753",
"_  c #713E57",
"`  c #703F58",
"'  c #7D3855",
"]  c #790064",
"[  c #7A0867",
"{  c #6F1460",
"}  c #7D0371",
"|  c #4D4243",
" . c #564B4D",
".. c #5A4C4F",
"X. c #56454D",
"o. c #5C5051",
"O. c #624144",
"+. c #6B424C",
"@. c #6A454A",
"#. c #71444F",
"$. c #644E53",
"%. c #6D4453",
"&. c #734552",
"*. c #7B4456",
"=. c #754953",
"-. c #794A55",
";. c #75435A",
":. c #79455B",
">. c #774C5A",
",. c #7D495D",
"<. c #735355",
"1. c #7B5356",
"2. c #7D525C",
"3. c #71585C",
"4. c #80002A",
"5. c #8E0E34",
"6. c #9B003A",
"7. c #95143A",
"8. c #99133C",
"9. c #840A54",
"0. c #9B0957",
"q. c #851958",
"w. c #8C185E",
"e. c #90115F",
"r. c #911D44",
"t. c #AB0245",
"y. c #A2144A",
"u. c #AF0757",
"i. c #863957",
"p. c #933854",
"a. c #962647",
"s. c #8B0761",
"d. c #9A0C66",
"f. c #9E1F68",
"g. c #860672",
"h. c #96017C",
"j. c #9D027C",
"k. c #920976",
"l. c #931576",
"z. c #94137A",
"x. c #88116C",
"c. c #A40C6C",
"v. c #AD0F6E",
"b. c #A4037E",
"n. c #AA067F",
"m. c #A80B74",
"M. c #B20F71",
"N. c #A51177",
"B. c #BA1975",
"V. c #B31169",
"C. c #873B62",
"Z. c #9D376C",
"A. c #942A72",
"S. c #913270",
"D. c #962966",
"F. c #A6226C",
"G. c #A82C72",
"H. c #B13477",
"J. c #CD0D76",
"K. c #CD0F79",
"L. c #D20E7C",
"P. c #CE107A",
"I. c #82465D",
"U. c #824C5F",
"Y. c #8A465E",
"T. c #914257",
"R. c #94435B",
"E. c #93495C",
"W. c #84535D",
"Q. c #85595C",
"!. c #88595E",
"~. c #88515F",
"^. c #844E60",
"/. c #874A62",
"(. c #92436B",
"). c #954C6A",
"_. c #964968",
"`. c #875162",
"'. c #8E5664",
"]. c #8E5A64",
"[. c #855962",
"{. c #905765",
"}. c #915866",
"|. c #945669",
" X c #945B69",
".X c #985D6A",
"XX c #9E536D",
"oX c #A2456F",
"OX c #A2576F",
"+X c #A75A73",
"@X c #BD577F",
"#X c #AC4B74",
"$X c #8D6164",
"%X c #9C636D",
"&X c #9F696E",
"*X c #93636A",
"=X c #9F6571",
"-X c #A0676F",
";X c #A26571",
":X c #A46B72",
">X c #A86E75",
",X c #AF6778",
"<X c #B8617D",
"1X c #AB7176",
"2X c #AE7379",
"3X c #A27074",
"4X c #B1767B",
"5X c #B3787C",
"6X c #9D0080",
"7X c #A50380",
"8X c #AB0681",
"9X c #B00781",
"0X c #B30881",
"qX c #BC0B83",
"wX c #C30D85",
"eX c #CA0E86",
"rX c #CB0F88",
"tX c #C20B88",
"yX c #CD1186",
"uX c #CD1088",
"iX c #D21187",
"pX c #D5128A",
"aX c #DA138B",
"sX c #CF3C88",
"dX c #BC6580",
/* pixels */
"` ;.( ;.;.( ` %.` ` ` ` ` :.`.'.'.}.'.'.}.'.}.'.'.}.'.{.}.'.{.'.{.'.{.'.}.}.'.}.}.'.].}.'.{.'.}.{.`.:.&.%.:.`.}.}.`.:.:.`.{.{.{.",
":.;.` %.:.:.;.:.:.:.:.:.;.:.`.'.}.'.}.'.'.}.'.}.}.'.}.'.'.'.'.}.'.}.'.{.'.].{.'.'.}.{.'.}.'.{.'.{.`.;.;.;.U.`.{.|.`.,.,.`.{.{.'.",
"`.^.;.;.U.`.`.`.`.`.`.^.;.:.`.}.}.'.'.}.'.}.'.'.}.'.'.'.'.}.}.'.'.}.'.'.{.{.'.}.}.'.'.{.'.}.'.{.}.`.;.;.U.`.'.'.}.'.`.`.'.}.'.}.",
"{.'.,.,.`.{.}.}.}.'.}.`.,.,.'.'.'.}.'.'.}.'.}.'.'.{.'.}.}.'.'.}.}.'.{.'.`.`.'.'.'.'.}.'.{.'.].}.}.`.;.,.`.}.}.{.{.'.}.{.'.'.{.'.",
"'.'.`.'.'.'.}.}.'.}.}.'.`.'.'.'.'.{.'.}.'.}.}.'.'.}.'.'.}.'.{.'.}.}.}.`.,.,.`.{.'.}.'.}.'.'.{.}.}.`.:.:.`.}.}.'.}.'.'.}.'.'.}.'.",
"'.{.}.{.'.{.'.'.}.'.'.'.'.'.`.`.'.}.}.'.}.'.'.'.}.'.}.'.'.}.{.{.}.'.`.~.,.,.`.{.'.}.{.'.}.}.'.'.`.U.;.:.`.}.{.'.'.}.'.'.}.'.'.{.",
"}.{.{.'.}.}.'.}.'.}.'.}.'.'.,.,.`.}.}.'.'.'.'.}.'.}.'.{.{.}.}.}.}.`.,.:.~.`.{.{.{.'.'.}.'.}.{.`.,.;.;.;.`.}.}.}.].{.'.}.'.'.}.'.",
"`.`.'.}.'.'.}.'.}.'.}.'.}.`.,.,.`.`.`.`.]. X}.'.{.'.].'.`.`.!.`.`.W.;.:.`.{.{.{.'.}.'.'.{.'.}.`.,.;.;.;.U.`.'.}.'.{.{.'.}.}.'.{.",
":.,.`.{.'.}.}.'.'.'.'.'.}.'.`.~.:.:.:.,.`.'.}.'.'.}.{.'.,.;.:.:.:.;.` ;.`.'.{.{.'.'.}.'.}.'.'.'.`.U.;.;.;.,.`.}.}.'.{.'.}.}.'.{.",
";.U.`.}.}.'.'.{.'.}.}.'.'.{.}.`.:.` ;.,.'.'.'.'.'.'.{.`.,.;.;.;.;.;.:.^.'.}.}.'.}.'.'.}.'.}.}.}.}.`.;.;.;.,.`.}.}.'.'.}.'.'.}.'.",
"`.`.'.'.'.].}.'.}.}.'.{.'.{.}.`.:.;.,.'.'.'.'.}.}.'.{.'.`.^.:.%.;.;.^.'.}.}.}.'.'.}.}.'.'.'.'.}.}.`.:.;.U.'.'.'.'.}.'.'.'.}.{.}.",
"{.{.'.{.'.}.'.{.'.'.}.'.{.}.}.`.,.,.'.}.'.'.}.'.'.}.{.}.}.^.! F F L W +.+.#.~.}.}.}.}.'.}.'.}.'.|.`.,.,.`.'.}.'.{.'.].}.}.}.`.W.",
"{.'.{.'.'.].{.'.}.'.'.}.'.'.}.'.`.'.'.'.}.'.'.}.'.'.'.}. X=.3 + + + $ $ $ 8 &.'.}.}.}.{.{.'.'.}.{.'.`.[.'.}.'.}.'.}.'.'.}.`.U.:.",
"{.{.'.}.}.'.'.}.'.'.}.].}.'.'.'.}.}.'.'.'.}.'.'.}.}.}.`.&.B 9 : > : : : : j =.`.&.&.^.}.{.{.'.}.{.{.{.}.'.'.}.'.}.'.}.}.'.`.;.( ",
"'.{.].{.'.}.}.'.{.'.}.'.}.'.{.'.}.'.'.}.}.'.}.'.'.'.}.%.8 8 @.!.[.Q.Q.Q.Q.!.}.-.0 8 #.{.}.'.}.'.'.{.{.{.'.}.'.'.'.'.{.'.}.`.:.%.",
"}.'.}.'.}.'.'.{.'.}.'.{.'.{.'.}.'.}.'.'.}.'.'.{.}.`.&.M 9 j Q.%X$X$X:X4X1X1X-X-.0 > z Q U.'.'.}.{.'.{.{.}.'.}.}.'.}.{.{.{.`.,.:.",
"'.{.'.}.'.'.}.'.}.'.'.}.'.'.{.'.{.'.'.{.'.}.'.}.}.&.8 8 @.`.U.E 0 k !.>X>X;X.X'.-.N > 3 ) `.'.}.'.'.{.'.'.'.}.'.}.'.'.}.'.'.`.`.",
"}.'.}.'.'.}.'.}.'.}.}.'.'.}.'.{.'.{.}.}.}.}.}.}.}.&.8 8 @.W.:.G 2 > B W. X.X}.}.|.*.3 , l Q /.}.}.}.}.}.}.}.'.}.}.'.'.}.}.'.}.}.",
"}.{.}.{.'.{.].{.}.'.'.}.}.'.{.{.{.}.}.}. X}. X}.}.^.&.M 9 q +.,.E z > 0 -..X}.}.|.~._ z , 3 ' }.}.'.}. X'.'.'.{.'.'.}.'.{.'.}.'.",
"`.`.'.{.}.'.{.'.'.'.}.'.{.'.`.'.}.!.&.+.+.Q +.=.`.{.{.&.9 9 =.}.`.E < < T U./.`.~.'.`.Q 0 3 N _ ~.~.=.=.~.{.}.{.}.'.'.}.'.}.'.{.",
":.,.`.'.}.}.}.{.'.}.'.{.}.`.,./.{.=.9 $ $ $ $ 0 =.}.}.`.&.#.~.{.}./.{ A V R ( /.U.U.:.,.W.@.8 8 &.&.0 0 #.|.{.{.'.}.}.'.}.}.'.{.",
";.;.W.`.W.`.'.{.{.{.}.'.'.U.;.E Q B 9 : > $   ; @.}.}.|.).(.(.(.(.S.k.} C C ^ ` I.,.*.U.%X!.q > c k X ; +.|.}.'.}.'.'.{.'.'.}.'.",
"( ;.:.:.;.,.`.}.{.{.}.`.U.;.) D 1 8 @.Q.!.P $ ; @.}.{._.A.z.l.l.l.z.6X} Y U ( _ ;.*.:./.|.{.-.M 2 .   ; #. X}.{.'.'.{.'.}.].'.{.",
"` ;.;.:.:.U.`.'.'.`.`.:.! I ) I 8 j !.1X3X<.: @ E (.Z.A.z.b.b.b.j.7X7Xx.F v R ' ' :.U.U.~.{.|.-.0 X   @ M =.!.{.{.}.'.}.'.'.}.'.",
"` ;.^.`.`.`.'.`.^.:.:.I 2 8 -.*X!.W.}.$X3.b O # S l.l.N.B.rXtXeXwXuXyXd.4 , d r.T.,.^.U.,.^.{.'.-.z +   X j =.}.}.'.}.'.}.{.'.{.",
"( :.`.'.}.{.}.`.:.;.:.L $ : Q.5X2X>X%X2. .w 1 5 ] h.7X0XyXaXaXaXaXaXaXv.p t f 7.p.`.^.U.,.U./.|.|.-.j X   $ +. X}.}.'.}.'.].}.'.",
";.;.`.}.}.}.}.`.:.:.^.! $ : Q.5X4X>X%X2. .K A ] g.b.qXuXpXaXpXaXpXaXaXyXv.u.6.7.T.'.U.I.,.^.`.{.|.~.*.z X @ Q }.}.'.}.'.'.{.{.}.",
"%.;.`.`.`.'.`.,.:.,.{.+.; : 1.5X4X>X%X>.| K [ 6X7X0XuXaXiXeXrXiXpXpXpXaXaXL.u.y.R.'.`.U.*.I.'.{.{. X X-.8 3 Q /.'.}.}.'.}.'.`.`.",
"` ` ;.:.:.:.:.,.`.'. X+.; : 1.5X4X3X XQ 2 6 ] 7XqXrXaXiXqX0X0XwXiXaXaXaXaXaXL.B._.{.~.U.:.*.~.{.{.{.{.~._ W E ' /.}.}.}.}.`.,.;.",
":.:.:.;.` ;.;.,.'.`.=.l + : Q.4X2X;X_.E @ # Z 8XrXpXyXwX0X8Xn.n.wXrXpXrXM.v.P.H.oX`.`.~.:.I.~.{.{.{.{.{.{.:.c H ;.'.`.`.`.~.,.:.",
"`.`.`.^.;.;.^.'.}.;.0 .   : 2.1X-XXXZ./ * # A 7XrXyX0X7XqXwXn.n.b.qXpXM.p s i.oX).~.'.`./.'.{.{.{.'.{.{.}.&.2 1 ! :.:.:.:.:.W.`.",
"}.}.}.`.,.,.`.'.[.@.q : : l $X:X}._.H.q.* # Z 7XrXrX8Xn.qXwXqX0Xj.j.c.9.r s ,. X'.`.}..X.X.X.X X X|.'.{.|.+.$ + F ;.` %.:.,.'.'.",
"'.}.'.'.`.`.'.`.$.$.<.Q.Q.!.&X%X^.C.G.q.* # Z n.yXiXwXn.n.9XwXwXb.] u u 9.F.XX%X'.'.=X3X1X>X3X>X>X%X.X'.|.+.$ X c ;.;.;.^.`.{.}.",
"'.'.}.'.'.'.'.2. .o.*X1X1X>X-X{.,.C.G.w.i i ] b.0XyXyXwX8X9XqXwXn.Z # * f.sXdX=X*X.X;X1X;X;X;X>X>X&X X{.}.&.9 3 G ( %.:.`.{.{.{.",
"}.'.}.`.,.,.'.2. . .`.%X%X X{.'.`.(.Z.f.w.9.k.h.j.9XwXwXqXqXn.9XqX9.* , /.dX2X1X;X&X;X%X`.`.'..X.X X}.{.{.~.=.W I ^ ( :.`.}.{.'.",
"'.}.'.`.:.:.`.1.J n =.{.{.{.'./.'.|.Z.D.e.s.j.7Xh.j.n.qXqX0Xj.b.wXd.= : 1.2X1X=X=X*X.X'.,.:.U.`.'.{.{.}.|. X X^.^ H ) :.`.}.{.}.",
"}.}.'.`.;.:.'.%.7 2 Q `.'.'.'.'.{.|.).' 4 u c.tX7Xh.j.j.j.b.j.0XyXd.= : <.;X.X'.{.`.U.I.U./.~.~.'.{.{.{.%X%X.X2...K ) :.`.{.{.'.",
"}.'.`.^.;.:./.Q $ @ W '.{.'.'.~.'.{. X*.s r 9.v.n.7Xb.b.b.b.n.wXpXc.= % +.}.^.,.U.I.:.*.'.{.'.'.{.'.'.|.%X-X.XW. .X.$.,.^.'.'.}.",
"}.`.^.;.` ;.,.! + ; +. X|.'.U.U./.{.+X#XF.9.r p c.uXyXwXeXeXyXpXaXc.= + L ,.:.:.U.U.I.U.'.{.{.{.{.'.'.'.|. X X[... .>.`.,.,.`.}.",
"`.U.;.;.:.` I 0 . ; #.%X.X}.^.U.U.{.;X@XsXF.y 4 9.B.yXaXaXpXK.J.J.0.t - T :.:.,.U.U.U.I.~.'.`.'.'.'.'.I.I.&.~ P w J >.'.,.:.`.`.",
":.;.;.:.`.%.3 .   % #.%X:X:X%X}./.'.%X,X<X+XI.G 4 a M.aXaXiXu.t.t.6.4.h i.`.'.`./.U.:.:./.U.,.I.`.'.{.^.^ s , + + 7 &.}.'.^.:.:.",
"%.;.;.;.&.P 8 : : j -.%X:X>X1X%X'.~.%X-X>X:XOX~ $ * 0.J.J.V.y.7.7.7.8.a.R.!.=.=.!.U.! ! ;.,.;.:.`.'.`.:.^ x 3 %   ; +.}.}.`.:.` ",
"` ;./.%.0 9 @.!.Q.!.&X-X%X%X>X-X'.~.{.|..X.X X#.; & 4.t.t.y.a.T.T.T.R.E.|.#.8 q Q.Q.0 1 I ;._ :.'.`.$.$.`.}.!.O.% ; Q  X}.`.:.` ",
":.,.{.+.$ ; 1.2X5X4X4X1X.X.X-X%X/.U.'.{.{. X|.Q ; X e f 5.a.E..X}.}.}.}.}.Q $ : Q.'.j 1 I ' _ :.`.>.J | $X2X2XW.: $ +.}.}.`.:.` ",
"`.'.}.+.$ $ &.;X>X1X4X1X;X%X}.`.U.U.'.{.'.{.|.+.%   o - ~ E.{.'.].}.'. X X+.$ : Q..XE G ( ;.:.U.'.+.2 7 -.%X=X#.% $ +.}.}.`.:.` ",
"{.}.}.#.8 8 &..X-X-X>X;X&X X`.,.,.*.#.Q W +.1.+.0 $ $ 0 =.}.}.}.'.'.'. X'.&.0 8 O.#.! c c L _ ^.'.&.8 8 &.}.}.&.8 0 %.}.}.`.:.` ",
"{.}.{.!.&.&.`. X.X.X%X|.'.^.:.;.:.E 3 $ $ 2 n $.@.@.+.=.~.{.}.].}.'.'.}.'.`.-.P 9 ; @ + + 3 L ,.'.`.=.&.~.'.}.`.*.=.`.}.}./.:.%.",
"{.'.{.{.|.~.-.Q Q #.~.'.U.:.' ( ! z 3 : : 7 w  .W. X|.}.{.{.'.{.'.}.}.'.'. X X=.0 $ $ ; $ 3 ! ,.^.`.}. X}.'.'.}.}.}.}.'.'.^.:.` ",
"'.{.'.}. X=.0 $ + 0 &.'.I.:._ G 3 3 ! 2.Q.<. . .2. X}.}.{.'.}.'.'.'.'.'.'.}. X`.&.+.+.+.@.&.U.^.,.,.'.}.}.}.}.}.}.|.}.`.,.;.;._ ",
"}.'.}.}.}.=.0 $ $ 8 &.^.:.;.:.L + + B !.>X$X| b <.}.}.{.{.'.'.{.}.}.'.'.'.`.].}.}.}.}.}.}.|.}.`.:.;.^.`.`.`.`.`.`.`.`.W.;.;.( ;.",
"'.{.'.}.}.W.#.+.+.+.;.;.;.:.^.Q $   + k W.-.8 2 &.}.}.'.'.}.}.}.}.'.'.'.,.,.'.'.}.}.}.}.}.}.}.`.;.;.;.:.:.;.:.:.:.:.;.:.;.` %.` ",
"}.'.}.'.'.}.}.}.{.^.:._ _ ;.^.&.0 $ $ 0 &.&.9 9 &.}.}.{.{.'.`.`.`.`.`.^.;.;.`.}.{.'.}.'.{.}.}.`.,.;.;.( ( ;.;.:.:.:.:.;.` ` ;.` ",
"{.{.{.{.'.}.}.'.,.:.;.` ;.;.;.;.&.+.+.=.!.W.&.=.~.'.}.'.}.`.,.;.:.,.;.;.` :./.'.'.'.}.'.'.}.'.'.`.^.;._ ( ;.^.`.`.`.`.^.;.` %.` ",
"`.`.'.{.'.{.}.`.,.;.:.;.` ` &.;.^.`.`.'.'.}.}.}.}.'.}.'.}.`.,.:.;.;.&.;.&.:.`.}.}.{.'.{.'.}.}.}.}.`.,.:.;.U.`.}.}.'.'.'.,.:.;.` ",
":.,.`.}.{.'.}.'.`.`.`.^.;.` ` ` :.:.:.,.`.{.}.}.'.'.}.}.}.'.`.`.`.^.;.` ( :.`.}.}.'.}.'.}.'.'.}.}.'.`.`.`.`.{.{.}.{.}.'.'./.;.` ",
";.,.`.}.'.{.'.{.}.}.{.`.:.` ` ;.;.:.:.,.'.{.}.'.'.}.'.'.}.'.}.}.}.`.,.;.:.,.^.`.'.}.}.'.'.'.}.'.'.}.}.}.}.}.}.'.}.'.'.}.'.`.,.;.",
"`.'.'.'.'.}.}.'.{.}.}.`.:.%.` ;.W.`.`.`.'.{.'.{.'.{.'.'.'.'.'.}.}.'.'.`.`.^.,.,.`.}.{.'.{.'.'.}.].'.{.'.'.}.}.'.'.}.'.'.}.'.`.`.",
"'.}.'.}.}.'.'.'.'.'.}.`.,.:.:.,.`.}.}.}.'.{.}.'.}.'.}.}.}.}.'.}.{.{.'.'.}.`.,.:.^.'.'.{.'.}.'.}.}.}.'.}.{.'.'.{.'.'.}.'.}.'.}.}.",
"'.'.'.'.'.'.'.}.}.'.}.'.`.`.`.`.'.{.}.{.{.'.'.{.'.'.}.'.'.}.}.'.{.{.'.}.'.'.'.^.:.,.'.}.}.}.'.'.'.}.'.'.'.}.}.'.}.'.}.}.'.'.}.{.",
"'.'.}.'.'.}.}.'.'.'.'.`.}.}.}.}.}.'.'.'.'.}.}.'.'.}.'.}.'.'.'.}.'.{.}.'.}.'.{.`.;.;.^.`.'.'.'.}.{.'.}.'.{.'.'.}.'.}.'.'.}.}.'.{.",
"}.'.'.'.'.{.}.'.{.`.,.,.`.}.}.'.}.'.'.}.}.'.}.'.{.'.{.'.'.}.'.'.}.'.'.}.'.'.}.`.:.` ;.,.`.{.'.}.'.'.{.{.'.{.'.'.'.}.}.'.'.'.}.{.",
"`.'.'.}.{.{.'.'.`.^.;.;./.'.'.'.'.{.}.'.'.{.'.{.'.}.'.}.'.}.}.'.'.}.'.'.'.}.}.`.;.&.;.,.[.{.}.'.}.'.`.`.'.{.}.'.}.'.'.}.}.'.`.`.",
":.,.`.}.{.{.}.`.,.:.;.%.:.,.'.'.}.'.}.'.].}.}.'.'.{.].}.}.'.'.}.}.'.'.}.}.'.}.`.:.;.W.`.{.{.'.{.{.`.,.,.`.}.}.'.'.}.{.'.{.`.,.:.",
"%.:.`.}.{.{.}.`.:.` ` ` ` :.`.'.'.{.'.'.}.'.'.'.}.'.}.'.'.}.'.'.}.'.'.}.'.{.}.`.:.:.`.}.{.{.{.{.{.`.:.:.`.}.'.}.'.'.'.{.}.`.:.%."
};
