/* XPM */
static char *_df7916d7b784c71ad46b9d13dca0286KXZHASG04ybPEAMd[] = {
/* columns rows colors chars-per-pixel */
"64 64 171 2 ",
"   c black",
".  c black",
"X  c black",
"o  c black",
"O  c black",
"+  c black",
"@  c black",
"#  c black",
"$  c black",
"%  c black",
"&  c black",
"*  c black",
"=  c black",
"-  c black",
";  c black",
":  c black",
">  c black",
",  c black",
"<  c black",
"1  c black",
"2  c black",
"3  c black",
"4  c #000010",
"5  c #00001E",
"6  c #1E1E1E",
"7  c #101010",
"8  c #0000C8",
"9  c #C8C8C8",
"0  c #001E1E",
"q  c #001010",
"w  c black",
"e  c #00C8C8",
"r  c #001010",
"t  c black",
"y  c #001E1E",
"u  c black",
"i  c #00001E",
"p  c #0000C7",
"a  c #001C1C",
"s  c #000010",
"d  c #00001C",
"f  c #00C7C7",
"g  c black",
"h  c #000010",
"j  c None",
"k  c black",
"l  c black",
"z  c #00C9C9",
"x  c black",
"c  c black",
"v  c #00001E",
"b  c #00001A",
"n  c #000003",
"m  c gray1",
"M  c gray10",
"N  c #1E1E1E",
"B  c #0000E1",
"V  c #0000E0",
"C  c #0000E2",
"Z  c #0000C5",
"A  c #000019",
"S  c #1B1B19",
"D  c gray78",
"F  c gray89",
"G  c gray88",
"H  c #E1E1E1",
"J  c #00001C",
"K  c #000039",
"L  c #0000E3",
"P  c blue",
"I  c #000038",
"U  c #1B1B34",
"Y  c #C6C6CA",
"T  c #E7E7E7",
"R  c #FBFBFB",
"E  c white",
"W  c #393939",
"Q  c #191C1C",
"!  c #031E1E",
"~  c #001E1E",
"^  c #0000FB",
"/  c #0000E5",
"(  c #0303C8",
")  c #191932",
"_  c #3A3A36",
"`  c #E7E3E3",
"'  c #C6E0E0",
"]  c #1BE0E0",
"[  c #00E0E0",
"{  c #00E1E1",
"}  c #0003FF",
"|  c #001BFF",
" . c #001EFF",
".. c #001BE3",
"X. c #000136",
"o. c #1B1A32",
"O. c #C4C4C8",
"+. c gray90",
"@. c #FBFFFF",
"#. c #E7FFFF",
"$. c #C6FFFF",
"%. c #1BFFFF",
"&. c cyan",
"*. c #00E3E3",
"=. c #003939",
"-. c #001C1C",
";. c #00C7FF",
":. c #00E3FF",
">. c #00E2FF",
",. c #00C5FF",
"<. c #00C5FB",
"1. c #001AE5",
"2. c #0301C8",
"3. c #E3FFFF",
"4. c #3AFFFF",
"5. c #19FFFF",
"6. c #03FFFF",
"7. c #00FBFB",
"8. c #00C6FF",
"9. c #00E7FF",
"0. c #00FDFF",
"q. c #00E4FF",
"w. c #003AFF",
"e. c #0019FF",
"r. c #0001FF",
"t. c #0019E3",
"y. c #FDFBFB",
"u. c LightCyan",
"i. c #1EFFFF",
"p. c #00E5FF",
"a. c #00C4FF",
"s. c #001AFF",
"d. c #0017FF",
"f. c #0038FF",
"g. c #00C4FB",
"h. c #191934",
"j. c #3A3A38",
"k. c #E5E3E3",
"l. c #E2FFFF",
"z. c #00E5E5",
"x. c #0039FF",
"c. c #001CFF",
"v. c #00E0FF",
"b. c #1B1E1C",
"n. c #00FBFF",
"m. c #031E1C",
"M. c #0000C4",
"N. c #000138",
"B. c #001A34",
"V. c #00C4C8",
"C. c #00003A",
"Z. c #0001C8",
"A. c #001932",
"S. c #003A36",
"D. c #001A32",
"F. c #00C6FB",
"G. c #001BE5",
"H. c black",
"J. c #00C7FB",
"K. c #000036",
"L. c #001B32",
"P. c #000339",
"I. c #0000E7",
"U. c #0003CA",
"Y. c #001934",
"T. c #003A38",
"R. c #0000C6",
"E. c #001B19",
"W. c #00C6C6",
"Q. c #000303",
"!. c #001A1A",
/* pixels */
"                                                                                                                                ",
"                                                                                                                                ",
"                                                                                                                                ",
"      . X o o o o X .                                                                                     . X o o o o X .       ",
"      X O + @ @ + O X                                                                                     X O + @ @ + O X       ",
"      X O + @ @ # $ % & o o o o o X .                                                     . X o o o o o & % $ # @ @ + O X       ",
"      . X o o o & % $ # @ @ @ @ + O X                                                     X O + @ @ @ @ # $ % & o o o X .       ",
"                  X O + @ @ @ @ # $ % & o o o o o o o X .             . X o o o o o o o & % $ # @ @ @ @ + O X                   ",
"                  . X o o o o o & % $ # @ @ @ @ @ @ + O X             X O + @ @ @ @ @ @ # $ % & o o o o o X .                   ",
"                                  X O + @ @ @ @ @ @ # $ % & o o o o & % $ # @ @ @ @ @ @ + O X                                   ",
"                                  . * = = = = = = = X - $ # @ @ ; ; # $ - X = = = = = = = * .                                   ",
"                                  . * = = = = = = = X - $ # @ : > > , $ - X = = = = = = = * .                                   ",
"                                  X O + @ @ @ @ @ @ # $ % & = < : : 1 - $ # @ @ @ @ @ @ + O X                                   ",
"                  . X o o o o o & % $ # @ @ @ @ @ @ + O X     o @ @ = * O + @ @ @ @ @ @ # $ % & o o o o o X .                   ",
"                  X O + @ @ @ @ # $ % & o o o o o o o X .     o @ @ o 2 X o o o o o o o & % $ # @ @ @ @ + O X                   ",
"      . X o o o & % $ # @ @ @ @ + O X                         o @ @ o                     X O + @ @ @ @ # $ % & o o o X .       ",
"      X O + @ @ # $ % & o o o o o X .                         o @ @ o                     . X o o o o o & % $ # @ @ + O X       ",
"      X O + @ @ + O X                                         o @ @ o                                     X O + @ @ + O X       ",
"      . X o o o o X .                                         o @ @ o                                     . X o o o o X .       ",
"                                                          . * % $ O X                                                           ",
"                                                          X O $ % * .                                                           ",
"                                                          o @ @ o                                                               ",
"                                                          o @ @ o                                                               ",
"                                              . X o o o = < : : < = o o o o o o o o o o o X .                                   ",
"                                              X 3 @ ; ; ; # > > # ; ; ; ; ; ; ; ; ; ; ; @ 3 X                                   ",
"                                  . X o o o = 4 5 v v v v v v v v v v b n m M N N N N N N 6 7 = o o o X .                       ",
"                                  X 3 @ ; ; ; 5 8 B V V V V V V V V C Z A S D F G G G G H 9 6 ; ; ; @ 3 X                       ",
"                          . X o = 4 5 v v v J K L P P P P P P P P P P L I U Y T R E E E E F W Q ! ~ ~ 0 q = o X .               ",
"                          X w # ; 5 8 B V V V L ^ P P P P P P P P P P ^ / ( ) _ F E E E E R ` ' ] [ { e 0 ; @ 3 X               ",
"                          X O , > v V P P P P P P } |  . .| } P P } |  . ...X.o.O.+.R E E @.#.$.%.&.&.*.=.-.~ 0 r * .           ",
"                          . * t # v V P P P P P P | ;.:.>.,.| P P | ;.:.>.<.1.2.) _ F E E 3.4.5.6.&.&.7.*.[ { e y u X           ",
"                              X u i p / ^ P P P P | 8.9.0.q.w.e.r.| 8.9.0.q.w.t.X.o.O.+.y.u.i.&.&.&.&.&.&.&.&.*.=.a r * .       ",
"                              . * s d K L P P P P } e.w.q.0.p.a.s.r.d.f.:.0.p.g.1.2.h.j.k.l.i.&.&.&.&.&.&.&.&.7.z.f y u X       ",
"                                  X u i p / ^ P P P P | a.p.0.q.x.c.| f.:.&.&.v. .V J b.' $.%.&.&.&.&.&.&.&.&.&.&.[ ~ ; o       ",
"                                  . g h d K L P P P P } d.f.:.0.p.>.>.p.n.&.&.v. .V J m.] %.6.&.&.&.&.&.&.&.&.&.&.[ ~ ; o       ",
"      . X X .     . X X .     . X o X 1 # b M./ ^ P P } d.f.:.0.p.>.>.>.v.:.0.q.w.t.N.B.V.z.7.&.&.&.&.&.&.&.&.&.&.[ ~ ; o       ",
"      X O O X     X O O X     X O + @ : > n A C.L P P | a.p.0.q.x.c. . .c.x.q.0.p.g.1.Z.A.S.*.&.&.&.&.&.&.&.&.&.&.[ ~ ; o       ",
"      o @ : < = = < : : < = & % $ # @ @ ; # > v V } e.w.q.0.p.a.| P P P P | a.p.0.q.w.t.X.D.V.z.7.&.&.&.&.&.&.7.z.f y u X       ",
"      o ; j # ; ; # > > : @ # $ % & o o = < # v V | 8.9.0.q.w.e.} P P P P } e.w.q.0.9.F.G.Z.A.S.*.&.&.&.&.&.&.*.=.a r * .       ",
"      X u : > H.H.> # ; @ @ + O X         X u i p G.J.:.>.,.| P P P P P P P P | ,.>.:.;.| L K.L.V.z.7.7.*.[ { e y u X           ",
"      . g 1 # H.H.# 1 X o o o X .         . * s d P... . .| } P P P P P P P P } |  . .| } ^ I.U.Y.T.z.z.=.-.~ 0 r * .           ",
"      . g - k l l k - g .                     X u i p / ^ P P P P P P P P P P P P P P P P ^ I.R.A E.W.z 0 ; @ 3 X               ",
"      X k x % & & % x k X                     . g h d K L P P P P P P P P P P P P P P P P L K A n Q.!.0 q = o X .               ",
"      X k k X     X k k X                     . g - k i 8 B V V V V V V V V V V V V V V B 8 5 # > > : u X                       ",
"      . X X .     . X X .                     X k x - h 5 v v v v v v v v v v v v v v v v 5 h 1 : : 1 g .                       ",
"                                          . * % x k * * u : > > # ; ; ; ; ; ; ; ; ; ; ; @ 3 * * O $ - g .                       ",
"                                          X O $ - g . . g 1 : : 1 c = = = = = = = = = = = * . . g - $ O X                       ",
"                                      . * t : : 1 X o o X 1 : : 1 c = = = = = = = = = = = = o o X 1 : : t * .                   ",
"                                      X O , > > : @ @ @ @ : > > : @ @ @ @ @ @ @ @ @ @ @ @ @ @ @ @ : > > , O X                   ",
"                                      X w # ; ; @ @ @ @ @ @ ; ; @ @ @ @ @ @ @ @ @ @ @ @ @ @ @ @ @ @ ; ; # w X                   ",
"                                      . X o o o o o o o o o o o o o o o o o o o o o o o o o o o o o o o o X .                   ",
"                                                                                                                                ",
"                                                                                                                                ",
"                                                                                                                                ",
"                                                                                                                                ",
"                                                                                                                                ",
"                                                                                                                                ",
"                                                                                                                                ",
"                                                                                                                                ",
"                                                                                                                                ",
"                                                                                                                                ",
"                                                                                                                                ",
"                                                                                                                                ",
"                                                                                                                                "
};
