/* XPM */
static char *b1220d7feee94111cf398aee88f981c7gSZmVKhQr0FkjfhY[] = {
/* columns rows colors chars-per-pixel */
"32 32 3 1 ",
"  c #AB7377",
". c #714058",
"X c #8F5765",
/* pixels */
"..XXXX.XXXXXXXXXXXXXXXXXX..XX.XX",
"XXXXXX..XXXXXXXXXXXXXXXXX.XXXXXX",
"XXXXXXX.XXXXXXXXXXXXXXXXXXXXXXXX",
"XXXXXXXXXXXXXXXX.XXXXXXXXXXXXXXX",
".XXXXXXXXXXXXXX..XXXXXXXX.XXXXXX",
"XXXXXXXXXXXX   X..XXXXXXX.XXXXXX",
"XXXXXXXXXXX    X.XXXXX  X..XXXX.",
"XXXXXXXX.XX   XX    XX  .....XX.",
"XXXXXXXX.XXXX        XXX..XXXXXX",
"XXXXXXX...XX          XX.XXXXXXX",
".XXXX.....X           XXXXXXXXXX",
"..XXXXXXX.X           .XXXXXXXXX",
".XXXXXXXXX.          .XXXXXXXXXX",
".XXXXXXXXXXX       X..XXXXXXXXXX",
"XXXXXXXXXXXXX   XXXX.XXXXXXXXXX.",
"XXXXXXXXXXXXX.XXXXX.XXXXXXXXXXXX",
"XXXXXXXXXXXXXX..XXXXXXXXXXXXXXXX",
"XXXXXXXXXXXXXXX...XXXXXXXXXXXXXX",
"XXXXXXXXXXXXXXXX..XXXXXXXXXXXXXX",
"X.XXXXXXXXXXXXXXX.XXXXXXXXXXXX.X",
".XXXXXXXXXX.XXXXXX.XXXXXXXXXXXX.",
"XXXXXXXXXX.XXXXXXX..XXXXXXXXXXX.",
"XXXXXXXX...XXXXX.......XXXXXXXX.",
"XXXXXXX...XXXXXXXXXX..XXXXX.....",
"XXXXXXXXX.XXXXXXXXXX.XXXXXXXX...",
"XXXXXXXXX.XXXXXXXXXX.XXXXXXXXX..",
"XXXXXXXXXXXXXXXXXXXXXXXXXXXXXXX.",
".XXXXXXXXXXXXXXXXXXXXXXXXXXXXXX.",
"XXXXXXXXXXXXXXXXXXXXXXXXXXXXXXXX",
"XXXXX.XXXXXXXXXXXXXX.XXXXXXXXXXX",
"XXXXX.XXXXXXXXXXXXXX..XXXXXXXXXX",
".XXX...XXXXXXXXXXXXX.XXXX.XXXXX."
};
