/* XPM */
static char *result[] = {
/* columns rows colors chars-per-pixel */
"64 64 185 2 ",
"   c #703F58",
".  c #714058",
"X  c #78465B",
"o  c #885162",
"O  c #905865",
"+  c #8F5765",
"@  c #703F57",
"#  c #6F3F57",
"$  c #78455B",
"%  c #905866",
"&  c #875162",
"*  c #77445B",
"=  c #76445A",
"-  c #724159",
";  c #724158",
":  c #75435A",
">  c #7E4A5E",
",  c #8A5363",
"<  c #895262",
"1  c #7D495D",
"2  c #905765",
"3  c #885262",
"4  c #824D5F",
"5  c #814D5F",
"6  c #77455B",
"7  c #8E5664",
"8  c #8D5664",
"9  c #7E4A5D",
"0  c #8D5564",
"q  c #895363",
"w  c #895362",
"e  c #834E60",
"r  c #7B485C",
"t  c #814C5F",
"y  c #76435A",
"u  c #724058",
"i  c #844E60",
"p  c #7C485D",
"a  c #734259",
"s  c #7F4B5E",
"d  c #8B5463",
"f  c #844F60",
"g  c #8C5564",
"h  c #915966",
"j  c #925966",
"k  c #864F61",
"l  c #6F3B56",
"z  c #633150",
"x  c #6A3653",
"c  c #764058",
"v  c #7C445B",
"b  c #7B435B",
"n  c #80485D",
"m  c #8A5262",
"M  c #935A67",
"N  c #80495D",
"B  c #5A254A",
"V  c #461240",
"C  c #471341",
"Z  c #4A1542",
"A  c #4E1844",
"S  c #4F1944",
"D  c #5F284C",
"F  c #8C5463",
"G  c #814A5E",
"H  c #6B3452",
"J  c #491441",
"K  c #380338",
"L  c #390238",
"P  c #390339",
"I  c #390439",
"U  c #370238",
"Y  c #7A435A",
"T  c #6F3E57",
"R  c #925A67",
"E  c #60294D",
"W  c #491341",
"Q  c #3E093C",
"!  c #3A0439",
"~  c #3A0239",
"^  c #3A0339",
"/  c #380439",
"(  c #4E1944",
")  c #6A3452",
"_  c #380238",
"`  c #390239",
"'  c #3B0D3C",
"]  c #3C2040",
"[  c #3B0F3C",
"{  c #4F1A44",
"}  c #3A0039",
"|  c #3C1E3F",
" . c #3F574C",
".. c #3F584C",
"X. c #3C2140",
"o. c #8B5363",
"O. c #3B0B3B",
"+. c #3C1C3F",
"@. c #3E4448",
"#. c #417D54",
"$. c #417452",
"%. c #3D2A42",
"&. c #3A0139",
"*. c #5F294D",
"=. c #3F544B",
"-. c #417C54",
";. c #428E58",
":. c #407151",
">. c #3D2841",
",. c #3B0C3B",
"<. c #3C1D3F",
"1. c #3E4247",
"2. c #417A53",
"3. c #42985A",
"4. c #42975A",
"5. c #407051",
"6. c #3C1F3F",
"7. c #3F554B",
"8. c #428B57",
"9. c #429559",
"0. c #429759",
"q. c #8E5665",
"w. c #417251",
"e. c #439759",
"r. c #417151",
"t. c #439859",
"y. c #43985A",
"u. c #734159",
"i. c #3B2542",
"p. c #3C6852",
"a. c #3E8659",
"s. c #407954",
"d. c #390338",
"f. c #382143",
"g. c #335956",
"h. c #346258",
"j. c #3A3B49",
"k. c #3D1D3F",
"l. c #3C0B3B",
"z. c #915866",
"x. c #381841",
"c. c #323D4F",
"v. c #323C4F",
"b. c #381540",
"n. c #3B0139",
"m. c #3C083B",
"M. c #430F3F",
"N. c #3A0C3C",
"B. c #381741",
"V. c #3A0A3C",
"C. c #59264B",
"Z. c #703C56",
"A. c #875061",
"S. c #521F47",
"D. c #673653",
"F. c #7B475C",
"G. c #6E3D57",
"H. c #8F5865",
"J. c #5F294C",
"K. c #4D1844",
"L. c #491542",
"P. c #4C1743",
"I. c #6F3C56",
"U. c #7A485C",
"Y. c #79475C",
"T. c #81495E",
"R. c #7B445B",
"E. c #753F58",
"W. c #683553",
"Q. c #743E58",
"!. c #7F475D",
"~. c #8A5463",
"^. c #8E5765",
"/. c #704058",
"(. c #3B0E3C",
"). c #3C1F40",
"_. c #3D2942",
"`. c #417352",
"'. c #439B5A",
"]. c #824A5E",
"[. c #80495E",
"{. c #8B5564",
"}. c #77445A",
"|. c #7D4A5D",
" X c white",
/* pixels */
"    . .                   X o O + + + + + + + + + + + + + + + + + + + + + + + + + + + + + + + + O o X @ # $ o % % & * * & O + + ",
"X = - - = X X $ $ X X = ; $ o O + + + + + + + + + + + + + + + + + + + + + + + + + + + + + + + + O o $ ; : > , O O < 1 1 < 2 + + ",
"3 4 = : 4 3 o & & o 3 5 : 6 & O + + + + + + + + + + + + + + + + + + + + 2 2 + + + + + + + + + + O & $ = 5 , 7 + + 8 < < 8 + + + ",
"% , 9 1 , % O O O O % , 1 1 , O + + + + + + + + + + + + + + + + + + 2 8 < < 0 + + + + + + + + 2 O o $ $ 3 % 2 + + + 2 2 + + + + ",
"O 7 , q 8 2 2 + + 2 2 8 q , 7 O + + + + + + + + + + + + + + + + + 2 O , 1 1 < 2 + + + + + + + 2 % 3 $ $ o O 2 + + + + + + + + + ",
"+ 2 O 2 + + + + + + + + O 7 w < 8 2 2 + + + + + + + + + + + + 2 2 7 , e r 1 < 2 + + + + + + + 8 , t y $ o O 2 + + + + + + + + + ",
"O 2 2 + + + + + + + + + O q 1 1 , % O 2 + + + + + + + + 2 O O O % , 9 r e , 8 + + + + + + + 2 q 1 : u X 3 % 2 + + + + + + + + + ",
"& < 8 + + + + + + + + + 2 < 1 r i 3 & w 8 + + + + + + 8 w & o 3 3 4 : 6 o % 2 + + + + + + + 2 q 1 : ; = 4 , 8 + + + + + + + + + ",
"* 1 < 2 + + + + + + + + + 8 , i p 6 6 1 q 2 + + + + 2 q 1 6 $ X X = . 6 o O 2 + + + + + + + + 8 , 4 = ; : 1 q 2 + + + + + + + + ",
"* 1 < 2 + + + + + + + + + 2 % 3 6 . : 1 q 2 + + + + 2 q 1 : - . . a 6 s d % O + + + + + + + + 2 % 3 $ . : 1 q 2 + + + + + + + + ",
"& < 8 + + + + + + + + + + 2 O & 6 : t , 8 + + + + + + 8 , 4 6 . . 6 f g O h O + + + + + + + + 2 O o 6 : t , 8 + + + + + + + 2 O ",
"O 2 + + + + + + + + + + + + 2 w 1 1 , O 2 + + + + + + % j k l z z x c v b n m + + + + + + + + + 2 w 1 1 , O 2 + + + + + + 8 q o ",
"+ + + + + + + + + + + + + + + 8 q q 8 2 + + + + + + + h M N B V C Z A S A D n % O + + + + + + + + 8 q q 8 2 + + + + + + 2 q 9 $ ",
"+ + + + + + + + + + + + + + + + 2 2 + + + + + + + O % F G H J K L P I K U A Y h % + + + + + + + + + 2 2 + + + + + + + + O & 6 T ",
"+ + + + + + + + + + + + + + + + + + + + + + + + + % R G E W Q ! ~ ^ ! / K ( Y h % + + + + + + + + + + + + + + + + + + + O & 6 T ",
"+ + + + + + + + + + + + + + + + + + + + + + + O % F G ) W _ ` ' ] ] [ ! I { b h % + + + + + + + + + + + + + + + + + + + 2 q 9 $ ",
"+ + + + + + + + + + + + + + + + + + + + + + + % R G E W Q ` } |  ...X.~ P { b h % + + + + + + + + + + + + + + + + + + + + 8 q o ",
"+ + + + + + + + + + + + + + + + + + + + + + + o.G ) W _ ` O.+.@.#.$.%.&.` { b h % + + + + + + + + + + + + + + + + + + + + + 2 O ",
"O 2 + + + + + + + + + + + + 2 2 + + + + + O % n *.W Q ` } +.=.-.;.:.>.~ ` { b h % + + + + + + + + + + + + + + + + + + + + + + + ",
"o , 7 2 2 + + + + + + + 2 8 q q 8 + + + + % h Y A U I ,.<.1.2.3.4.5.>.~ ` { b h % + + + + + + + + + + + + + + + + + + + + + + + ",
"$ > , % O 2 + + + + + 2 O , 1 1 w 2 + + + % h Y ( _ ` 6.7.2.8.9.0.:.>.&.` { b h % + + + + + + + + + + + + + + + + + + + + + + + ",
"@ = 4 o & w 8 + + 2 2 q., 5 : 6 o O 2 + + % h b { ` &.>.w.e.9.8.2.7.6.` _ ( Y h % + + + + + + + + + + + + + + + + + + + + + + + ",
"  - = 6 6 1 q O O O % , > : . $ 3 % 2 + + % h b { ` &.>.r.t.y.2.1.<.,.I U A Y h % + + + + + + + + + + + + + + + + + + + + + + + ",
". u.= 6 6 1 , 7 , 3 3 4 : # # = 4 , 7 + + % h b { ` ~ i.p.a.s.=.+.&.~ Q W *.n % O + + + + + + + + + + + + + + + + + + + + + + + ",
"  = 4 o & , 7 , > $ $ = ; @   ; = > , 2 + % h b { d.~ f.g.h.j.k.l.~ _ J H G o.+ + + + + + + + + + + 2 2 + + + + + + + + + + + + ",
"  X 3 z.z.% % o 6 . : $ X X X = . 6 o O 2 % h b { P ^ x.c.v.b.n.^ m.M.B N M h + + + + + + + + + + 0 < < 8 2 + + + + + + + + + + ",
"  X 3 z.z.z.z.o 6 : t 3 3 3 3 4 : 6 o % 2 % h b { I ! N.B.B.V.^ P M.C.Z.A.j z.O O O O 2 + + + + 2 < 1 1 , O 2 + + + + + + + 2 O ",
"  = 4 3 3 3 o e r 9 , % O O % , 9 r e , 7 h h Y ( K / ! ^ ^ ! m.M.S.D.X e o o & & & & , 7 2 + + 2 < 1 r e , 7 2 2 + + 2 2 8 q & ",
"  ; = $ X $ 6 r i , 7 2 2 2 2 7 , e F.1 , h j Y A U K I ^ d.K M.C.D.G.a = $ $ $ $ 6 $ > , O 2 + + 8 , e r 9 , % O O O O % , 1 * ",
"X X $ y u . : 9 , O 2 + + + + 2 O , 1 F.e d H.N J.A S K.L.J P.B I.U.Y.$ $ $ $ $ $ : . : 4 , 7 + + O z.3 6 : 4 3 3 o o 3 o e r 6 ",
"o 3 3 t : : t , 7 2 + + + + + + 2 7 , e r > , o.T.R.R.E.W.W.Q.!.k < 3 o & & & o 3 4 : . : > , 2 + O z.3 $ ; = X X X X $ 6 p i o ",
"O O % , > > , O 2 + + + + + + + + 2 % o 6 : 4 < q g O d s s d h % O O O O O O O % , > : . 6 & O 2 8 , 4 =   @         ; : > , % ",
"+ 2 2 7 , , 7 + + + + + + + + + + 2 O 3 $ ; = X X s d + d ~.^.% O + + + + + + 2 2 q., 5 : * & O O q 1 : ;   @   /.    = 4 , q.O ",
"+ + + 8 , , 8 + + + + + + + + + + + O o X   @ . : 1 q O O O % % % % % % % % % O + + O , 1 1 w O O q 1 6 $ X X = -     X 3 % 2 + ",
"+ + 2 q 9 9 q 2 + + + + + + + + + + O o X @ # : 5 , 8 + + O h h h h h h h h h % + + + 8 q q 8 + + 8 w & o 3 3 4 = # @ X 3 O 2 + ",
"+ 2 O & 6 6 & O 2 + + + + + + + + 2 O 3 $ . : > , O + O % o.n Y Y b b b b Y Y n m + + + 2 2 + + + + 2 O O O % , > : . $ 3 O 2 + ",
"+ 2 % o 6 6 o % 2 + + + + + + + + 2 % o 6 : 5 , q.+ + % R G *.A ( { { { { ( A D n % O + + + + + + + + + + 2 2 q., 5 : 6 o % 2 + ",
"O q., 4 y : t , 8 + + + + + + + + 8 , e r 9 , O 2 + + o.G ) W U _ ` ` P I K U A Y h % + + + + + + + + + + + + 2 O , 9 r e , 7 O ",
"% , > = ; u : 1 q 2 + + + + + + 2 < 1 r e , 7 2 + O % n *.W Q I ` &.&.~ ! I K ( Y h % + + + + + + + + + + + + + 2 7 , e F.1 , % ",
"3 4 = . = $ 6 1 q 2 + + + + + + 2 < 1 1 , O 2 + + % h Y A U I (.)._._.6.(.! I { b h % + + + + + + + + + + + + + + 2 O , 1 r i 3 ",
"X = . : 4 3 o w 8 + + + + + + + + 0 < < 8 2 + + + % h Y ( _ ` ).7.`.`.7.6.~ P { b h % + 2 2 + + + + + + + + + + + + 2 7 , e p $ ",
"@ . = > , % O 2 + + + + + + + + + + 2 2 + + + + + % h b { ` &._.`.'.'.`._.&.` { b h % 8 q q 8 + + + + + + + + + + + + 2 % o $ # ",
"# : 4 , q.2 2 + + + + + + + + + + + + + + + + + + % h b { ` &._.`.'.'.`._.&.` { b h h w 1 1 w 2 + + + + + + + + + + + 2 O o $ @ ",
"$ > , O 2 + + + + + + + + + + + + + + + + + + + + % h b { P ~ 6.7.`.`.7.).` _ ( Y j h & 6 6 & O 2 + + + + + + + + + + + O & $   ",
"o , 7 2 + + + + + + + + + + + + + + + + + + + + + % h b { I ! (.6._._.).(.I U A Y j j o 6 6 o % 2 + + + + + + + + + + + O & $   ",
"O 2 + + + + + + + + + + + + + + + + + + + + + + + % h Y ( K I ! ~ &.&.` I Q W *.N + d 5 : : t , 7 2 + + + + + + + + + 2 O o X   ",
"+ + + + + + + + + + + + 2 2 + + + + + + + + + + + % h Y A U K I P ` ` _ U W ) ].F , > : u u : 9 , O 2 + + + + + + + + 2 % 3 X   ",
"+ + + + + + + + + + 2 8 q q 8 + + + + + + + + + + O % n D A ( { { { { ( A E G R h q 1 6 $ $ 6 r i , 7 2 2 + + + + 2 2 q., 4 =   ",
"+ + + + + + + + + 2 O , 1 1 w 2 + + + + + + + + + + + m n Y Y b b b b b b [.o.z.O 8 w & o 3 o e r 9 , % O O O O O O % , > = - . ",
"+ + + + + + + + 2 q., 5 : 6 o O 2 + + + + + + + + + + + % h h h h j j H.{.d 7 + + + 2 O O % % o 6 : 4 3 3 o & & & o 3 4 =   . . ",
"+ + + + + + + 2 O , > : . $ 3 % 2 + + + + + + + + + + + O % h h h h h d s > q + + + + + + O % o 6 . = X X $ $ $ $ $ $ = - . . . ",
"+ + + + + + + 8 , 5 : # @ = 4 , q.2 2 + + + + + + + + + + 8 w & & o 3 4 : 6 & O + + + + + + 2 , > = u @ @ ; = $ $ $ $ = - . . . ",
"O 2 + + + + 2 q 1 : . @ /.- = > , % O 2 + + + + + + + + 2 q 1 6 6 $ X = ; $ o O + + + + + + + 7 , 4 y T T y 4 3 o o 3 4 =   . . ",
"& < 8 + + + 2 q 1 6 $ }.u.  @ = 4 o & w 8 + + + + + + + 2 q 1 6 6 = ; # @ $ 3 O 2 + + + + + + 2 O , > 6 6 > , % O O % , > = ;   ",
"* 1 < 2 + + + 8 w o 3 4 }.    - = 6 6 1 q 2 + + + + + + + 8 w & o 4 y T # $ 3 % 2 + + + + + + + 2 7 , & & , 7 2 2 2 2 q., 4 = @ ",
"* 1 < 2 + + + + 2 % % 3 $ @   - = 6 6 1 q 2 + + + + + + + + 2 O % , > 6 $ p e , 7 2 + + + + + + + + 2 O O 2 + + + + + 2 O , > $ ",
"& < 8 + + + + + + O % 3 $ # # = 4 o & w 8 + + + + + + + + + + 2 2 7 , o 3 e r 1 , O 2 + + + + + + + + + + + + + + + + + 2 7 , o ",
"O 2 + + + + + + + + O , > 6 6 > , % O 2 + + + + + + + + + + + + + + 2 O % , 1 F.e , 7 2 + + + + + + + + + + + + + + + + + + 2 O ",
"+ + + + + + + + + + O 7 , & & , 7 2 2 + + + + + + + + + + + + + + + + 2 2 7 , e r 9 , O 2 + + + + + + + + + + + + + + + + + + + ",
"+ + + + + + + + 2 8 q , q.% O 2 + + + + + + + + + + + + + + + + + + + + + 2 % o 6 : t , 8 + + + + + + + + + + + + + + + + + + + ",
"O 2 + + + + + 2 O , 1 |., z.O + + + + + + + + + + + + + + + + + + + + + + 2 O 3 $ . : 1 q 2 + + + + 2 2 + + + + + + + + + + 2 O ",
"& w 8 + + + + 7 , 5 : : 5 , 7 + + + + + + + + + + + + + + + + + + + + + + + O o $ u : 9 , 2 + + + 8 < < 8 + + + + + + + + 8 w & ",
"6 |.w 2 + + 2 , > = ; ; = > , 2 + + + + + + + + + + + + + + + + + + + + + + O & $ = 5 , 7 + + + 2 < 1 1 < 2 + + + + + + 2 w |.6 ",
"# 6 & O + + O o $ @     @ $ o O + + + + + + + + + + + + + + + + + + + + + + O & $ $ 3 % O + + + O & * * & O + + + + + + O & 6 # "
};
