/* XPM */
static char *result[] = {
/* columns rows colors chars-per-pixel */
"64 64 47 1 ",
"  c #703F58",
". c #714058",
"X c #78465B",
"o c #885162",
"O c #905865",
"+ c #8F5765",
"@ c #703F57",
"# c #6F3F57",
"$ c #78455B",
"% c #905866",
"& c #875162",
"* c #77445B",
"= c #76445A",
"- c #724159",
"; c #724158",
": c #75435A",
"> c #7E4A5E",
", c #8A5363",
"< c #895262",
"1 c #7D495D",
"2 c #905765",
"3 c #885262",
"4 c #824D5F",
"5 c #814D5F",
"6 c #77455B",
"7 c #8E5664",
"8 c #8D5664",
"9 c #7E4A5D",
"0 c #8D5564",
"q c #895363",
"w c #895362",
"e c #834E60",
"r c #7B485C",
"t c #814C5F",
"y c #76435A",
"u c #724058",
"i c #844E60",
"p c #7C485D",
"a c #8E5665",
"s c #6F3E57",
"d c #734159",
"f c #915866",
"g c #7B475C",
"h c #704058",
"j c #77445A",
"k c #7D4A5D",
"l c white",
/* pixels */
"  ..         XoO++++++++++++++++++++++++++++++++OoX@#$o%%&**&O++",
"X=--=XX$$XX=;$oO++++++++++++++++++++++++++++++++Oo$;:>,OO<11<2++",
"34=:43o&&o35:6&O++++++++++++++++++++22++++++++++O&$=5,7++8<<8+++",
"%,91,%OOOO%,11,O++++++++++++++++++28<<0++++++++2Oo$$3%2+++22++++",
"O7,q822++228q,7O+++++++++++++++++2O,11<2+++++++2%3$$oO2+++++++++",
"+2O2++++++++O7w<822++++++++++++227,er1<2+++++++8,ty$oO2+++++++++",
"O22+++++++++Oq11,%O2++++++++2OOO%,9re,8+++++++2q1:uX3%2+++++++++",
"&<8+++++++++2<1ri3&w8++++++8w&o334:6o%2+++++++2q1:;=4,8+++++++++",
"*1<2+++++++++8,ip661q2++++2q16$XX=.6oO2++++++++8,4=;:1q2++++++++",
"*1<2+++++++++2%36.:1q2++++2q1:.@ ;=>,2+++++++++2%3$.:1q2++++++++",
"&<8++++++++++2O&6:t,8++++++8,5:##=4,7++++++++++2Oo6:t,8+++++++2O",
"O2++++++++++++2w11,O2++++++2O,>:.$3%2+++++++++++2w11,O2++++++8qo",
"+++++++++++++++8qq82++++++++2a,5:6oO2++++++++++++8qq82++++++2q9$",
"++++++++++++++++22+++++++++++2O,11w2++++++++++++++22++++++++O&6s",
"++++++++++++++++++++++++++++++28qq8+++++++++++++++++++++++++O&6s",
"++++++++++++++++++++++++++++++++22++++++++++++++++++++++++++2q9$",
"+++++++++++++++++++++++++++++++++++++++++++++++++++++++++++++8qo",
"++++++++++++++++++++++++++++++++++++++++++++++++++++++++++++++2O",
"O2++++++++++++22++++++++++++++++++++++++++++++++++++++++++++++++",
"o,722+++++++28qq8+++++++++++++++++++++++++++++++++++++++++++++++",
"$>,%O2+++++2O,11w2++++++++++++++++++++++++++++++++++++++++++++++",
"@=4o&w8++22a,5:6oO2+++++++++++++++++++++++++++++++++++++++++++++",
" -=661qOOO%,>:.$3%2+++++++++++++22++++++++++++++++++++++++++++++",
".d=661,7,334:##=4,7++++++++++++8qq82++++++++++++++++++++++++++++",
" =4o&,7,>$$=;@ ;=>,2++++++++++2w11,O2+++++++++++++22++++++++++++",
" X3ff%%o6.:$XXX=.6oO2++++++++2Oo6:5,a22++++++++++0<<82++++++++++",
" X3ffffo6:t33334:6o%2++++++++2%3$.:>,%OOOOO2++++2<11,O2+++++++2O",
" =4333oer9,%OO%,9re,72++++++27,4=@#:43o&&&&,72++2<1re,722++228q&",
" ;=$X$6ri,722227,eg1,O2++++2O,9:; @;=$$$$6$>,O2++8,er9,%OOOO%,1*",
"XX$yu.:9,O2++++2O,1ge,722++8,er6$XX$$$$$$:.:4,7++Of36:433oo3oer6",
"o33t::t,72++++++27,er9,%OOO<1reo3ooo&&&o34:.:>,2+Of3$;=XXXX$6pio",
"OO%,>>,O2++++++++2%o6:43o,7w11,%OOOOOOOO%,>:.6&O28,4= @    ;:>,%",
"+227,,7++++++++++2O3$;=$61,7q<822++++++22a,5:*&OOq1:; @ h  =4,aO",
"+++8,,8+++++++++++OoX @.:1qOO2+++++++++++2O,11wOOq16$XX=-  X3%2+",
"++2q99q2++++++++++OoX@#:5,8+++++++++++++++28qq8++8w&o334=#@X3O2+",
"+2O&66&O2++++++++2O3$.:>,O2+++++++++++++++++22++++2OOO%,>:.$3O2+",
"+2%o66o%2++++++++2%o6:5,a2+++++++++++++++++++++++++++22a,5:6o%2+",
"Oa,4y:t,8++++++++8,er9,O2++++++++++++++++++++++++++++++2O,9re,7O",
"%,>=;u:1q2++++++2<1re,72++++++++++++++++++++++++++++++++27,eg1,%",
"34=.=$61q2++++++2<11,O2++++++++++++++++++++++++++++++++++2O,1ri3",
"X=.:43ow8++++++++0<<82++++++++++++++++++++++22++++++++++++27,ep$",
"@.=>,%O2++++++++++22+++++++++++++++++++++++8qq8++++++++++++2%o$#",
"#:4,a22+++++++++++++++++++++++++++++++++++2w11w2+++++++++++2Oo$@",
"$>,O2++++++++++++++++++++++++++++++++++++2O&66&O2+++++++++++O&$ ",
"o,72+++++++++++++++++++++++++++++++++++++2%o66o%2+++++++++++O&$ ",
"O2+++++++++++++++++++++++++++++++++++++++8,5::t,72+++++++++2OoX ",
"++++++++++++22++++++++++++++++++++++++++2q1:uu:9,O2++++++++2%3X ",
"++++++++++28qq8+++++++++++++++++++++++++2q16$$6ri,722++++22a,4= ",
"+++++++++2O,11w2++++++++++++++++++++22+++8w&o3oer9,%OOOOOO%,>=-.",
"++++++++2a,5:6oO2++++++++++++++++228qq8+++2OO%%o6:433o&&&o34= ..",
"+++++++2O,>:.$3%2+++++++++++++2OOO%,11w2+++++O%o6.=XX$$$$$$=-...",
"+++++++8,5:#@=4,a22++++++++++8w&&o34:6&O++++++2,>=u@@;=$$$$=-...",
"O2++++2q1:.@h-=>,%O2++++++++2q166$X=;$oO+++++++7,4yssy43oo34= ..",
"&<8+++2q16$jd @=4o&w8+++++++2q166=;#@$3O2++++++2O,>66>,%OO%,>=; ",
"*1<2+++8wo34j  -=661q2+++++++8w&o4ys#$3%2+++++++27,&&,72222a,4=@",
"*1<2++++2%%3$@ -=661q2++++++++2O%,>6$pe,72++++++++2OO2+++++2O,>$",
"&<8++++++O%3$##=4o&w8++++++++++227,o3er1,O2+++++++++++++++++27,o",
"O2++++++++O,>66>,%O2++++++++++++++2O%,1ge,72++++++++++++++++++2O",
"++++++++++O7,&&,722++++++++++++++++227,er9,O2+++++++++++++++++++",
"++++++++28q,a%O2+++++++++++++++++++++2%o6:t,8+++++++++++++++++++",
"O2+++++2O,1k,fO++++++++++++++++++++++2O3$.:1q2++++22++++++++++2O",
"&w8++++7,5::5,7+++++++++++++++++++++++Oo$u:9,2+++8<<8++++++++8w&",
"6kw2++2,>=;;=>,2++++++++++++++++++++++O&$=5,7+++2<11<2++++++2wk6",
"#6&O++Oo$@  @$oO++++++++++++++++++++++O&$$3%O+++O&**&O++++++O&6#"
};
