/* XPM */
static char *result[] = {
/* columns rows colors chars-per-pixel */
"64 64 103 2 ",
"   c #703F58",
".  c #714058",
"X  c #78465B",
"o  c #885162",
"O  c #905865",
"+  c #8F5765",
"@  c #703F57",
"#  c #6F3F57",
"$  c #78455B",
"%  c #905866",
"&  c #875162",
"*  c #77445B",
"=  c #76445A",
"-  c #724159",
";  c #724158",
":  c #75435A",
">  c #7E4A5E",
",  c #8A5363",
"<  c #895262",
"1  c #7D495D",
"2  c #905765",
"3  c #885262",
"4  c #824D5F",
"5  c #814D5F",
"6  c #77455B",
"7  c #8E5664",
"8  c #8D5664",
"9  c #7E4A5D",
"0  c #8D5564",
"q  c #895363",
"w  c #895362",
"e  c #834E60",
"r  c #7B485C",
"t  c #814C5F",
"y  c #76435A",
"u  c #724058",
"i  c #844E60",
"p  c #7C485D",
"a  c #744259",
"s  c #77445A",
"d  c #915966",
"f  c #955D69",
"g  c #915A67",
"h  c #855162",
"j  c #834F61",
"k  c #8B5464",
"l  c #6F3E57",
"z  c #945C68",
"x  c #9F676F",
"c  c #A46C73",
"v  c #A06971",
"b  c #9A636D",
"n  c #925B68",
"m  c #9B636D",
"M  c #A76F74",
"N  c #AB7377",
"B  c #A86F75",
"V  c #A06770",
"C  c #8E5665",
"Z  c #A76E74",
"A  c #A66E74",
"S  c #AC7478",
"D  c #9A626C",
"F  c #965E69",
"G  c #AA7276",
"H  c #AC7477",
"J  c #A97176",
"K  c #A66E73",
"L  c #A46C72",
"P  c #A56D73",
"I  c #9C646D",
"U  c #9F6770",
"Y  c #734159",
"T  c #935B68",
"R  c #AC7377",
"E  c #AA7277",
"W  c #AD7578",
"Q  c #915866",
"!  c #A26B72",
"~  c #9F6870",
"^  c #9D6770",
"/  c #925B67",
"(  c #8F5665",
")  c #A06870",
"_  c #965E6A",
"`  c #905A67",
"'  c #845162",
"]  c #7E4C5F",
"[  c #8B5564",
"{  c #875161",
"}  c #6E3E57",
"|  c #7B475C",
" . c #7C495D",
".. c #8E5866",
"X. c #8E5766",
"o. c #9D666F",
"O. c #704058",
"+. c #955C68",
"@. c #7D4A5D",
"#. c #925A67",
"$. c #A87075",
"%. c #945C69",
"&. c white",
/* pixels */
"    . .                   X o O + + + + + + + + + + + + + + + + + + + + + + + + + + + + + + + + O o X @ # $ o % % & * * & O + + ",
"X = - - = X X $ $ X X = ; $ o O + + + + + + + + + + + + + + + + + + + + + + + + + + + + + + + + O o $ ; : > , O O < 1 1 < 2 + + ",
"3 4 = : 4 3 o & & o 3 5 : 6 & O + + + + + + + + + + + + + + + + + + + + 2 2 + + + + + + + + + + O & $ = 5 , 7 + + 8 < < 8 + + + ",
"% , 9 1 , % O O O O % , 1 1 , O + + + + + + + + + + + + + + + + + + 2 8 < < 0 + + + + + + + + 2 O o $ $ 3 % 2 + + + 2 2 + + + + ",
"O 7 , q 8 2 2 + + 2 2 8 q , 7 O + + + + + + + + + + + + + + + + + 2 O , 1 1 < 2 + + + + + + + 2 % 3 $ $ o O 2 + + + + + + + + + ",
"+ 2 O 2 + + + + + + + + O 7 w < 8 2 2 + + + + + + + + + + + + 2 2 7 , e r 1 < 2 + + + + + + + 8 , t y $ o O 2 + + + + + + + + + ",
"O 2 2 + + + + + + + + + O q 1 1 , % O 2 + + + + + + + + 2 O O O % , 9 r e , 8 + + + + + + + 2 q 1 : u X 3 % 2 + + + + + + + + + ",
"& < 8 + + + + + + + + + 2 < 1 r i 3 & w 8 + + + + + + 8 w & o 3 3 4 : 6 o % 2 + + + + + + + 2 q 1 : ; = 4 , 8 + + + + + + + + + ",
"* 1 < 2 + + + + + + + + + 8 , i p 6 6 1 q 2 + + + + 2 q 1 6 $ X X = . 6 o O 2 + + + + + + + + 8 , 4 = ; : 1 q 2 + + + + + + + + ",
"* 1 < 2 + + + + + + + + + 2 % 3 6 . : 1 q 2 + + + + 2 q 1 : . @   ; = > , 2 + + + + + + + + + 2 % 3 $ . : 1 q 2 + + + + + + + + ",
"& < 8 + + + + + + + + + + 2 O & 6 : t , 8 + + + + + + 8 , 5 : # # = 4 , 7 + + + + + + + + + + 2 O o 6 : t , 8 + + + + + + + 2 O ",
"O 2 + + + + + + + + + + + + 2 w 1 1 , O 2 + + + + + + 2 O , 9 : . $ 3 % 2 + + + + + + + + + + + 2 w 1 1 , O 2 + + + + + + 8 q o ",
"+ + + + + + + + + + + + + + + 8 q q 8 2 + + + + + + + + 2 7 , t a s & O 2 + + + + + + + + + + + + 8 q q 8 2 + + + + + + 2 q 9 $ ",
"+ + + + + + + + + + + + + + + + 2 2 + + + + + + + + + + + d f g h j k + + + + + + + + + + + + + + + 2 2 + + + + + + + + O & 6 l ",
"+ + + + + + + + + + + + + + + + + + + + + + + + + + + + 7 z x c v b n + + + + + + + + + + + + + + + + + + + + + + + + + O & 6 l ",
"+ + + + + + + + + + + + + + + + + + + + + + + + + + + % z m M N B V z 7 C + + + + + + + + + + + + + + + + + + + + + + + 2 q 9 $ ",
"+ + + + + + + + + + + + + + + + + + + + + + + + + + 7 z x M N Z m z % 7 7 + + + + + + + + + + + + + + + + + + + + + + + + 8 q o ",
"+ + + + + + + + + + + + + + + + + + + + + + + + + % z m A S S A D f f F F z % + + + + + + + + + + + + + + + + + + + + + + + 2 O ",
"O 2 + + + + + + + + + + + + 2 2 + + + + + + + + 7 z x A G H N J K L c P P x z 7 + + + + + + + + + + + + + + + + + + + + + + + + ",
"o , 7 2 2 + + + + + + + 2 8 q q 8 + + + + + + % z I M S N N N N N H H S S M I z % + + + + + + + + + + + + + + + + + + + + + + + ",
"$ > , % O 2 + + + + + 2 O , 1 1 w 2 + + + + C z U M G N N N N N N N N H H G M U z C + + + + + + + + + + + + + + + + + + + + + + ",
"@ = 4 o & w 8 + + 2 2 C , 5 : 6 o O 2 + + + C z U M G N N N N N N N N N N G M U z C + + + + + + + + + + + + + + + + + + + + + + ",
"  - = 6 6 1 q O O O % , > : . $ 3 % 2 + + + + % z I M S N N N N N N N N S M I z % + + + + + + + + + + + + + + + + + + + + + + + ",
". Y = 6 6 1 , 7 , 3 3 4 : # # = 4 , 7 + + + + C 7 T x A G H H R H S S E M x z 7 + + + + + + + + + + + + + + + + + + + + + + + + ",
"  = 4 o & , 7 , > $ $ = ; @   ; = > , 2 + + + + 7 + T m A S S H S W W M m T % + + + + + + + + + + + 2 2 + + + + + + + + + + + + ",
"  X 3 Q Q % % o 6 . : $ X X X = . 6 o O 2 + + d f z % T x P P ! ~ ^ ^ b / ( + + + + + + + + + + + 0 < < 8 2 + + + + + + + + + + ",
"  X 3 Q Q Q Q o 6 : t 3 3 3 3 4 : 6 o % 2 + C f ) ) z % z _ _ ` ' ] ] j [ 2 O O O O O 2 + + + + 2 < 1 1 , O 2 + + + + + + + 2 O ",
"  = 4 3 3 3 o e r 9 , % O O % , 9 r e , 7 + + f ) ) f C ( + + { s } } : 5 3 o & & & & , 7 2 + + 2 < 1 r e , 7 2 2 + + 2 2 8 q & ",
"  ; = $ X $ 6 r i , 7 2 2 2 2 7 , e | 1 , O + d f f d + + 2 + { s l l . y $ $ $ $ 6 $ > , O 2 + + 8 , e r 9 , % O O O O % , 1 * ",
"X X $ y u . : 9 , O 2 + + + + 2 O , 1 | e , C + + + + 8 < w 8 w 9 $ $ $ $ $ $ $ $ : . : 4 , 7 + + O Q 3 6 : 4 3 3 o o 3 o e r 6 ",
"o 3 3 t : : t , 7 2 + + + + + + 2 7 , e r 9 , O 2 2 2 < 1 1 < 8 , o o o & & & o 3 4 : . : > , 2 + O Q 3 $ ; = X X X X $ 6 p i o ",
"O O % , > > , O 2 + + + + + + + + 2 % o 6 : 4 3 o , 7 <  .> ..f d + 2 O O O O O % , > : . 6 & O 2 8 , 4 =   @         ; : > , % ",
"+ 2 2 7 , , 7 + + + + + + + + + + 2 O 3 $ ; = $ 6 1 , 0 3 X.o.) z C + + + + + 2 2 C , 5 : * & O O q 1 : ;   @   O.    = 4 , C O ",
"+ + + 8 , , 8 + + + + + + + + + + + O o X   @ . : 1 w d +.I M M I z % + + + + + + 2 O , 1 1 w O O q 1 6 $ X X = -     X 3 % 2 + ",
"+ + 2 q 9 9 q 2 + + + + + + + + + + O o X @ # : 5 q 0 z x M E E M U z C + + + + + + 2 8 q q 8 + + 8 w & o 3 3 4 = # @ X 3 O 2 + ",
"+ 2 O & 6 6 & O 2 + + + + + + + + 2 O 3 $ . : > , + + _ P W S G M U z C + + + + + + + + 2 2 + + + + 2 O O O % , > : . $ 3 O 2 + ",
"+ 2 % o 6 6 o % 2 + + + + + + + + 2 % o 6 : 5 , 8 ( C _ P W W M I z % + + + + + + + + + + + + + + + + + + 2 2 C , 5 : 6 o % 2 + ",
"O C , 4 y : t , 8 + + + + + + + + 8 , e r @., #.f z % z x P P x z 7 + + + + + + + + + + + + + + + + + + + + + 2 O , 9 r e , 7 O ",
"% , > = ; u : 1 q 2 + + + + + + 2 < 1 r e , 8 f ) U z O z _ _ z % + + + + + + + + + + + + + + + + + + + + + + + 2 7 , e | 1 , % ",
"3 4 = . = $ 6 1 q 2 + + + + + + 2 < 1 1 , 2 + _ A $.I z % 7 7 + + + + + + + + + + + + + + + + + + + + + + + + + + 2 O , 1 r i 3 ",
"X = . : 4 3 o w 8 + + + + + + + + 0 < < 8 + ( _ P N $.U z 7 C + + + + + + + + + + + + + 2 2 + + + + + + + + + + + + 2 7 , e p $ ",
"@ . = > , % O 2 + + + + + + + + + + 2 2 + + C z x P A ) z C + + + + + + + + + + + + + 8 q q 8 + + + + + + + + + + + + 2 % o $ # ",
"# : 4 , C 2 2 + + + + + + + + + + + + + + + + d z _ _ %.d + + + + + + + + + + + + + 2 w 1 1 w 2 + + + + + + + + + + + 2 O o $ @ ",
"$ > , O 2 + + + + + + + + + + + + + + + + + + + + C C + + + + + + + + + + + + + + 2 O & 6 6 & O 2 + + + + + + + + + + + O & $   ",
"o , 7 2 + + + + + + + + + + + + + + + + + + + + + + + + + + + + + + + + + + + + + 2 % o 6 6 o % 2 + + + + + + + + + + + O & $   ",
"O 2 + + + + + + + + + + + + + + + + + + + + + + + + + + + + + + + + + + + + + + + 8 , 5 : : t , 7 2 + + + + + + + + + 2 O o X   ",
"+ + + + + + + + + + + + 2 2 + + + + + + + + + + + + + + + + + + + + + + + + + + 2 q 1 : u u : 9 , O 2 + + + + + + + + 2 % 3 X   ",
"+ + + + + + + + + + 2 8 q q 8 + + + + + + + + + + + + + + + + + + + + + + + + + 2 q 1 6 $ $ 6 r i , 7 2 2 + + + + 2 2 C , 4 =   ",
"+ + + + + + + + + 2 O , 1 1 w 2 + + + + + + + + + + + + + + + + + + + + 2 2 + + + 8 w & o 3 o e r 9 , % O O O O O O % , > = - . ",
"+ + + + + + + + 2 C , 5 : 6 o O 2 + + + + + + + + + + + + + + + + 2 2 8 q q 8 + + + 2 O O % % o 6 : 4 3 3 o & & & o 3 4 =   . . ",
"+ + + + + + + 2 O , > : . $ 3 % 2 + + + + + + + + + + + + + 2 O O O % , 1 1 w 2 + + + + + O % o 6 . = X X $ $ $ $ $ $ = - . . . ",
"+ + + + + + + 8 , 5 : # @ = 4 , C 2 2 + + + + + + + + + + 8 w & & o 3 4 : 6 & O + + + + + + 2 , > = u @ @ ; = $ $ $ $ = - . . . ",
"O 2 + + + + 2 q 1 : . @ O.- = > , % O 2 + + + + + + + + 2 q 1 6 6 $ X = ; $ o O + + + + + + + 7 , 4 y l l y 4 3 o o 3 4 =   . . ",
"& < 8 + + + 2 q 1 6 $ s Y   @ = 4 o & w 8 + + + + + + + 2 q 1 6 6 = ; # @ $ 3 O 2 + + + + + + 2 O , > 6 6 > , % O O % , > = ;   ",
"* 1 < 2 + + + 8 w o 3 4 s     - = 6 6 1 q 2 + + + + + + + 8 w & o 4 y l # $ 3 % 2 + + + + + + + 2 7 , & & , 7 2 2 2 2 C , 4 = @ ",
"* 1 < 2 + + + + 2 % % 3 $ @   - = 6 6 1 q 2 + + + + + + + + 2 O % , > 6 $ p e , 7 2 + + + + + + + + 2 O O 2 + + + + + 2 O , > $ ",
"& < 8 + + + + + + O % 3 $ # # = 4 o & w 8 + + + + + + + + + + 2 2 7 , o 3 e r 1 , O 2 + + + + + + + + + + + + + + + + + 2 7 , o ",
"O 2 + + + + + + + + O , > 6 6 > , % O 2 + + + + + + + + + + + + + + 2 O % , 1 | e , 7 2 + + + + + + + + + + + + + + + + + + 2 O ",
"+ + + + + + + + + + O 7 , & & , 7 2 2 + + + + + + + + + + + + + + + + 2 2 7 , e r 9 , O 2 + + + + + + + + + + + + + + + + + + + ",
"+ + + + + + + + 2 8 q , C % O 2 + + + + + + + + + + + + + + + + + + + + + 2 % o 6 : t , 8 + + + + + + + + + + + + + + + + + + + ",
"O 2 + + + + + 2 O , 1 @., Q O + + + + + + + + + + + + + + + + + + + + + + 2 O 3 $ . : 1 q 2 + + + + 2 2 + + + + + + + + + + 2 O ",
"& w 8 + + + + 7 , 5 : : 5 , 7 + + + + + + + + + + + + + + + + + + + + + + + O o $ u : 9 , 2 + + + 8 < < 8 + + + + + + + + 8 w & ",
"6 @.w 2 + + 2 , > = ; ; = > , 2 + + + + + + + + + + + + + + + + + + + + + + O & $ = 5 , 7 + + + 2 < 1 1 < 2 + + + + + + 2 w @.6 ",
"# 6 & O + + O o $ @     @ $ o O + + + + + + + + + + + + + + + + + + + + + + O & $ $ 3 % O + + + O & * * & O + + + + + + O & 6 # "
};
