/* XPM */
static char *result[] = {
/* columns rows colors chars-per-pixel */
"64 64 198 2 ",
"   c #370238",
".  c #380338",
"X  c #380339",
"o  c #390339",
"O  c #390439",
"+  c #3A0439",
"@  c #3A0539",
"#  c #3A053A",
"$  c #3B063A",
"%  c #3C073B",
"&  c #3C083B",
"*  c #3D083B",
"=  c #3D093B",
"-  c #3E083B",
";  c #3E093B",
":  c #3E093C",
">  c #3F0A3C",
",  c #420D3E",
"<  c #430F3E",
"1  c #430F3F",
"2  c #440F3F",
"3  c #44103F",
"4  c #45103F",
"5  c #451140",
"6  c #461240",
"7  c #471340",
"8  c #471341",
"9  c #481240",
"0  c #481341",
"q  c #491341",
"w  c #481441",
"e  c #491441",
"r  c #491542",
"t  c #4A1542",
"y  c #4A1642",
"u  c #4B1642",
"i  c #4C1643",
"p  c #4C1743",
"a  c #4D1743",
"s  c #4D1843",
"d  c #4D1844",
"f  c #4E1844",
"g  c #4E1944",
"h  c #4F1944",
"j  c #4F1A44",
"k  c #501A45",
"l  c #511E46",
"z  c #511E47",
"x  c #521E47",
"c  c #521F47",
"v  c #532047",
"b  c #562148",
"n  c #572349",
"m  c #582349",
"M  c #59244A",
"N  c #58254A",
"B  c #59254A",
"V  c #5A254A",
"C  c #59264B",
"Z  c #59274B",
"A  c #5A274B",
"S  c #5E284C",
"D  c #5F294D",
"F  c #60294D",
"G  c #633150",
"H  c #633251",
"J  c #643251",
"K  c #643351",
"L  c #653351",
"P  c #663452",
"I  c #663552",
"U  c #673552",
"Y  c #673653",
"T  c #6A3352",
"R  c #683552",
"E  c #683553",
"W  c #693553",
"Q  c #6B3452",
"!  c #6B3453",
"~  c #683653",
"^  c #693653",
"/  c #683753",
"(  c #693753",
")  c #6A3753",
"_  c #6A3754",
"`  c #6C3954",
"'  c #6C3955",
"]  c #6D3A55",
"[  c #6E3A55",
"{  c #6E3B56",
"}  c #6D3C56",
"|  c #6F3C56",
" . c #6E3D56",
".. c #6E3D57",
"X. c #6F3E57",
"o. c #6F3F57",
"O. c #703C56",
"+. c #703F57",
"@. c #703F58",
"#. c #743E58",
"$. c #753F58",
"%. c #704058",
"&. c #714058",
"*. c #714158",
"=. c #724058",
"-. c #734058",
";. c #724158",
":. c #724159",
">. c #734159",
",. c #724259",
"<. c #734259",
"1. c #764059",
"2. c #744259",
"3. c #744359",
"4. c #74435A",
"5. c #75435A",
"6. c #76435A",
"7. c #75445A",
"8. c #76445A",
"9. c #77445A",
"0. c #77445B",
"q. c #77455B",
"w. c #78425A",
"e. c #78435A",
"r. c #7B435A",
"t. c #7B435B",
"y. c #78455B",
"u. c #7B445B",
"i. c #78465B",
"p. c #79465B",
"a. c #7C445B",
"s. c #7C455B",
"d. c #79465C",
"f. c #79475C",
"g. c #7A475C",
"h. c #7B475C",
"j. c #7D455C",
"k. c #7E465C",
"l. c #7E475C",
"z. c #7A485C",
"x. c #7B485C",
"c. c #7B485D",
"v. c #7C485D",
"b. c #7D495D",
"n. c #7F485D",
"m. c #7D4A5D",
"M. c #7E4A5D",
"N. c #7E4A5E",
"B. c #7F4A5E",
"V. c #7E4B5E",
"C. c #7F4B5E",
"Z. c #80495D",
"A. c #80495E",
"S. c #81495E",
"D. c #814A5E",
"F. c #804C5F",
"G. c #814C5F",
"H. c #814D5F",
"J. c #824D5F",
"K. c #824D60",
"L. c #834D60",
"P. c #824E60",
"I. c #834E60",
"U. c #844E60",
"Y. c #844F60",
"T. c #854F60",
"R. c #875061",
"E. c #875162",
"W. c #885162",
"Q. c #885262",
"!. c #895262",
"~. c #895362",
"^. c #895363",
"/. c #8A5363",
"(. c #8B5363",
"). c #8A5463",
"_. c #8B5463",
"`. c #8C5463",
"'. c #8B5464",
"]. c #8B5564",
"[. c #8C5564",
"{. c #8D5564",
"}. c #8D5664",
"|. c #8E5664",
" X c #8E5665",
".X c #8E5765",
"XX c #8F5765",
"oX c #905765",
"OX c #905865",
"+X c #905866",
"@X c #915866",
"#X c #915966",
"$X c #925966",
"%X c #925A66",
"&X c #925A67",
"*X c #935A67",
"=X c #935B67",
"-X c None",
/* pixels */
"@.+.o.y.W.OXXXXXXXXXOXE.y.y.Q.+XOXXXXXXXXXXXXXXXXXXXXXXXXXXXXXXXXXXXOXE.0.0.E.OXXXXXXXXXXXXXXXXXOXW.i.+.o.y.W.+X+XE.0.0.E.OXXXXX",
"y.y.y.M.^.oXXXXXXXXXOXE.q.5.J./.|.XXXXXXXXXXXXXXXXXXXXXXXXXXXXXXXXXXoX^.m.M./.OXXXXXXXXXXXXXXXXXOXW.y.;.5.N./.OXOX!.b.b.!.oXXXXX",
"E.E.E.^.}.XXXXXXXXXXOXE.y.&.8.N./.oXXXXXXXXXXXXXXXXXXXXXXXXXXXXXXXXXXX}././.|.OXXXXXXXXXXXXXXXXXOXE.y.8.H./.|.XXXX}.!.!.}.XXXXXX",
"OXOXOXoXXXXXXXXXXXXXoX/.N.5.&.q.E.OXXXXXXXXXXXXXXXXXXXXXXXXXXXXXXXXXXX|./.Q.E.~.}.XXXXXXXXXXXXoXOXW.q.q.W.+XoXXXXXXXoXoXXXXXXXXX",
"XXXXXXXXXXXXXXXXXXXXXX|./.H.5.0.E.OXXXXXXXXXXXXXXXXXXXXXXXXXXXXXXXoXOX/.N.y.q.b.^.OXOXoXXXXXXXoX+XW.q.q.E.OXoXXXXXXXXXXXXXXXXXXX",
"XXXXXXXXXXXXXXXXXXXXXXoXOX/.b.b.^.OXOXXXXXXXXXXXXXXXXXXXXXXXXXoXoX X/.J.8.&.5.m./.|.^.!.{.XXoX|./.I.x.b.^.oXXXXXXXXXXXXXXXXXXXXX",
"OXoXXXXXXXXXXXXXXXXXXXXXoX}.^.^.|.OXOXOXOXoXXXXXXXXXoXOXOXOXOXOX+X/.N.5.=.8.J./. X~.b.b.!.OX+X/.b.h.I./.}.XXXXXXXXXXXXXXXXXXXXXX",
"E.!.}.XXXXXXXXXXXXXXXXXXXXXXOX|./.E.E.E.E.~.}.XXXX}.~.E.W.W.E.W.Q.J.8.X.o.i.!.#X@X^.b.b.~. X/.I.h.b./.OXoXXXXXXXXXXXXXXXXXXXXXXX",
"0.b.!.oXXXXXXXXXXXXXXXXXXXXXOX/.N.y.q.q.q.b.^.OXOX^.b.q.y.y.y.y.i.8.;.o.o.y.Q.@X+X|.~.^.|.^.m.x.I./.|.oXXXXXXXXXXXXXXXXXXXXXXXXX",
"0.b.!.oXXXXXXXXXXXXXXXXXXXXXOXE.y.&.5.q.q.b.^.OXOX^.b.5.&.=.8.8.=.;.8.i.y.v.Y.Q.W./. X@X+XE.q.q.W.+XoXXXXXXXXXXXXXXXXXXXXXXXXXXX",
"E.!.}.XXXXXXXXXXXXXXXXXXXXXXOXE.q.5.H.W.E.~.}.XXXX}./.G.5.5.J.J.5.5.J.!.Q.Y.v.y.q.N./.#X@XW.q.q.W.OXoXXXXXXXXXXXXXXXXXXXXXXXoXOX",
"OXoXXXXXXXXXXXXXXXXXXXXXXXXXOXW.i.i.Q.@X+XoXXXXXXXOX@X/.m.N._._.N.b./.@X@XQ.y.o.@.q.I.^.!.J.8.y.W.OXoXXXXXXXXXXXXXXXXXXXXX}.^.W.",
"XXXXXXXXXXXXXXXXXXXXXXXXXXXXOXW.i.d.!.@XOXXXXXXXoXOX+X X/./. X X/.^.}.OX+XQ.y.@.&.2.i.f.p.8.;.i.Q.+XoXXXXXXXXXXXXXXXXXXXoX^.M.y.",
"XXXXXXXXXXXXXXXXXXXXXXXXXXOX+XU.[ ` B.'.XX@X@X.X).Q.W./. X X/.^.|.OXXXOX@X^.f. .U G G U  .*.*.q.K./. XoXoXXXXXXXXXXXXXXXOXE.q.X.",
"XXXXXXXXXXXXXXXXXXXXXXXXoX#X#Xk.m x ' F.[.%X%X].C.i.y.N._._.N.b./.OXXXOX#X).x.Y c 6 6 c ~ <.<.<.8.N./.+XOXOXOXoXXXXXXXXXOXE.q.X.",
"XXXXXXXXXXXXXXXXXXXXoX}.^.Q.^.#.i , N ) 1.a.a.$.W P } q.Y.I.8.i.Q.#X#X(.A.$._ Z 2 . . 3 A L J U } 8.K.Q.W.E.E.~.}.XXXXXXoX^.M.y.",
"XXXXXXXXXXXXXXXXXXoXOX/.b.i.f.^ e % 1 t f k k a w z Y 7.i.q.<.f.^.*X=XD.D p r 4 = @ @ ; 4 w 8 x U <.q.i.y.q.q.b.^.oXXXXXXX}.^.W.",
"XXXXXXXXXXXXXXXXoX|./.I.c.8.<.G w O O + O O O O o 3 A L J G G ^ $.s.j.! q . O @ $ $ $ $ @ O X 8 J :.&.;.8.q.q.b.^.oXXXXXXXXXoXOX",
"OXoXXXXXXXXXXXoXOX/.b.x.U.I.y.G w + @ # @ @ @ @ @ ; 4 w w w w t f k k t > O @ # $ $ $ $ # O O 8 J ;.%.5.J.W.E.~.}.XXXXXXXXXXXXXX",
"W./.|.oXoXXXXX}./.I.h.M._./.g.G w @ # $ $ $ $ $ $ $ @ @ @ @ @ @ O O O @ $ $ $ $ $ $ $ $ $ # @ w J 2.q.N./.+XOXoXXXXXXXXXXXXXXXXX",
"y.N./.+XOXOXOX^.b.x.I./.XX/.g.G w @ # $ -X-X-X-X$ $ # # # # # # @ @ @ # $ $ -X-X-X-X-X-X$ # @ w H y.I./. XoXoXXXXXXXXXXXXXXXXXXX",
"+.8.J.W.E./. XE.q.q.Q.XX_.I.i.J w @ # $ -X-X-X-X$ $ $ $ $ $ $ $ $ $ $ $ $ $ -X-X-X-X-X-X$ # @ w J z.^.+XoXXXXXXXXXXXXXXXXXXXXXXX",
"@.:.8.q.q.M./.W.y.y.!._.B.q.5.L w @ # $ -X-X-X-X-X-X-X-X-X-X-X-X-X-X-X-X-X-X-X-X-X-X-X-X$ # @ w K x.^.OXoXXXXXXXXXXXXXXXXXXXXXXX",
"&.>.8.q.q.M./.Q.y.8.J.K.8.} Y A 4 @ # $ -X-X-X-X-X-X-X-X-X-X-X-X-X-X-X-X-X-X-X-X-X-X-X-X$ # @ 3 Z | T.OXOXXXXXXXXXXXXXXXXXXXXXXX",
"@.8.J.W.E./. XQ.i.;.8.8.<.I c 3 ; $ $ $ -X-X-X-X-X-X-X-X-X-X-X-X-X-X-X-X-X-X-X-X-X-X-X-X$ $ $ * 1 M l.#X+XXXXXXXXXXXXXXXXXXXXXXX",
"+.y.Q.@X@X+X+XQ.y.=.5.p.g.^ 0 . O $ $ $ -X-X-X-X-X-X-X-X-X-X-X-X-X-X-X-X-X-X-X-X-X-X-X-X$ $ $ O   f r.#X+XXXXXXXXXXXXXXXXXXXXXXX",
"o.y.W.+X+X@X@XW.q.5.G.^./.$.u   O $ $ $ -X-X-X-X-X-X-X-X-X-X-X-X-X-X-X-X-X-X-X-X-X-X-X-X$ $ $ O   f t.$X+XXXXXXXXXXXXXXXXXXXoXOX",
"y.N.^.|./.E.W.I.x.M./.#X$XA.D q > $ $ $ -X-X-X-X-X-X-X-X-X-X-X-X-X-X-X-X-X-X-X-X-X-X-X-X$ $ @ % < n e._.XXoXoXXXXXXXXXXXXX}.!.E.",
"W./.|./.b.9.0.x.U./.|.OXOX(.D.! t @ # $ -X-X-X-X-X-X-X-X-X-X-X-X-X-X-X-X-X-X-X-X-X-X$ $ $ @ O < C ( >.N./.+XOXOXOXOXOXOXOX!.b.0.",
"OXOXOX^.b.9.9.b./.OXoXXXXX#X*Xs.k O @ $ -X-X-X-X-X-X-X-X-X-X-X-X-X-X-X-X-X-X-X-X-X-X$ $ $ > e V O.i.:.5.J.Q.Q.W.W.W.W./.|.^.b.0.",
"XXXXXX}.~.E.E.^.}.oXXXXXXX#X&Xa.k O @ $ -X-X-X-X-X-X-X-X-X-X-X-X-X-X-X-X-X-X-X-X-X-X$ # @ t ! Z.R.I.8.&.8.i.i.i.i.y.y.N./.|.^.E.",
"XXXXXXXXoXOXOXoXXXXXXXXXXX+X#Xt.j O @ $ -X-X-X-X-X-X-X-X-X-X-X-X-X-X-X-X-X-X-X-X-X-X$ @ O k j.=X%X/.N.8.;.@.@.@.@.+.+.y.W.OXOXOX",
"XXXXXXXXXXXXXXXXXXXXXXXXXX+X#Xt.j O @ $ -X-X-X-X-X-X-X-X-X-X-X-X-X-X-X-X-X-X-X-X-X-X$ @ O k s.*X#X X/.J.8.@.@.&.&.@.+.y.W.OXOXXX",
"XXXXXXXXXXXXXXXXXXXXXXXXXX+X#Xt.j O @ $ -X-X-X-X-X-X-X-X-X-X-X-X-X-X-X-X-X-X-X-X-X-X$ @ O f 1.[.XXOX+XQ.y.+.@.&.&.@.@.i.W.OXXXXX",
"XXXXXXXXoXoXXXXXXXXXXXXXXX+X#Xt.j O @ $ -X-X-X-X-X-X-X-X-X-X-X-X-X-X-X-X-X-X-X-X-X-X$ # @ t ) F.'.@X@XQ.y.+.+.@.@.@.@.i.W.OXXXXX",
"XXXXoX}.!.!.{.XXXXXXXXXXXX#X&Xa.k O @ $ -X-X-X-X-X-X-X-X-X-X-X-X-X-X-X-X-X-X-X-X-X-X$ # @ 3 C ] B.). X/.N.y.y.i.i.8.;.y.Q.OXoXXX",
"XXoXOX/.b.b.!.oXXXXXXXXXXX#X*Xs.k O @ $ -X-X-X-X-X-X-X-X-X-X-X-X-X-X-X-X-X-X-X-X-X-X$ $ $ = 1 v ` V.).|./.W.W.Q.Q.J.5.q.W.+XoXXX",
"OX|./.I.h.b.^.OXOXXXXXOX@X`.D.Q t @ # $ -X-X-X-X-X-X-X-X-X-X-X-X-X-X-X-X-X-X-X-X-X-X$ $ $ O . 8 R C.).OXOXOXOXOX+X/.M.x.I./.|.OX",
"+X/.b.h.I./. XOXOXOXOX#X&XD.F q > $ $ $ -X-X-X-X-X-X-X-X-X-X-X-X-X-X-X-X-X-X-X-X-X-X$ $ $ O   u #._..XXXXXXXXXoXoX|./.I.h.b./.+X",
"W.I.x.b./. X/.E.W.Q.Q.T.n.Q q . @ $ $ $ -X-X-X-X-X-X-X-X-X-X-X-X-X-X-X-X-X-X-X-X-X-X$ $ $ > q D A.#X+XXXXXXXXXXXXXoXOX/.b.x.U.Q.",
"q.x.I./. X/.m.q.y.p.p.{ B e : @ # $ -X-X-X-X-X-X-X-X-X-X-X-X-X-X-X-X-X-X-X-X-X-X-X-X$ # @ t ! D.(.OXXXXXXXXXXXXXXXXXoX|./.I.v.y.",
"0.b./.+XOX^.b.5.&.:.q.W w . @ $ $ $ -X-X-X-X-X-X-X-X-X-X-X-X-X-X-X-X-X-X-X-X-X-X-X-X$ @ O k s.*X#XXXXXXXXXXXXXXXXXXXXXoX+XW.y.o.",
"E.^.}.oXXX}./.G.5.8.I.$.a X @ $ -X-X-X-X-X-X-X-X-X-X-X-X-X-X-X-X-X-X-X-X-X-X-X-X-X-X$ @ O k a.&X#XXXXXXXXXXXXXXXXXXXXXoXOXW.y.+.",
"OXoXXXXXXXoXOX/.b.C.[.s.k O @ $ -X-X-X-X-X-X-X-X-X-X-X-X-X-X-X-X-X-X-X-X-X-X-X-X-X-X$ @ O k a.&X#XXXXXXXXXXXXXXXXXXXXXXXOXE.y.@.",
"XXXXXXXXXXXXoX}.^._.+Xa.k O @ $ -X-X-X-X-X-X-X-X-X-X-X-X-X-X-X-X-X-X-X-X-X-X-X-X-X-X$ @ O k s.*X#XXXXXXXXXXXXXXXXXXXXXXXOXE.y.@.",
"XXXXXXXXXXXXXXXXOXXX_.$.d O @ $ -X-X-X-X-X-X-X-X-X-X-X-X-X-X-X-X-X-X-X-X-X-X-X-X-X-X$ @ O e T S.(.OXXXXXXXXXXXXXXXXXXXoXOXW.i.@.",
"XXXXXXXXXXXXXXXXOX_.C.E r @ # $ -X-X-X-X$ $ $ $ $ $ $ $ $ $ -X-X-X-X-X-X-X-X-X-X$ $ $ # @ - 9 S Z.#X+XXXXXXXXXXXXXXXXXoX+XQ.i.@.",
"XXXXXXXXXXXXXXXXoX).C.^ r @ # $ -X-X-X-X$ $ # # # # # # $ $ -X-X-X-X-X-X-X-X-X-X$ $ $ : 5 8 5 b w._.XXoXoXXXXXXXXXoXoX X/.J.8.@.",
"XXXXXXXXXXXXXXXXXX.X[.$.d O @ $ -X-X$ $ $ $ @ @ @ @ @ @ $ $ $ $ -X-X$ $ $ $ $ $ $ # @ 5 A J G ~ =.N.).+XOXOXOXOXOXOX+X/.N.8.:.&.",
"XXXXXXXXXXXXXXXXXXXX[.$.s O @ $ -X-X$ $ @ ; 4 w w w w 4 ; @ $ $ -X-X$ $ # # @ @ @ O X 8 L 3.<.*.@.6.J.Q.Q.W.E.E.E.W.Q.J.8.@.&.&.",
"XXXXXXXXXXXXXXoXOX_.F.^ e o @ $ $ $ $ @ O 3 A L L L L A 3 O @ $ $ $ $ $ @ @ O O O X . 8 J <.<.&.@.;.8.i.i.y.y.y.y.y.y.8.:.&.&.&.",
"XXXXXXXXXXXXXX}./.J.8.I x 2 * @ @ @ @ * 2 c ~ <.,.,.<.~ c 1 & O @ @ @ = 4 y f j j h g n ^ *.&.>.9.8.;.+.+.;.8.y.y.y.y.8.:.&.&.&.",
"OXoXXXXXXXXXoX^.b.5.;.} ~ A 2 O O O O 2 Z / X.*.*.*.*...~ C 1 . X O o 2 Z _ 1.u.u.u.u.w.-.@.@.0.I.L.8.X.X.6.J.Q.W.W.Q.J.8.@.&.&.",
"E.!.}.XXXXXXoX^.b.q.y.q.5.~ c 8 8 8 7 c Y 4.q.i.i.i.i.f.z.| B g h a w l U z.).%X$X#X$X_.N.5.;.p.!._.N.q.q.N./.+XOXOX+X/.N.8.;.@.",
"0.b.!.oXXXXXXX}.~.W.Q.I.q. .U H G G G I } q.P.Q.Q.W.W.Q.!.T.l.t.u.$.W P } f.^.$X#X+X+XXX/.J.8.y.Q. X/.E.E./.|.oXoXoXoX X/.J.8.+.",
"0.b.!.oXXXXXXXXXoX+X+XQ.y.@.&.2.i.g.g.d.y.N./.+XOXOXOXOXOXOX#X#X$X].C.i.y.v.I./.|.oXoXOX@XQ.q.q.E.OXOXOXOXoXXXXXXXXXXXoXOX/.N.y.",
"E.!.}.XXXXXXXXXXXXOX+XQ.y.o.@.q.I.^.~.Q.Q./.|.oXoXXXXXXXXXOX+X+X+X.X).Q.Q.I.x.b./.+XOX+X@XQ.q.q.E.OXOXXXXXXXXXXXXXXXXXXXoX|./.W.",
"OXoXXXXXXXXXXXXXXXXXOX/.N.q.q.N./.+XOXOXOXoXXXXXXXXXXXXXXXXXXXXXXXXXoXOX+X/.b.x.I.Q.Q.Q.W.I.x.b.^.oXXXXXXXXXXXXXXXXXXXXXXXXXoXOX",
"XXXXXXXXXXXXXXXXXXXXOX|./.E.E./.|.oXoXXXXXXXXXXXXXXXXXXXXXXXXXXXXXXXXXoXoX|./.I.v.y.y.y.q.x.U./.}.XXXXXXXXXXXXXXXXXXXXXXXXXXXXXX",
"XXXXXXXXXXXXXXXXoX}.^./. X+XOXoXXXXXXXXXXXXXXXXXXXXXXXXXXXXXXXXXXXXXXXXXXXoX+XQ.y.o.o.&.5.M./.OXoXXXXXXXXXXXXXXXXXXXXXXXXXXXXXXX",
"OXoXXXXXXXXXXXoXOX/.b.m./.@XOXXXXXXXXXXXXXXXXXXXXXXXXXXXXXXXXXXXXXXXXXXXXXoXOXQ.y.o.X.5.H./.|.oXXXXXoXoXXXXXXXXXXXXXXXXXXXXXoXOX",
"E.~.}.XXXXXXXX|./.H.5.5.H./.|.XXXXXXXXXXXXXXXXXXXXXXXXXXXXXXXXXXXXXXXXXXXXXXOXW.y.;.8.N./.OXoXXXXX}.!.!.}.XXXXXXXXXXXXXXXX}.~.E.",
"q.m.~.oXXXXXoX/.N.8.;.;.8.N./.oXXXXXXXXXXXXXXXXXXXXXXXXXXXXXXXXXXXXXXXXXXXXXOXE.y.8.J./. XoXXXXXoX!.b.b.!.oXXXXXXXXXXXXXoX~.m.q.",
"o.q.E.OXXXXXOXW.y.+.@.@.+.y.W.OXXXXXXXXXXXXXXXXXXXXXXXXXXXXXXXXXXXXXXXXXXXXXOXE.y.y.Q.+XOXXXXXXXOXE.0.0.E.OXXXXXXXXXXXXXOXE.q.o."
};
