/* XPM */
static char *b4f8b0072e05478e8a355d7768671284WMlGUo0QRZf1OyeY[] = {
/* columns rows colors chars-per-pixel */
"64 64 115 2 ",
"   c None",
".  c #1F1F11",
"X  c #1E1D1D",
"o  c #241F17",
"O  c #2C1E16",
"+  c #241F1A",
"@  c #2B1F19",
"#  c #331D14",
"$  c #252117",
"%  c #2B2116",
"&  c #25211B",
"*  c #2B231A",
"=  c #322216",
"-  c #33261A",
";  c #36291D",
":  c #39291B",
">  c #1F1F20",
",  c #242323",
"<  c #292622",
"1  c #2B2925",
"2  c #27252A",
"3  c #2C2C2B",
"4  c #322B24",
"5  c #3A2D21",
"6  c #312D2A",
"7  c #3E3123",
"8  c #34312D",
"9  c #3A352D",
"0  c #272733",
"q  c #2B2735",
"w  c #292833",
"e  c #2E2E38",
"r  c #2F3030",
"t  c #333232",
"y  c #383632",
"u  c #3C3A35",
"i  c #373838",
"p  c #3A3A39",
"a  c #432314",
"s  c #4D2513",
"d  c #422618",
"f  c #522612",
"g  c #5B2A14",
"h  c #532B19",
"j  c #652F15",
"k  c #623018",
"l  c #6C3419",
"z  c #73361A",
"x  c #40312A",
"c  c #43382D",
"v  c #433B32",
"b  c #433E3C",
"n  c #403E3B",
"m  c #43413F",
"M  c #43413E",
"N  c #4C463E",
"B  c #3F3F40",
"V  c gray25",
"C  c #404141",
"Z  c #434444",
"A  c #464646",
"S  c #464544",
"D  c #484746",
"F  c #4B4740",
"G  c #4A4947",
"H  c #4E4A43",
"J  c #494949",
"K  c #49494A",
"L  c #4D4B49",
"P  c #514D46",
"I  c #524F49",
"U  c #57544F",
"Y  c #505050",
"T  c #505151",
"R  c #515151",
"E  c gray32",
"W  c #555555",
"Q  c #565656",
"!  c #535354",
"~  c #5A5552",
"^  c #5A5956",
"/  c #5A5957",
"(  c #595857",
")  c #5A5A5A",
"_  c #5B5B5B",
"`  c #5B5B5C",
"'  c gray36",
"]  c #5A5A5A",
"[  c #6C5246",
"{  c #61605F",
"}  c #646464",
"|  c #656361",
" . c #6A6865",
".. c #686868",
"X. c #6D6D6D",
"o. c #6F6E6C",
"O. c #6B6B6C",
"+. c #747474",
"@. c #7C7D7D",
"#. c gray50",
"$. c #845037",
"%. c #957363",
"&. c #91796E",
"*. c #987D70",
"=. c #9A8176",
"-. c #838383",
";. c #848180",
":. c #8E8E8F",
">. c #ADA09A",
",. c #A2A2A2",
"<. c #C6B3A9",
"1. c #DACAC3",
"2. c #E8E7E7",
"3. c white",
"4. c white",
/* pixels */
"3.3.3.3.3.3.3.3.3.3.3.3.3.3.3.3.3.3.          $ & & & $ &         3.3.3.3.3.3.3.3.3.3.3.3.3.3.3.3.3.3.3.3.3.3.3.3.3.3.3.3.3.3.3.",
"3.3.3.3.3.3.3.3.3.3.3.3.3.3.3.3.3.3.  $ & & & 1 3 t t 6 3 & $ &   3.3.3.3.3.3.3.3.3.3.3.3.3.3.3.3.3.3.3.3.3.3.3.3.3.3.3.3.3.3.3.",
"3.3.3.3.3.3.3.3.3.3.3.3.3.3.3.3.3.  $ 1 3 3 3 6 t t t t 8 3 1 & &   3.3.3.3.3.3.3.3.3.3.3.3.3.3.3.3.3.3.3.3.3.3.3.3.3.3.3.3.3.3.",
"3.3.3.3.3.3.3.3.3.3.3.3.3.3.3.3.  $ 1 3 t t t t t p p t t t t 3 1 &   3.3.3.3.3.3.3.3.3.3.3.3.3.3.3.3.3.3.3.3.3.3.3.3.3.3.3.3.3.",
"3.3.3.3.3.3.3.3.3.3.3.3.3.3.3.  < 1 3 t t p p t t t t t t t t t 3 &   3.3.3.3.3.3.3.3.3.3.3.3.3.3.3.3.3.3.3.3.3.3.3.3.3.3.3.3.3.",
"3.3.3.3.3.3.3.3.3.3.3.3.3.3.3.  & 3 t t p p t t t t 3 3 3 3 3 3 3 < &   3.3.3.3.3.3.3.3.3.3.3.3.3.3.3.3.3.3.3.3.3.3.3.3.3.3.3.3.",
"3.3.3.3.3.3.3.3.3.3.3.3.3.3.3.  & t t p p p t 3 3 3 3 3 2 2 2 2 3 3 &   3.3.3.3.3.3.3.3.3.3.3.3.3.3.3.3.3.3.3.3.3.3.3.3.3.3.3.3.",
"3.3.3.3.3.3.3.3.3.3.3.3.3.3.3.  & t t p p t t 3 3 , , t } -...#.C , & + 3.3.3.3.3.3.3.3.3.3.3.3.3.3.3.3.3.3.3.3.3.3.3.3.3.3.3.3.",
"3.3.3.3.3.3.3.3.3.3.3.3.3.3.  & 3 t t p t t 3 2 p R ) -.,.` Z R 3 > & + 3.3.3.3.3.3.3.3.3.3.3.3.3.3.3.3.3.3.3.3.3.3.3.3.3.3.3.3.",
"3.3.3.3.3.3.3.3.3.3.3.3.3.3.  < t t p p t t 3 p K R ) #.;.; O O O & $ + 3.3.3.3.3.3.3.3.3.3.3.3.3.3.3.3.3.3.3.3.3.3.3.3.3.3.3.3.",
"3.3.3.3.3.3.3.3.3.3.3.3.3.3.  < t t p p t 3 t R b 6 A p - s f f s = + + 3.3.3.3.3.3.3.3.3.3.3.3.3.3.3.3.3.3.3.3.3.3.3.3.3.3.3.3.",
"3.3.3.3.3.3.3.3.3.3.3.3.3.    < t t t t 3 3 Q p # &.2.>.h f g g f # + + 3.3.3.3.3.3.3.3.3.3.3.3.3.3.3.3.3.3.3.3.3.3.3.3.3.3.3.3.",
"3.3.3.3.3.3.3.3.3.3.3.3.3.  1 8 t t t t 3 3 p 3 # =.1.$.l g g = a s O X 3.3.3.3.3.3.3.3.3.3.3.3.3.3.3.3.3.3.3.3.3.3.3.3.3.3.3.3.",
"3.3.3.3.3.3.3.3.3.3.3.3.3.$ 1 t t t t 3 3 2 3 , # *.<.z j f - < * a = X 3.3.3.3.3.3.3.3.3.3.3.3.3.3.3.3.3.3.3.3.3.3.3.3.3.3.3.3.",
"3.3.3.3.3.3.3.3.3.3.3.3.3.  < 3 t t t 3 3 2 3 p x [ %.k d = + 2 , * @ X 3.3.3.3.3.3.3.3.3.3.3.3.3.3.3.3.3.3.3.3.3.3.3.3.3.3.3.3.",
"3.3.3.3.3.3.3.3.3.3.3.3.3.  & < t t t t 3 2 , K C O s d + X , , , X X X   3.3.3.3.3.3.3.3.3.3.3.3.3.3.3.3.3.3.3.3.3.3.3.3.3.3.3.",
"3.3.3.3.3.3.3.3.3.3.3.3.  < $ < 3 3 t t 3 2 , 3 3 , X & 1 , X X X X X , 3   3.3.3.3.3.3.3.3.3.3.3.3.3.3.3.3.3.3.3.3.3.3.3.3.3.3.",
"3.3.3.3.3.3.3.3.3.3.3.  $ i D u & 2 3 t 3 3 , X 2 3 3 X , X 3 3 , X X Q o.X   3.3.3.3.3.3.3.3.3.3.3.3.3.3.3.3.3.3.3.3.3.3.3.3.3.",
"3.3.3.3.3.3.3.3.3.3.    9 o. .< + , 2 t t 3 , , 2 3 3 3 , 2 3 2 X X , Q ' X   3.3.3.3.3.3.3.3.3.3.3.3.3.3.3.3.3.3.3.3.3.3.3.3.3.",
"3.3.3.3.3.3.3.3.3.3.  $ 6 ^ ^ y 8 & & 3 t 3 , , 2 3 3 3 3 2 2 , X X 3 A p X   3.3.3.3.3.3.3.3.3.3.3.3.3.3.3.3.3.3.3.3.3.3.3.3.3.",
"3.3.3.3.3.3.3.3.3.3.  $ $ < t m u $ & 1 3 3 , , 2 3 3 3 t X X > , , t t 3 ,   3.3.3.3.3.3.3.3.3.3.3.3.3.3.3.3.3.3.3.3.3.3.3.3.3.",
"3.3.3.3.3.3.3.3.3.3.  $ < < $ $ $ $ $ , , , X 2 2 , 2 3 3 , X X X 2 3 3 X   3.3.3.3.3.3.3.3.3.3.3.3.3.3.3.3.3.3.3.3.3.3.3.3.3.3.",
"3.3.3.3.3.3.3.3.3.3.  $ $ < 3 1 & + $ - % % & X 2 3 3 3 X X , & X , X ,   3.3.3.3.3.3.3.3.3.3.3.3.3.3.3.3.3.3.3.3.3.3.3.3.3.3.3.",
"3.3.3.3.3.3.3.3.3.3.  $ y 8 & & + + $ & % $ - & > , , & + & , & + X     3.3.3.3.3.3.3.3.3.3.3.3.3.3.3.3.3.3.3.3.3.3.3.3.3.3.3.3.",
"3.3.3.3.3.3.3.3.3.3.  $ p G y 3 8 $ + & < $ < 1 2 < & * * 2 & < $ $   3.3.3.3.3.3.3.3.3.3.3.3.3.3.3.3.3.3.3.3.3.3.3.3.3.3.3.3.3.",
"3.3.3.3.3.3.3.3.3.3.  $ p ) R B m $ & 2 3 < < 3 3 6 5 ; - 3 $ < < $   3.3.3.3.3.3.        3.3.3.3.3.3.3.3.3.3.3.3.3.3.3.3.3.3.3.",
"3.3.3.3.3.3.3.3.3.3.  $ p ) ) K p & 3 3 < 3 & < 3 3 3 3 5 3 $ $ 3 &   3.3.3.3.3.    & $   3.3.3.3.3.3.3.3.3.3.3.3.3.3.3.3.3.3.3.",
"3.3.3.3.3.3.3.3.3.3.  $ p ) ) n & < 3 t & 3 & $ $ < r 3 3 6 $ $ 3 <   3.3.3.3.3.  & 1 &   3.3.3.3.3.3.3.3.3.3.3.3.3.3.3.3.3.3.3.",
"3.3.3.3.3.3.3.3.3.3.  $ p ) ) p & 3 t t 3 3 & o o $ & & & & + o $ $   3.3.3.3.3.  & 1 &   3.3.3.3.3.3.3.3.3.3.3.3.3.3.3.3.3.3.3.",
"3.3.3.3.3.3.3.3.3.3.  $ p ) L 6 1 t t 3 3 2 & < * N | L L L L L L 6 o + & $ $ o o & 1 &   3.3.3.3.3.3.3.3.3.3.3.3.3.3.3.3.3.3.3.",
"3.3.3.3.3.3.3.3.3.3.  $ p Q m & t t t 3 , & % 4 6 P +.| { { { { ~ 9 * * * * * < & $ 8 8 1   3.3.3.3.3.3.3.3.3.3.3.3.3.3.3.3.3.3.",
"3.3.3.3.3.3.3.3.3.3.  $ y A y < t t t 3 & $ % 4 t 3 8 F P I I P c : - - : : ; 8 3 & F U 8 &             3.3.3.3.3.3.3.3.3.3.3.3.",
"3.3.3.3.3.3.3.3.3.3.  $ $ $ & 3 p i 8 & 1 3 * v p < $ 4 F P P P F 8 & * = % * 3 ; & ^ O.u + & & & $ $   3.3.3.3.3.3.3.3.3.3.3.3.",
"3.3.3.3.3.3.3.3.3.3.  $ % o < t p t 3 $ ; ; : ; ; ; - : 7 7 7 7 7 v N N 9 $ $ $ % * ) :.I & 3 1 8 v &   3.3.3.3.3.3.3.3.3.3.3.3.",
"3.3.3.3.3.3.3.3.3.3.  $ $ $ 1 t t 3 & $ : : - % % * * 4 v ; v ; = 8 y 8 1 $ & & $ $ 9 L 8 $ & & < 4 $   3.3.3.3.3.3.3.3.3.3.3.3.",
"3.3.3.3.3.3.3.3.3.3.  $ + & 3 t t 3 < & * - % $ & & + 4 N 5 N 5 % & & o + & 2 2 @ + $ . + + + + + +     3.3.3.3.3.3.3.3.3.3.3.3.",
"3.3.3.3.3.3.3.3.3.3.  $ o & 3 t t t 3 , , & $ , 2 2 & 4 N 7 N 7 & $ $ $ & < 3 1 &   3.3.3.3.3.3.3.3.3.3.3.3.3.3.3.3.3.3.3.3.3.3.",
"3.3.3.3.3.3.3.3.3.3.  $ % & 2 3 3 t t 2 3 2 3 3 2 , & 4 N 7 N 7 % & , & + % $ $   3.3.3.3.3.3.3.3.3.3.3.3.3.3.3.3.3.3.3.3.3.3.3.",
"3.3.3.3.3.3.3.3.3.3.3.  $ $ & 2 3 t t 3 2 3 3 2 , & + 4 N 7 N 7 % o + $ $         3.3.3.3.3.3.3.3.3.3.3.3.3.3.3.3.3.3.3.3.3.3.3.",
"3.3.3.3.3.3.3.3.3.3.3.3.o o $ & & < < & $ & & & & < 1 & 5 5 F 7 % &       3.3.3.3.3.3.3.3.3.3.3.3.3.3.3.3.3.3.3.3.3.3.3.3.3.3.3.",
"3.3.3.3.3.3.3.3.3.3.    % * & & * * * * - * & < < 3 3 & % - 9 ; $   3.3.3.3.3.3.3.3.3.3.3.3.3.3.3.3.3.3.3.3.3.3.3.3.3.3.3.3.3.3.",
"3.3.3.3.3.3.3.3.3.3.  $ % = * * : - - - : : 4 1 1 1 1 < & & & & o   3.3.3.3.3.3.3.3.3.3.3.3.3.3.3.3.3.3.3.3.3.3.3.3.3.3.3.3.3.3.",
"3.3.3.3.3.3.3.3.3.3.  $ % = % & ; * % * ; : - = = = = = = : : ; &   3.3.3.3.3.3.3.3.3.3.3.3.3.3.3.3.3.3.3.3.3.3.3.3.3.3.3.3.3.3.",
"3.3.3.3.3.3.3.3.3.3.  $ - - % & 3 3 3 3 3 : : : : : : : : : : 4 &   3.3.3.3.3.3.3.3.3.3.3.3.3.3.3.3.3.3.3.3.3.3.3.3.3.3.3.3.3.3.",
"3.3.3.3.3.3.3.3.3.3.  $ - : % & 3 3 3 t t 6 6 6 6 6 6 6 6 6 6 3 3 &   3.3.3.3.3.3.3.3.3.3.3.3.3.3.3.3.3.3.3.3.3.3.3.3.3.3.3.3.3.",
"3.3.3.3.3.3.3.3.3.3.  $ - : - & 3 t t t t t r r r r r r r t r 3 4 &   3.3.3.3.3.3.3.3.3.3.3.3.3.3.3.3.3.3.3.3.3.3.3.3.3.3.3.3.3.",
"3.3.3.3.3.3.3.3.3.3.    * - * & 3 t t t t t t t t t t t t t t 3 ; *   3.3.3.3.3.3.3.3.3.3.3.3.3.3.3.3.3.3.3.3.3.3.3.3.3.3.3.3.3.",
"3.3.3.3.3.3.3.3.3.3.3.  @ $ & & 3 t 8 8 i t t t t t t t t 3 t 6 ; &   3.3.3.3.3.3.3.3.3.3.3.3.3.3.3.3.3.3.3.3.3.3.3.3.3.3.3.3.3.",
"3.3.3.3.3.3.3.3.3.3.3.3.      % - 6 - : : 6 5 6 t t t t t t t 5 = %   3.3.3.3.3.3.3.3.3.3.3.3.3.3.3.3.3.3.3.3.3.3.3.3.3.3.3.3.3.",
"3.3.3.3.3.3.3.3.3.3.3.3.3.3.  & ; 6 : : 4 3 3 3 3 3 3 3 3 3 3 3 * %   3.3.3.3.3.3.3.3.3.3.3.3.3.3.3.3.3.3.3.3.3.3.3.3.3.3.3.3.3.",
"3.3.3.3.3.3.3.3.3.3.3.3.3.3.  % - 5 4 6 8 3 3 1 4 * - 4 3 t t t & o   3.3.3.3.3.3.3.3.3.3.3.3.3.3.3.3.3.3.3.3.3.3.3.3.3.3.3.3.3.",
"3.3.3.3.3.3.3.3.3.3.3.3.3.3.  % = ; 3 t t 1 & * % % = ; 3 t t t &   3.3.3.3.3.3.3.3.3.3.3.3.3.3.3.3.3.3.3.3.3.3.3.3.3.3.3.3.3.3.",
"3.3.3.3.3.3.3.3.3.3.3.3.3.3.  % = ; 3 t 8 * o + + & % * 3 3 t 3 $   3.3.3.3.3.3.3.3.3.3.3.3.3.3.3.3.3.3.3.3.3.3.3.3.3.3.3.3.3.3.",
"3.3.3.3.3.3.3.3.3.3.3.3.3.3.  % = ; 3 3 ; %         $ * ; 3 3 ; %   3.3.3.3.3.3.3.3.3.3.3.3.3.3.3.3.3.3.3.3.3.3.3.3.3.3.3.3.3.3.",
"3.3.3.3.3.3.3.3.3.3.3.3.3.3.  % = = ; ; &     3.3.      & * ; = o   3.3.3.3.3.3.3.3.3.3.3.3.3.3.3.3.3.3.3.3.3.3.3.3.3.3.3.3.3.3.",
"3.3.3.3.3.3.3.3.3.3.3.3.3.3.  @ & 1 & & +   3.3.3.3.3.  & < & * @   3.3.3.3.3.3.3.3.3.3.3.3.3.3.3.3.3.3.3.3.3.3.3.3.3.3.3.3.3.3.",
"3.3.3.3.3.3.3.3.3.3.3.3.3.3.3.  & 3 , + +   3.3.3.3.3.  & 3 1 &   3.3.3.3.3.3.3.3.3.3.3.3.3.3.3.3.3.3.3.3.3.3.3.3.3.3.3.3.3.3.3.",
"3.3.3.3.3.3.3.3.3.3.3.3.3.3.3.  & 3 < $   3.3.3.3.3.3.  & 3 3 <     3.3.3.3.3.3.3.3.3.3.3.3.3.3.3.3.3.3.3.3.3.3.3.3.3.3.3.3.3.3.",
"3.3.3.3.3.3.3.3.3.3.3.3.3.3.3.  + < 3 $   3.              @ , 1 &   3.3.3.3.3.3.3.3.3.3.3.3.3.3.3.3.3.3.3.3.3.3.3.3.3.3.3.3.3.3.",
"3.3.3.3.3.3.3.3.3.3.3.3.3.3.3.  o $ $ $     0     e   0   $ $ $ +   3.3.3.3.3.3.3.3.3.3.3.3.3.3.3.3.3.3.3.3.3.3.3.3.3.3.3.3.3.3.",
"3.3.3.3.3.3.3.3.3.3.3.3.3.3.  w 2 2 2 2 w w w w w q w q w 2 2 2 2   3.3.3.3.3.3.3.3.3.3.3.3.3.3.3.3.3.3.3.3.3.3.3.3.3.3.3.3.3.3.",
"3.3.3.3.3.3.3.3.3.3.3.3.3.3.  w w w w w w w w w w w w w w w w w 0   3.3.3.3.3.3.3.3.3.3.3.3.3.3.3.3.3.3.3.3.3.3.3.3.3.3.3.3.3.3.",
"3.3.3.3.3.3.3.3.3.3.3.3.3.3.  w w w w w w 0 w w q q q q q q q q q   3.3.3.3.3.3.3.3.3.3.3.3.3.3.3.3.3.3.3.3.3.3.3.3.3.3.3.3.3.3.",
"3.3.3.3.3.3.3.3.3.3.3.3.3.3.  w w w w w w q                         3.3.3.3.3.3.3.3.3.3.3.3.3.3.3.3.3.3.3.3.3.3.3.3.3.3.3.3.3.3."
};
