/* XPM */
static char *result[] = {
/* columns rows colors chars-per-pixel */
"64 64 221 2 ",
"   c #020102",
".  c #0D010B",
"X  c #0B090B",
"o  c #040409",
"O  c #14040D",
"+  c #1A070F",
"@  c #140C0E",
"#  c #1D0A0F",
"$  c #0F0E11",
"%  c #140313",
"&  c #160D11",
"*  c #1C0A11",
"=  c #130218",
"-  c #1C051D",
";  c #1E0F18",
":  c #1A0517",
">  c #0C1114",
",  c #081914",
"<  c #131314",
"1  c #1D1215",
"2  c #16191A",
"3  c #03120F",
"4  c #26091D",
"5  c #270D19",
"6  c #221417",
"7  c #24111A",
"8  c #2B141D",
"9  c #2C1D1F",
"0  c #31191F",
"q  c #33111D",
"w  c #1B1020",
"e  c #2B0E20",
"r  c #2E082C",
"t  c #270428",
"y  c #261D22",
"u  c #2C1D22",
"i  c #231A2F",
"p  c #341D25",
"a  c #3F1229",
"s  c #2C073A",
"d  c #360834",
"f  c #3A0A34",
"g  c #3D093A",
"h  c #350534",
"j  c #2E1633",
"k  c #1A2120",
"l  c #1F3B3B",
"z  c #2C2124",
"x  c #2D262B",
"c  c #252427",
"v  c #34212A",
"b  c #3B242A",
"n  c #32292C",
"m  c #2C2D30",
"M  c #3A203F",
"N  c #352237",
"B  c #293935",
"V  c #3A383B",
"C  c #44152B",
"Z  c #48182E",
"A  c #430D34",
"S  c #430D3B",
"D  c #490E3F",
"F  c #4B1435",
"G  c #45113B",
"H  c #4C133D",
"J  c #511635",
"K  c #5D1E39",
"L  c #56193A",
"P  c #611F3E",
"I  c #422A2E",
"U  c #41263C",
"Y  c #482837",
"T  c #4A343D",
"R  c #44383C",
"E  c #53323B",
"W  c #58343E",
"Q  c #5A2532",
"!  c #67263C",
"~  c #712B3E",
"^  c #164136",
"/  c #33443A",
"(  c #1C0846",
")  c #381C55",
"_  c #352B42",
"`  c #3B3A42",
"'  c #353444",
"]  c #3C275E",
"[  c #2C2E69",
"{  c #4D0D42",
"}  c #530F44",
"|  c #441741",
" . c #531143",
".. c #5A1545",
"X. c #5C1843",
"o. c #5D1348",
"O. c #571B4A",
"+. c #631B45",
"@. c #661A49",
"#. c #651A48",
"$. c #4C234A",
"%. c #532E41",
"&. c #493346",
"*. c #5A3544",
"=. c #5B3941",
"-. c #5C344A",
";. c #543A48",
":. c #502B59",
">. c #6B2446",
",. c #75254B",
"<. c #7A294C",
"1. c #752A47",
"2. c #643B4B",
"3. c #693F4A",
"4. c #6A2C54",
"5. c #6F3F57",
"6. c #67345F",
"7. c #703F57",
"8. c #703F58",
"9. c #7F3759",
"0. c #483B72",
"q. c #4C3965",
"w. c #653C61",
"e. c #2E4449",
"r. c #2D5D4E",
"t. c #28544A",
"y. c #325E46",
"u. c #2D5A51",
"i. c #3C5853",
"p. c #3B6447",
"a. c #356D46",
"s. c #396A49",
"d. c #337B4E",
"f. c #356F5E",
"g. c #297554",
"h. c #347358",
"j. c #2B6A4D",
"k. c #3E7867",
"l. c #414342",
"z. c #4C4346",
"x. c #48494A",
"c. c #495555",
"v. c #5C5C5C",
"b. c #575455",
"n. c #4C4A4A",
"m. c #6B424C",
"M. c #76414E",
"N. c #734652",
"B. c #774854",
"V. c #7A4955",
"C. c #75435A",
"Z. c #78455B",
"A. c #7D495D",
"S. c #754C58",
"D. c #615357",
"F. c #7A515B",
"G. c #6F4351",
"H. c #54615F",
"J. c #41487E",
"K. c #7B4164",
"L. c #71576F",
"P. c #596C65",
"I. c #53766A",
"U. c #676768",
"Y. c #7E6F71",
"T. c #727272",
"R. c #60736D",
"E. c #87314E",
"W. c #88324F",
"Q. c #843A51",
"!. c #802C4D",
"~. c #8D3E60",
"^. c #824D5F",
"/. c #804458",
"(. c #85525E",
"). c #834E60",
"_. c #8C4762",
"`. c #944F6F",
"'. c #875162",
"]. c #8E5665",
"[. c #8C5A61",
"{. c #905765",
"}. c #9A5463",
"|. c #915866",
" X c #945A69",
".X c #A35B6C",
"XX c #A8576F",
"oX c #A75F70",
"OX c #926168",
"+X c #856D72",
"@X c #986872",
"#X c #8E777B",
"$X c #A7667A",
"%X c #B16677",
"&X c #AC727C",
"*X c #35814E",
"=X c #38844C",
"-X c #616892",
";X c #5B75A0",
":X c #637EA7",
">X c #BA7586",
",X c #AD728B",
"<X c #CD7988",
"1X c #738681",
"2X c #8B8C8C",
"3X c #9F869C",
"4X c #B8898E",
"5X c #AD8894",
"6X c #9189A5",
"7X c #9499B5",
"8X c #AFA6BB",
"9X c #AF92A8",
"0X c #D5919C",
"qX c #E58E99",
"wX c #CD94A4",
"eX c #D392A3",
"rX c #ED98A2",
"tX c #E297A3",
"yX c #CDA6B8",
"uX c #BABFD2",
"iX c #D3C2D2",
/* pixels */
"8.C.5.C.8.8.8.C.5.5.C.5.7.Z.'.{.].|.].].|.].[.{.{.{.{.].].|.].].|.].{.].|.|.].{.|.].|.].].|.|.].{.'.Z.G.5.Z.'.{.{.'.C.C.'.{.].{.",
"Z.C.C.8.Z.Z.Z.Z.Z.C.Z.Z.C.C.'.|.].|.|.].].|.].|.{.].].|.].|.|.].].|.].{.].].|.].|.[.].|.|.].].{.{.'.K.C.C.A.'.|.|.'.A.A.'.|.{.{.",
"'.^.C.C.).'.'.'.'.'.'.^.C.Z.'.{.|.].|.].].|.].].|.].].|.|.].].|.].{.].].{.{.].].|.].].|.].].|.].{.'.C.C.).].].{.{.{.'.].].{.{.{.",
"|.'.A.A.'.|.|.|.|.|.|.'.A.A.'.|.].{.].{.|.].].|.].].|.].].|.].].|.].|.].'.'.].|.].|.].].|.].].|.{.'.Z.Z.'.{.{.{.{.{.{.{.].].{.{.",
"|.].].'.].{.].].{.{.{.].'.].].{.{.{.].].].{.{.{.{.].{.{.{.{.|.|.{.{.|.'.A.A.'.{.|.].|.|.].|.{.{.|.'.Z.Z.'.].{.].].|.|.[.].{.].{.",
"].{.{.{.].].].[.].].].{.|.{.'.'.].{.{.{.{.].{.{.].|.|.{.|.|.|.|.{.{.[.'.A.A.'.{.].].].].].].{.].'.'.C.Z.'.].{.|.|.].|.].{.].{.].",
"|.|.{.].{.{.{.{.|.].{.].{.].A.A.'.{.{.{.{.].{.{.{.|.|.{.|.|.|.|. X].K.A.'.'.{.{.].|.|.].|.].{.'.A.C.C.Z.'. X{.].].].].|.|.].].{.",
"'.'.].{.{.{.{.{.].|.].{.{.(.A.A.'.'.'.'.].{.{.|.|.'.S.m.m.m.m.m.m.m.G.Z.'.{.{.{.|.].].|.].{.|.'.A.C.G.Z.).'.].].].|.|.].].{.].{.",
"Z.A.'.{.|.].].|.].|.{.].{.[.'.).A.S.Z.A.'.].].|. XB.b 1 1 6 1 1 1 v -.A.].{.{.{.{.{.{.[.].|.].].'.).C.C.Z.F.'.{.|.].{.].|.|.].|.",
"Z.A.'.{.].].|.].|.].].{.].{.|.'.K.G.C.A.'.|.].'.B.W 8 + # # 6 # % 7 Y 2.^.|.{.{.{.{.].].{.].{.{.|.'.Z.G.C.K.'.{.|.].].|.].].].].",
"'.'.].].{.].|.].].{.{.{.].].|.'.Z.C.A.'.].|.|.S.b 8 Z K ~ ~ ~ ~ K C 7 p N.|.|.].{.{.].{.].|.{.|.].'.C.C.^.].].].].].|.].].{.|.{.",
"{.{.|.].].|.].|.{.{.{.{.{.].].].A.A.].{.|. X Xm.1 . a K 1.~ ~ >.K C . 6 m. X|.{.].{.{.{.].|.].]. X'.A.A.].{.{.|.|.].].{.{.{.'.'.",
"{.{.{.].].|.].].].|.].{.{.{.{.].'.'.{.{.].|. Xm.6 o % 4 e e e 8 e % o 1 m. X|.].{.].{.].|.].|.].].].].'.].{.].].|.].|.].{.'.K.S.",
"{.{.].{.|.].].|.].].{.{.{.{.].{.{.{.{.{. X].B.E 1 . : - = = - - = = & e W B.].|.{.{.].{.].{.].{.].].|.].].{.|.].].{.].{.|.'.Z.C.",
"].|.{.].|.|.].|.|.].{.].{.].{.].{.{.{.{. XB.b 1 t r F F r r F F r r Z Z 8 b N. X|.{.{.].|.|.|.].].].].].|.].|.].].|.{.].|.'.Z.G.",
"{.].].|.[.].|.].].|.].{.].{.].{.{.{.{.'.B.E ; O r | +.X.g f X.+.S D +.K q 0 W B.'.{.{.{.].[.].|.|.|.].|.].{.].].|.].{.{.{.'.A.Z.",
"].|.{.].|.].|.].{.{.{.].{.].{.{.{.|.|.S.b ; - r H +.+.{ d g +.>.....#.1.~ Q p b N. X|.].].|.].].].].|.].|.].].|.].[.{.].|.].'.'.",
"{.].].{.].{.|.[.{.{.{.{.].{.{.{.|.|.|.m.1 o t D X.X...{ g S  .X.} H +.,.W.! # 1 m.|.|.|.].].|.|.|.].].|.].|.|.].|.|.].|.].].|.|.",
"|.|.{.{.].].|.].].{.].|.{.].{.{.].|.|.m.6 . d { g G { } { D g f h g } #.,.K + 1 m.|.|.].|.].|.].].{.].|.].].].].].|.].].{.].{.{.",
"'.'.].{.|.|.].|.|.].{.].{.].'.'.].|.|.G.6 . d D g g ..@.@...S d A S D  .#.F O 1 m.|.|.{.].|.].].|.].|.].|.].|.|.|.].].|.].{.].{.",
"Z.A.'.|.|.|.{.{.{.].{.{.{.'.A.A.].|. Xm.6 . t g { ..,.E.W.,... .>.>.G g } A O 6 m.|.|.|.|.].].|.].{.{.].{.].|.].|.].].|.|.|.].|.",
"G.C.'.'.'.'.].].{.{.{.].'.^.C.Z.'.|. Xm.6 o t g { @.<.W.W.<.o.#.!.<.H S  .F O 6 m.|.|.|.].|.|.].{.{.].{.].{.].{.].|.].].].].{.].",
"8.C.Z.Z.Z.A.'.|.{.{.{.'.).C.8.Z.'. X XM.6 . h { } o.o.@.@.@.o.o.,.>. ...<.! * 6 m. X|.|.{.].{.].{.{.{.].{.].{.].{.].].|.{.].].|.",
"8.C.C.Z.Z.A.'.].].'.'.^.C.8.8.C.^.^.B.T & O A #.o. .{ { { { @.@.#.#. .X.!.! 6 2 m. X|.].].{.].{.{.{.].{.].{.].|.].|.].|.].|.].].",
"5.C.K.].'.].].'.^.Z.Z.C.C.8.8.C.Z.2.b @   O J @.#.} g h h S 4.Q.<.P g D @.L * 6 m. X|.|.|.|.{.].{.{.{.|.].{.{.].[.|.|.].].|.].].",
"8.Z.'.{.|.|.{.'.C.8.C.Z.S.Z.Z.Z.C.%.&   O 8 J ..{ g s s ) >./._.4.O.$.$.>.F O & E V.(.|.{.{.].{.{.{.'.'.].{.].{.].|.].|.|.].].|.",
"G.Z.'.|. X|.|.'.C.C.^.'.'.'.'.).C.E & . a L G g h s ( ) 9.XX%X`.:.] L.L.4.A O   @ b B.|.|.{.{.{.{.'.A.A.'.|.{.].|.].|.].{.{.|.{.",
"C.C.'.'.'.'.'.).A.A.].{.{.{.|.].K.2.p 7 Z J A | :.q.[ 0.,X<X<X,X0.J.6X3X6.f 4 O   1 2.].|.{.{.{.{.'.A.A.A.].].{.|.].].|.{.].'.'.",
"8.G.C.Z.Z.Z.Z.S.).].].{.{.{.{.].].A.2.U 7 5 F K.9X8X;X-X5XqXqX,X-X:XuX8X6.d F a . & *.^.].{.{.{.{.[.].K.A.A.'.{.|.|.|.{.|.'.A.C.",
"Z.K.Z.Z.C.G.C.A.'.{.{.{.{.].{.].{.].).=.* O J `.yXiX7X6XeXrXrXwX6X7XiXyXC.d F Z 8 v -.C.'.'.].{.{.|.{.[.C.K.'.'.'.'.'.'.'.'.A.Z.",
"'.'.'.).C.Z.K.].].{.{.].].{.].|.{.{.].2.1 O J Q.<XeXwXwXtXrXrXtXeXwXeX>X9.F 5 e W G.8.G.C.A.'.{.{.].|.'.C.G.C.Z.Z.Z.K.Z.Z.A.).'.",
"{.{.|.'.K.A.[.|.{.{.].{.{.].|.].{.{.|.N.v 5 C ! Z.}.%X>X4X4X4X4X>X%X}.Z.! Z 8 b B. XK.Z.G.C.'.{.{.].].(.K.8.G.8.C.G.G.G.Z.K.'.|.",
"{.{.].].'.].{.{.{.].].|.].].|.].{.|.|.(.2.Y 8 # 5 p Y ;.c.I.I.H.;.Z p 5 + 0 W S.(.|.].^.C.Z.'.|.|.'.A.C.C.G.G.G.C.5.5.C.K.].].|.",
"{.].].[.].'.].{.].|.].].|.|.].].].{. X^.2.I 9 , 3 > - i t.g.g.t.i - > , 2 n =.S.]. X|.'.A.A.'.|.{.].A.C.Z.Z.K.C.C.5.5.S.'.|.{.|.",
"{.{.{.].A.A.'.{.|.].].|.].{.].|.{.|. XN.v y l.x.t.l j N y.*X*Xp.N d B u.P.b.n b B. X|.].'.'.{.|.{.].].'.'.'.'.'.K.G.G.K.'.|.{.].",
"{.{.{.'.C.C.'.{.|.].{.].|.].|.|.].].B.E c x b.P.f.t.M M s.*X=Xp._ _ t.k.1XT.V z W B.'.|.|.{.|.].{.{.].].{.{.{.'.K.C.C.C.'.|.{.|.",
"{.{.{.'.C.C.].{.{.{.].{.].|.].|.|.N.b z R b.H.P.f.u._ G p.=X=Xp.| _ u.f.R.T.T.b.n b M.|. X].{.].{.{.{.{.].{.{.].'.^.C.Z.'.|.{.{.",
"{.].[.K.C.C.A.].].].|.].|.].].|.|.m.1 < D.#X+XU.i.e._ ` s.=X=Xs.` _ e.i.H.Y.2XT.k 1 m.|.|.{.].{.{.{.{.{.].{.{.{.|.].A.A.(.'.].|.",
"{.].A.Z.C.C.C.F.'.{.].{.|.].|.|.{.m.* 6 ^.%X>X`.-._ e.r.a.=X=Xd.r.e._ &.v.T.2XU.2 6 3.|.|.].{.].[.].].{.{.].{.].{.].'.).S.A.'.|.",
"'.F.C.C.C.C.A.K.'.{.|.].].|.].|.|.N.b b 3.}.}.A.%.' r.g.=X=Xd.d.g.r.' &.v.#X5X+Xc 1 3. X X].].{.].].{.{.].{.].{.{.{.|.'.A.A.'.'.",
"Z.C.C.C.^.'.'.'.].].].[.|.|.].{.{.(.B.W b 8 8 n / r.g.=X=X=X=X=X*Xg.r.c.OX0X0X@Xz 1 m.OX|.{.{.].].{.].{.].{.].{.].{.{.].'.'.A.C.",
"8.C.Z.A.'.|.|.|.|.].|.].|.].|.].|.|. XS.b @   3 ^ t.j.a.a.a.a.a.s.a.j.c.F..XoX(.I b B.(.].'.].].|.].|.].|.].|.].|.].{.{.{.'.Z.G.",
"5.C.).'.].{.{.{.].|.|.].].].|.].{.|.|.'.N.E @ o k l / / / / / / / V B B z 0 9 I =.B.(.{.^.A.'.{.].[.].|.].].].|.].{.{.{.|.'.C.8.",
"C.A.].].{.{.{.{.].|.].].|.].].|.{.{.{. X XG.6 X n T W T n c c c x V z.R &   @ b B. X X(.Z.Z.'.{.|.|.].|.].|.{.].{.{.{.{.|.'.Z.8.",
"'.'.].{.].{.].|.].{.].|.].{.{.{.{.{.{. X Xm.1 6 M.XXoX/.z o X < 2 &.$XOX9 @ Y V.(. X{.'.C.C.'.{.|.].|.].].{.].{.|.].{.].|.'.Z.8.",
"|.{.].{.|.].|.].{.].|.].{.{.{.].{.{.{.|.|.m.1 6 7. X.XM.6       < R @XOX9 1 m. X X{.].^.C.C.).'.].|.|.].{.].{.].].{.].{.{.'.Z.8.",
"{.{.{.{.{.].].].].{.{.{.{.{.].].{.{.{.|. Xm.1 X N T T v @     o < x z.R @ 6 m. X|.(.A.C.C.C.C.^.'.].].|.].{.{.{.{.{.{.{. X'.Z.8.",
"{.{.{.{.{.|.].|.{.].{.{.'.'.[.{.{.[.{.{.|.N.b 1 < 2 c x c < o X c ' &.B 3 6 m. X X].A.Z.Z.Z.C.S.).].].].{.{.{.{.{.{.{.].'.).C.8.",
"{.{.].{.].|.].].|.{.].'.A.A.].].{.].{.{.{.'.S.E 1 2 x.P.v.l.< < x.U.U.x.< 1 m. X|.].'.'.'.'.'.'.A.A.'.|.|.|.|.|.{.{.|.].A.C.C.7.",
"{.].{.].|.].].|.{.].].F.C.Z.'.].{.{.].{.|.|. Xm.1 < n.T.T.b.2 < l.v.v.x.c p G.|.|.|.|.|.{.|.{.'.Z.C.).'.'.).'.'.'.'.'.^.C.7.7.7.",
"].{.].{.].{.{.{.|.].K.C.C.C.'.|.{.].{.{.{.|. Xm.6 < l.v.v.l.<   < 2 2 u Y 2.(.|.|.{.{.].{.{.|.'.C.C.Z.Z.Z.Z.Z.Z.Z.Z.Z.Z.C.7.C.7.",
"|.].{.].|.].{.].'.A.S.C.5.C.^.].{.{.{.{.].|. XN.b z z.D.D.z.z 1 & * & u -.A.'.{.{.].].{.{.{.|.'.K.C.8.G.7.C.Z.Z.Z.Z.Z.C.8.C.7.7.",
"|.{.].{.{.{.{.'.A.C.7.7.8.C.C.A.].{.{.{.].|.[.'.M.N.F.F.'.F.-.%.%.%.%.-.5.Z.'.{.].].|.].|.].].].].^.C.G.8.C.).'.'.'.'.).C.8.C.7.",
"'.'.[.].{.].{.'.A.Z.Z.Z.C.5.7.C.^.'.'.'.].].|.|.|.|.|.{.{.].F.K.Z.Z.C.C.8.Z.'.{.{.{.|.[.].{.|.{.{.].A.Z.S.K.'.{.|.|.|.'.A.C.C.8.",
"Z.A.'.{.].{.{.].'.'.'.).C.8.8.C.Z.Z.A.F.'.|.|.{.|.|.{.{.{.].[.'.].).Z.8.8.Z.'.|.|.].|.].|.].{.{.{.].'.'.'.].].{.{.{.{.].].^.C.5.",
"C.A.].{.{.].].{.{.|.|.'.C.5.8.C.C.C.C.K.'.|.].].{.{.{.{.].{.|.{.{.'.^.C.Z.A.'.'.].|.].|.].{.].{.{.].{.{.|.|.].].{.{.].{.{.'.A.Z.",
"'.'.].].|.].].|.{.{.|.'.Z.C.5.C.).'.'.'.{.{.].|.|.].].{.{.].{.{.{.].'.'.'.).A.A.[.|.{.{.{.{.].[.|.].].{.].|.].].{.{.].].|.].'.'.",
"{.|.{.].].].|.].].{.|.'.A.Z.C.A.'.|.{.{.].{.|.].].].|.].].{.{.{.].].{.|. X'.A.A.K.[.{.{.].{.|.].].].|.].].].|.|.].{.|.].{.].|.|.",
"{.{.].|.|.].|.].{.].|.].'.'.'.].].{.{.|.{.].{.{.{.].].{.{.].{.{.{.{.].{.{.{.'.).A.A.'.{.{.{.].{.{.].].|.|.].|.].{.].].|.{.{.{.{.",
"{.{.|.].|.].].{.{.].].'.].{.|.].|.].].].].{.{.].].|.{.].{.{.{.].].{.{.].{.{.|.'.Z.Z.A.].].].|.].].|.|.].].|.].|.].|.|.].{.{.{.{.",
"{.].].].{.].{.|.|.'.A.A.].|.|.{.|.].|.|.].|.|.].{.].].|.{.{.[.].].].|.].{.{.|.'.Z.G.C.A.'.{.{.].].].{.{.{.].|.|.{.].{.].{.].{.{.",
"'.].].{.].{.].].].^.C.C.^.'.].].].].].].|.].].|.].|.{.].{.{.].].|.|.].].].{.|.'.Z.C.C.K.].{.].{.|.].'.'.].{.].[.].{.].{.{.].'.'.",
"S.A.(.|.{.].{.].A.C.C.7.C.^.'.|.].|.|.].].|.|.].|.].].|.{.{.|.].].|.].|.].{.|.'.Z.C.A.'.].].{.{.{.'.A.A.'.{.|.].{.].{.{.{.'.A.Z.",
"8.C.'.{.].{.].'.Z.7.7.7.7.Z.'.|.|.].].|.].].|.[.].].|.].{.{.].|.].].|.].{.{.{.'.Z.Z.].|.|.].{.{.{.'.Z.Z.'.|.].{.].{.{.{.{.'.Z.G."
};
