/* XPM */
static char *result[] = {
/* columns rows colors chars-per-pixel */
"32 32 21 1 ",
"  c black",
". c #0A0010",
"X c #1C1A23",
"o c #380A2B",
"O c #2D0532",
"+ c #313033",
"@ c #4D133D",
"# c #561046",
"$ c #6F2247",
"% c #7C2D54",
"& c #714058",
"* c #676767",
"= c #747474",
"- c #923950",
"; c #A47340",
": c #96406A",
"> c #8F5765",
", c #C26A7E",
"< c #909090",
"1 c gray69",
"2 c #E696A0",
/* pixels */
"&&&&&&&>>>>>>>>>>>>>>>>>>&&>>&>>",
">&>>>>>>>>>>>>>>>>>>&>>>>&>>>>>>",
">>>>>>>>&>>>>>>>>>>>>>>>>&>>>>>>",
">>>>>>>>&&&&>>>>>>>&&&>>>&&>>>>>",
"&>&>>>>>&>>>>>>>>>>>&&>>>&&&&&>>",
">>&>>>>>>>>>>      >&>>>>>>>>>>>",
">>>&&&>>>>>> ####$$ >>>>>>>>>>>&",
">>>>&>>>>>> ##OOOO#$ >>>>>>>>>>&",
">>>>&>>>>>> #$#--$O# >>>>>>>>>>>",
">>>>>>>>>>> #$....#-  >>>>>>>>>>",
"&>>>>>>>>>  #.$--$.$- >>>>>>>>>>",
"&&>>>>>>>> 2#.$---.#2 >>&>>>>&>>",
"&>>>>>>>>> ,O.O##$.O, &>>>>>&&>>",
"&>>>&>>>>>> .$O###.O >&>>&&&&&>>",
"&&>>&&>>>>>>..OOO#.O >>&&>&&&&>&",
">>>>>&&&&&&& .OOO.O@ >>>&>&>>>&>",
">>>>>>>>>&& <%.OO.%% >>>>&>>>>>>",
">>>>>>>>>> **%%...%%2 >>&>>>>>>>",
">>>>>>>>>> ,,:::::::2 >>&>>>>>>>",
">&>>>>>>>>>  $$$$$$$ >>&&>>>>>&>",
"&&>>>>>>>>>> $;$$$;$ >>>>>>>>>>&",
"&>>>>>>>>>>> ooooooo >>>>>>>>>>&",
">>>>>>>>>>>> @@@@@@@ >>>>>>>>>>&",
">>>>>>>>>>&> X+ ==  >>>>>>>>>>>&",
">>>>>>>>>>&& X+   &>>>>>>&>>>>&&",
">>>>>>>>>&&& =1 >&&>>>>>>&&>>>&&",
">>&>>>>>>&>>>>>>>>>&>>&>>&>>>>&&",
"&>>>>>>>&&>>>>>>>&&&&>>>>>>>>>>&",
">>>>>>&&>>>>>>>>>>>&>>>>>>>>>>>>",
">>>>>>>>>>>>>>>>>>>>&>>>>>>>>>>>",
">>>>>&>>>>>>>>>>>>>>&&>>>>>>>>>>",
"&>>>&&&>>>>>>>>>>>>>&>>>>&>>>>>&"
};
