/* XPM */
static char *result[] = {
/* columns rows colors chars-per-pixel */
"64 64 226 2 ",
"   c #020103",
".  c #060308",
"X  c #0D010B",
"o  c #090A0A",
"O  c #12030D",
"+  c #18060E",
"@  c #130C0E",
"#  c #09170E",
"$  c #071C0E",
"%  c #0A0413",
"&  c #140313",
"*  c #160C12",
"=  c #1B0D13",
"-  c #14011B",
";  c #1A021B",
":  c #1F0F1A",
">  c #0D1716",
",  c #1E1315",
"<  c #1B161C",
"1  c #1E1F1D",
"2  c #16191F",
"3  c #210C14",
"4  c #2C0C1D",
"5  c #20051D",
"6  c #211316",
"7  c #25121B",
"8  c #2B141E",
"9  c #211C1C",
"0  c #2C191C",
"q  c #122619",
"w  c #1E0423",
"e  c #1B1924",
"r  c #0E0E2F",
"t  c #2B052C",
"y  c #260325",
"u  c #3B0E29",
"i  c #360B2A",
"p  c #2A1A26",
"a  c #3C1429",
"s  c #361A25",
"d  c #350636",
"f  c #360A33",
"g  c #3C0A34",
"h  c #3D0B3A",
"j  c #3B0738",
"k  c #351739",
"l  c #271035",
"z  c #1D2A29",
"x  c #1D3326",
"c  c #1D3F3B",
"v  c #242525",
"b  c #2B232A",
"n  c #27292B",
"m  c #3C252A",
"M  c #372027",
"N  c #352E32",
"B  c #3A2836",
"V  c #2F3030",
"C  c #3A373A",
"Z  c #283132",
"A  c #43152C",
"S  c #471B2F",
"D  c #420C35",
"F  c #430C3A",
"G  c #490C3D",
"H  c #4E1534",
"J  c #4A1436",
"K  c #52163A",
"L  c #5B1C3B",
"P  c #571A38",
"I  c #462836",
"U  c #57263C",
"Y  c #4B323C",
"T  c #4F3037",
"R  c #55323C",
"E  c #59343E",
"W  c #68273A",
"Q  c #6F2B3C",
"!  c #244A2F",
"~  c #254D32",
"^  c #295234",
"/  c #2A663B",
"(  c #131D50",
")  c #39154C",
"_  c #392340",
"`  c #362C52",
"'  c #4C0D41",
"]  c #510E43",
"[  c #431749",
"{  c #551144",
"}  c #5B1446",
"|  c #5C1348",
" . c #5C1A47",
".. c #601746",
"X. c #641C45",
"o. c #6A1F46",
"O. c #661A48",
"+. c #6B1E49",
"@. c #601648",
"#. c #552845",
"$. c #493846",
"%. c #553042",
"&. c #5A3345",
"*. c #5D3649",
"=. c #593846",
"-. c #4C2A51",
";. c #6C2345",
":. c #6C2349",
">. c #6B2A4B",
",. c #652245",
"<. c #732449",
"1. c #7A264B",
"2. c #7E2C4C",
"3. c #74274B",
"4. c #653C49",
"5. c #69354B",
"6. c #743C4B",
"7. c #762C52",
"8. c #6E3E56",
"9. c #783154",
"0. c #703F57",
"q. c #703F58",
"w. c #7D3857",
"e. c #682656",
"r. c #493B73",
"t. c #683B60",
"y. c #1C5446",
"u. c #264946",
"i. c #26544C",
"p. c #3B5745",
"a. c #2F5954",
"s. c #1E6A54",
"d. c #346945",
"f. c #326D51",
"g. c #3A7464",
"h. c #29476D",
"j. c #4C4F53",
"k. c #585B5A",
"l. c #4A4D48",
"z. c #6C424C",
"x. c #64424D",
"c. c #6E4755",
"v. c #744652",
"b. c #774954",
"n. c #784954",
"m. c #75435A",
"M. c #78455B",
"N. c #7D495D",
"B. c #7A4754",
"V. c #7A545F",
"C. c #4D6B57",
"Z. c #637D5E",
"A. c #4F5571",
"S. c #7C5568",
"D. c #665168",
"F. c #59766B",
"G. c #666868",
"H. c #77777A",
"J. c #6F6F70",
"K. c #832F4D",
"L. c #84314D",
"P. c #89324E",
"I. c #84335C",
"U. c #873859",
"Y. c #903651",
"T. c #903A64",
"R. c #824D5F",
"E. c #8C445C",
"W. c #86515F",
"Q. c #834E60",
"!. c #884766",
"~. c #914565",
"^. c #875162",
"/. c #8E5664",
"(. c #905765",
"). c #905866",
"_. c #945A69",
"`. c #985462",
"'. c #9B5773",
"]. c #A35B6D",
"[. c #A75974",
"{. c #876175",
"}. c #9A667C",
"|. c #867A7E",
" X c #8E646E",
".X c #A36674",
"XX c #B9637A",
"oX c #AE6976",
"OX c #518C61",
"+X c #67857B",
"@X c #67856F",
"#X c #9A847E",
"$X c #646B95",
"%X c #637EA7",
"&X c #B57583",
"*X c #B97F95",
"=X c #A56583",
"-X c #CE7788",
";X c #D4798A",
":X c #7B9286",
">X c #858585",
",X c #898989",
"<X c #9D8F94",
"1X c #999898",
"2X c #BB8B8F",
"3X c #B8848D",
"4X c #AC8D9A",
"5X c #94A19D",
"6X c #8F88A5",
"7X c #9391AD",
"8X c #AE9EA3",
"9X c #A9A6A7",
"0X c #BCA9B9",
"qX c #C1848D",
"wX c #DC8492",
"eX c #CF8F98",
"rX c #E6919C",
"tX c #EB909E",
"yX c #E98E9D",
"uX c #CE93A3",
"iX c #D29BAA",
"pX c #E796A1",
"aX c #C9A9B9",
"sX c #E8ABB6",
"dX c #B9BFD2",
"fX c #D9CAD7",
/* pixels */
"q.m.8.m.c.q.q.q.q.q.c.q.q.M.^.(.)./.)./.)./.(.(.(./././.)./.)./.)./././.)./.)./././.)./.)././.).).W.m.m.8.M.^.).).^.M.M.W.).(.(.",
"M.m.m.q.M.M.M.M.M.m.M.m.q.M.^.(./././.)./.).(.(./././.)./././.).)./.)././.)./.).)././.)./.).)./.(./.m.c.m.R.^.).).^.N.N.^.(.(.(.",
"^.R.m.m.N.^.^.^.^.^.^.R.m.m.^.(./.)./.)./.)./.(./.)./.)./.)./.)././.).)./././.)./.).)././.)././.).^.M.m.R.^./.(.)./.^.^./././.).",
").^.N.N./.).).).).).)./.N.N./.(.)./.)./.)./.).(././.)./.)./.)./.).).)./././.).).).).).).)./.).).).^.m.M.^.(.(./.).(.(.(./.)././.",
")././.^./.(././.(.(.(.(.^.^.(.)././././.)././.).)./.)././.).)./.(.).(./.N.N./._.).).)./.(.(././.(.^.M.M.^.).(.(././.(.(.)./.)./.",
"/.).(.(.(.(././.(.(.(.(.).(./.^././.).)././.)././.)./.).)./././._.W.v.4.&.&.4.z.z.v.^.).(.(.(././.Q.m.M.^.).(.(./.(.(.(./.)./.).",
").).(./.(.(./.(./.(.(.(.).^.N.N././.(.(.)././.).)./././.)././.)._.b.m , * * , , , m n.)./.(.(./.N.m.q.M./.(.(./././.(.(./.).)./.",
"^.^./.(.(.(.(./.(./.(.(.(.^.N.M.W.^.^.^.(.)./.).).).).)./././.R.v.E 0 + 3 3 3 * + 0 E b.^.).(./.N.m.q.m.R.^.(.(././.(./.)./.)./.",
"M.N.W.(.)././.)./././.)./.(./.R.N.m.m.N./././.)._._._./.Q.N.N.4.M 0 A L W Q Q W P A 7 m v._.).(./.R.m.m.m.M.^.(.)./.)./.)././.).",
"M.N.^.)./.)./././././.).)./.).^.m.m.m.N.^.)././.v.z.z.4.&.%.#.m @ X A W K.Y.Y.P.1.L 4 7 R B.W.).).^.m.m.m.N./.(.)././.)./.).)./.",
"W.^././.)././.)././.)./.(.(.).^.m.m.R.^././._.b.m , , , = * * @     & u ,.1.1.1.1.W L A 8 m v.).).^.m.m.R././././.)././.(.(.).).",
").).)././.).)././.)./.).(.(.).^.N.N./.)._./.v.R p X O X & & & O & & & 5 A P 5.&.;.<.1.L + , z._.)./.N.N.^.(.).).)./.)./././.^./.",
"(.(.(./.)././.)./.).)./.(.)././.^./././._.v.m 4 i j D g g D D j D f t w 5 p p.C.5.1.P.W = , z._.)./.^././.(./././.)./.).(.^.N.M.",
"(.(./.(./.).)./.)././.).(./.)./.(.)././.b.R 7 5 D | @.| | { | | | { F t - e ~ p.l.>.P.W + 6 z._.)./.(./.)././.).)./.)./.(.^.m.c.",
"/./.)./.)././.)./.).)./.)././.)./.).).v.m 7 i F ] ..O.O.| } }  .O.O.{ F t w e z u.j.6.L + 6 z._.)././.).)./.)././.).)././.^.m.q.",
").)./.)./.)././.(././.)././.)./.(._._.z., X f ] } ..O...' ' ' { o.+.O.{ F t % 2 u.a.-.H 4 0 E b./.(.)././.)./.)./././.(././.N.M.",
"/.)./.)./.)./.)./.)./.)./.).)././.)._.z.6 . y F  .X...{ g d d G X.<.+.O.{ j - 2 y.i._ D K S 8 M v.).)././.)./.)./././.).(./.^.^.",
")./.(./.)././././.).)././././.)././.b.R 8 ; u { ;.<.O.{ F j d h K X.;.+. .G y e c u.k D K a O , z.).)./.)./.)././.)./.).(.(.(.).",
").).).(.)./.)./.)./.)./.)./.).).).v.m 7 i K ;.2.P.L.<.X. .L ' G g J X.;.} { G f e e F F 4 X   , z._.).).)./.)./.)./.(././.(.(.(.",
"^.^./.(.(.)./.)./.)././.(./.^./.).z., O D :.2.Y.P.2.<.<.1.<...' j F  .X...} | D - w j u O   * m v.).).(./.)./.)./.)./.)./.(.(.(.",
"M.N././.).).)./././.).).).^.N.N./.z., O H <.3.3.+.O.:.1.K.2.@.] ' ' | } O.O.| F ; - t t . * T b.^.).(./.)././././.)././././.)./.",
"q.m.V.^.W.^./.(.)./.)././.Q.M.M./.z.6 + H :.X.} { | :.7.P.2.O.| | | { } X.O.| G ; % - y 6 m b._.).).)././.).)./.)./.).)././.)./.",
"q.m.m.M.M.N.^.)./.).).^.N.m.8.M./.z., O D { G D '  .w.U.2.<.| | X.O.| } } | | F &     : R b./.).)./.)./.).)./.)./.).)././.)./.).",
"8.m.b.M.M.N.^././.^.^.Q.m.8.m.m.Q.z.s p u j t )  .w.~.~.7.} ' ] X.o.| ] ' ' ' u &   * m b._.)././.(./.)././.)././././.)././.)./.",
"q.m.R.^.^./././.N.m.M.m.c.8.q.m.M.M.v.%.0 - r ` T.[.=X[.e.| ) F X.o.@.' j d d t X * R v./.).).)./.(.).).(./.(./.)./.(./.).).(./.",
"q.M.^.).).(.(.W.m.m.m.M.M.M.M.m.q.M./.z.< % ( r.=X-X-X[.e.) [ | >.<.} } #. .h w . 6 z._.)././.).(.(.^.^./.(.(.(./.)./.(./././.).",
"m.M.^.)._.(._.^.M.m.R.^./.^.^.N.M.M./.z.6 r h.$X-XwX-X~.` ` D.{.E.1...e.[.}.-.w . 6 z._.).)././.(.^.N.N.^.).(./.).(.(.(./.).).).",
"8.M.R.^.^.^.^.R.M.R.^.).).)././.N.M./.4., e A.6XiXyX;X=Xr.r.7X4X!.3.<.~.-XXX#.- = M z.^.).).)./.).^.N.M.R././.(.).(.(.(.)./.^.^.",
"q.m.m.M.M.M.M.M.R././.(.(.(./.(./.Q.N.%.* 7 ^.3XuXpXrX4X$X%XdX0Xq.#.~.XX-X].s * I 5.8.N./.).(.).(././.R.N.N./.(.).).).).).^.N.M.",
"M.m.M.m.0.0.m.R.^.).(.).(./././././.Q.*.p s 6.].;XyXpXuX6X7XfXaXt.K w.`.(.6.s p I *.8.m.R.^././.(.(.).^.m.m.R.^./.^.^.^.^.R.N.M.",
"^.^.^.R.m.m.R.^.(.(.(./.(.(.(././././.M.4.I s R .XwXrXpXuXiXsXeXI.K a 0 0 s #.U p p *.m.M.N./././.(.).^.M.m.m.m.m.m.m.m.m.N.R.^.",
").).)./.N.R.^.).(.(./.).(.(.(.(./.(././.N.%.* , 6.[.&X2X2X3X&X.Xb.I @   O a 9.2.a 8 I &.8.M.W.(.(././.R.m.q.q.q.c.m.m.c.m.N./.).",
"(.(./././.^././.)././.).)././.)./._./.^.M.%.= X p $.k.F.F.C.%.T l.^ $ @ A >.U.U.7.U p p &.M.^.(.(.^.N.m.v.q.q.m.q.q.8.m.N./././.",
"(.(././.^././././.)./././.)././././././.N.%.= . - l i.s.s.i.` l.C.f.x v S >.9.U.T.>.= * %.!./.).(./.N.m.M.m.M.m.m.q.m.M.^._././.",
"(./.)./.N.N././.)././.).)././.)./.)._.^.M.%.= . y k i.s.s.f.$X<X,XOXf.^ 9 4 K <.I.>.= , 4././././././.W./.^.^.R.m.8.q.M././././.",
"/./.).^.M.m.^././.).)././.).)././.(././.M.%., X i _ a.s.g.+X5X9X5X#XOX/ $ X i ,.I.>.3 6 z._.(.(.)./././.).)././.N.m.q.m.^.).).).",
"/.).)./.m.m.^./.).(.(.(.(./././././././.M.R = X t _ i.g.:X5X5X1X<X:XOX/ $ O a X.I.>.: , z._.).)./.).)./.).).)././.N.m.m.^./././.",
"/././.N.m.m.Q./.(.(./.(.(.(././._././.Q.R.&.= X p $.k.+X1X8X1X,X$XG.d.! $ O i W I.>.= 6 z.)._./.)././.).(.(././././.N.N.R././.).",
"(.^.N.m.c.m.m.N.^.(.(./.(.(.)././.^.N.M.W.4.3 # ! Z.,XqXqX3X<XH.=.B b e . O u ,.I.>.= , z./.).)././.)./.(.(././././.^.Q.M.N././.",
"^.Q.m.c.M.M.M.N.^.(.)./.(.)./.).(./.N.N./.z.6 # ! OXeXtXqXoX=XF.C p p 2 o X u L ,.U s m v.).)./.)././.).(.(./././.)././.N.N.W.^.",
"M.M.m.m.R.^.^./././.)./.)./.)././././././.4.6 o x k.qXpX;XoXJ.g.d.d.d.! # X u A 4 0 E B.W.).).).)./.)./././.)./.)./.(./.^.^.M.M.",
"8.m.m.R.^.(.(.(./.)./.).)././.).(./././.).z., * N b..XoXoXV.a.y.s./ / ! 9 4 H A O , z._./.^./././.)./.).).)./.)./.).(.(./.^.M.c.",
"8.m.Q.^./.(.(./.)././.)./.)./././.)./._.).z., 9 B._.x.Y I N Z z Z x q 9 S L ;.H O , z.(.R.N.^.(./.)./././.).)./.).(.(.(.(.^.m.q.",
"M.N.^.).(.)./.(././.)./.)./.)./.(./.)._._.z.6 6 B.W.N e n V N n < o   + a P P S 8 M b./.M.M.^.).)./.)./.)././.).(.(.(.(.).^.M.q.",
"^.^./.)./.)./.).)././.).)././.).)././.).).z., @ I Y C C j.G.k.l.2       + + + 8 E b./.W.m.m.^.).(.(./.)./.(././.)./.)./.).^.M.0.",
").(.(./.(././././.).)./././.)././.)./._._.v.m , 1 z z C J.,X,XH.l.1 o   @ , 6 m v._./.R.m.m.R.^./.(.)./.)./.)././.(./.(.).^.M.q.",
").)./.).)./.)./.)./././.).)./.)./.)./.)./.^.b.R , . . N #X9X9X5X,XG.p @ T z.z.v././.M.m.m.m.m.N./.).(././.)./.).)././.(.).^.M.0.",
"(./.)././.)./.)././.)./.^./././.)./.)././.)._.b.m , , N G.:X>X#X,XG.1 , z._._._././.N.m.M.M.m.N.R.^./.(.(.)./.(./.).(././.R.m.q.",
"(././.).)./.).(.(.(././.N.N.^./.(.(.(.(.(./.)./.v.z.z.=.N v v n V 1 o 6 z._._./.(././.^.^./.^.R.N.N./.(.).).).).(.(.(.^.N.m.m.c.",
"/.).)././.).(.(./././.N.m.m.^.).(./.(.(././.).).)./.v.x.N v n v 1 @   6 4././././.(.(.)././././.m.m.R.^.^.^.^.^.^.^./.R.m.m.q.0.",
")././.).)./././.)./.N.m.m.M././.).(.(.(././.).).).v.M N G.,X,X$XG.C @ * &.Q././.(.(./.)./.).).^.b.8.m.M.M.m.M.M.M.M.M.m.m.q.q.q.",
"/./.)./././.)./.^.R.m.c.8.m.N././.(.(.(./.)./.).).v.M I #X8X8X1X|.k.b p &.M./.).(././.)././././.N.m.m.m.0.m.m.m.M.M.M.m.m.q.q.q.",
").).(./.(.(.(.^.N.m.m.q.c.q.M.N.^.).).)./.)././.).W.v.b. X|. X^.V.c.*.&.8.m.^./././.(././.)./././.R.m.q.q.m.R.^.^.^.^.R.m.0.0.q.",
"^.^./.(.(.(.(.^.N.M.m.m.q.q.q.M.V.^.^.^././././.).)._.).`.W.M.B.m.m.m.q.q.M.^./.(.(./.(./.).)./.(.^.N.m.m.R./.).).).).^.R.m.m.q.",
"M.N.^.(.(.(.(./.^.^.^.Q.m.q.q.q.M.M.M.M././.(./.).).).).(./.W.W.Q.Q.M.q.c.M.^.).(./.)./.)./././.(././.^.^.^.(.(.(.(.(././.R.m.0.",
"M.N.^.(.(.(./.(.(.).(.^.M.q.q.m.m.M.M.N./././.(.W.).).).(.(.).).)./.M.M.M.N.W.^./.)./.)./././././././.(.(.(.(.(.(.(.(.(.(.^.R.m.",
"^./././././././.(.).).^.M.m.8.m.R.^.^./././.(././.)./.)./.)./.(.)././.Q./.Q.M.N./.).(.(.(./.(.(./.)././././././.(.(./.).(./.^.^.",
"(.).).).).)././.(.(.).^.N.M.m.N.^.).).)././.(.(.)./.)./././.).(.)./.(.(./.^.N.N.R.^./.(.(.(./.(.)./.).).)././.(./.(.)././.).(.).",
"(././././.)././.(./.)././.^.^././.).(.).(.(.(.(././.)./.)./.)./././.).).(././.Q.N.N.^.).(.(.(././.).)././.).(./.(./.).).(.(.(.(.",
"(.(.)./.)././.(.(./.^./././.(././.)./././.(.(.(./.)./.)./.)./.).)././.)./.(.).Q.M.m.R.W./.(.(.(./././.)./././.(./.)././.(.(.(.(.",
"(.(.(./.(.(.(.(.(./.M.N.^./.)./.)./.).)./.).)./.)./.)././.)./././.)./.).(.(.(./.M.m.m.N.^.(./.(.)./.)./.(.(.(.(./.)./.).(./.(.(.",
"^.^./.).(.(./././.R.m.m.R./.(././.)././.)././.)./.).)./.)././.)././.)././.(.(.Q.m.m.m.N.^.(.(././.(.^././.).(.(././.)./.(./.^.^.",
"m.N.^.).(.(././.N.m.m.8.m.N././.)././.(./.).)././.)./.)./.).)./.)././.).)./.(.^.M.m.V.^.).(.(.(.(.^.N.N.^.).)./.)././.).).^.N.M.",
"c.M.W.).(./.).^.m.8.m.8.m.m.^.(././.)./.)././.)././.)./.)././.)./.).)./././.).^.M.m./.).).(.(.(.(./.m.m.^.)./.)./.)./.)./.^.m.c."
};
