/* XPM */
static char *c2de0c5fe88148aebb2ed1b72f8e2e8f8kaj1N1nx8s7fsro[] = {
/* columns rows colors chars-per-pixel */
"32 32 27 1 ",
"  c black",
". c #0A0010",
"X c #1E0121",
"o c #1C1A23",
"O c #2D0532",
"+ c #313033",
"@ c #410D38",
"# c #501637",
"$ c #161159",
"% c #561046",
"& c #6F2247",
"* c #7C2D54",
"= c #256956",
"- c #714058",
"; c #747474",
": c #923950",
"> c #8D3962",
", c #8D4A63",
"< c #8F5765",
"1 c #C26A7E",
"2 c #38814C",
"3 c #4F79A3",
"4 c #9D8D9D",
"5 c #909090",
"6 c gray69",
"7 c #E696A0",
"8 c #F2EAF2",
/* pixels */
"-------<<<<<<<<<<<<<<<<<<--<<-<<",
"<-<<<<-<<<<<<<<<<<<<<<<<<-<<<<<<",
"<<<<<<<<<<<<<<<<<<-<<<<<<-<<<<<<",
"<<<<<<<-<<<<<<<<<    <<<--<<<<<<",
"-<<<<<<<--<<<<-- &::& <<<--<<<<<",
"<<<<<<<<-<<<     .&&&& <<-<<<<<<",
"<<<<<<<<<<< %%%%%O.2&: <<<<<<<<-",
"<<<<<<<<<< %%&%%&%O.=& <<<<<<<<-",
"<<<<<<<<<< O&%OO&&%.=O& <<<<<<<<",
"<<<<<<<<< %::&&%O&%%.%  <<<<<<<<",
"-<<<<<<-< &&%&:%%%&%.O <<<<<<<<<",
"---<<<--< %O%,&%&%%%  <<<<<<<<<<",
"-<<<-----< $11%O&%OO <<<<<<<<<<<",
"-<<<-<<<-< 371$4:%7O <<<<-<<<<<<",
"----<<<<<- 17738O11 --<<<<-<<<<-",
"<<-<<<<<<<- 1777&  > --<<<-----<",
"<<<<<<<<<<- X==X2 *>> -<<-----<<",
"<<-<<<<<<<- @==652 #> <<<<<<--<<",
"<<-<<<<<<<- @=6552 #> <<<<<<<-<<",
"<---<<<<<-< 2715XX #> <<<<<<<<-<",
"--<<<<<<<<< +71=22 # <<<<<<<<<<-",
"-<<<<<<<<<< 1oooo && <-<<<<<<<<-",
"<<<<<<<<<<< ++;;    <<-<<<<<<<<-",
"<<<<<<<<<<<<  666 <<<---<<<<<<<-",
"<<<<<<-<<<<<<<    <<<<<<-<<<<<--",
"<<<<<--<<<<<< 66; -<<<<<--------",
"<<<<----<<<<<<<----<<<<<<--<<<--",
"-<<<<<----<<<<<<<--<<<<<<<<<<<<-",
"<<<<<<--<<<<<<<<<<<-<<<<<<<<<<<<",
"<<<<<<<<<<<<<<<<<<<<-<<<<<<<<<<<",
"<<<<<-<<<<<<<<<<<<<<--<<<<<<<<<<",
"-<<<---<<<<<<<<<<<<<-<<<<-<<<<<-"
};
