/* XPM */
static char *result[] = {
/* columns rows colors chars-per-pixel */
"64 64 226 2 ",
"   c #020103",
".  c #060308",
"X  c #0D010B",
"o  c #090A0A",
"O  c #12030D",
"+  c #19060E",
"@  c #130C0E",
"#  c #09170E",
"$  c #071C0E",
"%  c #0A0413",
"&  c #140313",
"*  c #1C0D13",
"=  c #14011B",
"-  c #1A021B",
";  c #1F0F19",
":  c #170D12",
">  c #0D1716",
",  c #1E1315",
"<  c #1B161C",
"1  c #1E1F1D",
"2  c #16191F",
"3  c #210C14",
"4  c #2C0C1D",
"5  c #21071C",
"6  c #211417",
"7  c #25121B",
"8  c #2B141E",
"9  c #211C1C",
"0  c #2C191C",
"q  c #122619",
"w  c #1E0423",
"e  c #1B1924",
"r  c #0E0E2F",
"t  c #2B052C",
"y  c #260325",
"u  c #3A0E29",
"i  c #360B2A",
"p  c #281C2A",
"a  c #331B24",
"s  c #3C1429",
"d  c #381927",
"f  c #350636",
"g  c #360A33",
"h  c #3C0A34",
"j  c #3D0B3A",
"k  c #3B0738",
"l  c #351739",
"z  c #271035",
"x  c #1D2A29",
"c  c #1D3326",
"v  c #1D3F3B",
"b  c #242525",
"n  c #28282B",
"m  c #352027",
"M  c #3C252A",
"N  c #35242A",
"B  c #352E33",
"V  c #3A2D32",
"C  c #3A2439",
"Z  c #2F3030",
"A  c #39383B",
"S  c #283132",
"D  c #43152C",
"F  c #471B2F",
"G  c #420C35",
"H  c #430C3A",
"J  c #490C3D",
"K  c #4E1534",
"L  c #4A1436",
"P  c #52163A",
"I  c #5B1C3B",
"U  c #571A38",
"Y  c #462836",
"T  c #57263C",
"R  c #4B323C",
"E  c #54323C",
"W  c #59343E",
"Q  c #68263A",
"!  c #6E2B3C",
"~  c #244A2F",
"^  c #254D32",
"/  c #295234",
"(  c #2A663B",
")  c #131D50",
"_  c #39154C",
"`  c #392340",
"'  c #362C52",
"]  c #4C0D41",
"[  c #510E43",
"{  c #431749",
"}  c #551144",
"|  c #5B1446",
" . c #5C1348",
".. c #5C1A47",
"X. c #601746",
"o. c #641C45",
"O. c #6A1F46",
"+. c #661A48",
"@. c #6B1E49",
"#. c #601648",
"$. c #562547",
"%. c #493846",
"&. c #5B3445",
"*. c #5A3546",
"=. c #4C2A51",
"-. c #6C2345",
";. c #6C2349",
":. c #6B2B4A",
">. c #652245",
",. c #732449",
"<. c #7A264B",
"1. c #7E2C4C",
"2. c #74274B",
"3. c #643B4A",
"4. c #69354B",
"5. c #733C4B",
"6. c #762C52",
"7. c #6F3F57",
"8. c #783154",
"9. c #703F57",
"0. c #703F58",
"q. c #7D3857",
"w. c #682656",
"e. c #493B73",
"r. c #683B60",
"t. c #1C5446",
"y. c #264946",
"u. c #26544C",
"i. c #3B5745",
"p. c #2F5954",
"a. c #1E6A54",
"s. c #346945",
"d. c #326D51",
"f. c #3A7464",
"g. c #29476D",
"h. c #4C4F53",
"j. c #595B5A",
"k. c #4A4D48",
"l. c #6C424C",
"z. c #64424D",
"x. c #6E4954",
"c. c #734652",
"v. c #774854",
"b. c #794955",
"n. c #75435A",
"m. c #78455B",
"M. c #7D495D",
"N. c #784856",
"B. c #754C57",
"V. c #4D6B57",
"C. c #637D5E",
"Z. c #4F5571",
"A. c #7B5567",
"S. c #665168",
"D. c #59766B",
"F. c #666868",
"G. c #77777A",
"H. c #6F6F70",
"J. c #832F4D",
"K. c #84314D",
"L. c #89324E",
"P. c #84335C",
"I. c #873859",
"U. c #903651",
"Y. c #903A64",
"T. c #824D5F",
"R. c #8C445C",
"E. c #85515F",
"W. c #834E60",
"Q. c #884766",
"!. c #914565",
"~. c #875162",
"^. c #8E5665",
"/. c #905765",
"(. c #915866",
"). c #945A69",
"_. c #985462",
"`. c #845F71",
"'. c #9B5773",
"]. c #A45E6D",
"[. c #A1506C",
"{. c #A75974",
"}. c #82777D",
"|. c #92607A",
" X c #A36674",
".X c #B9637A",
"XX c #AE6976",
"oX c #518C61",
"OX c #67857B",
"+X c #67856F",
"@X c #9A847E",
"#X c #646B95",
"$X c #637EA7",
"%X c #B57583",
"&X c #B97F95",
"*X c #A56583",
"=X c #CE7788",
"-X c #D4798A",
";X c #7B9286",
":X c #858585",
">X c #898989",
",X c #9D8F94",
"<X c #999898",
"1X c #BB8B8F",
"2X c #B8848D",
"3X c #AC8D9A",
"4X c #94A19D",
"5X c #8F88A5",
"6X c #9391AD",
"7X c #A99DA3",
"8X c #B19EA3",
"9X c #A8A8A8",
"0X c #BCA9B9",
"qX c #C1848D",
"wX c #DC8492",
"eX c #CF8F98",
"rX c #E6919C",
"tX c #EB909E",
"yX c #E98E9D",
"uX c #CE93A3",
"iX c #D29BAA",
"pX c #E796A1",
"aX c #C9A9B9",
"sX c #E8ABB6",
"dX c #B9BFD2",
"fX c #D9CAD7",
/* pixels */
"0.n.7.n.n.n.7.n.0.0.n.n.7.n.~././././././././.^./.^./.^.(.^.(.(.^./.^.(.^.(.^.^.^.(.^.^.(.^.^.^.(.~.B.n.n.n.~.(.(.~.m.m.~./././.",
"m.n.n.0.n.N.n.m.n.n.m.n.n.n.~./.^.(./././.^.^./.^.(.^.(.^./.^.^.(.^./.^./.^.^.(.(.^.^.(.(.^.(.^.(.~.n.n.n.M.~.(.(.~.M.M.~././.^.",
"~.W.n.n.E.~.~.~.~.~.~.M.n.m.~./.(.^.^.(.^.^././.^.^.^.(./.^././.^.(.^.^./././.^.^.(.(.^.^.(.^./.(.~.n.n.E.~.^.^./.^.~.~.^.(.^./.",
"(.~.M.m.~./.(.(././.(.^.M.M.~.(.^.^.(.^././././.).(./.).(.(./././.^.(.^.~.~.^.(.^.(.^.^.(.^.^.(.(.~.m.n.~.(././././././.^.^./.^.",
"(./.~.~./.(.(./.^.^.(.^.^.~././././.^././.(.).(.).(././.(.(././.^.^.(.~.M.M.E.(.^.(.^.(./.^./.(.(.~.m.m.~.(./.^.^.(.(.^.^.(.^.(.",
"/.(./././.(.^./.(.(.^.^./.^.~.~.^.(./.(.).E.c.l.l.z.l.l.l.v.E.).(.^.^.~.M.M.~./.^.(.(.^.^.(.^.^.~.T.n.n.~.(././.(.^.^.(.(.^.^.^.",
"/.(./.^.^.(.^.^.^.(.(.^.^.^.M.M.~.(.(.(.).v.M , , , 6 , , M v.).).~.M.N.E.~././.(.^.^.(.(.^.^.~.M.n.n.m.~.(./.^.^.(.^.^.^.(.(.^.",
"~.~.^.^./.^.^.(.^.^.^.(.^.~.M.M.T.^.~.E.c.E 0 + * * 3 * + 0 E v.E.W.m.M.~.).(.(.^.(.^.^.(.^.).~.M.n.n.n.T.^.^.^.^.^.(.^.(.^.^.(.",
"B.M.E.(.(.^.^.(.(.^.(.^.(.^.^.E.m.m.M.3.d 8 D U Q ! ! Q I F 8 M 3.M.n.M.^.(.(.(.(.(./././.^./.^.^.M.n.n.B.M.~./.(.^.(.^.^.(.^.(.",
"m.M.~.^.^.(.^.^.^.(.^.(.^.^./.E.n.7.&.Y 6 4 I <.L.L.U.J.O.s O o M &.$.&.3.l.l.v.~.(././.^./.^././.~.n.n.n.M.~.(.^.(.^.(.(.^.^.^.",
"~.~.^.^.^.(.^.(.(.(.^.^./././.~.m.&.a 7 D I >.,.<.<.J.o.u +     @ : : , , , , M b.).(././.^./././.~.m.m.M.^.^.^.^.(.^.^.^.(.(.(.",
"(.(.(.^.(.^.(.^.^.^.(.^.^././.^.T.&.+ + U <.,.,.4.4.T D w O & & O & X & & X X 4 E b.~././.^././.(.~.m.m.^././.(.(.^.(.^.(./.~.E.",
"^.(.^.^.(.^.(.^.^.(.(.^./.^.(.^./.3., * Q L.<.:.k.( a y y t f G h G G j G j G i 7 M v.).(.(./././.^.~.^.^./.^.^.^./.^././.~.T.N.",
"(.^.^.(.^.^.^.(.(.^.^.(.^./.(.(.).l.6 * Q L.4.k.i.^ 2 = t H }  . . .}  .| |  .H - 7 E v.~.(././././././.(.^.^.(./.^././.(.E.n.n.",
"/.^.(.^.^.(.(.^.^.^./.^./.(.^.(.).l.6 + I 4.h.y.c 2 w t J } o.+. .} }  .+.+.#.[ J i 7 M v.(.(./.^.^.^.^.(.^.^.(.^././././.~.n.n.",
"/.(.^./.(.^.^.(.^.(.^.(.^.(.(.~.v.E a 4 K =.p.t.2 = t H [ o.@.>.} ] ] } o.+.X.| } g X , l.(.).(.(.(.^./.^.(.^.^.(.^./././.~.M.n.",
"/./././.^./.^./.^././.^.^.).(.c.M 0 F P G ` u.t.2 = h } o.@.,.o.H f f j [ X.+...H y . , c.).(.^.^.^.(.^.(.^.^.(.^.(.^.^.(.^.~.~.",
"/./.^././.^./.^./.^.^.^.^.^.(.l., X s P G l y.v e y J | @.-.o.P j f h H } o.,.-.P i - 8 E v.~.(.(./.(.^.^.(.(.^.^.^.(.^.^.(.(.(.",
"/./././.(.^.^.(.^./././.).).).l.,   O 4 H H e e h J [ X.@.o.L j J } P o.o.,.J.L.K.-.P g 7 M v.(.(.^.^.(.^.^.^.(.(.^.^.(.^.(.^.(.",
"~.~./././.^.(.^./.^./././.^.~.x.M @   X g k = w H | | X.O.| H k ] ..,.<.,.,.J.L.L.J.@.G O , l.(.).(.^.^.(.^.(.^.^.(.(.^.^.^.(.^.",
"m.M.^./.(.(.(.^././././.(.~.M.n.c.E @ X t g = - H | +.+.X. .[ ] [ +.1.K.,.-.+.@.2.<.,.K O , l.(.(.^.(.^.(.^.(.^.(.^.^.(.(.^.^.(.",
"n.m.M.~.~.~.^.^.^././.^.~.W.n.m.^.N.M < - - X - H #.+.+. .[  . .| #.1.L.8.;.| [ ..o.@.K O , l.(.).^.^.(.(.^.^./.^.(.^.^.^.(.(.^.",
"n.n.n.m.B.M.~.(.^.(.(.~.W.n.0.n.~.^.N.E ,     & G  . .| } | o.o. . .,.1.I.q...] j H } G O , l.)././.^.^.^.^.(.^.^.(.^.(.(.^.^.(.",
"n.7.n.m.m.M.~.^.^.~.~.W.n.0.x.n.W.^.).N.M @   & g ] ] ] [ | O.o.[ P | 6.!.!.q..._ f j i 8 M c.(.(.^.(.^.(.^.^.(.(.^.(.^.^.(.^.^.",
"7.n.M.~.~.^.^.~.T.m.m.m.n.n.n.n.n.M.^.~.v.E @ X y f f k ]  .@.o.G k [ w.[.*X{.Y.' ) = 7 &.c.~.(./.^./././.^.^./.^.(.^.^.(.^.(.^.",
"7.n.^.(./.(./.~.n.0.n.m.N.m.n.n.0.n.~.).).c.6 . w j ..$.} #.,.:.$.{ _  .{.=X-X*Xe.) % ; l.(.(./.^.^.^.E.^./././.^.^.(.^.^.(.(.^.",
"n.m.~./.).(.(.~.m.n.W.W.~.~.~.T.n.n.~.).).l., . w ..'. Xw. .<.Q.`.S.' _ [.-X-X&X#Xg.> , l.)./././.E.M.M.~./././.(.^.(.(.^.^.^.(.",
"7.n.W.~.~.~.~.W.m.T.~.(./././.~.M.M.T.^.(.v.M 3 w =.%X=X!.2.,.W.7X5X#Xe.*X-XtXiX5XZ.e , l.).(././.^.M.m.A.^././.^.(.^.^.^.^.^.E.",
"n.x.n.m.m.m.m.m.W.^.^././././.^.~.~.M.M.~.^.b.E : a ].=X.X!...n.0XdX$X#X&XrXpXuX=XA.p , 3.(.(./.^.^.~.T.m.M.^./.(.(././.(.~.M.B.",
"n.n.n.n.0.0.n.T.~././.^.^./././.(.~.M.M.T.T.v.E a d 5._._.q.P r.aXfX6X5XuXtXyX-X].5.a m l.^././././.(.~.n.n.T.~.~.~.~.~.~.E.m.m.",
"W.~.~.W.n.n.W.~././.^.(.(./././.(.^.~.W.T.3.d a $.T d 0 0 d K I.uXsXiXuXpXrX-XXXE a Y &.n.T.~.(.^./.).E.m.n.n.m.N.m.n.m.m.m.W.~.",
"(.(.(.^.W.M.~././././.^.^./././.(.(.(.E.3.Y p s 8.6.s @   @ Y v. X%X2X1X1X2X{.4.* * &.M.n.n.~././.^.^.T.n.0.0.0.0.n.0.n.m.M.^.(.",
"^./.(.^.~.^././.^.(.^.(.^.(.(.^.^.(.^.c.a p T 6.Y.I.:.D O # / k.R %.j.D.D.V.=.i X , 3.W.m.m.~.^./.~.m.n.n.n.7.n.7.0.7.n.M.^././.",
"(./././.~.~.^./.^.^.(.^.(.^.^.(.(.^.).l., * :.Y.P.1.:.F 9 ~ d.V.%.' u.a.a.t.p = . 6 l.^.M.M.^.(./.^.M.m.m.B.n.n.n.0.n.m.~.^././.",
"^.^./.~.M.M.~./.(.^.(.^.^.(.^.^.^.(.(.l., * :.P.:.K 0 9 ~ V.+X;X>XOXf.a.a.u.l y X 6 x.(.^.~.^.^././.~.~.~.~.~.~.n.n.7.n.~././.^.",
"/.(.(.~.m.m.~./.^.(.^.(.^.^.(.^.(.(.^.5.6 * :.P.o.u   $ ( oX>X<X9X4XOXf.d.u.` t X 6 l.).(./././././.(.(.^.(.(.~.m.n.n.n.~./././.",
"^.(.(.~.n.m.~./.(.(.(.(.(.^.^.(.^.).).l., 3 :.P.$.u X $ ( oX;X<X<X4X4X;Xf.u._ i X 6 l.(.(.^.(.^./.^./.^.(./.(.^.^.M.n.m.~.(././.",
"(.^.^.M.n.n.M.^.E.(.^.(.^.(.(.^.(.^.^.3., 3 :.P.o.u O # ~ V.j.G.>X<X8X,XOXV.%.p X 6 l.(.(.(.^.^.^./.^.(.(.^.^././.^.m.m.~.~.^.(.",
"/.^.M.B.n.n.c.M.E.^.^.(.^.^.^.(.(.^.M.*.@ 3 :.P.o.s O   2 p p k.}.,X2XqX1X@XD.~ # 6 l.).(.(.^.(./.^./.^.^.^.(.(././.^.W.m.M.~.(.",
"~.M.n.n.n.m.m.M.^.^.(.^.(.^.(.^.^.~.W.*.N a T -.I s O o e p p ' F.:XXX-XyX1X+X^ # 6 l.(.(.^.(.^.^./.^./.^.(.^.^./././.^.M.B.~.~.",
"m.n.n.n.M.~.~.~.^.^.^.^.(.^.(.^.^.^.~.W.v.&.a 8 D u O # ~ s.s.s.f.D.XX-XrXqXj.c # 6 l.(.(.^.^.(.(.^.^.(.^./.^.(./.^./.^.~.~.m.m.",
"0.n.m.m.^./././.(.^.^.(.^.(.^.(.^.(.(.).).l., O D K 4 9 ^ ( ( s.u.i.A.].XX XB.V @ 6 l.(.^.~.^.^.^.^.(.^.(.^.(.^.^././.^.(.~.n.n.",
"7.m.M.^.^./././.^.(.(.^.^.(.^.^.(.^.^.(.).l., X K Q I F 9 q c S x S V Y R z.(.b.6 6 l.E.W.M.~./.(.^.(.^.^.^.^././.^./.).(.W.m.n.",
"m.m.^././.^././.(.^.^.(.(.^.(.^.^.(.(.(.(.c.M 8 D U U s O   % < n B S n x Y E.b.6 6 l.^.m.m.~.(./.(.^.(.^.(./.^.^./.^.^.(.W.n.x.",
"~.~.^.(././.^.(.^.(.^.^./.^./.^././.^././.E.v.W 0 + + O       7 k.j.F.h.S B %.Y @ 6 l.^.m.m.~././.^.^.(.^.^.^.)././.(.^.(.~.m.0.",
"(./.^.(./.^.^.^.(.^.(.^.^./.^./.^.^.(././.(.).v.M , , *   . p / G.>X>XD.' x b 1 , M l.~.m.n.W.~.^./.(.^./.^.^.^././.^./.(.~.m.0.",
"(.(.^.^.^.^.(.^.(.^.^.(././.^./././.(.^./.(.(.~.v.l.l.E * 1 F.<X7X9X9X*XZ o   , W x.v.n.n.0.n.T.~.(./.^.^././.^././././.^.~.m.0.",
"^./.(.^.(.(.^.(.^./.(.(.~.~.^./././.^./.^./.(.(./.).).l., 1 F.>X>X;X>XH.V 6 , M b.(.M.m.n.m.m.m.~.~.^.(././.^./././.(.^.~.W.m.0.",
"/.^.(.^.(.^.^.(.^.(./.~.T.M.~././.^.(./././.^./.^.).).l.6 o x n n b b V *.l.l.v.E.(.~.~.~.~.~.E.M.M.^.^././.(.(.(.(.(.~.T.n.n.7.",
"^.(.(.^.^./.(.^./.^.~.M.n.m.E././.^.^././././.^.^.).).l.,   @ < b n n V z.v.^.(.(./.(.(.(.(.(.~.B.n.W.~.~.~.~.~.~.~.~.W.n.n.n.0.",
"(.^.^.(.(.^././.(.~.T.n.n.m.~.(././.^./././.^./.(.(.).z., @ A F.+X>X:XF.B M c.).(.(.(.^.(./.(.~.n.n.n.m.n.n.m.m.B.m.m.n.0.n.7.0.",
"^.(.^.^.^.(.^./.~.A.n.n.7.n.T.^.^./.(.(./.^./.^./.(.(.c.M N j.}.,X8X7X}.B a c.(.(.(.^./.^./.(.~.m.n.7.n.n.n.n.n.n.m.m.n.n.9.7.n.",
"(.(./././././.~.M.n.9.n.n.7.n.M.~.(.(.(.(./.^.(././.^.~.c.x.B.A.`.`.`.A.*.3.M.^.(./././.^.(.^.^.^.M.n.n.7.n.~.~.~.~.~.T.n.n.0.n.",
"~.~.^././././.~.M.m.n.m.n.7.n.n.W.~.~.~.^.^.(.^././.^./.(.^.M.n.N.q.7.7.n.m.^.^.(.^./.^./.^./././.^.M.m.m.m.~./.(.(.(.~.m.n.n.7.",
"B.M.^.^.^./.^.^.~.~.~.T.n.0.7.n.B.m.N.M.E.(.(.^./.^././././.~.~.E.T.n.7.0.m.~.(././././.^.(.(.^./.^.~.~.~.^.^./.(.(./.^.~.W.n.7.",
"m.m.~.^./.^./.^.(.(.(.~.m.7.7.7.n.m.m.M.~./.^.(././.^./././././.).E.M.n.B.M.E.~.^./././.^.(.^.^./././././././.^././.(.(.(.~.M.n.",
"~.~.^././.^.(.^./.(.(.~.m.n.7.v.E.E.~.~././.^.^.(.^.^.(.^.(.^./././.~.~.~.T.M.M.^./././.^./.^.(.^.^.(.^.(.^.^.(././././.^.^.~.~.",
"/./.^./.^.(.^.^./.^./.~.T.n.n.M.E.(.(./.^./.(.^.^.(.^.^.^.^.(.^.^./././.(.^.M.m.T.~.^././.^./.^.(.(.^.(.^.(.^.^.(.^./.^././.(.(.",
"/./././.(.^.^.(.^.^./.^.~.~.~.~.^.(.(.^.(.^.^.(.(.^.^.(.(.^.^.(./.^././././.~.E.M.M.~././.^././.^.(.^.^.^.(.^.(.^.(.^.(.^./.^./.",
"/.^././././.(.^.(.^.~.^./.(.(./.^./.^.(.^.(.(.^.(.^.^.(.^.(.(.^.^./.^././.(.(.~.m.n.T.~.^.^.^./.^.^.(.^.(.^.(.^./.^./.^.(.^.(.^.",
"/./././.(.^.(./.(.~.M.N.^.(.^.^.^.(.^.^.(.^.^.(.^.^.(.^.(.^.(.(.(.^.(.^.^.(./.~.m.n.n.M.~./.^.(.(.^.(.(.^.^.(.^.^./.^./.^.^././.",
"~.~.^.^.^./.^.^.~.W.n.n.W.~.^.(.(.^.(.^.^.(.^.^.(.^.^.(.^.^.^.^.^./.^.^./.^./.~.n.n.n.M.^.(.^.^.^.^.~.E.^./.^.(.(.^./././.^.~.~.",
"m.M.~.(./.^./.~.W.n.n.n.m.M.~.(.(.^.^.(.^.(.^.(.^.(.(.^.^.(.^.(./.^.^.(.^././.~.m.m.T.~.^.^.^.(.(.~.M.M.~.(.(.^.^.^././.(.~.M.N.",
"n.B.~.(././.(.~.m.0.0.0.0.m.~.(.^.(.^.^.(.^.(.^./.^.(.^./.^.(.^.^.(.(.^./././.~.m.m.~.(.(.^.(.(.(.~.n.B.~.(.^.(.^.(././.(.~.n.n."
};
