/* XPM */
static char *result[] = {
/* columns rows colors chars-per-pixel */
"64 64 203 2 ",
"   c #030303",
".  c #04000A",
"X  c #0C010B",
"o  c #090A0A",
"O  c #060809",
"+  c #13030E",
"@  c #18060F",
"#  c #140D0E",
"$  c #0D0014",
"%  c #110117",
"&  c #160D11",
"*  c #190E13",
"=  c #15011A",
"-  c #1B041C",
";  c #1F081D",
":  c #111314",
">  c #1D1215",
",  c #191B1A",
"<  c #1C111E",
"1  c #20061C",
"2  c #230A1D",
"3  c #290D1E",
"4  c #211417",
"5  c #24131B",
"6  c #2A151C",
"7  c #251A1C",
"8  c #2E1A1E",
"9  c #1D0223",
"0  c #1F1E26",
"q  c #220524",
"w  c #2C0722",
"e  c #250822",
"r  c #2B0D24",
"t  c #24032A",
"y  c #2A052D",
"u  c #2E092B",
"i  c #320B26",
"p  c #340C2A",
"a  c #3B0B2E",
"s  c #2B1422",
"d  c #231C23",
"f  c #2E1F2D",
"g  c #261622",
"h  c #331D24",
"j  c #3C1526",
"k  c #2D0532",
"l  c #350736",
"z  c #360935",
"x  c #3C0A33",
"c  c #3F0B39",
"v  c #3E1434",
"b  c #1F2221",
"n  c #222225",
"m  c #2B2B2F",
"M  c #2E2527",
"N  c #342224",
"B  c #3B2429",
"V  c #332A2C",
"C  c #3B2127",
"Z  c #2F3332",
"A  c #3C393B",
"S  c #362634",
"D  c #46152E",
"F  c #421E2B",
"G  c #501E2A",
"H  c #430D34",
"J  c #440D3A",
"K  c #490F3A",
"L  c #431433",
"P  c #4A1533",
"I  c #411833",
"U  c #4C1937",
"Y  c #451439",
"T  c #4B123A",
"R  c #47193D",
"E  c #511734",
"W  c #541935",
"Q  c #52163B",
"!  c #551A3A",
"~  c #5D1D3C",
"^  c #621F3F",
"/  c #432B2F",
"(  c #452430",
")  c #4F2030",
"_  c #4E2F37",
"`  c #432835",
"'  c #502031",
"]  c #4F3138",
"[  c #55323C",
"{  c #6A273E",
"}  c #6C2A3F",
"|  c #65243C",
" . c #3B3A40",
".. c #4C0D42",
"X. c #520E45",
"o. c #551144",
"O. c #5B1545",
"+. c #5E1449",
"@. c #581545",
"#. c #621B42",
"$. c #661A48",
"%. c #6D1F49",
"&. c #601549",
"*. c #542F41",
"=. c #56294A",
"-. c #543041",
";. c #5B3544",
":. c #5C3941",
">. c #5D3448",
",. c #632343",
"<. c #6D2147",
"1. c #6C2B42",
"2. c #61254F",
"3. c #6D2B4B",
"4. c #722746",
"5. c #722C40",
"6. c #732649",
"7. c #74294A",
"8. c #7D2B4B",
"9. c #653D4B",
"0. c #683F4A",
"q. c #7B3246",
"w. c #6F2650",
"e. c #742952",
"r. c #7B2A51",
"t. c #752F5A",
"y. c #6F3F57",
"u. c #673750",
"i. c #743154",
"p. c #703F57",
"a. c #7B3E55",
"s. c #7D335A",
"d. c #703F58",
"f. c #79385C",
"g. c #4B4A4B",
"h. c #424444",
"j. c #574953",
"k. c #5A5B5A",
"l. c #545857",
"z. c #6C414C",
"x. c #77414D",
"c. c #78424E",
"v. c #6F4350",
"b. c #734552",
"n. c #764954",
"m. c #75435A",
"M. c #78465B",
"N. c #7D495D",
"B. c #784954",
"V. c #625457",
"C. c #6E5F66",
"Z. c #72636D",
"A. c #6B706E",
"S. c #6F7071",
"D. c #686C6B",
"F. c #834E3D",
"G. c #842F4E",
"H. c #86314F",
"J. c #87394E",
"K. c #812F57",
"L. c #8F3650",
"P. c #84325B",
"I. c #863F5E",
"U. c #913751",
"Y. c #963B52",
"T. c #8D3A63",
"R. c #8C3762",
"E. c #903B65",
"W. c #915444",
"Q. c #824D5F",
"!. c #85525E",
"~. c #84585C",
"^. c #834E60",
"/. c #844665",
"(. c #964967",
"). c #875162",
"_. c #8E5665",
"`. c #875C65",
"'. c #905765",
"]. c #905866",
"[. c #945A69",
"{. c #985A69",
"}. c #9F5E71",
"|. c #A14B68",
" X c #A05D6A",
".X c #AB5678",
"XX c #8F656F",
"oX c #846D72",
"OX c #887B7F",
"+X c #976D77",
"@X c #A2636C",
"#X c #A96376",
"$X c #AB6B76",
"%X c #B2617B",
"&X c #B46E7E",
"*X c #B4767D",
"=X c #8B7B81",
"-X c #BE6A81",
";X c #B67080",
":X c #C6748B",
">X c #A5979A",
",X c #8B8C8C",
"<X c #DC879A",
/* pixels */
"d.m.y.d.v.m.y.y.y.y.y.m.y.M.)._.]._.].]._.]._.]._._.]._.]._._.]._.]._.]._._.]._._.]._.]._.].]._.].!.m.m.y.M.).].].).M.M.).'.'._.",
"M.m.m.m.m.m.M.M.M.M.M.M.m.m.).]._.]._._.]._.]._._.]._.]._.].]._._._.]._.]._.]._.]._.'._._._._.'.'._.m.m.M.N.).].].).N.N.).'._.].",
").^.m.m.N._._.).).).).N.m.M.).]._._._.]._._.].]._.]._.]._._.]._.]._.]._.'.'._.].]._.'._.]._.]._.].).m.m.^.)._._.]._.).)._._.'._.",
"].).N.M._._._.'.]._.]._.N.N.).].]._.]._._.]._._._._.]._.].'._.]._.].'._.).)._._._.]._.]._.'._.].'.).M.M.).].'.'.].'.].'._.]._.].",
"]._._.)._._.'.'.]._.'._.)._._._._._.]._._.].]._.]._._.]._.].'._.'.'.'._.N.N.!.]._.]._._._.]._.].].).M.M.).'.'._._.]._.'.]._.]._.",
"].].'.'.'._._.]._.]._._.]._._.)._._._.].]._._.]._.].]._._._.'.].'._.).Q.N.N._.'.'._.]._.]._.]._._.Q.m.M.).'.'.'._._.]._._.].]._.",
"].'.'._._.]._._.]._._.]._._.N.N._.].].]._._._._._.]._._.].].].].].).N.N.Q._._._._.].]._._._.].).B.m.d.M.).'.'._.]._._.].]._._.].",
").)._.'.'._.]._.]._.]._._.).N.M.^.).).)._.].]._.]._.].]._.).).)._.^.M.M.).].'._.]._._.]._.].].).N.m.m.m.^._._._._.'.]._._._.]._.",
"m.N._.'._.]._._._.]._.]._._._.Q.N.M.m.N.).].]._._.'._._.^.M.M.M.M.M.m.M._.'.'.'.'.]._._.]._._._.).Q.m.m.m.N.)._.]._._._.]._.]._.",
"M.N.!.].]._.].]._._.]._.'.'.].).M.y.m.N.).]._.].].!.n.9.>.*.-.[ -.-.-.>.9.n.!.[.]._._.]._.].].'.].).m.m.m.N._.]._.].]._._.'._.].",
")._._._._._.]._.]._.'._._._._.).M.M.^.)._.]._.].[.B.B > * * * * * > * * * B n.[.]._.]._.]._._.].].).M.m.Q.)._._._.]._.]._._.'.'.",
"_._._.]._.]._.]._.]._.].'._._._.N.N.).]._.].]._.B.[ 3 + + % + % + + @ @ @ 6 [ n._.].].]._.'.'._.'._.N.N.).].'.].]._.'._._._.)._.",
"_._.]._.]._.]._.'._.]._._._.'._.).)._._._.].].n.B 5 p H J x H x x H U W W D 6 C n.].]._.]._._.]._._.)._._._.'._._.].]._._.).N.m.",
"_.].]._._.'._.'._.]._._.'.'._._.]._.].].]._.B.[ 5 1 K o.X.........o.O.$.<.! 3 6 [ n._.]._.].]._._.'._._.]._._.].]._._.].'._.M.v.",
"_.]._.].]._._.].]._._.]._.].]._.]._.].].].b.B 3 p K X.X.c l l z l l c J @.O.! D 6 B n.].]._.]._._.].]._._.].]._._.].]._.].).M.y.",
"'._.'._._._.]._._.].'._.]._._.].].].].].].z.> + H o.+.o.c c J Y Y Y c c K o.$.E + > z.[.].]._.].]._._.]._.]._.]._._._._.].).N.M.",
"_.]._.'._.]._.'.'._.]._._.]._.'._.].'.].].z.4 + x +.$.#.X.O.4.8.G.7.%.Q J J X.H + > z.[.].].].]._._.]._.]._.]._.]._.]._.]._._.!.",
"]._.'._.]._.]._._.]._.].]._.]._.]._.].].[.z.> + H &.%.$.T T { 5.} { ^ U x J O.P & & [ n.).'._.'.]._._.]._._._.'._.]._._._.'.].].",
"'._._._._.]._.'._._._.'._._.'._._._.'.[.[.z.4 % x &.%.~ i - 2 3 3 3 1 r c +.8.| @   & B n.].].'._.'._.]._.]._.]._.'._.]._.].]._.",
")._._.'.'._.]._.]._.]._.'._._.)._.'.].~.B.] # + x O.~ P i 1 2 3 3 3 1 e x @.G.} j +   4 z.].]._.]._.]._.'._.]._.]._.]._.]._.]._.",
"N.N._.].]._._._._.'._.].].).N.N.).].].n.B #   + x K u r L ~ { 5.} } ~ D 3 i ^ 8.} G @ > z.].].'._._._.]._.'.]._._._.]._._._.]._.",
"m.m.N.).)._._._.'.'.]._._.Q.m.m.).].[.z.4 O 7 ( o.J - - ! 8.L.Y.Y.U.G.~ 1 - T r.|.J.4 > z.].]._._.].]._.]._._.].].]._._._.].]._.",
"y.m.m.M.m.N._._.'.'.].).N.m.m.m.).[.[.0.4 7 ~.}.e.H = 1 ! G.L.Y.Y.Y.U.{ 2 - L P.-X@XN > z.].].'.]._.]._._._.]._._._._.].]._._.].",
"y.y.m.M.M.B._._.)._.).Q.m.y.y.m.Q._.'.0.> N $X:Xt.x = - L %.8.K.G.G.L.} 3 = l 8.:X$XN > z.].'.'._.'._.]._.]._.'._.].]._._._.]._.",
"y.M.^.).)._._.).Q.M.M.m.m.y.y.m.M.Q._.0.> h {.%X2.y $ = u T O.$.$.%.6.^ 1 % t 2.%X{.8 * z.'.].'._.'.'._.]._._.'.]._._.]._._.]._.",
"y.M.)._.].].'.).M.d.m.M.M.M.M.m.p.M.).n.B C c.a.v q q e y l ..o.X.O.$.Q 1 % q R a.x./ C n.'.]._.'._.).)._.'.'._.]._.'._._.]._.'.",
"y.N.).].].].].).M.m.Q.)._.!.).Q.M.M.).~.B.:.C 4 = 2 P U z l ..@.X.O.+.K - % t y s ( :.m.~.'.'.'.'.).N.N.).].'._._._.].'._._.].'.",
"y.m.^.).).).).Q.M.Q.).].].].].).M.M.^.'.].n.C & X - L Q z k ......X.X.J - % t q . > 0.'.'.'.'.'.].).N.N.^._._.'.]._._.]._._._.).",
"m.y.m.M.M.M.m.N.^._._.'.'.'.]._._.Q.M.Q._.).n.[ 5 $ - e y l l l l c ..J - = t 9 . > ;.^._.'.'._.]._.).^.B.N._.'.].].].].].).N.m.",
"M.M.M.m.y.m.m.N.).'.'.].]._._.'.'._.Q.M.Q._.[.b.g . . % t k k y k l c x 9 - y t . * *.M.^.)._._.'.].].).m.m.^.).).).).).).!.N.M.",
").).).N.m.m.^._._.'.'._._._.]._.'._.).^.N.Q.'.c.4   . % t k k k k y q - 9 k H p X > -.m.M.N._._._.].].).M.m.m.m.M.M.m.M.m.N.^.).",
"].].]._.N.N.).].'.'._.]._.]._.].'.'.'.).M.p.p.[ V d 5 q t t k k k t $ = z Y @.L + * ;.M.m.M.).'.]._._.Q.m.y.m.y.y.m.y.m.m.N._.].",
"_.].]._.).)._._._.]._._._.]._.].]._._._.M.>.h V k.C.u.U e = t k k t % < Q 6.e.! @ > z.).M.m.).].]._.N.m.m.y.p.m.y.y.y.m.Q.)._.].",
"_._.]._._._._._.'._.].].]._.'._._.].].Q.9.` 7 Z A.OX/.2.j q q t t 9 $ e =.K.r.3.( / [ n.n.N.).].].).N.M.M.m.M.m.m.y.m.M.).].'.].",
"]._.].).N.N._._._.].]._._._._.]._.].].b.h d A l.D.Z.f.8.2.U 2 $ $ $ . e ,.K.r./.#X`./ N v._._.'._._.).).)._.).Q.m.y.y.m.).].'._.",
"'.].].).m.M.).].]._._.'._.]._.].].].].z.> > V.oXoX`./.P.P.7.I r s r r v 7.P.P.|.<X*XN & 0.].].'._.]._.].].].].).N.m.m.m.).].'.].",
"_.'.].).m.M.).].'._.'._.]._.'._._.].[.z.> 5 !.&X&X@X(.E.E.T.s.t.i.e.t.s.R.E.E..X<X*XN > z.[.]._.]._.]._.]._.]._.).^.m.M.).].'._.",
"]._.).Q.m.m.N.)._._._.]._._._.].]._._.z.C B x.'.(.(.E.E.R.R.E.E.E.E.T.E.R.R.R.(.$X]./ B b.].].'._.]._.].]._._.'.].).N.N.Q._._.'.",
"].).Q.m.m.m.m.N._.'.'._._.]._.].].).M.m.b.[ C 6 6 F ,.8.r.6.r.r.8.r.8.r.e.r.r.3.( / :.B.).'.]._._.]._._._.]._.].]._.).^.B.N._._.",
").Q.m.m.m.M.B.N.).]._.].]._.'._.'.).N.Q._.n.B #   @ W 7.q.q.4.4.6.<.<.4.q.q.4.U + > z.[.]._._.].]._.]._.]._.'._.'.'.'._.N.N.Q.).",
"M.M.m.m.Q.).)._._._._.]._._._.].'._.)._._._.n._ # @ U q.W.W.q.%.<.%.%.q.W.W.G.E + > z.[.]._._._._.].]._._._.]._.'._.'._.).^.N.M.",
"y.m.m.Q.).].'._.]._.]._._.]._.].'.'.'.'._.].[.z.4 + D } F.F.} ~ #.^ ^ } F.F.} D + 4 z.]._.)._.'.]._._.].].]._.]._.]._.'.].).m.m.",
"y.m.Q.)._.'.'._.]._.]._.].]._._._.'.].].].[.[.z.4 X i P ' ' P D D H H D ' ' P i X 4 z._.^.N.).'._.'.]._._.]._._.'._.].'.'.).M.p.",
"m.N._._.].'._.'._.]._._._._.]._.'._._._.].].].z.4 X w x a a a H a a a a a a a w X 4 z._.M.M.).].]._._._.]._.]._._.]._.].].).M.d.",
"!._._.'._.]._._._.]._.]._._.]._._.]._._._.].].z.4 X p T K J T T K K J Y H T T p X > z._.M.m.^.].'._.]._.]._._.].]._.'._.'.).M.p.",
"].'.'._.'._._.]._.].]._.].]._.]._._.].]._.].[.z.> X p R R I v Y =.=.=.=.v a a p 5 B b.^.M.m.^._._.'._.]._.].]._._.]._.'.].).M.p.",
"_._._.].]._.]._.]._._._.'.'._._.]._._.'.].].].z.4 O 0 f S M * g j.D.Z.j.d X X 5 [ b.n.m.m.d.m.N._.'.'.'.'._.]._._.]._.'.].).m.m.",
"]._.]._._.]._.'._.]._._._.)._.]._.].]._.].].[.z.4   % d m n o : ] k.k.g.M 4 > B B.'.N.M.m.M.M.M.Q.)._.].]._._.]._.'._._._.Q.m.y.",
"_.'._.]._.]._.]._.'.].).N.N.).]._.]._._.].].].z.5 . : 0 m n o   : , , M :.z.z.n.~.]._.).).).).Q.N.N._.].].].'.'.'.'.]._.N.m.m.y.",
"]._.]._.]._.'._.]._.).^.m.M.).].'.].]._._.].].z.4 O n  .g.A :   * > > C b.'.].].'._._.'.'.].[.).m.m.Q.).).).).).!._.).Q.m.m.p.y.",
"]._._.].]._.'.'.'._.N.m.m.m.).].'._.]._.].].].0.> : h.S.,XA.b # _ z.z.v.m.N._.'.'.'.]._.'.'.].).m.m.m.M.M.M.M.M.m.M.M.M.m.y.m.y.",
"_.]._._._.]._._._.N.m.v.y.m.^._._.'._.]._.].[.n.C B V.,X>XOXA h z._.].^.m.M.).].'.'._.'.'.'.].).N.m.p.m.p.m.m.M.M.M.m.m.d.y.m.y.",
"].'._.'._.'.'.).N.m.p.p.d.m.m.N._.]._.]._.].].!.b.b.`.XX+X`.u.>.p.M.M.M.m.m.).]._._.]._._._.]._.).Q.m.p.p.m.Q.).).).).^.m.m.y.d.",
").)._._.]._.].).N.M.M.M.m.y.y.m.N.).).)._.].].].].].'.'._.).^.N.M.M.m.d.y.M.).].'.'.].'.]._._.]._._.N.M.M.N.).].].].].).N.m.m.d.",
"M.N.).'._._.]._.).).).^.m.d.d.m.m.M.M.N.).]._.'.].].]._.'._.).).).^.m.p.y.M.).].'._._._._.].]._.'._._.!.).).'.'.].].'._.).Q.m.y.",
"m.N._.'.]._._.].'.].].).M.d.y.d.M.M.M.B._._.]._.].]._._.]._.'.].'.).N.M.M.N.).)._.]._.].]._._.]._._._.'.'.'.].'.'.'.'.'.]._.N.m.",
").)._._._.].]._.'.].].).M.v.y.m.Q.!.)._._._._.].'._.'._.]._.'.'.'.'.).).).^.N.N.).].'._.]._.]._.]._._._._._.]._.'._._.].'._.).).",
"]._.].'.]._._.]._.'.].).N.M.M.N._.].].]._._._.]._.]._.]._.]._._.'.'.'.].]._.N.M.^._._.'._.]._._._._.].].].]._.]._.].]._._.].].].",
"'.'.]._._._.]._.'._.]._.).).).)._.].'._._._.'._.]._.]._._.]._.]._.'._.].'.'.).^.M.N._.].].'._.].]._.]._._.]._._.'._.]._._.].'.'.",
"]._._.]._.]._._.'._._.).'.].].]._.]._.]._._._.]._.]._._.]._._.].'._.]._.'.].].).m.m.^.)._._.]._.]._._.]._._.]._.]._._.].'._.'._.",
"'._._._._.]._.'.].).N.N._.].].]._._.]._.]._._.]._.]._._.]._.'._.]._.]._.'.'.].).M.y.m.N._.'.'._._._.'.'.]._._.]._.]._._._._.'.'.",
")._._._.]._.]._.).Q.m.m.^.)._._.]._._.]._._.]._.]._._.]._.]._.]._.'._.]._.'.].).m.m.m.N._.'._.'.]._.).)._._.]._.]._.].].]._._.).",
"B.N._._.'.'.].).Q.m.m.d.m.^.).'._.].]._.'._.]._.'._.]._.'._._.].]._._._._.].].).M.M.N._._._.'._.'.).N.N.).].]._._._.]._.].).B.M.",
"d.m.!._.'.'.].).M.p.d.d.d.M.).].]._._.]._.]._.]._.]._.'._.]._._.]._.]._.'._.].).M.B.)._._._.'.'.'.).M.M.).]._.]._.]._._.].).m.m."
};
