/* XPM */
static char *result[] = {
/* columns rows colors chars-per-pixel */
"64 64 140 2 ",
"   c #370238",
".  c #380338",
"X  c #380339",
"o  c #390339",
"O  c #390439",
"+  c #3A0539",
"@  c #3A053A",
"#  c #3B063A",
"$  c #3D083B",
"%  c #3E093B",
"&  c #3F093C",
"*  c #3F0A3C",
"=  c #420E3E",
"-  c #44103F",
";  c #45103F",
":  c #461240",
">  c #471341",
",  c #481241",
"<  c #481341",
"1  c #491341",
"2  c #481441",
"3  c #491441",
"4  c #491542",
"5  c #4A1442",
"6  c #4A1542",
"7  c #4B1642",
"8  c #4C1743",
"9  c #4D1743",
"0  c #4D1844",
"q  c #4F1A44",
"w  c #501A45",
"e  c #511E47",
"r  c #521F47",
"t  c #531F47",
"y  c #572249",
"u  c #5A254A",
"i  c #59264B",
"p  c #5A274B",
"a  c #5E284C",
"s  c #5F294D",
"d  c #633150",
"f  c #633251",
"g  c #643251",
"h  c #653351",
"j  c #663452",
"k  c #663552",
"l  c #673653",
"z  c #6A3352",
"x  c #693553",
"c  c #6B3453",
"v  c #693653",
"b  c #683753",
"n  c #693753",
"m  c #6F3B56",
"M  c #6D3C56",
"N  c #6F3D57",
"B  c #6F3F57",
"V  c #703F57",
"C  c #703F58",
"Z  c #743E58",
"A  c #753F58",
"S  c #704058",
"D  c #714058",
"F  c #714158",
"G  c #724058",
"H  c #724158",
"J  c #724159",
"K  c #734159",
"L  c #734259",
"P  c #734359",
"I  c #744159",
"U  c #744259",
"Y  c #744359",
"T  c #75435A",
"R  c #75445A",
"E  c #76445A",
"W  c #77445A",
"Q  c #77445B",
"!  c #77455B",
"~  c #78425A",
"^  c #7B435B",
"/  c #78455B",
"(  c #7B445B",
")  c #78465B",
"_  c #79465B",
"`  c #7C445B",
"'  c #7C455B",
"]  c #79465C",
"[  c #79475C",
"{  c #7A475C",
"}  c #7B475C",
"|  c #7D465C",
" . c #7B485C",
".. c #7C485D",
"X. c #7D495D",
"o. c #7D4A5D",
"O. c #7E4A5D",
"+. c #7E4A5E",
"@. c #7F4A5E",
"#. c #7F4B5E",
"$. c #80495D",
"%. c #80495E",
"&. c #81495E",
"*. c #814A5E",
"=. c #814C5F",
"-. c #814D5F",
";. c #824D5F",
":. c #824D60",
">. c #834E60",
",. c #844E60",
"<. c #844F60",
"1. c #864F61",
"2. c #875162",
"3. c #885162",
"4. c #885262",
"5. c #895262",
"6. c #895362",
"7. c #895363",
"8. c #8A5363",
"9. c #8B5363",
"0. c #8A5463",
"q. c #8B5463",
"w. c #8B5564",
"e. c #8D5564",
"r. c #8D5664",
"t. c #8E5664",
"y. c #8E5665",
"u. c #8E5765",
"i. c #8F5765",
"p. c #905765",
"a. c #905865",
"s. c #905866",
"d. c #915866",
"f. c #915966",
"g. c #925966",
"h. c #925A67",
"j. c #935A67",
"k. c #945B67",
"l. c #945C68",
"z. c None",
/* pixels */
"C V B / 3.s.s.3.) C D J Y h 2 + @ # z.z.z.z.z.z.z.z.z.z.z.z.z.z.z.z.z.z.z.z.z.z.z.z.z.z.z.z.z.z.z.z.z.z.z.z.z.z.z.z.z.z.z.z.z.z.",
"/ / / O.7.a.a.3./ C D N b p ; + @ # z.z.z.z.z.z.z.z.z.z.z.z.z.z.z.z.z.z.z.z.z.z.z.z.z.z.z.z.z.z.z.z.z.z.z.z.z.z.z.z.z.z.z.z.z.z.",
"2.2.2.7.r.p.a.3./ S F l t - % # # # z.z.z.z.z.z.z.z.z.z.z.z.z.z.z.z.z.z.z.z.z.z.z.z.z.z.z.z.z.z.z.z.z.z.z.z.z.z.z.z.z.z.z.z.z.z.",
"a.a.a.p.i.i.p.8.+.! L d > O + # # # z.z.z.z.z.z.z.z.z.z.z.z.z.z.z.z.z.z.z.z.z.z.z.z.z.z.z.z.z.z.z.z.z.z.z.z.z.z.z.z.z.z.z.z.z.z.",
"i.i.i.i.i.i.i.t.8.>.! d > O + # z.z.z.z.z.z.z.z.z.z.z.z.z.z.z.z.z.z.z.z.z.z.z.z.z.z.z.z.z.z.z.z.z.z.z.z.z.z.z.z.z.z.z.z.z.z.z.z.",
"i.i.i.i.i.i.i.p.a.q.#.x 2 O + # z.z.z.z.z.z.z.z.z.z.z.z.z.z.z.z.z.z.z.z.z.z.z.z.z.z.z.z.z.z.z.z.z.z.z.z.z.z.z.z.z.z.z.z.z.z.z.z.",
"a.p.i.i.i.i.i.i.p.i.w.A 8 . O # # # z.z.z.z.z.z.z.z.z.z.z.z.z.z.z.z.z.z.z.z.z.z.z.z.z.z.z.z.z.z.z.z.z.z.z.z.z.z.z.z.z.z.z.z.z.z.",
"2.5.r.i.i.i.i.i.i.s.f.%.s 1 * # # # z.z.z.z.z.z.z.z.z.z.z.z.z.z.z.z.z.z.z.z.z.z.z.z.z.z.z.z.z.z.z.z.z.z.z.z.z.z.z.z.z.z.z.z.z.z.",
"Q X.5.p.i.i.i.i.i.i.a.9.*.c 6 + @ # z.z.z.z.z.z.z.z.z.z.z.z.z.z.z.z.z.z.z.z.z.z.z.z.z.z.z.z.z.z.z.z.z.z.z.z.z.z.z.z.z.z.z.z.z.z.",
"Q X.5.p.i.i.i.i.i.i.i.f.j.' w O + # z.z.z.z.z.z.z.z.z.z.z.z.z.z.z.z.z.z.z.z.z.z.z.z.z.z.z.z.z.z.z.z.z.z.z.z.z.z.z.z.z.z.z.z.z.z.",
"2.5.r.i.i.i.i.i.i.i.i.f.h.` w O + # z.z.z.z.z.z.z.z.z.z.z.z.z.z.z.z.z.z.z.z.z.z.z.z.z.z.z.z.z.z.z.z.z.z.z.z.z.z.z.z.z.z.z.z.z.z.",
"a.p.i.i.i.i.i.i.i.i.i.s.f.( q O + # z.z.z.z.z.z.z.z.z.z.z.z.z.z.z.z.z.z.z.z.z.z.z.z.z.z.z.z.z.z.z.z.z.z.z.z.z.z.z.z.z.z.z.z.z.z.",
"i.i.i.i.i.i.i.i.i.i.i.s.g.( q O + # z.z.z.z.z.z.z.z.z.z.z.z.z.z.z.z.z.z.z.z.z.z.z.z.z.z.z.z.z.z.z.z.z.z.z.z.z.z.z.z.z.z.z.z.z.z.",
"i.i.i.i.i.i.i.i.i.i.i.u.w.A 9 O + # z.z.z.z.z.z.z.z.z.z.z.z.z.z.z.z.z.z.z.z.z.z.z.z.z.z.z.z.z.z.z.z.z.z.z.z.z.z.z.z.z.z.z.z.z.z.",
"i.i.i.i.i.i.i.i.i.i.p.0.#.x 2 o + # # # z.z.z.z.z.z.z.z.z.z.z.z.z.z.z.z.z.z.z.z.z.z.z.z.z.z.z.z.z.z.z.z.z.z.z.z.z.z.z.z.z.z.z.z.",
"i.i.i.i.i.i.i.i.i.p.a.4.) j e - % # # # z.z.z.z.z.z.z.z.z.z.z.z.z.z.z.z.z.z.z.z.z.z.z.z.z.z.z.z.z.z.z.z.z.z.z.z.z.z.z.z.z.z.z.z.",
"i.i.i.i.i.i.i.i.i.p.s.4./ M l p ; + @ # z.z.z.z.z.z.z.z.z.z.z.z.z.z.z.z.z.z.z.z.z.z.z.z.z.z.z.z.z.z.z.z.z.z.z.z.z.z.z.z.z.z.z.z.",
"i.i.i.i.i.i.i.i.p.t.8.,...! R h 2 + @ # z.z.z.z.z.z.z.z.z.z.z.z.z.z.z.z.z.z.z.z.z.z.z.z.z.z.z.z.z.z.z.z.z.z.z.z.z.z.z.z.z.z.z.z.",
"a.p.i.i.i.i.i.p.a.8.X. .<.<.] g 2 + @ # z.z.z.z.z.z.z.z.z.z.z.z.z.z.z.z.z.z.z.z.z.z.z.z.z.z.z.z.z.z.z.z.z.z.z.z.z.z.z.z.z.z.z.z.",
"3.8.t.p.p.i.i.r.8.>.} O.q.8.{ d 2 + @ # z.z.z.z.z.z.z.z.z.z.z.z.z.z.z.z.z.z.z.z.z.z.z.z.z.z.z.z.z.z.z.z.z.z.z.z.z.z.z.z.z.z.z.z.",
"/ +.8.s.a.a.a.7.X. .>.8.i.8.{ d 2 + @ # z.z.z.z.z.z.z.z.z.z.z.z.z.z.z.z.z.z.z.z.z.z.z.z.z.z.z.z.z.z.z.z.z.z.z.z.z.z.z.z.z.z.z.z.",
"V E ;.3.2.8.y.2.! ! 4.i.q.>.) g 2 + @ # z.z.z.z.z.z.z.z.z.z.z.z.z.z.z.z.z.z.z.z.z.z.z.z.z.z.z.z.z.z.z.z.z.z.z.z.z.z.z.z.z.z.z.z.",
"C J E ! ! O.8.3./ / 5.q.@.! T h 2 + @ # z.z.z.z.z.z.z.z.z.z.z.z.z.z.z.z.z.z.z.z.z.z.z.z.z.z.z.z.z.z.z.z.z.z.z.z.z.z.z.z.z.z.z.z.",
"D K E ! ! O.8.4./ E ;.:.E M l p ; + @ # z.z.z.z.z.z.z.z.z.z.z.z.z.z.z.z.z.z.z.z.z.z.z.z.z.z.z.z.z.z.z.z.z.z.z.z.z.z.z.z.z.z.z.z.",
"C E ;.3.2.8.y.4.) H E E L k r - % # # # z.z.z.z.z.z.z.z.z.z.z.z.z.z.z.z.z.z.z.z.z.z.z.z.z.z.z.z.z.z.z.z.z.z.z.z.z.z.z.z.z.z.z.z.",
"V / 4.d.d.s.s.4./ G T _ { v < . O # # # z.z.z.z.z.z.z.z.z.z.z.z.z.z.z.z.z.z.z.z.z.z.z.z.z.z.z.z.z.z.z.z.z.z.z.z.z.z.z.z.z.z.z.z.",
"B / 3.s.s.d.d.3.! T =.7.8.A 7   O # # # z.z.z.z.z.z.z.z.z.z.z.z.z.z.z.z.z.z.z.z.z.z.z.z.z.z.z.z.z.z.z.z.z.z.z.z.z.z.z.z.z.z.z.z.",
"/ +.7.t.8.2.3.>. .O.8.f.g.%.s 1 * # # # z.z.z.z.z.z.z.z.z.z.z.z.z.z.z.z.z.z.z.z.z.z.z.z.z.z.z.z.z.z.z.z.z.z.z.z.z.z.z.z.z.z.z.z.",
"3.8.t.8.X.W Q  .,.8.t.a.a.9.*.c 6 + @ # z.z.z.z.z.z.z.z.z.z.z.z.z.z.z.z.z.z.z.z.z.z.z.z.z.z.z.z.z.z.z.z.z.z.z.z.z.z.z.z.z.z.z.z.",
"a.a.a.7.X.W W X.8.a.p.i.i.f.j.' w O + # z.z.z.z.z.z.z.z.z.z.z.z.z.z.z.z.z.z.z.z.z.z.z.z.z.z.z.z.z.z.z.z.z.z.z.z.z.z.z.z.z.z.z.z.",
"i.i.i.r.6.2.2.7.r.p.i.i.i.f.h.` w O + # z.z.z.z.z.z.z.z.z.z.z.z.z.z.z.z.z.z.z.z.z.z.z.z.z.z.z.z.z.z.z.z.z.z.z.z.z.z.z.z.z.z.z.z.",
"i.i.i.i.p.a.a.p.i.i.i.i.i.s.f.^ q O + # z.z.z.z.z.z.z.z.z.z.z.z.z.z.z.z.z.z.z.z.z.z.z.z.z.z.z.z.z.z.z.z.z.z.z.z.z.z.z.z.z.z.z.z.",
"i.i.i.i.i.i.i.i.i.i.i.i.i.s.f.^ q O + # z.z.z.z.z.z.z.z.z.z.z.z.z.z.z.z.z.z.z.z.z.z.z.z.z.z.z.z.z.z.z.z.z.z.z.z.z.z.z.z.z.z.z.z.",
"i.i.i.i.i.i.i.i.i.i.i.i.i.s.f.^ q O + # z.z.z.z.z.z.z.z.z.z.z.z.z.z.z.z.z.z.z.z.z.z.z.z.z.z.z.z.z.z.z.z.z.z.z.z.z.z.z.z.z.z.z.z.",
"i.i.i.i.p.p.i.i.i.i.i.i.i.s.f.^ q O + # z.z.z.z.z.z.z.z.z.z.z.z.z.z.z.z.z.z.z.z.z.z.z.z.z.z.z.z.z.z.z.z.z.z.z.z.z.z.z.z.z.z.z.z.",
"i.i.p.r.5.5.e.i.i.i.i.i.i.f.h.` w O + # z.z.z.z.z.z.z.z.z.z.z.z.z.z.z.z.z.z.z.z.z.z.z.z.z.z.z.z.z.z.z.z.z.z.z.z.z.z.z.z.z.z.z.z.",
"i.p.a.8.X.X.5.p.i.i.i.i.i.f.j.' w O + # z.z.z.z.z.z.z.z.z.z.z.z.z.z.z.z.z.z.z.z.z.z.z.z.z.z.z.z.z.z.z.z.z.z.z.z.z.z.z.z.z.z.z.z.",
"a.t.8.>.} X.7.a.a.i.i.a.a.9.*.c 6 + @ # z.z.z.z.z.z.z.z.z.z.z.z.z.z.z.z.z.z.z.z.z.z.z.z.z.z.z.z.z.z.z.z.z.z.z.z.z.z.z.z.z.z.z.z.",
"s.8.X.} >.8.y.a.a.a.a.d.f.%.s 1 * # # # z.z.z.z.z.z.z.z.z.z.z.z.z.z.z.z.z.z.z.z.z.z.z.z.z.z.z.z.z.z.z.z.z.z.z.z.z.z.z.z.z.z.z.z.",
"3.>. .X.8.y.8.2.3.3.2.4.7.Z 8 . O # # # z.z.z.z.z.z.z.z.z.z.z.z.z.z.z.z.z.z.z.z.z.z.z.z.z.z.z.z.z.z.z.z.z.z.z.z.z.z.z.z.z.z.z.z.",
"!  .>.8.y.8.o.! / / / ) [ x 3 O + # z.z.z.z.z.z.z.z.z.z.z.z.z.z.z.z.z.z.z.z.z.z.z.z.z.z.z.z.z.z.z.z.z.z.z.z.z.z.z.z.z.z.z.z.z.z.",
"Q X.8.s.a.7.X.T D G E _ [ x 3 O + # z.z.z.z.z.z.z.z.z.z.z.z.z.z.z.z.z.z.z.z.z.z.z.z.z.z.z.z.z.z.z.z.z.z.z.z.z.z.z.z.z.z.z.z.z.z.",
"2.7.r.p.i.r.8.=.T T -.7.7.Z 8 . O # # # z.z.z.z.z.z.z.z.z.z.z.z.z.z.z.z.z.z.z.z.z.z.z.z.z.z.z.z.z.z.z.z.z.z.z.z.z.z.z.z.z.z.z.z.",
"a.p.i.i.i.p.a.8.X.o.8.g.g.%.s 1 * # # # z.z.z.z.z.z.z.z.z.z.z.z.z.z.z.z.z.z.z.z.z.z.z.z.z.z.z.z.z.z.z.z.z.z.z.z.z.z.z.z.z.z.z.z.",
"i.i.i.i.i.i.p.r.7.8.y.s.s.9.*.c 6 + @ # z.z.z.z.z.z.z.z.z.z.z.z.z.z.z.z.z.z.z.z.z.z.z.z.z.z.z.z.z.z.z.z.z.z.z.z.z.z.z.z.z.z.z.z.",
"i.i.i.i.i.i.i.i.a.t.8.7.r.g.k.| w O + # z.z.z.z.z.z.z.z.z.z.z.z.z.z.z.z.z.z.z.z.z.z.z.z.z.z.z.z.z.z.z.z.z.z.z.z.z.z.z.z.z.z.z.z.",
"i.i.i.i.i.i.i.i.a.8.X.X.8.h.l.| w O + # z.z.z.z.z.z.z.z.z.z.z.z.z.z.z.z.z.z.z.z.z.z.z.z.z.z.z.z.z.z.z.z.z.z.z.z.z.z.z.z.z.z.z.z.",
"i.i.i.i.i.i.i.p.a.3.! T ;.1.$.c 6 + @ # z.z.z.z.z.z.z.z.z.z.z.z.z.z.z.z.z.z.z.z.z.z.z.z.z.z.z.z.z.z.z.z.z.z.z.z.z.z.z.z.z.z.z.z.",
"i.i.i.i.i.i.i.p.s.4./ J ! m u 3 * # # # z.z.z.z.z.z.z.z.z.z.z.z.z.z.z.z.z.z.z.z.z.z.z.z.z.z.z.z.z.z.z.z.z.z.z.z.z.z.z.z.z.z.z.z.",
"i.i.i.i.i.i.i.r.8.;.E D F d : X + # # # z.z.z.z.z.z.z.z.z.z.z.z.z.z.z.z.z.z.z.z.z.z.z.z.z.z.z.z.z.z.z.z.z.z.z.z.z.z.z.z.z.z.z.z.",
"i.i.i.i.i.i.p.7.X.T H D H d > O + # z.z.z.z.z.z.z.z.z.z.z.z.z.z.z.z.z.z.z.z.z.z.z.z.z.z.z.z.z.z.z.z.z.z.z.z.z.z.z.z.z.z.z.z.z.z.",
"i.i.i.i.i.i.p.7.X.! / ! U f 2 + @ # z.z.z.z.z.z.z.z.z.z.z.z.z.z.z.z.z.z.z.z.z.z.z.z.z.z.z.z.z.z.z.z.z.z.z.z.z.z.z.z.z.z.z.z.z.z.",
"a.p.i.i.i.i.i.r.6.3.4.>.! d 2 + @ # z.z.z.z.z.z.z.z.z.z.z.z.z.z.z.z.z.z.z.z.z.z.z.z.z.z.z.z.z.z.z.z.z.z.z.z.z.z.z.z.z.z.z.z.z.z.",
"2.5.r.i.i.i.i.i.p.a.s.q.#.v 4 + @ # z.z.z.z.z.z.z.z.z.z.z.z.z.z.z.z.z.z.z.z.z.z.z.z.z.z.z.z.z.z.z.z.z.z.z.z.z.z.z.z.z.z.z.z.z.z.",
"Q X.5.p.i.i.i.i.i.p.p.i.w.A 0 O + # z.z.z.z.z.z.z.z.z.z.z.z.z.z.z.z.z.z.z.z.z.z.z.z.z.z.z.z.z.z.z.z.z.z.z.z.z.z.z.z.z.z.z.z.z.z.",
"Q X.5.p.i.i.i.i.i.i.i.s.g.( q O + # z.z.z.z.z.z.z.z.z.z.z.z.z.z.z.z.z.z.z.z.z.z.z.z.z.z.z.z.z.z.z.z.z.z.z.z.z.z.z.z.z.z.z.z.z.z.",
"2.5.r.i.i.i.i.i.i.i.i.s.f.( q O + # z.z.z.z.z.z.z.z.z.z.z.z.z.z.z.z.z.z.z.z.z.z.z.z.z.z.z.z.z.z.z.z.z.z.z.z.z.z.z.z.z.z.z.z.z.z.",
"a.p.i.i.i.i.i.i.i.i.i.f.h.` w O + # z.z.z.z.z.z.z.z.z.z.z.z.z.z.z.z.z.z.z.z.z.z.z.z.z.z.z.z.z.z.z.z.z.z.z.z.z.z.z.z.z.z.z.z.z.z.",
"i.i.i.i.i.i.i.i.i.i.i.f.j.' w O + # z.z.z.z.z.z.z.z.z.z.z.z.z.z.z.z.z.z.z.z.z.z.z.z.z.z.z.z.z.z.z.z.z.z.z.z.z.z.z.z.z.z.z.z.z.z.",
"i.i.i.i.i.i.i.i.i.a.a.9.&.z 5 + @ # z.z.z.z.z.z.z.z.z.z.z.z.z.z.z.z.z.z.z.z.z.z.z.z.z.z.z.z.z.z.z.z.z.z.z.z.z.z.z.z.z.z.z.z.z.z.",
"a.p.i.i.i.i.i.i.p.d.f.$.a , & # # # z.z.z.z.z.z.z.z.z.z.z.z.z.z.z.z.z.z.z.z.z.z.z.z.z.z.z.z.z.z.z.z.z.z.z.z.z.z.z.z.z.z.z.z.z.z.",
"2.6.r.i.i.i.i.r.7.4.6.~ y = $ # # # z.z.z.z.z.z.z.z.z.z.z.z.z.z.z.z.z.z.z.z.z.z.z.z.z.z.z.z.z.z.z.z.z.z.z.z.z.z.z.z.z.z.z.z.z.z.",
"! o.6.p.i.i.p.7.O./ ) I n i - + @ # z.z.z.z.z.z.z.z.z.z.z.z.z.z.z.z.z.z.z.z.z.z.z.z.z.z.z.z.z.z.z.z.z.z.z.z.z.z.z.z.z.z.z.z.z.z.",
"B ! 2.a.i.i.a.3./ B V H P h 2 + @ # z.z.z.z.z.z.z.z.z.z.z.z.z.z.z.z.z.z.z.z.z.z.z.z.z.z.z.z.z.z.z.z.z.z.z.z.z.z.z.z.z.z.z.z.z.z."
};
