/* XPM */
static char *result[] = {
/* columns rows colors chars-per-pixel */
"64 64 158 2 ",
"   c #370238",
".  c #380238",
"X  c #380338",
"o  c #380339",
"O  c #390339",
"+  c #390439",
"@  c #3A0539",
"#  c #3A053A",
"$  c #3B063A",
"%  c #3C073B",
"&  c #3D083B",
"*  c #3D093B",
"=  c #3E093B",
"-  c #3E093C",
";  c #3F0A3C",
":  c #430F3E",
">  c #430F3F",
",  c #44103F",
"<  c #45103F",
"1  c #451140",
"2  c #461240",
"3  c #471341",
"4  c #491341",
"5  c #481441",
"6  c #491441",
"7  c #491542",
"8  c #4A1542",
"9  c #4A1642",
"0  c #4B1642",
"q  c #4C1743",
"w  c #4D1743",
"e  c #4D1844",
"r  c #4E1844",
"t  c #4E1944",
"y  c #4F1944",
"u  c #4F1A44",
"i  c #501A44",
"p  c #501A45",
"a  c #521F47",
"s  c #532047",
"d  c #572349",
"f  c #582449",
"g  c #59244A",
"h  c #5A254A",
"j  c #59264B",
"k  c #59274B",
"l  c #5A274B",
"z  c #5F294D",
"x  c #623050",
"c  c #623150",
"v  c #633150",
"b  c #633251",
"n  c #643251",
"m  c #653351",
"M  c #673552",
"N  c #683552",
"B  c #683553",
"V  c #6B3453",
"C  c #683653",
"Z  c #693653",
"A  c #683753",
"S  c #693753",
"D  c #6A3753",
"F  c #6A3754",
"G  c #6A3854",
"H  c #6C3954",
"J  c #6D3A55",
"K  c #6E3B55",
"L  c #6F3C56",
"P  c #6E3D57",
"I  c #6F3F57",
"U  c #703C56",
"Y  c #703F57",
"T  c #703F58",
"R  c #743E58",
"E  c #753F58",
"W  c #714058",
"Q  c #714158",
"!  c #724158",
"~  c #734158",
"^  c #724159",
"/  c #734159",
"(  c #734259",
")  c #764059",
"_  c #744259",
"`  c #744359",
"'  c #75435A",
"]  c #76445A",
"[  c #77445B",
"{  c #77455B",
"}  c #78425A",
"|  c #78435A",
" . c #7B435A",
".. c #7B435B",
"X. c #78455B",
"o. c #7B445B",
"O. c #78465B",
"+. c #79465B",
"@. c #7C445B",
"#. c #7C455B",
"$. c #79475C",
"%. c #7B475C",
"&. c #7D455C",
"*. c #7E475C",
"=. c #7E475D",
"-. c #7A485C",
";. c #7B485C",
":. c #7C485D",
">. c #7D495D",
",. c #7D4A5D",
"<. c #7E4A5D",
"1. c #7E4A5E",
"2. c #7F4A5E",
"3. c #7E4B5E",
"4. c #7F4B5E",
"5. c #80495D",
"6. c #80495E",
"7. c #814A5E",
"8. c #804C5F",
"9. c #814C5F",
"0. c #814D5F",
"q. c #824D5F",
"w. c #824E60",
"e. c #834E60",
"r. c #844E60",
"t. c #854E60",
"y. c #854F60",
"u. c #875061",
"i. c #875162",
"p. c #885162",
"a. c #885262",
"s. c #895262",
"d. c #895362",
"f. c #895363",
"g. c #8A5363",
"h. c #8B5363",
"j. c #8A5463",
"k. c #8B5463",
"l. c #8B5464",
"z. c #8B5564",
"x. c #8C5564",
"c. c #8C5664",
"v. c #8D5664",
"b. c #8E5664",
"n. c #8E5665",
"m. c #8E5765",
"M. c #8F5765",
"N. c #905765",
"B. c #905865",
"V. c #905866",
"C. c #915866",
"Z. c #915966",
"A. c #925966",
"S. c #925A66",
"D. c #925A67",
"F. c #935A67",
"G. c #935B67",
"H. c None",
/* pixels */
"H.H.H.H.H.H.H.H.H.H.H.H.H.H.H.H.H.H.H.H.H.H.H.H.H.H.H.H.H.H.H.H.H.H.H.H.H.H.H.H.H.H.H.H.$ # @ 5 m ` ^ T Y X.p.V.V.i.[ [ i.B.M.M.",
"H.H.H.H.H.H.H.H.H.H.H.H.H.H.H.H.H.H.H.H.H.H.H.H.H.H.H.H.H.H.H.H.H.H.H.H.H.H.H.H.H.H.H.H.$ # @ < l A P / ] 1.g.B.B.s.>.>.s.N.M.M.",
"H.H.H.H.H.H.H.H.H.H.H.H.H.H.H.H.H.H.H.H.H.H.H.H.H.H.H.H.H.H.H.H.H.H.H.H.H.H.H.H.H.H.H.H.$ $ $ = , a M { w.g.b.M.M.v.s.s.v.M.M.M.",
"H.H.H.H.H.H.H.H.H.H.H.H.H.H.H.H.H.H.H.H.H.H.H.H.H.H.H.H.H.H.H.H.H.H.H.H.H.H.H.H.H.H.H.H.$ $ # + . 2 c $.f.V.N.M.M.M.N.N.M.M.M.M.",
"H.H.H.H.H.H.H.H.H.H.H.H.H.H.H.H.H.H.H.H.H.H.H.H.H.H.H.H.H.H.H.H.H.H.H.H.H.H.H.H.H.H.$ $ $ $ @ O   1 x $.s.B.N.M.M.M.M.M.M.M.M.M.",
"H.H.H.H.H.H.H.H.H.H.H.H.H.H.H.H.H.H.H.H.H.H.H.H.H.H.H.H.H.H.H.H.H.H.H.H.H.H.H.H.H.H.$ $ $ - , 7 w g K 4.g.N.M.M.M.M.M.M.M.M.M.M.",
"H.H.H.H.H.H.H.H.H.H.H.H.H.H.H.H.H.H.H.H.H.H.H.H.H.H.H.H.H.H.H.H.H.H.H.H.H.H.H.H.H.H.$ # @ , k D E =.t.g.v.M.M.M.M.M.M.M.M.M.M.M.",
"H.H.H.H.H.H.H.H.H.H.H.H.H.H.H.H.H.H.H.H.H.H.H.H.H.H.H.H.H.H.H.H.H.H.H.H.H.H.H.H.H.H.$ # @ 8 D 0.c.Z.V.N.M.M.M.M.M.M.M.M.M.M.M.M.",
"H.H.H.H.H.H.H.H.H.H.H.H.H.H.H.H.H.H.H.H.H.H.H.H.H.H.H.H.H.H.H.H.H.H.H.H.H.H.H.H.H.H.$ @ + r ) c.B.V.B.M.M.M.M.M.N.N.M.M.M.M.M.M.",
"H.H.H.H.H.H.H.H.H.H.H.H.H.H.H.H.H.H.H.H.H.H.H.H.H.H.H.H.H.H.H.H.H.H.H.H.H.H.H.H.H.H.$ @ + u o.A.V.M.M.M.M.M.M.v.f.f.v.N.N.M.M.M.",
"H.H.H.H.H.H.H.H.H.H.H.H.H.H.H.H.H.H.H.H.H.H.H.H.H.H.H.H.H.H.H.H.H.H.H.H.H.H.H.H.H.H.$ @ + u o.Z.V.M.M.M.M.M.N.d.>.>.g.V.B.B.B.B.",
"H.H.H.H.H.H.H.H.H.H.H.H.H.H.H.H.H.H.H.H.H.H.H.H.H.H.H.H.H.H.H.H.H.H.H.H.H.H.H.H.H.H.$ @ + u o.Z.V.M.M.M.M.N.B.p.{ ' q.a.a.p.p.p.",
"H.H.H.H.H.H.H.H.H.H.H.H.H.H.H.H.H.H.H.H.H.H.H.H.H.H.H.H.H.H.H.H.H.H.H.H.H.H.H.H.H.H.$ @ + u o.A.V.M.M.M.M.N.V.a.X.! ] O.O.O.O.O.",
"H.H.H.H.H.H.H.H.H.H.H.H.H.H.H.H.H.H.H.H.H.H.H.H.H.H.H.H.H.H.H.H.H.H.H.H.H.H.H.H.H.H.$ @ + e E z.M.N.N.N.N.n.g.q.] Y Y Y Y T T T ",
"H.H.H.H.H.H.H.H.H.H.H.H.H.H.H.H.H.H.H.H.H.H.H.H.H.H.H.H.H.H.H.H.H.H.H.H.H.H.H.H.H.H.$ # @ 7 Z 4.k.V.B.B.V.g.1.] ! T Y Y T T T T ",
"H.H.H.H.H.H.H.H.H.H.H.H.H.H.H.H.H.H.H.H.H.H.H.H.H.H.H.H.H.H.H.H.H.H.H.H.H.H.H.H.H.H.$ # @ 5 v { e.a.a.a.a.q.' W ] O.O.O.O.O.O.O.",
"H.H.H.H.H.H.H.H.H.H.H.H.H.H.H.H.H.H.H.H.H.H.H.H.H.H.H.H.H.H.H.H.H.H.H.H.H.H.H.H.H.H.$ # @ 5 b _ { O.O.O.X.' W ' q.a.a.p.p.p.p.p.",
"H.H.H.H.H.H.H.H.H.H.H.H.H.H.H.H.H.H.H.H.H.H.H.H.H.H.H.H.H.H.H.H.H.H.H.H.H.H.H.H.H.H.$ # @ 5 m ( Q T Y ! ] X.X.1.g.V.B.B.B.B.B.B.",
"H.H.H.H.H.H.H.H.H.H.H.H.H.H.H.H.H.H.H.H.H.H.H.H.H.H.H.H.H.H.H.H.H.H.H.H.H.H.H.H.H.H.$ # @ 5 m ( ! T I ' q.a.p.g.b.N.N.M.M.M.M.M.",
"H.H.H.H.H.H.H.H.H.H.H.H.H.H.H.H.H.H.H.H.H.H.H.H.H.H.H.H.H.H.H.H.H.H.H.H.H.H.H.H.H.H.$ # @ < l C P / ] 1.g.V.B.N.M.M.M.M.M.M.M.M.",
"H.H.H.H.H.H.H.H.H.H.H.H.H.H.H.H.H.H.H.H.H.H.H.H.H.H.H.H.H.H.H.H.H.H.H.H.H.H.H.H.H.H.$ $ $ = , a M { e.g.n.N.N.M.M.M.M.M.M.M.M.M.",
"H.H.H.H.H.H.H.H.H.H.H.H.H.H.H.H.H.H.H.H.H.H.H.H.H.H.H.H.H.H.H.H.H.H.H.H.H.H.H.H.H.H.$ $ $ @ + 3 n -.f.V.N.M.M.M.M.M.M.M.M.M.M.M.",
"H.H.H.H.H.H.H.H.H.H.H.H.H.H.H.H.H.H.H.H.H.H.H.H.H.H.H.H.H.H.H.H.H.H.H.H.H.H.H.H.H.H.H.H.$ @ + 3 n ;.f.B.N.M.M.M.M.M.M.M.M.M.M.M.",
"H.H.H.H.H.H.H.H.H.H.H.H.H.H.H.H.H.H.H.H.H.H.H.H.H.H.H.H.H.H.H.H.H.H.H.H.H.H.H.H.H.H.H.H.$ # @ , k L y.B.B.M.M.M.M.M.M.M.M.M.M.M.",
"H.H.H.H.H.H.H.H.H.H.H.H.H.H.H.H.H.H.H.H.H.H.H.H.H.H.H.H.H.H.H.H.H.H.H.H.H.H.H.H.H.H.H.H.$ $ $ & > g *.Z.V.M.M.M.M.M.M.M.M.M.M.M.",
"H.H.H.H.H.H.H.H.H.H.H.H.H.H.H.H.H.H.H.H.H.H.H.H.H.H.H.H.H.H.H.H.H.H.H.H.H.H.H.H.H.H.H.H.$ $ $ +   r  .Z.V.M.M.M.M.M.M.M.M.M.M.M.",
"H.H.H.H.H.H.H.H.H.H.H.H.H.H.H.H.H.H.H.H.H.H.H.H.H.H.H.H.H.H.H.H.H.H.H.H.H.H.H.H.H.H.H.H.$ $ $ +   r ..A.V.M.M.M.M.M.M.M.M.M.N.B.",
"H.H.H.H.H.H.H.H.H.H.H.H.H.H.H.H.H.H.H.H.H.H.H.H.H.H.H.H.H.H.H.H.H.H.H.H.H.H.H.H.H.H.H.H.$ $ @ % : d | k.M.N.N.M.M.M.M.M.M.v.s.i.",
"H.H.H.H.H.H.H.H.H.H.H.H.H.H.H.H.H.H.H.H.H.H.H.H.H.H.H.H.H.H.H.H.H.H.H.H.H.H.H.H.H.H.$ $ $ @ + : j S / 1.g.V.B.B.B.B.B.B.B.s.>.[ ",
"H.H.H.H.H.H.H.H.H.H.H.H.H.H.H.H.H.H.H.H.H.H.H.H.H.H.H.H.H.H.H.H.H.H.H.H.H.H.H.H.H.H.$ $ $ ; 6 h U O.^ ' q.a.a.p.p.p.p.g.b.f.>.[ ",
"H.H.H.H.H.H.H.H.H.H.H.H.H.H.H.H.H.H.H.H.H.H.H.H.H.H.H.H.H.H.H.H.H.H.H.H.H.H.H.H.H.H.$ # @ 8 V 5.u.e.] W ] O.O.O.O.X.X.1.g.b.f.i.",
"H.H.H.H.H.H.H.H.H.H.H.H.H.H.H.H.H.H.H.H.H.H.H.H.H.H.H.H.H.H.H.H.H.H.H.H.H.H.H.H.H.H.$ @ + p &.G.S.g.1.] ! T T T T Y Y X.p.B.B.B.",
"H.H.H.H.H.H.H.H.H.H.H.H.H.H.H.H.H.H.H.H.H.H.H.H.H.H.H.H.H.H.H.H.H.H.H.H.H.H.H.H.H.H.$ @ + p #.F.Z.n.g.q.] T T W W T Y X.p.B.B.M.",
"H.H.H.H.H.H.H.H.H.H.H.H.H.H.H.H.H.H.H.H.H.H.H.H.H.H.H.H.H.H.H.H.H.H.H.H.H.H.H.H.H.H.$ @ + r ) x.M.B.V.a.X.Y T W W T T O.p.B.M.M.",
"H.H.H.H.H.H.H.H.H.H.H.H.H.H.H.H.H.H.H.H.H.H.H.H.H.H.H.H.H.H.H.H.H.H.H.H.H.H.H.H.H.H.$ # @ 8 D 8.l.C.C.a.X.Y Y T T T T O.p.B.M.M.",
"H.H.H.H.H.H.H.H.H.H.H.H.H.H.H.H.H.H.H.H.H.H.H.H.H.H.H.H.H.H.H.H.H.H.H.H.H.H.H.H.H.H.$ # @ , j J 2.j.n.g.1.X.X.O.O.] ! X.a.B.N.M.",
"H.H.H.H.H.H.H.H.H.H.H.H.H.H.H.H.H.H.H.H.H.H.H.H.H.H.H.H.H.H.H.H.H.H.H.H.H.H.H.H.H.H.$ $ $ * > s H 3.j.b.g.p.p.a.a.q.' { p.V.N.M.",
"H.H.H.H.H.H.H.H.H.H.H.H.H.H.H.H.H.H.H.H.H.H.H.H.H.H.H.H.H.H.H.H.H.H.H.H.H.H.H.H.H.H.$ $ $ + X 3 N 4.j.B.B.B.B.B.V.g.<.;.e.g.b.B.",
"H.H.H.H.H.H.H.H.H.H.H.H.H.H.H.H.H.H.H.H.H.H.H.H.H.H.H.H.H.H.H.H.H.H.H.H.H.H.H.H.H.H.$ $ $ +   0 R k.m.M.M.M.M.N.N.b.g.e.%.>.g.V.",
"H.H.H.H.H.H.H.H.H.H.H.H.H.H.H.H.H.H.H.H.H.H.H.H.H.H.H.H.H.H.H.H.H.H.H.H.H.H.H.H.H.H.$ $ $ ; 4 z 6.Z.V.M.M.M.M.M.M.N.B.g.>.;.r.a.",
"H.H.H.H.H.H.H.H.H.H.H.H.H.H.H.H.H.H.H.H.H.H.H.H.H.H.H.H.H.H.H.H.H.H.H.H.H.H.H.H.H.H.$ # @ 8 V 7.h.B.M.M.M.M.M.M.M.M.N.b.g.e.:.X.",
"H.H.H.H.H.H.H.H.H.H.H.H.H.H.H.H.H.H.H.H.H.H.H.H.H.H.H.H.H.H.H.H.H.H.H.H.H.H.H.H.H.H.$ @ + p #.F.Z.M.M.M.M.M.M.M.M.M.M.N.V.p.X.I ",
"H.H.H.H.H.H.H.H.H.H.H.H.H.H.H.H.H.H.H.H.H.H.H.H.H.H.H.H.H.H.H.H.H.H.H.H.H.H.H.H.H.H.$ @ + p @.D.Z.M.M.M.M.M.M.M.M.M.M.N.B.p.X.Y ",
"H.H.H.H.H.H.H.H.H.H.H.H.H.H.H.H.H.H.H.H.H.H.H.H.H.H.H.H.H.H.H.H.H.H.H.H.H.H.H.H.H.H.$ @ + p @.D.Z.M.M.M.M.M.M.M.M.M.M.M.B.i.X.T ",
"H.H.H.H.H.H.H.H.H.H.H.H.H.H.H.H.H.H.H.H.H.H.H.H.H.H.H.H.H.H.H.H.H.H.H.H.H.H.H.H.H.H.$ @ + p #.F.Z.M.M.M.M.M.M.M.M.M.M.M.B.i.X.T ",
"H.H.H.H.H.H.H.H.H.H.H.H.H.H.H.H.H.H.H.H.H.H.H.H.H.H.H.H.H.H.H.H.H.H.H.H.H.H.H.H.H.H.$ # @ 8 V 7.h.B.M.M.M.M.M.M.M.M.M.N.B.p.O.T ",
"H.H.H.H.H.H.H.H.H.H.H.H.H.H.H.H.H.H.H.H.H.H.H.H.H.H.H.H.H.H.H.H.H.H.H.H.H.H.H.H.H.H.$ $ $ ; 4 z 6.Z.V.M.M.M.M.M.M.M.M.N.V.a.O.T ",
"H.H.H.H.H.H.H.H.H.H.H.H.H.H.H.H.H.H.H.H.H.H.H.H.H.H.H.H.H.H.H.H.H.H.H.H.H.H.H.H.H.H.$ $ $ + X q R k.m.M.M.M.M.M.M.N.N.n.g.q.] T ",
"H.H.H.H.H.H.H.H.H.H.H.H.H.H.H.H.H.H.H.H.H.H.H.H.H.H.H.H.H.H.H.H.H.H.H.H.H.H.H.H.H.H.H.H.$ @ + 5 B 4.j.B.B.B.B.B.B.B.V.g.1.] ^ W ",
"H.H.H.H.H.H.H.H.H.H.H.H.H.H.H.H.H.H.H.H.H.H.H.H.H.H.H.H.H.H.H.H.H.H.H.H.H.H.H.H.H.H.H.H.$ # @ 7 B 4.j.b.g.i.i.i.i.p.a.q.] T W W ",
"H.H.H.H.H.H.H.H.H.H.H.H.H.H.H.H.H.H.H.H.H.H.H.H.H.H.H.H.H.H.H.H.H.H.H.H.H.H.H.H.H.H.H.H.$ @ + e E z.M.g.1.X.{ X.X.X.X.] ^ W W W ",
"H.H.H.H.H.H.H.H.H.H.H.H.H.H.H.H.H.H.H.H.H.H.H.H.H.H.H.H.H.H.H.H.H.H.H.H.H.H.H.H.H.H.H.H.$ @ + p @.D.A.p.{ W ' X.X.X.X.] ^ W W W ",
"H.H.H.H.H.H.H.H.H.H.H.H.H.H.H.H.H.H.H.H.H.H.H.H.H.H.H.H.H.H.H.H.H.H.H.H.H.H.H.H.H.H.H.H.$ @ + i @.F.A.p.{ ' 9.a.p.p.a.q.] T W W ",
"H.H.H.H.H.H.H.H.H.H.H.H.H.H.H.H.H.H.H.H.H.H.H.H.H.H.H.H.H.H.H.H.H.H.H.H.H.H.H.H.H.H.H.H.$ @ + r ) j.f.e.;.<.g.V.B.B.V.g.1.] ! T ",
"H.H.H.H.H.H.H.H.H.H.H.H.H.H.H.H.H.H.H.H.H.H.H.H.H.H.H.H.H.H.H.H.H.H.H.H.H.H.H.H.H.H.H.H.$ # @ 9 F -.+.;.r.g.b.N.N.N.N.n.g.q.] Y ",
"H.H.H.H.H.H.H.H.H.H.H.H.H.H.H.H.H.H.H.H.H.H.H.H.H.H.H.H.H.H.H.H.H.H.H.H.H.H.H.H.H.H.H.H.$ # @ , k S ~ 1.g.B.N.M.M.M.M.N.B.g.1.X.",
"H.H.H.H.H.H.H.H.H.H.H.H.H.H.H.H.H.H.H.H.H.H.H.H.H.H.H.H.H.H.H.H.H.H.H.H.H.H.H.H.H.H.H.H.$ $ $ & > d } k.m.N.M.M.M.M.M.M.N.b.g.p.",
"H.H.H.H.H.H.H.H.H.H.H.H.H.H.H.H.H.H.H.H.H.H.H.H.H.H.H.H.H.H.H.H.H.H.H.H.H.H.H.H.H.H.H.H.$ $ $ + X t o.A.V.M.M.M.M.M.M.M.M.M.N.B.",
"H.H.H.H.H.H.H.H.H.H.H.H.H.H.H.H.H.H.H.H.H.H.H.H.H.H.H.H.H.H.H.H.H.H.H.H.H.H.H.H.H.H.H.H.H.H.$ @ o y ..Z.V.M.M.M.M.M.M.M.M.M.M.M.",
"H.H.H.H.H.H.H.H.H.H.H.H.H.H.H.H.H.H.H.H.H.H.H.H.H.H.H.H.H.H.H.H.H.H.H.H.H.H.H.H.H.H.H.H.H.H.$ @ o y ..Z.V.M.M.M.M.M.M.M.M.M.M.M.",
"H.H.H.H.H.H.H.H.H.H.H.H.H.H.H.H.H.H.H.H.H.H.H.H.H.H.H.H.H.H.H.H.H.H.H.H.H.H.H.H.H.H.H.H.$ $ $ + X t o.A.V.M.M.M.M.M.M.M.M.M.N.B.",
"H.H.H.H.H.H.H.H.H.H.H.H.H.H.H.H.H.H.H.H.H.H.H.H.H.H.H.H.H.H.H.H.H.H.H.H.H.H.H.H.H.H.H.H.$ $ $ * , f | k.n.M.M.M.M.M.M.M.M.v.d.i.",
"H.H.H.H.H.H.H.H.H.H.H.H.H.H.H.H.H.H.H.H.H.H.H.H.H.H.H.H.H.H.H.H.H.H.H.H.H.H.H.H.H.H.H.H.$ # @ < l G / 1.g.N.M.M.M.M.M.M.N.d.,.{ ",
"H.H.H.H.H.H.H.H.H.H.H.H.H.H.H.H.H.H.H.H.H.H.H.H.H.H.H.H.H.H.H.H.H.H.H.H.H.H.H.H.H.H.H.H.$ # @ 5 m ( W { i.B.M.M.M.M.M.M.B.i.{ I "
};
