/* XPM */
static char *result[] = {
/* columns rows colors chars-per-pixel */
"64 64 76 1 ",
"  c #360137",
". c #370238",
"X c #390339",
"o c #3E0A3C",
"O c #3C1D3F",
"+ c #400B3D",
"@ c #44103F",
"# c #3C2340",
"$ c #3C2941",
"% c #3A3647",
"& c #3A3948",
"* c #461240",
"= c #4A1442",
"- c #4E1944",
"; c #501B45",
": c #551F48",
"> c #562149",
", c #59254A",
"< c #5E294C",
"1 c #51324A",
"2 c #602A4D",
"3 c #61304F",
"4 c #652F51",
"5 c #633150",
"6 c #6A3553",
"7 c #6E3C56",
"8 c #703E57",
"9 c #723F58",
"0 c #3E4247",
"q c #3E4448",
"w c #3F554B",
"e c #3F584C",
"r c #345E56",
"t c #3D655F",
"y c #346E5E",
"u c #2E705D",
"i c #3F7352",
"p c #3E7B54",
"a c #74435A",
"s c #7B445B",
"d c #7D4A5E",
"f c #406E51",
"g c #46695E",
"h c #546956",
"j c #417352",
"k c #417B53",
"l c #4D7C5D",
"z c #565D61",
"x c #7F4D60",
"c c #7C5B62",
"v c #686561",
"b c #7C6562",
"n c #814A5E",
"m c #844E61",
"M c #875162",
"N c #8E5665",
"B c #8E5866",
"V c #8F5968",
"C c #905765",
"Z c #915966",
"A c #945C69",
"S c #985F6A",
"D c #97616C",
"F c #9B636D",
"G c #9E6770",
"H c #9E6870",
"J c #A56D73",
"K c #AB7377",
"L c #AD7578",
"P c #B0787A",
"I c #3B8659",
"U c #428B56",
"Y c #428F58",
"T c #55855C",
"R c #429459",
"E c #42985A",
/* pixels */
"8aa7a8aa7aaa7aMBCCVAZZZZACZAZZACCCCCCNCNCZZZZZCZZMd97smZZMsaMZCC",
"saaaadaaaasaaaMZCMn99nssss9nsssnMZZCCZZZZMnssnsnn966anMCCMddMZNC",
"MnaanMMMMMMnasMZVm2-;;;--;;;;;;2nAZCZAZZZn2;@;;;>@@,sNCCCNMMNNCZ",
"VMddMCZZZZZNdnMNm6*.XXXX XXX  X=6ssnnndsn6@XXXXXXXX@6nNCZCCCNZNN",
"VNMMZZZNNCCNMMZm2*o.XXXXX XXXX.+@--<98,;;@+XXXXXXXX+@2nSZNNZZZNN",
"NZZZNCNNZNCCZNn6=.X*;::::::>>-+.o.X@<,@XXXX+=;;;>@@XX@6nMZCNNNNZ",
"ZZZNCNNZNCCZZn2@oX.-xVVVAACAZs;.  XX@@XXXXX@6sssn6@XX+@4nZZNNZCN",
"MMNNNZZNZNCNn7@XXo-6SPPPLLLLPD6:>;+X Xo+@;;2nAZZZn2@@X @sZZNCNNZ",
"adMCNCNCNCCn<@+X.-sFJLLLLLLLLJSZZs-   .=6ssnNZZZZNn6@Xo@sCZNNCNZ",
"snMZZNZNNZCs@XX+-6SPLKKKJKKKLLLPPD6>:;;<mCCCNCNNCZZn:XX;sZZNZNNN",
"MMNNNNZNNZZs;XX;xSJLKKKKLLKKLKLKLJDZZNnnMCVCZNNCCZZs;XX;sCCCZCZZ",
"ZCNCNZNCZZZd;  ,APLKKKKKKLKKKKKKKLLLKKFDSACCNNCNCZZs-XX>sCZCNNMM",
"CNCNZNCNZZZs;XX>APLKKKKKKKKKKKKKKKKLLKJJJJACNCNCNZZs>XX@sZZZCMds",
"NCNZNNNZZCn7@X >ZLLKKKKKKKKKKKKKKKKKKKKKKJFAAACCZNMa@XX;sZZNZMaa",
"NZNZNZCZZn2@oXX>ZLLKKKKKKKKKKKLLKKKKKKKLKKJJJHACNNn6@+X>sCZCZMaa",
"NNCNNCZNn6@XXXX;mJJKKKKKKKKKKKJJKKKKKKKKKKKKKJFSZNs3@X @sZZNZMda",
"ZNCZNZZm2=o . X=6VGLLKKKKKKKKJSFJKKKKKKKKKKLKKJJJDd3@oX;dZZZCNMM",
"ZNNCZMn6=..*;::29NGLLLKKKKKKLJAAGJKKKKKKKKKKKKLKPJMa@.X=6nMCCNZZ",
"ZZCCZn2@+  ;xVVADGKKKKKKKKKLKJACAGJLKKKKKKKKKKKKKKJm; .o@2nCZZZC",
"MMNNn7@  +-6DLPLLLLLKKKKKKKKJHACZDJKKKKKKKKKKKKKKLLD6-ooX;sCNNCN",
"snMn2@@X -aSJKPLKKKKKKKKKKKJFAZAGKKKKKKKKKKKKKKKKKLJDs-.X@sZZNZN",
"asna@XX+-7DPPKKKKKKKKKKKKKLJSAZAJLKKKKKKKKKKKKKKKKKLLD> X;sZZNZN",
"aas6@ X;sDJKKKKKKKKKKKKKKKLKJHAAJKKKKKKKKKKKKKKKKKKLLD> X;sZZNNC",
"aad8@X ,APPKKKKKKKKKKKKKKKKLLJFSJKKKKKKKKKKKKKKKKKKLLZ> X;sZZNZN",
"7ama-X >ZPPKKKKKKKKKKKKKKKKKKKJJKKKKKKKKKKKKKKKKKKKKPV>. ;sCCCCN",
"7aMs; X>ZPKKKKKKKKKKKKKKKKKKKKKLKKKKKKKKKKKKKKKKKKKKPV>. ;nZZCNC",
"asMd>Xo>BPKKKKKKKKKKKKKKKKKKKKKKKKKKKKKKKKKKKKKKKKKKPV>. ;sAZCZZ",
"asma@  >MJKKKKKKKKKKKKKKKKKKJJKKKKKKKKKKKKKKKKKLKKKKJm;.X@6nNCMM",
"aaa6@Xo@7BJLLLLKKKKKKKKKKKKJFSJKKKKKKKKKKKKKKKLKLKKJM7=.Xo@<nNds",
"aas6@Xo@<dAHJHJJJJKKKKKKKKKJSAJKKKKKKKKKKKKKKKGGJJKHNa<-+oX-9nda",
"mMMa>XX@5adMBDDZAGJKKKKKKLLJAAJKKKKKKKKKKKKKKGMMNGKJHFDs-X.@6dMM",
"NZZd;XX@5aaaMBNNVVGJJJJJJJJGAAJJKKKKKKKKKKKKLGxaNDKKKPPZ>.o@6nMZ",
"BZZs-XX=<aaaMNNNNZAADAAASAAAZZADJKLKLKKKKKKLKFxdDJKKKPPA> X-aMZZ",
"ZZZs-XX=3aaaMZZCCNZNCNZNNNZNNCCAGJJJJJKKLKKKLFddGKPKKKLZ>..-sZZV",
"NZBa-XX@5a7sMZCNNZNZCNNZZNNCNVZZZSAAADJLLLLLLHdnGKKKKPPZ>..-sZZN",
"NZBd-XX=3aasMZCCNNNZNCCNNCZNCNNCVCNNCZJJJJJJJDddGPKKLJJM;..-sZZN",
"NZZd-..@3aaaMZCCZNNZNZNNZNZNCNCNCNNNCZAAADZADBaxGKLLLJN7=XX-sCZN",
"ZNMs,@@>aaaaMZZZZCNNCCZZZNZZCZZVZCZZNCNNNNZZZMaxDJJJJDn3@  -aNNZ",
"ZMna6337nmadMAZZZZZNCCCCZCZZZZZZZZZZCNCCNZZNNMssBDDSFZn3@X @6nMZ",
"Mnaaadsdsa759sssssNZZMnsssssssssssssNZZNZNNZNM76assss962>;-,7dMM",
"saaamNMd2-==--;--2nAZn2@----;--;---<mZCCCCNVZd,@@@@@>@@>8snsnnns",
"aaassss7@XXXX XXX@6sn6@XX ...... ..=4mNCCNCCZs- +++XXXX@6nCZZMsa",
"aaMd4@@@+X..XXXXX+@;;@@XX ....... .+=2xCCCCCVs-X+++XXXX+@2nSZMaa",
"aad6@ X+.+-;---@+XXXXXX+;>>>>>>>>;+..*4mNCVNBa-XX+#$$#oXX-6nNMaa",
"Mn2@+   X=6ssss6=. .X  ;sAZZZZZAZx-XXo=2nZZMn6=XX#ejjw@ X+@2nMda",
"An@ +@@@;,nCAZSM4:>:>>:6DPPLLLLLPS6;oX.*6nMmd5=XX@wUYkq#oX+@6s63",
"Cn>++@9nsnNCCAJHSCCZZZCSJLLLLLLLKKF9-..o=>8sa5=XXoO0kUkwOXX+@;@@",
"Cs@XX@nSACCZAFJLLLLPPLLLLKKKKLKKKLKF6-*..=6a6,*XXX #fERj$XXoXXXo",
"Cs@+X:nCZCNDFJKKLLLLLLLKKKKKKKKKKKKKDs;.X-ss,@oXXXX$fRRj#.XXXXXX",
"Cn@X+@aMMNMZJKKKKKKKKKKKKKKKKKKKKKKLPA>. ;ss-.Xo#@o$fRRkq#-#O.Xo",
"Cn@@ @6sdsaMJLKKKKKKKKKKKKKKKKKKKKKLPZ>. ;sn-. OwwO#iYRUjfjeOooX",
"Cn@+ @3aa7adFLKKKKKKKKKKKKKKKKKKKKLLLZ>.X@77=X $jk&%iRYYEYke#XXX",
"An@+ @3aaaadHLLKKKKKKKKKKKKKKKKKKKLLLZ>.X+-@+XX1jIrrpRRREkqOoo..",
"Ms2@@<7a333aZJKKKKKKKKKKKKKKKLKKJJJJJN: XXXoX+@1hlyuIRRUjwO..o*=",
"ssssnnMs,@@,aNHLLLKKKKKKKKLLLKKJFASSDn; XXXXX=6nbvtuIRRi0OX..*,5",
"ssMZZZZd-XX@1sDJJLKKKLLLJJHJJJJHANNVAM2>>:+XX;sACmhglTTh1=---,7d",
"MMNZZZZs- X@5adNHLLLLLLJFAAASAAACNNAFJAAAd-X.;sZZMccbbbcssssssMN",
"ZCNNNCZs- X=5aadDJJJJJJHZNCNNNZNCZAFJLLKJM;.X-sZZCNCCCCCZZZZCCCC",
"ZNNZCZZs-  @5a7aNSZDZASZZZNZZNNNZAHKKLLJBa=.X-sZZCCCCCCCCCVCZZCN",
"NZZNNCNn2-@>7aaaMZZNZCNCCZNNCZZNdmFJJJJDx3@..-sZZCCNCCNZCCCCNNCN",
"ZZCCNZNNda56dxaaMCCNNNZNNNZNCZZn,<nSSASNd3@.X@sZZNCCNZNNNNNZNNCZ",
"MMNNNZNNMmaaMmddMCNZZZNNZNNCCMn4@-sCACCMs3,;;2nZVNMMNCNZZZNNZNMM",
"adMZZNZMmaaaadMMNNZNNCNZCNZZCn2@o-sZZNCMsasssnMZZMddMCZNNZNZVMds",
"asMZNZZMaaaaasMZZCNNZNNZNZNNCs- X;sZCCZMssMZZZZZZMasMZNZNNNZNMaa"
};
