/* XPM */
static char *_df6efa4f9234519cff9fa07dd3479660sHupauKRrgZtFK8[] = {
/* columns rows colors chars-per-pixel */
"64 64 49 1 ",
"  c #546D8E",
". c #536C8E",
"X c #55708F",
"o c #608998",
"O c #5E8495",
"+ c #445280",
"@ c #414B7D",
"# c #475581",
"$ c #4A5983",
"% c #526A8C",
"& c #546D8D",
"* c #5D8295",
"= c #5B7E93",
"- c #445180",
"; c #51688B",
": c #4A5A83",
"> c #4B5D84",
", c #4A5B83",
"< c #424D7D",
"1 c #414C7D",
"2 c #485581",
"3 c #495782",
"4 c #475380",
"5 c #475480",
"6 c #404A7C",
"7 c #455380",
"8 c #465581",
"9 c #465481",
"0 c #434F7E",
"q c #43507F",
"w c #5F8697",
"e c #6A95A1",
"r c #678E9E",
"t c #465381",
"y c #536E8A",
"u c #57768E",
"i c #5D8294",
"p c #608897",
"a c #628B99",
"s c #6E9DA5",
"d c #54708B",
"f c #58778E",
"g c #5F8696",
"h c #577490",
"j c #495882",
"k c #4C5D85",
"l c #546E8D",
"z c #536C8D",
"x c white",
/* pixels */
"                                              .XoO+@#$%         ",
"%%%%%%%%%%%%%%%%%%%%%%%%%%%%%%%%%%%%%%%%%%%%%%%&*=-@#$;%%%%%%%%%",
"$$$$$$$$$$$$$$$$$$$$$$$$$$$$$$$$$$$$$$$$$$$$$$$:>,<123$$$$$$$$$$",
"#################################################41152##########",
"@@@@@@@@@@@@@@@@@@1111@@@@@@@@@@@@@@@@@@@@@@@@@@@@66@@@@@@@@@@@@",
"+++++++++++++++7891@0q++++++++++++++++++++++++++++++++++++++++++",
"OOOOOOOOOOOOOOOwert0yuiOOOOOOOOOOOOOOOOOOOOOOOOOOOOOOOOOOOOOOOOO",
"pppppppppppppppase90dfgppppppppppppppppppppppppppppppppppppppppp",
"XXXXXXXXXXXXXXXhaw71jklXXXXXXXXXXXXXXXXXXXXXXXXXXXXXXXXXXXXXXXXX",
"zzzzzzzzzzzzzzzXpO+@#$%.zzzzzzzzzzzzzzzzzzzzzzzzzzzzzzzzzzzzzzzz",
"              zXpO+@#$%                                         ",
"              zXpO+@#$%                                         ",
"              zXpO+@#$%                                         ",
"              zXpO+@#$%                                         ",
"              zXpO+@#$%                                         ",
"              zXpO+@#$%                                         ",
"              zXpO+@#$%                                         ",
"              zXpO+@#$%                                         ",
"              zXpO+@#$%                                         ",
"              zXpO+@#$%                                         ",
"              zXpO+@#$%                                         ",
"              zXpO+@#$%                                         ",
"              zXpO+@#$%                                         ",
"              zXpO+@#$%                                         ",
"              .XoO+@#$%                                         ",
"%%%%%%%%%%%%%%%&*=-@#$;%%%%%%%%%%%%%%%%%%%%%%%%%%%%%%%%%%%%%%%%%",
"$$$$$$$$$$$$$$$:>,<123$$$$$$$$$$$$$$$$$$$$$$$$$$$$$$$$$$$$$$$$$$",
"#################41152##########################################",
"@@@@@@@@@@@@@@@@@@66@@@@@@@@@@@@@@@@@@@@@@@@@@@@@@1111@@@@@@@@@@",
"+++++++++++++++++++++++++++++++++++++++++++++++7891@0q++++++++++",
"OOOOOOOOOOOOOOOOOOOOOOOOOOOOOOOOOOOOOOOOOOOOOOOwert0yuiOOOOOOOOO",
"pppppppppppppppppppppppppppppppppppppppppppppppase90dfgppppppppp",
"XXXXXXXXXXXXXXXXXXXXXXXXXXXXXXXXXXXXXXXXXXXXXXXhaw71jklXXXXXXXXX",
"zzzzzzzzzzzzzzzzzzzzzzzzzzzzzzzzzzzzzzzzzzzzzzzXpO+@#$%.zzzzzzzz",
"                                              zXpO+@#$%         ",
"                                              zXpO+@#$%         ",
"                                              zXpO+@#$%         ",
"                                              zXpO+@#$%         ",
"                                              zXpO+@#$%         ",
"                                              zXpO+@#$%         ",
"                                              zXpO+@#$%         ",
"                                              zXpO+@#$%         ",
"                                              zXpO+@#$%         ",
"                                              zXpO+@#$%         ",
"                                              zXpO+@#$%         ",
"                                              zXpO+@#$%         ",
"                                              zXpO+@#$%         ",
"                                              zXpO+@#$%         ",
"                                              .XoO+@#$%         ",
"%%%%%%%%%%%%%%%%%%%%%%%%%%%%%%%%%%%%%%%%%%%%%%%&*=-@#$;%%%%%%%%%",
"$$$$$$$$$$$$$$$$$$$$$$$$$$$$$$$$$$$$$$$$$$$$$$$:>,<123$$$$$$$$$$",
"#################################################41152##########",
"@@@@@@@@@@@@@@@@@@1111@@@@@@@@@@@@@@@@@@@@@@@@@@@@66@@@@@@@@@@@@",
"+++++++++++++++7891@0q++++++++++++++++++++++++++++++++++++++++++",
"OOOOOOOOOOOOOOOwert0yuiOOOOOOOOOOOOOOOOOOOOOOOOOOOOOOOOOOOOOOOOO",
"pppppppppppppppase90dfgppppppppppppppppppppppppppppppppppppppppp",
"XXXXXXXXXXXXXXXhaw71jklXXXXXXXXXXXXXXXXXXXXXXXXXXXXXXXXXXXXXXXXX",
"zzzzzzzzzzzzzzzXpO+@#$%.zzzzzzzzzzzzzzzzzzzzzzzzzzzzzzzzzzzzzzzz",
"              zXpO+@#$%                                         ",
"              zXpO+@#$%                                         ",
"              zXpO+@#$%                                         ",
"              zXpO+@#$%                                         ",
"              zXpO+@#$%                                         ",
"              zXpO+@#$%                                         "
};
