/* XPM */
static char *_6ee51269c204e9897c6b713c67ca523bHIm83tS2pzQtLVz[] = {
/* columns rows colors chars-per-pixel */
"32 32 4 1 ",
"  c #714058",
". c #3B063A",
"X c #8F5765",
"o c None",
/* pixels */
"oooooooooooooooooooooooooooooooo",
"oooooooooooooooooooooooooooooooo",
"oooooooooooooooooooooooooooooooo",
"oooooooooooooooooooooooooooooooo",
"oooooooooooooooooooooooooooooooo",
"oooooooooooooooooooooooooooooooo",
"oooooooooooooooooooooooooooooooo",
"oooooooooooooooooooooooooooooooo",
"oooooooooooooooooooooooooooooooo",
"oooooooooooooooooooooooooooooooo",
"oooooooooooooooooooooooooooooooo",
"oooooooooooooooooooooooooooooooo",
"oooooooooooooooooooooooooooooooo",
"oooooooooooooooooooooooooooooooo",
"oooooooooooooooooooooooooooooooo",
"oooooooooooooooooooooooooooooooo",
"oooooooooooooooooooooooooooooooo",
"oooooooooooooooooooooooooooooooo",
"oooooooooooooooooooooooooooooooo",
"oooooooooooooooooooooooooooooooo",
"oooooooooooooooooooooooooooooooo",
"oooooooooooooooooooooooooooooooo",
"oooooooooooooooooooooooooooooooo",
"..ooo.....o....oooooooooooo.....",
"................o......ooo......",
" .....XXX...  ..............    ",
"  .. XXXX ..   ... XXX.....     ",
" XXX XXX   XXXXXX  XXXX..XXXXXX ",
"XXXXX   XXXXXXXXXXX XXX XXXXXXXX",
"XXXXXXXXXXXXXXXXXXXX   XXXXXXXXX",
"XXXXX XXXXXXXXXXXXXX  XXXXXXXXXX",
" XXX   XXXXXXXXXXXXX XXXX XXXXX "
};
