/* XPM */
static char *result[] = {
/* columns rows colors chars-per-pixel */
"64 64 96 2 ",
"   c #360137",
".  c #380037",
"X  c #370238",
"o  c #390339",
"O  c #3E0A3C",
"+  c #3C1D3F",
"@  c #3C213F",
"#  c #420D3E",
"$  c #44103F",
"%  c #371540",
"&  c #381541",
"*  c #381F43",
"=  c #3C2441",
"-  c #3D2941",
";  c #3E3E46",
":  c #323A4F",
">  c #3A3948",
",  c #471341",
"<  c #491441",
"1  c #401F41",
"2  c #4E1944",
"3  c #501B45",
"4  c #551F48",
"5  c #482C46",
"6  c #572149",
"7  c #59254A",
"8  c #5F294D",
"9  c #52354A",
"0  c #602A4D",
"q  c #62304F",
"w  c #662F51",
"e  c #643251",
"r  c #6A3553",
"t  c #643952",
"y  c #6E3C56",
"u  c #703F57",
"i  c #713F58",
"p  c #3E4147",
"a  c #3E4448",
"s  c #3F554B",
"d  c #3F584C",
"f  c #335655",
"g  c #335D57",
"h  c #3C6752",
"j  c #3E6C51",
"k  c #3F7352",
"l  c #3F7A53",
"z  c #33765B",
"x  c #357B5D",
"c  c #654A56",
"v  c #6D4C58",
"b  c #744259",
"n  c #7B445B",
"m  c #7D495D",
"M  c #6C585B",
"N  c #4D6353",
"B  c #406E51",
"V  c #48675F",
"C  c #48695F",
"Z  c #556B57",
"A  c #417452",
"S  c #417A53",
"D  c #517A5D",
"F  c #7F4D60",
"G  c #7B5D62",
"H  c #776160",
"J  c #7C6263",
"K  c #814A5E",
"L  c #844E60",
"P  c #8A4F62",
"I  c #875162",
"U  c #8D5664",
"Y  c #8E5866",
"T  c #8F5868",
"R  c #905765",
"E  c #915966",
"W  c #945C69",
"Q  c #97616C",
"!  c #9A626D",
"~  c #9E6770",
"^  c #9F6870",
"/  c #A0686F",
"(  c #A56D73",
")  c #AB7377",
"_  c #AD7578",
"`  c #B07779",
"'  c #B1797A",
"]  c #3D8158",
"[  c #3D8B5A",
"{  c #3E915B",
"}  c #428756",
"|  c #428A57",
" . c #428E58",
".. c #52825A",
"X. c #429258",
"o. c #42985A",
/* pixels */
"u b b y b b b b y b b b y b I Y R R E E E E W E R R R R Y R Y Y R Y R U R R Y U E U E R U E E E W U n b b n I R R I n b U R U R ",
"n b b b b b b b b b n b b b U U K n n n n K i K R R R R R Y Y R U R Y R R Y R R U R U E U U I K n b t q q u I E R U m n I U R U ",
"I L b b K U I I I U I m b n I K 0 2 3 2 2 2 2 0 K R R U Y R R Y R U R Y R R Y U E U R R E K 0 $ 4 $ $ $ $ 0 K W R U I U U U R U ",
"Y I m m U R R R Y Y Y U m n n r < o o o o o o < r K U R R R Y R R Y R U I I U R U R R I K r $ o O   o O o $ r K U R R R E E U E ",
"Y U I I R R R R R R R R U n 0 $ & o o o o o o & < 0 K R R R R R U U U U K m U U U E E K 0 $ # O     o o o # $ 0 K E E R U R U E ",
"R R R R R R Y R R R R U K r $ o   , 2 4 4 < , o   < r K U R R R E U U K n m I R R R E n $ o o $ $ 6 0 $ # . o $ r K U E E U E U ",
"R R R Y R Y R Y R E W K q $ $ o o < F W W F 2 X . O < 0 K R R R E U K m K U U R R E R K 4 o o $ K Q W n $ o o O $ 0 n E E R U E ",
"I I Y R Y R Y R R U K r $     # 2 r Q ' ' W r < #     < r K I I U K b b I R R R R R E K $ o   6 Q ' ' Q e $ # . O $ n E E U E U ",
"n m I R R U U R E K 0 $ # o   $ b ! ( _ _ ) ! n 2   o O $ 7 u n b b b b I U R R U E E n 4 o o 6 E ' _ ~ n 7 $ o o $ n R R R U R ",
"b K I R R R R U K r $   o # $ u ~ ' _ ) ) ) _ ~ r 2 O X o $ 7 t b b b m U R R U E E R n $   o 4 U ) ( ! K t $ o o 6 n E E R U R ",
"I I U R U E R K 0 $ # o . 3 K ! ( _ ) ) ) ) _ ( ! n 2   o O $ 6 q v K U U E U R R R E n 4 O O 6 m ! Q U m q $ o o 6 n E E E E E ",
"R R U R T U K r $ o o # 2 r ! ` _ ) ) ) ) ) ) _ _ ! r 2 # o O $ q m I Y R U E Y R R R n $ o o $ n E E I b 7 $ o o $ n W E U I I ",
"R Y R R E L 8 < O     2 n Q ( ` ) ) ) ) ) ) ) ) _ ) Q n 2 o o $ q m I R R R R R Y E R n $ O o 3 n W W K 0 $ # o O $ n E E I K n ",
"R R Y U K r , o o O 2 r Q ` ) ) ) ) ) ) ) ) ) ) _ ) ' E 6 . o $ r K U R R U U R Y R R n $ o o $ r n n r $ o . O $ 0 K E E I b b ",
"R R W K 0 < O o   2 n ! ) _ ) ) ) ) ) ) ) ) ) ) ) _ _ W 6 . o 3 n Y Y Y U U R U R R E n 6 o O # $ $ $ $ # o o $ r K I E E I b b ",
"R I K r <   o O 2 r ! ` ) ) ) ) ) ) ) ) ) ) ) ) ) _ _ T 6 o . $ r K U U R R Y R Y R E K 0 $ O o # . # # o # $ q K E E U E I m b ",
"W K 0 $ # o   2 n ! ) _ ) ) ) ) ) ) ) ) ) ) ) ) ) ) ` R 4 . o # < 0 K R R Y Y R R R R U K r <   o O o o o $ y K U R E U E U I I ",
"R n 2 X o # 2 r ! ` _ ) ) ) ) ) ) ) ) ) ) ) ) ) ) ` ` W e $ # o   2 n R R E R E R R R E E K 0 3 $ 6 4 $ $ 8 K W R R R U U E E E ",
"W n 3 . X 3 n Q ( ) _ _ ) ) ) ) ) ) ) ) ) ) ) ) ` ) ` / I e $ o X 2 n R W R R E R R R E W U K n n n K n n K U E R U R E U E R U ",
"I b 3   X 6 W ` _ _ ( _ ) ) ) ) ) ) ) ) ) ) ) ) ( ( ( / ! K 3 o o 3 n U K n n n n n n n n n n L U R R R E R U U R R R U E U R R ",
"F t < o X 7 W ` _ ) ) ( ) ) ) _ ) ) ) ` ) ) ) ( ! Q Q W W m 3 o o 3 m K 0 2 2 2 3 3 2 2 2 2 3 0 K R E R E E U E U E U E U E U R ",
"i t < o o 3 L ( _ _ _ _ ) ) ) _ ) ) ) / ( ( ( ~ W I K n n r < o o < u r < X   o o     o o X X 2 n R R R U R E U E U R U E U E U ",
"b e < o o < y Y / _ _ _ _ ) ` _ _ / ! W W W W W R K 8 2 3 $ # o O # < < O o X   o   o o X X X 2 n R R R R U R E U E U E U R U E ",
"b e < o o , q m Q ^ / / / / ( / ( / W Y R Y Y R R n 2 . o O o o . o . . o # 2 6 6 6 6 2 , o o 3 K R R R U E R U R U E U E U E U ",
"b q < o o < e b m F m I R Q W W Q W R U U R R R E n $ O o o o X o o       2 n T W T W n 3 X X 2 n Q E U E U U E E U E U E U E U ",
"b q < o o , e b b y b b I R R Y R R Y R U R Y E E n $ o o # 3 7 6 6 6 6 4 r Q ' ` ` ' T 6   X 2 r n I U U R E U U R U R U E U R ",
"b q , X X , e b i i c b I R R Y R R R R R Y Y E E n 6 O o 3 n W E T T Y T Q ) ) _ _ ` E 6   X O $ 7 y m U U R R E E U U R E E E ",
"b t 6 , , 2 e b i i i n I R Y R R U I I U R U R E K $ o X 6 W ' ` ` ` ` _ ) ) ) ) ) _ Q r 2 O o O $ r m K U U U R U E R R U I I ",
"y y t e e e y b i i b b I Y R Y R I m m U U Y E E n 4 o o 7 W _ _ _ _ _ _ ) ) ) _ _ _ ( Q n $ o   $ K I n m U U E E U U E U m b ",
"b F n n b b b m n b n K I R Y R U U m m K U U E E n $ . # $ I ( ) ) ) ) ) ) ) _ _ ) _ ) ' Q 0 o   $ K R n b K U I I I U I K m n ",
"L I Y L b b L I I I I I Y Y R Y R U U K n K U Y E n $ # o $ b R ( ) ) ) ) ) ) ) ) ` ` ` ' W 0 o # $ n U n u b v m b b b b m K I ",
"T U U I m F I R Y Y R R R R Y R Y U R I b b K U U b $ # o $ e K ~ ) ) ) ) ) ) ^ Q R R R W m $ o o $ r n b b u b b b b b b m U E ",
"U E U U U I U U R Y R Y U R R U R R R I b b b b m r < o O $ q L ~ ) _ _ _ ( / P w 4 4 4 6 3 , o o & < 4 r b u b i i y b F Y Y U ",
"E U U U I U U Y Y R Y R R Y R R R W R I n b b b b y $ o X $ q m ~ ( ( ( ( ~ L r , o o     o o o o o o , 7 y b b b i b m I R R U ",
"U E E U n K U Y R Y R R Y R R R R W R U n v v n L b < X X $ q n Y W Q W ! L 0 < o o o % o o o o o o o # # 6 n L b b y b I R R Y ",
"U R E I b n I Y R R R R R I K n n n n b r 0 8 b I K 8 2 2 7 y m I U R U K r <     , 2 6 4 4 4 6 4 < , o o 2 n U m b b b I R R Y ",
"E R R U b n U W R Y Y R R K 0 2 $ 4 3 $ 2 $ $ 8 m U K n n n I U U R R K 8 < O o o 2 F T W T T T W F 3 o o 2 n W U F b b I R R R ",
"E U U m b b F I U R R U K r <   o o o O o o o 2 n R R R E E R R R U K r <   . O < r W ' _ _ ` _ ` T 4 o o < w L Y U m n I I R R ",
"Y U m b b b b m I R R K 0 < O o o o o o o o o 2 n E R R R E R R E K 0 < O o   2 F W ( _ _ _ _ _ ` T 4 o o O < 0 K E U L n m I W ",
"U K b b b n n K U U K r < o o O 1 > @ $ O o o 3 n E E R R E E U K r <   o O 2 r ! ` _ ) ) _ ) ) ) P 4 o o o o < r K Y U m n K U ",
"b b b b I P U U R K 0 < # o o + s A A s @ o o 3 n R R R R R W K 0 < O o X 2 n ! ( _ _ ) ) ) ) ) ! m 2 . . # . # $ 0 K E U I n n ",
"b b t y b n n n K r , o o O + p S o.{ j @ o o 3 n E R E R Y K r <   o O 2 r Q _ _ ) ) ) ) ) ( / ! P q 6 6 $ # . o $ r K U I b b ",
"y t 6 $ $ 4 $ 4 3 < # o o * s S | [ x f = . o 2 n R R R E K 0 $ O     2 n Q ( _ ) ) ) ) ) ( ! Q / / W R E n $ # o O $ 0 m I b b ",
"b r $ o o o o o o o o O O > S X.X.} g : & o o 2 n R R U K r $ o o # 2 r ~ _ _ ) ) ) ) ) _ ( ! ! ) ) ` ` ' Q e $ # o o 3 n U b b ",
"U b 2 o # o o o o o O & : h ] X.X.k > O O o   2 n R W K 0 $ O o   2 F Q ( _ _ ) ) ) ) ) ) ) ( ( ) ) ) ) ` / U r $ o O $ n I n b ",
"R n 3 o o O 1 @ O o o * f x [ X.X.k - o o O < 0 K W R n 3 . o # , w W _ _ ) ) ) ) ) ) ) ) ) ) ) ) ) ) ) _ ( Q n 3 o o 3 n U b b ",
"R n 3 o O @ d d 1 o o = h [ X.X.X.k = . o < y K U R E n 2 o o $ 6 b ~ _ _ ) ) ) ) ) ) ) ) ) ) ) ) ) ) ) _ ( Q K $ # o 3 n U b b ",
"W n 3 o o @ A S p & % - j X.X.X.X.j 5 o o 2 r n n K U n 2 o o 3 e F ~ ) ) ) ) ) ) ) ) ) ) ) ) ) ) ) ) _ ` / W n $ o O $ b K b b ",
"E n $ # o - B X.S s + - j o.X.X.X.B @ o o # $ 4 3 q K K $ o o $ t L ^ _ ) ) ) ) ) ) ) ) ) ) ) ) ) ) ) ) _ ^ I e < o o < r n b b ",
"W n 3 . o - B X.o.B = @ j o.X. .X.B @ O o o o o o $ K n 4 o o $ q m W / ) _ ) ) ) ) ) ) ) ) ) ) ) ) ( ( ^ W F t , o o < t u b i ",
"E K 3 o o - A o.X.B = @ B X.X.X.o.B @   o o o o o 4 n n $ # # $ q b n U / _ _ _ _ ) _ ) ) _ _ _ _ ) ! R I n n e < o o , q b b y ",
"E K $ . . = h [ X.S 5 a A X.X.X.o.S @ O $ @ + o o $ n K 4 o o $ q v b m Q ( ( ( ( / ( ( ( / ( / ( ! Y L b b e 7 , o o 1 q y b b ",
"E K $ # . @ f z [ } S A } X. .X.X.B @ @ d d + # o 3 n K $ # o $ r b b b U W Q Q Q W W W Q W W Q W R m b b r 3 , O o o , q b b b ",
"I n 0 $ O + : f ] X.X.X. .X. .X.X.A 5 a S A @ o # 3 K n $ . . # 7 r b I E W W E E R R E R R R R R I n u t 7 , o o O < 7 y n b y ",
"n n n r , o & > k o.X.X.X.X.X. .X.} A S | A - . . 4 K n $ # . # $ 7 U / ( ( ( / W R R R R R R R W I m t 6 , O o o < r K I F b y ",
"n m U n 2 o o 5 B X.X.X. . .X. .X.X.X.X.X.A - o . $ K K r $ # .   6 U ) _ _ _ ( ^ W E R R E R P K b r 7 $     O < 0 m W R I F b ",
"P P R K $ o . - B o.X.o.X.X. .X. .X.X.X.X.k - o o $ n U K r $ o   6 K ^ ( ` ` _ ) / Q R R R R K q $ $ $ O O o $ r K U R R Y I I ",
"R R R i 6 o . - j } S A }  . . .X. .X.} S s 1 $ $ 0 K E W n 4 o o $ r m U E Y W E U K n n n K y $ o o o o # $ 0 K R R R Y Y R R ",
"R R E K $ # o - k S p p A X.X.X.X.X.X.A p + o $ y K U R W n $ O o O $ 6 6 6 6 6 6 4 4 $ $ $ 6 $ # o O o o $ r K U R R Y Y R R R ",
"R E E K w $ $ 9 Z N 1 @ k X.X.[ [ [ X.B @   o $ K E R R R K 0 $ O o O o   X X     . #   # . O   o # $ 6 $ 0 K E Y U R R R Y R R ",
"R R R U K n b m I v $ @ j { X.[ z z [ A - . o $ K E R R R U K r $ o . # X X X o # O   O . # o o o $ y K n K U R E R Y R Y R R R ",
"U I U R E E R R U n 6 5 N ....D C C D Z 9 4 $ 0 K P R R R R R K 0 4 $ $ 2 3 2 2 $ $ $ 4 $ 6 $ $ $ w K U E E U U U U R U Y U U I ",
"n m I R R R R U m b r t c M H H H G J I K n n K I R R R R R R U K K K n n n n b r t u K K K K n n n b K U U E U E U Y R Y U n b ",
"v n I R R R R I b v b b u n P R R R E E E R W R R R R R R R U R E R E W E E W I n n P W E R R W E I n b I E E E U R R U U I b b "
};
