/* XPM */
static char *result[] = {
/* columns rows colors chars-per-pixel */
"64 64 149 2 ",
"   c #370238",
".  c #370338",
"X  c #380338",
"o  c #380339",
"O  c #390339",
"+  c #390439",
"@  c #3A0539",
"#  c #3A053A",
"$  c #3B063A",
"%  c #3D083B",
"&  c #3D093B",
"*  c #3E093B",
"=  c #3E093C",
"-  c #3F0A3C",
";  c #430F3F",
":  c #440F3F",
">  c #44103F",
",  c #45103F",
"<  c #461240",
"1  c #471341",
"2  c #481341",
"3  c #491341",
"4  c #481441",
"5  c #491441",
"6  c #491542",
"7  c #4A1542",
"8  c #4B1642",
"9  c #4C1743",
"0  c #4D1743",
"q  c #4E1844",
"w  c #4E1944",
"e  c #4F1944",
"r  c #501A45",
"t  c #511E47",
"y  c #521F47",
"u  c #532047",
"i  c #582349",
"p  c #59244A",
"a  c #59264B",
"s  c #59274B",
"d  c #5A274B",
"f  c #5F294C",
"g  c #5F294D",
"h  c #633150",
"j  c #643251",
"k  c #653351",
"l  c #663452",
"z  c #663552",
"x  c #673552",
"c  c #673653",
"v  c #683553",
"b  c #693553",
"n  c #6B3453",
"m  c #683653",
"M  c #693653",
"N  c #6A3753",
"B  c #6A3754",
"V  c #6A3854",
"C  c #6C3955",
"Z  c #6D3A55",
"A  c #6E3B56",
"S  c #6D3C56",
"D  c #6E3D56",
"F  c #6F3E57",
"G  c #6F3F57",
"H  c #703F57",
"J  c #703F58",
"K  c #743E58",
"L  c #753F58",
"P  c #704058",
"I  c #714058",
"U  c #714158",
"Y  c #724058",
"T  c #724158",
"R  c #724159",
"E  c #734159",
"W  c #734259",
"Q  c #734359",
"!  c #744159",
"~  c #764059",
"^  c #744259",
"/  c #744359",
"(  c #75435A",
")  c #75445A",
"_  c #76445A",
"`  c #77445B",
"'  c #77455B",
"]  c #79435A",
"[  c #7B435B",
"{  c #78455B",
"}  c #7B445B",
"|  c #78465B",
" . c #79465B",
".. c #7C445B",
"X. c #7C455B",
"o. c #79475C",
"O. c #7D455C",
"+. c #7D465C",
"@. c #7B485C",
"#. c #7C485D",
"$. c #7D495D",
"%. c #7F485D",
"&. c #7D4A5D",
"*. c #7E4A5D",
"=. c #7E4A5E",
"-. c #7F4A5E",
";. c #7F4B5E",
":. c #80485D",
">. c #80495E",
",. c #814A5E",
"<. c #804C5F",
"1. c #814C5F",
"2. c #814D5F",
"3. c #824D5F",
"4. c #824E60",
"5. c #834E60",
"6. c #844E60",
"7. c #844F60",
"8. c #854F60",
"9. c #875162",
"0. c #885162",
"q. c #885262",
"w. c #895262",
"e. c #895362",
"r. c #895363",
"t. c #8A5363",
"y. c #8B5363",
"u. c #8A5463",
"i. c #8B5463",
"p. c #8B5464",
"a. c #8B5564",
"s. c #8C5564",
"d. c #8D5564",
"f. c #8D5664",
"g. c #8E5664",
"h. c #8E5665",
"j. c #8E5765",
"k. c #8F5765",
"l. c #905765",
"z. c #905865",
"x. c #905866",
"c. c #915866",
"v. c #915966",
"b. c #925966",
"n. c #925A66",
"m. c #925A67",
"M. c #935A67",
"N. c #935B67",
"B. c None",
/* pixels */
"J H G { 0.z.k.k.k.k.z.9.{ { 9.z.k.k.k.k.k.k.k.k.k.k.k.k.k.k.k.k.k.k.z.9.` ` 9.z.k.k.k.k.k.k.k.k.z.0.| H G { 0.x.x.9.` ` 9.z.k.k.",
"{ { { *.r.l.k.k.k.k.z.9.' ' 9.z.k.k.k.k.k.k.k.k.k.k.k.k.k.k.k.k.k.k.l.r.&.*.t.z.k.k.k.k.k.k.k.k.z.0.{ T ( =.t.z.z.w.$.$.w.l.k.k.",
"9.9.9.r.f.k.k.k.k.k.z.9.' ' 9.z.k.k.k.k.k.k.k.k.k.k.k.k.k.k.k.k.k.k.k.f.t.t.g.z.k.k.k.k.k.k.k.k.z.9.{ _ 2.t.g.k.k.f.w.w.f.k.k.k.",
"z.z.z.l.k.k.k.k.k.k.l.e.$.$.t.z.k.k.k.k.k.k.k.k.k.k.k.k.k.k.k.k.k.k.k.g.t.q.9.e.f.k.k.k.k.k.k.l.z.0.{ { q.x.l.k.k.k.l.l.k.k.k.k.",
"k.k.k.k.k.k.k.k.k.k.k.f.r.t.g.z.k.k.k.k.k.k.k.k.k.k.k.k.k.k.k.k.k.l.z.t.=.{ ' $.r.z.z.l.k.k.k.l.x.q.{ { 0.z.l.k.k.k.k.k.k.k.k.k.",
"k.k.k.k.k.k.k.k.k.k.k.k.z.g.e.w.f.l.l.k.k.k.k.k.k.k.k.k.k.k.k.l.l.h.t.3._ I ( &.t.g.r.w.d.k.l.h.t.3._ { 0.z.l.k.k.k.k.k.k.k.k.k.",
"z.l.k.k.k.k.k.k.k.k.k.k.z.r.$.$.t.x.z.z.z.l.k.k.k.k.l.z.z.z.z.z.x.t.=.( Y _ 3.t.h.e.$.$.w.z.x.t.=.( T | q.x.l.k.k.k.k.k.k.k.k.k.",
"0.r.f.k.k.k.k.k.k.k.k.k.l.w.$.@.6.q.0.9.9.e.f.k.k.f.e.9.0.0.9.0.q.3._ F G | w.v.c.r.$.$.e.h.t.3.( G G _ 3.t.g.k.k.k.k.k.k.k.k.k.",
"{ *.r.l.k.k.k.k.k.k.k.k.k.f.t.6.#.{ ' ' ' $.r.z.z.r.$.' { { { { | _ T G G { q.c.x.g.e.r.g.t.=._ Y H J T _ =.t.l.k.k.k.k.k.k.l.z.",
"G { 9.z.k.k.k.k.k.k.k.k.k.l.x.q.{ I ( ' ' $.r.z.z.r.$.( I Y _ _ Y T _ | { #.7.q.0.t.h.c.x.0.{ I _  . ._ I { 9.z.k.k.k.k.l.g.t.0.",
"H { 9.z.k.k.k.k.k.k.k.k.k.l.z.0.' ( 2.0.9.e.f.k.k.f.t.1.( ( 3.3.( ( 3.w.q.7.#.{ ' =.t.v.c.q.{ ( 3.w.w.3.( ' 9.z.k.k.k.l.z.t.=.{ ",
"J | 0.z.l.k.k.k.k.k.k.k.k.z.c.q.| | q.c.x.l.k.k.k.z.c.t.&.=.i.i.=.$.t.c.c.q.{ G J ' 5.r.w.3._ | e.n.n.e. .| 9.z.k.k.k.g.t.3._ H ",
"J | q.x.l.k.k.k.k.k.k.k.k.z.v.r.o. .q.c.z.k.k.k.l.z.x.h.t.t.h.h.t.r.f.z.x.q.{ J I ^ | o. ._ T  .r.M.M.r.o.| 0.z.k.k.l.t.=._ T J ",
"J _ 4.i.k.x.k.k.k.k.z.v.v.y.>.K v C -.p.k.c.c.j.u.q.0.t.h.h.t.r.g.z.k.z.c.r.o.D x h h x D U T ! ] } } L v A 8.v.v.v.v.w.{ H P I ",
"I E ' ;.a.v.z.k.k.k.x.m.M.,.g 8 2 u Z <.s.n.n.a.;.| { =.i.i.=.$.t.z.k.z.v.u.@.c y < < y m Q / V i e e 9 4 p %.N.m.v.b.r.| J P I ",
"R D z v K >.y.v.v.y.:.} X.n 3   X ; a N ~ ....L b l S ' 7.5._ | q.v.v.y.>.L B s : X X > d l l d ; X o o X 5 n X...[ } ] ! T T T ",
"/ m y 1 8 g ,.N.N.,.f q e 7 - + + & > 7 q r r 0 4 t c ) | ' W o.r.M.N.,.g 9 6 , & @ @ * , 6 6 , % + @ @ @ - 7 r r e w i V W W R ",
"k d > X   3 n +.+.n 3 . X @ $ $ $ $ @ @ + + + + O > d k j h h M L X.O.n 3 X + @ $ $ $ $ @ @ @ @ $ $ $ $ $ $ @ + + o X ; d k k j ",
"4 , = + + - 7 r r 7 - + + # $ $ $ $ # # @ @ @ @ @ * , 4 4 4 4 7 q r r 7 - + @ # $ $ $ $ # # # # $ $ B.B.$ $ # @ @ @ + % , 4 4 4 ",
"@ @ $ $ $ $ @ + + @ $ $ $ $ $ $ $ $ $ $ $ $ $ $ $ $ @ @ @ @ @ @ + + + @ $ $ $ $ $ $ $ $ $ $ $ $ $ $ B.B.$ $ $ $ $ $ $ $ @ @ @ @ ",
"# # $ $ $ $ # @ @ # $ $ B.B.B.B.B.B.B.B.B.B.B.B.$ $ # # # # # # @ @ @ # $ $ B.B.B.B.B.B.B.B.B.B.B.B.B.B.B.B.B.B.B.B.$ $ # # # # ",
"$ $ $ $ $ $ $ $ $ $ $ $ B.B.B.B.B.B.B.B.B.B.B.B.$ $ $ $ $ $ $ $ $ $ $ $ $ $ B.B.B.B.B.B.B.B.B.B.B.B.B.B.B.B.B.B.B.B.$ $ $ $ $ $ ",
"B.B.B.B.B.B.B.B.B.B.B.B.B.B.B.B.B.B.B.B.B.B.B.B.B.B.B.B.B.B.B.B.B.B.B.B.B.B.B.B.B.B.B.B.B.B.B.B.B.B.B.B.B.B.B.B.B.B.B.B.B.B.B.B.",
"B.B.B.B.B.B.B.B.B.B.B.B.B.B.B.B.B.B.B.B.B.B.B.B.B.B.B.B.B.B.B.B.B.B.B.B.B.B.B.B.B.B.B.B.B.B.B.B.B.B.B.B.B.B.B.B.B.B.B.B.B.B.B.B.",
"B.B.B.B.B.B.B.B.B.B.B.B.B.B.B.B.B.B.B.B.B.B.B.B.B.B.B.B.B.B.B.B.B.B.B.B.B.B.B.B.B.B.B.B.B.B.B.B.B.B.B.B.B.B.B.B.B.B.B.B.B.B.B.B.",
"B.B.B.B.B.B.B.B.B.B.B.B.B.B.B.B.B.B.B.B.B.B.B.B.B.B.B.B.B.B.B.B.B.B.B.B.B.B.B.B.B.B.B.B.B.B.B.B.B.B.B.B.B.B.B.B.B.B.B.B.B.B.B.B.",
"B.B.B.B.B.B.B.B.B.B.B.B.B.B.B.B.B.B.B.B.B.B.B.B.B.B.B.B.B.B.B.B.B.B.B.B.B.B.B.B.B.B.B.B.B.B.B.B.B.B.B.B.B.B.B.B.B.B.B.B.B.B.B.B.",
"B.B.B.B.B.B.B.B.B.B.B.B.B.B.B.B.B.B.B.B.B.B.B.B.B.B.B.B.B.B.B.B.B.B.B.B.B.B.B.B.B.B.B.B.B.B.B.B.B.B.B.B.B.B.B.B.B.B.B.B.B.B.B.B.",
"B.B.B.B.B.B.B.B.B.B.B.B.B.B.B.B.B.B.B.B.B.B.B.B.B.B.B.B.B.B.B.B.B.B.B.B.B.B.B.B.B.B.B.B.B.B.B.B.B.B.B.B.B.B.B.B.B.B.B.B.B.B.B.B.",
"B.B.B.B.B.B.B.B.B.B.B.B.B.B.B.B.B.B.B.B.B.B.B.B.B.B.B.B.B.B.B.B.B.B.B.B.B.B.B.B.B.B.B.B.B.B.B.B.B.B.B.B.B.B.B.B.B.B.B.B.B.B.B.B.",
"B.B.B.B.B.B.B.B.B.B.B.B.B.B.B.B.B.B.B.B.B.B.B.B.B.B.B.B.B.B.B.B.B.B.B.B.B.B.B.B.B.B.B.B.B.B.B.B.B.B.B.B.B.B.B.B.B.B.B.B.B.B.B.B.",
"B.B.B.B.B.B.B.B.B.B.B.B.B.B.B.B.B.B.B.B.B.B.B.B.B.B.B.B.B.B.B.B.B.B.B.B.B.B.B.B.B.B.B.B.B.B.B.B.B.B.B.B.B.B.B.B.B.B.B.B.B.B.B.B.",
"B.B.B.B.B.B.B.B.B.B.B.B.B.B.B.B.B.B.B.B.B.B.B.B.B.B.B.B.B.B.B.B.B.B.B.B.B.B.B.B.B.B.B.B.B.B.B.B.B.B.B.B.B.B.B.B.B.B.B.B.B.B.B.B.",
"B.B.B.B.B.B.B.B.B.B.B.B.B.B.B.B.B.B.B.B.B.B.B.B.B.B.B.B.B.B.B.B.B.B.B.B.B.B.B.B.B.B.B.B.B.B.B.B.B.B.B.B.B.B.B.B.B.B.B.B.B.B.B.B.",
"B.B.B.B.B.B.B.B.B.B.B.B.B.B.B.B.B.B.B.B.B.B.B.B.B.B.B.B.B.B.B.B.B.B.B.B.B.B.B.B.B.B.B.B.B.B.B.B.B.B.B.B.B.B.B.B.B.B.B.B.B.B.B.B.",
"B.B.B.B.B.B.B.B.B.B.B.B.B.B.B.B.B.B.B.B.B.B.B.B.B.B.B.B.B.B.B.B.B.B.B.B.B.B.B.B.B.B.B.B.B.B.B.B.B.B.B.B.B.B.B.B.B.B.B.B.B.B.B.B.",
"B.B.B.B.B.B.B.B.B.B.B.B.B.B.B.B.B.B.B.B.B.B.B.B.B.B.B.B.B.B.B.B.B.B.B.B.B.B.B.B.B.B.B.B.B.B.B.B.B.B.B.B.B.B.B.B.B.B.B.B.B.B.B.B.",
"B.B.B.B.B.B.B.B.B.B.B.B.B.B.B.B.B.B.B.B.B.B.B.B.B.B.B.B.B.B.B.B.B.B.B.B.B.B.B.B.B.B.B.B.B.B.B.B.B.B.B.B.B.B.B.B.B.B.B.B.B.B.B.B.",
"B.B.B.B.B.B.B.B.B.B.B.B.B.B.B.B.B.B.B.B.B.B.B.B.B.B.B.B.B.B.B.B.B.B.B.B.B.B.B.B.B.B.B.B.B.B.B.B.B.B.B.B.B.B.B.B.B.B.B.B.B.B.B.B.",
"B.B.B.B.B.B.B.B.B.B.B.B.B.B.B.B.B.B.B.B.B.B.B.B.B.B.B.B.B.B.B.B.B.B.B.B.B.B.B.B.B.B.B.B.B.B.B.B.B.B.B.B.B.B.B.B.B.B.B.B.B.B.B.B.",
"B.B.B.B.B.B.B.B.B.B.B.B.B.B.B.B.B.B.B.B.B.B.B.B.B.B.B.B.B.B.B.B.B.B.B.B.B.B.B.B.B.B.B.B.B.B.B.B.B.B.B.B.B.B.B.B.B.B.B.B.B.B.B.B.",
"B.B.B.B.B.B.B.B.B.B.B.B.B.B.B.B.B.B.B.B.B.B.B.B.B.B.B.B.B.B.B.B.B.B.B.B.B.B.B.B.B.B.B.B.B.B.B.B.B.B.B.B.B.B.B.B.B.B.B.B.B.B.B.B.",
"B.B.B.B.B.B.B.B.B.B.B.B.B.B.B.B.B.B.B.B.B.B.B.B.B.B.B.B.B.B.B.B.B.B.B.B.B.B.B.B.B.B.B.B.B.B.B.B.B.B.B.B.B.B.B.B.B.B.B.B.B.B.B.B.",
"B.B.B.B.B.B.B.B.B.B.B.B.B.B.B.B.B.B.B.B.B.B.B.B.B.B.B.B.B.B.B.B.B.B.B.B.B.B.B.B.B.B.B.B.B.B.B.B.B.B.B.B.B.B.B.B.B.B.B.B.B.B.B.B.",
"B.B.B.B.B.B.B.B.B.B.B.B.B.B.B.B.B.B.B.B.B.B.B.B.B.B.B.B.B.B.B.B.B.B.B.B.B.B.B.B.B.B.B.B.B.B.B.B.B.B.B.B.B.B.B.B.B.B.B.B.B.B.B.B.",
"B.B.B.B.B.B.B.B.B.B.B.B.B.B.B.B.B.B.B.B.B.B.B.B.B.B.B.B.B.B.B.B.B.B.B.B.B.B.B.B.B.B.B.B.B.B.B.B.B.B.B.B.B.B.B.B.B.B.B.B.B.B.B.B.",
"B.B.B.B.B.B.B.B.B.B.B.B.B.B.B.B.B.B.B.B.B.B.B.B.B.B.B.B.B.B.B.B.B.B.B.B.B.B.B.B.B.B.B.B.B.B.B.B.B.B.B.B.B.B.B.B.B.B.B.B.B.B.B.B.",
"B.B.B.B.B.B.B.B.B.B.B.B.B.B.B.B.B.B.B.B.B.B.B.B.B.B.B.B.B.B.B.B.B.B.B.B.B.B.B.B.B.B.B.B.B.B.B.B.B.B.B.B.B.B.B.B.B.B.B.B.B.B.B.B.",
"B.B.B.B.B.B.B.B.B.B.B.B.B.B.B.B.B.B.B.B.B.B.B.B.B.B.B.B.B.B.B.B.B.B.B.B.B.B.B.B.B.B.B.B.B.B.B.B.B.B.B.B.B.B.B.B.B.B.B.B.B.B.B.B.",
"B.B.B.B.B.B.B.B.B.B.B.B.B.B.B.B.B.B.B.B.B.B.B.B.B.B.B.B.B.B.B.B.B.B.B.B.B.B.B.B.B.B.B.B.B.B.B.B.B.B.B.B.B.B.B.B.B.B.B.B.B.B.B.B.",
"B.B.B.B.B.B.B.B.B.B.B.B.B.B.B.B.B.B.B.B.B.B.B.B.B.B.B.B.B.B.B.B.B.B.B.B.B.B.B.B.B.B.B.B.B.B.B.B.B.B.B.B.B.B.B.B.B.B.B.B.B.B.B.B.",
"B.B.B.B.B.B.B.B.B.B.B.B.B.B.B.B.B.B.B.B.B.B.B.B.B.B.B.B.B.B.B.B.B.B.B.B.B.B.B.B.B.B.B.B.B.B.B.B.B.B.B.B.B.B.B.B.B.B.B.B.B.B.B.B.",
"B.B.B.B.B.B.B.B.B.B.B.B.B.B.B.B.B.B.B.B.B.B.B.B.B.B.B.B.B.B.B.B.B.B.B.B.B.B.B.B.B.B.B.B.B.B.B.B.B.B.B.B.B.B.B.B.B.B.B.B.B.B.B.B.",
"B.B.B.B.B.B.B.B.B.B.B.B.B.B.B.B.B.B.B.B.B.B.B.B.B.B.B.B.B.B.B.B.B.B.B.B.B.B.B.B.B.B.B.B.B.B.B.B.B.B.B.B.B.B.B.B.B.B.B.B.B.B.B.B.",
"B.B.B.B.B.B.B.B.B.B.B.B.B.B.B.B.B.B.B.B.B.B.B.B.B.B.B.B.B.B.B.B.B.B.B.B.B.B.B.B.B.B.B.B.B.B.B.B.B.B.B.B.B.B.B.B.B.B.B.B.B.B.B.B.",
"B.B.B.B.B.B.B.B.B.B.B.B.B.B.B.B.B.B.B.B.B.B.B.B.B.B.B.B.B.B.B.B.B.B.B.B.B.B.B.B.B.B.B.B.B.B.B.B.B.B.B.B.B.B.B.B.B.B.B.B.B.B.B.B.",
"B.B.B.B.B.B.B.B.B.B.B.B.B.B.B.B.B.B.B.B.B.B.B.B.B.B.B.B.B.B.B.B.B.B.B.B.B.B.B.B.B.B.B.B.B.B.B.B.B.B.B.B.B.B.B.B.B.B.B.B.B.B.B.B.",
"B.B.B.B.B.B.B.B.B.B.B.B.B.B.B.B.B.B.B.B.B.B.B.B.B.B.B.B.B.B.B.B.B.B.B.B.B.B.B.B.B.B.B.B.B.B.B.B.B.B.B.B.B.B.B.B.B.B.B.B.B.B.B.B.",
"B.B.B.B.B.B.B.B.B.B.B.B.B.B.B.B.B.B.B.B.B.B.B.B.B.B.B.B.B.B.B.B.B.B.B.B.B.B.B.B.B.B.B.B.B.B.B.B.B.B.B.B.B.B.B.B.B.B.B.B.B.B.B.B.",
"B.B.B.B.B.B.B.B.B.B.B.B.B.B.B.B.B.B.B.B.B.B.B.B.B.B.B.B.B.B.B.B.B.B.B.B.B.B.B.B.B.B.B.B.B.B.B.B.B.B.B.B.B.B.B.B.B.B.B.B.B.B.B.B.",
"B.B.B.B.B.B.B.B.B.B.B.B.B.B.B.B.B.B.B.B.B.B.B.B.B.B.B.B.B.B.B.B.B.B.B.B.B.B.B.B.B.B.B.B.B.B.B.B.B.B.B.B.B.B.B.B.B.B.B.B.B.B.B.B.",
"B.B.B.B.B.B.B.B.B.B.B.B.B.B.B.B.B.B.B.B.B.B.B.B.B.B.B.B.B.B.B.B.B.B.B.B.B.B.B.B.B.B.B.B.B.B.B.B.B.B.B.B.B.B.B.B.B.B.B.B.B.B.B.B.",
"B.B.B.B.B.B.B.B.B.B.B.B.B.B.B.B.B.B.B.B.B.B.B.B.B.B.B.B.B.B.B.B.B.B.B.B.B.B.B.B.B.B.B.B.B.B.B.B.B.B.B.B.B.B.B.B.B.B.B.B.B.B.B.B.",
"B.B.B.B.B.B.B.B.B.B.B.B.B.B.B.B.B.B.B.B.B.B.B.B.B.B.B.B.B.B.B.B.B.B.B.B.B.B.B.B.B.B.B.B.B.B.B.B.B.B.B.B.B.B.B.B.B.B.B.B.B.B.B.B."
};
